<svg data-name="Layer 1" xmlns="http://www.w3.org/2000/svg" viewBox="0 0 588 440">
  <defs>
    <clipPath id="a">
      <path d="M75.75 268.05V97.28a3.06 3.06 0 01.36-1.46 3 3 0 011-1.06 3.16 3.16 0 011.33-.53 3.21 3.21 0 011.49.16l100.58 36.55L281 167.49 381.61 204l100.58 36.54a6.4 6.4 0 011.68.93 6.18 6.18 0 012.12 3 6.21 6.21 0 01.29 1.88v170.84a3.06 3.06 0 01-.36 1.46 3.12 3.12 0 01-.95 1.06 3 3 0 01-1.32.52 3.13 3.13 0 01-1.5-.15l-100.57-36.55L281 347l-100.58-36.57-100.57-36.54a6.24 6.24 0 01-1.68-.93 6.18 6.18 0 01-2.12-3 5.92 5.92 0 01-.3-1.91z" fill="none"/>
    </clipPath>
  </defs>
  <path d="M88.35 276.87l-2.94 1.07-2.94 1.06-2.94 1.07-3 1.07a1.18 1.18 0 00-.57 1.76 1.08 1.08 0 00.57.45l101.74 37 101.74 37 101.74 37 101.74 37a4.39 4.39 0 00.79.21 4.78 4.78 0 001.63 0 4.62 4.62 0 00.79-.21l2.94-1.07 2.94-1.07 2.94-1.07 2.94-1.07a1.17 1.17 0 00.58-.45 1.17 1.17 0 000-1.31 1.12 1.12 0 00-.58-.45L396.78 388 295 350.93l-101.74-37-101.74-37a5.41 5.41 0 00-.79-.21 4.78 4.78 0 00-1.63 0 5.41 5.41 0 00-.75.15z" fill="#6300ff" opacity=".15"/>
  <path d="M494 236.36l-100.59-36.55-100.57-36.55-100.58-36.55L91.68 90.17a3 3 0 00-.57-.15 2.59 2.59 0 00-.56 0A2.42 2.42 0 0090 90a2.86 2.86 0 00-.52.16l-2.91 1-2.91 1-2.9 1-2.91 1a2.85 2.85 0 00-.83.43 3 3 0 00-.68.65 3.08 3.08 0 00-.45.84 3.16 3.16 0 00-.16 1v170.97a5.92 5.92 0 00.3 1.88 6.18 6.18 0 002.12 3 6.24 6.24 0 001.68.93L180.4 310.4 281 347l100.58 36.55 100.57 36.55a3.41 3.41 0 00.55.14 3.23 3.23 0 00.53 0 3.17 3.17 0 00.53-.05 3.12 3.12 0 00.5-.14l2.93-1.05 2.94-1 2.93-1.05 2.93-1.05a3.09 3.09 0 00.83-.42 3.17 3.17 0 00.67-.65 2.81 2.81 0 00.44-.84 2.94 2.94 0 00.16-1v-170.8a6.21 6.21 0 00-.29-1.88 6.18 6.18 0 00-3.8-3.95z" fill="#fff" opacity=".97"/>
  <path d="M496.9 238.56l-2.9 1.05-3 1.06-2.95 1.06-2.95 1.05a6.19 6.19 0 01.5.82 5.65 5.65 0 01.37.88 6 6 0 01.23.95 5.33 5.33 0 01.08 1v170.76a3.08 3.08 0 01-.15 1 3.11 3.11 0 01-.43.83 3.28 3.28 0 01-.64.65 3.09 3.09 0 01-.8.43l2.93-1.05 2.94-1 2.93-1.05 2.93-1.05a3.09 3.09 0 00.83-.42 3.17 3.17 0 00.67-.65 2.81 2.81 0 00.44-.84 2.94 2.94 0 00.16-1V242.19a5.33 5.33 0 00-.08-1 6 6 0 00-.23-1 6.2 6.2 0 00-.37-.89 8.39 8.39 0 00-.51-.74z" fill="#340096" opacity=".05"/>
  <path d="M484.26 420.07h0l2.93-1.05 2.94-1 2.93-1.05 2.93-1.05h0a3.09 3.09 0 00.83-.42 3.17 3.17 0 00.67-.65 2.81 2.81 0 00.44-.84 2.94 2.94 0 00.16-1V242.19a6.21 6.21 0 00-.29-1.88 6.18 6.18 0 00-3.8-3.95l-100.59-36.55-100.57-36.55-100.58-36.55L91.68 90.17a3 3 0 00-.57-.15 2.59 2.59 0 00-.56 0A2.42 2.42 0 0090 90a2.86 2.86 0 00-.52.16h0l-2.91 1-2.91 1-2.9 1-2.91 1h0" fill="none" stroke="#340096" stroke-linejoin="round" stroke-width="2"/>
  <g clip-path="url(#a)" fill="none" stroke-linejoin="round">
    <path stroke="#340096" opacity=".12" d="M496.14 291l-107.36-39.06-107.36-39.05-107.36-39.06L66.7 134.78M496.31 335.29l-107.37-39.05-107.36-39.06-107.36-39.05-107.36-39.06M496.47 379.58l-107.36-39.05-107.36-39.05-107.36-39.06-107.36-39.05"/>
    <path stroke="#ff0061" stroke-width="2" d="M65.83 243.54l5.65 3.25 5.66 3.24 5.64 3.25 5.66 3.24 6.45-1.31 6.46-1.3 6.46-1.31 6.46-1.3 7.83.5 7.84.5 7.84.5 7.83.5 12.88-1.32 12.88-1.32 12.87-1.32 12.88-1.32 3.79-5.4 3.78-5.41 3.79-5.4 3.79-5.4 4.72 12.2 4.72 12.19 4.73 12.2 4.72 12.2 6.05.59 6.04.6 6.04.6 6.05.6 5.9 10.45 5.89 10.46 5.9 10.45 5.89 10.46 11.04-10.46 11.05-10.45 11.04-10.46 11.05-10.45 5.63-14.65 5.63-14.65 5.63-14.64 5.63-14.65 2.45 13.96 2.46 13.96 2.45 13.96 2.45 13.96 4.48 7.82 4.48 7.82 4.49 7.81 4.48 7.82 3.86 10.66 3.86 10.66 3.86 10.66 3.86 10.66 4.88-3.1 4.87-3.1 4.88-3.1 4.87-3.1 4.2 6.5 4.2 6.49 4.2 6.5 4.2 6.5 5.08 1.92 5.07 1.91 5.08 1.92 5.07 1.92 5.43 5.72 5.43 5.72 5.42 5.72 5.43 5.72 4.8 1.65 4.8 1.65 4.8 1.64 4.8 1.65"/>
  </g>
  <path d="M75.75 268.05V97.28a3.06 3.06 0 01.36-1.46 3 3 0 011-1.06 3.16 3.16 0 011.33-.53 3.21 3.21 0 011.49.16l100.58 36.55L281 167.49 381.61 204l100.58 36.54a6.4 6.4 0 011.68.93 6.18 6.18 0 012.12 3 6.21 6.21 0 01.29 1.88v170.84a3.06 3.06 0 01-.36 1.46 3.12 3.12 0 01-.95 1.06 3 3 0 01-1.32.52 3.13 3.13 0 01-1.5-.15l-100.57-36.55L281 347l-100.58-36.57-100.57-36.54a6.24 6.24 0 01-1.68-.93 6.18 6.18 0 01-2.12-3 5.92 5.92 0 01-.3-1.91z" fill="none" stroke="#340096" stroke-linejoin="round" stroke-width="2"/>
  <path d="M191.05 341.83v-9.5l5.59 2v1.47l-4-1.45v2.48l3.58 1.31v1.46l-3.58-1.3v4.08zM201.85 345.92a4.32 4.32 0 01-1.44-.85 4.73 4.73 0 01-1-1.33 6.55 6.55 0 01-.59-1.75 11.2 11.2 0 01-.19-2.16 9 9 0 01.19-2 3.1 3.1 0 01.59-1.33 1.62 1.62 0 011-.59 2.74 2.74 0 011.44.19 4.23 4.23 0 012.45 2.19 8.74 8.74 0 01.78 3.9 5.57 5.57 0 01-.78 3.34c-.52.67-1.3.8-2.45.39zm0-1.44a1.19 1.19 0 00.72.08.8.8 0 00.48-.35 2.2 2.2 0 00.25-.75 5.8 5.8 0 00.08-1.08v-1.63a5.59 5.59 0 00-.33-2.06 2 2 0 00-1.2-1.15c-.57-.21-1-.12-1.19.28a3.7 3.7 0 00-.34 1.81v1.64a5.47 5.47 0 00.34 2.07 2 2 0 001.19 1.14zM208.91 348.33l-1.61-.58v-9.5l3.25 1.18a3.67 3.67 0 011.91 1.49 4.31 4.31 0 01.66 2.39 2.54 2.54 0 01-.44 1.6 1.25 1.25 0 01-1.24.45l1.82 4.56-1.76-.64-1.63-4.28-1-.36zm1.31-4.6c.43.16.74.18.93 0a1 1 0 00.28-.83v-.52a1.8 1.8 0 00-.28-1 1.9 1.9 0 00-.93-.64l-1.31-.47v3zM215.48 350.73v-9.5l5.4 2v1.47l-3.79-1.39v2.48l3.66 1.34v1.47l-3.66-1.34v2.61l3.79 1.39v1.47zM226.5 354.91a4.41 4.41 0 01-2.48-2.18 8.67 8.67 0 01-.8-3.93 5.39 5.39 0 01.8-3.33c.54-.67 1.36-.79 2.48-.39a4.41 4.41 0 011.12.6 4.09 4.09 0 01.84.82 4.68 4.68 0 01.59 1 6.84 6.84 0 01.37 1.16l-1.42-.06c-.06-.23-.12-.46-.2-.68a2.74 2.74 0 00-.27-.6 1.85 1.85 0 00-.41-.47 1.88 1.88 0 00-.59-.33c-.56-.21-.95-.11-1.2.27a3.54 3.54 0 00-.36 1.81v1.64a5.26 5.26 0 00.36 2.07 2.06 2.06 0 001.2 1.15 1.52 1.52 0 00.59.1.73.73 0 00.41-.18 1.08 1.08 0 00.27-.4 3.39 3.39 0 00.2-.54l1.47 1a3.45 3.45 0 01-.37.89 1.67 1.67 0 01-.59.59 1.8 1.8 0 01-.84.21 3.2 3.2 0 01-1.17-.22zM236.25 358.3l-.6-2.64-2.53-.93-.59 2.21-1.62-.59 2.4-8.62 2.23.81 2.46 10.38zm-1.81-8.41h-.1l-.94 3.53 2 .73zM242.47 360.73a5.74 5.74 0 01-1.88-1.11 6.26 6.26 0 01-1.27-1.56l1-.77a5.33 5.33 0 001 1.29 3.62 3.62 0 001.19.72 1.32 1.32 0 001.13 0 1 1 0 00.39-.92 1.59 1.59 0 00-.3-1 2.8 2.8 0 00-1-.78l-.9-.49a4.13 4.13 0 01-1.69-1.58 3.84 3.84 0 01-.51-1.9 1.87 1.87 0 01.8-1.8 2.69 2.69 0 012.2.08 5.66 5.66 0 011.74 1 5.44 5.44 0 011.17 1.38l-.95.78a4.09 4.09 0 00-.82-1 3.16 3.16 0 00-1.12-.67c-.93-.34-1.4-.08-1.4.78a1.57 1.57 0 00.29.94 3.28 3.28 0 001 .79l.89.5a4.48 4.48 0 011.66 1.52 3.68 3.68 0 01.53 1.93 3 3 0 01-.2 1.15 1.62 1.62 0 01-.62.72 1.82 1.82 0 01-1 .26 4 4 0 01-1.33-.26zM251.51 355.83v8l-1.59-.58v-8l-2.58-.94v-1.47l6.74 2.46v1.47zM256.14 365.55v-1.34l1.92.7v-6.83l-1.92-.7v-1.33l5.43 2v1.33l-1.92-.7v6.83l1.92.7v1.34zM265.64 362.19h-.12V369l-1.37-.5V359l2 .72 2.24 7.64h.12v-6.82l1.37.5v9.5l-2-.71zM276.62 371.69h-.09a4.25 4.25 0 01-.27.46 1.16 1.16 0 01-.4.33 1.26 1.26 0 01-.54.13 2.07 2.07 0 01-.72-.14 3.46 3.46 0 01-2-2 9.41 9.41 0 01-.67-3.82 5.65 5.65 0 01.78-3.41 2 2 0 012.42-.4 4.14 4.14 0 011.12.6 4 4 0 01.83.82 5.09 5.09 0 01.58 1 7.2 7.2 0 01.36 1.14l-1.47-.07c-.06-.22-.12-.44-.19-.65a2.74 2.74 0 00-.27-.6 2.32 2.32 0 00-.4-.48 1.59 1.59 0 00-.58-.34c-.53-.2-.91-.1-1.13.29a3.66 3.66 0 00-.35 1.81v1.53a8.31 8.31 0 00.08 1.15 4 4 0 00.27 1 2.53 2.53 0 00.47.74 1.86 1.86 0 00.74.46 1 1 0 001-.07 1.35 1.35 0 00.35-1v-.77l-1.55-.57v-1.29l3 1.09v5l-1.44-.52zM293.12 374.63l.07-2.73h-.11l-1.65 4.29-1.66-5.49h-.11l.08 2.77v4.4l-1.4-.51v-9.5l1.91.7 1.19 3.93h.09l1.2-3.06 1.78.65v9.5l-1.39-.51zM299.57 381.54a4.25 4.25 0 01-1.44-.86 4.46 4.46 0 01-1-1.33 6.43 6.43 0 01-.59-1.75 11.1 11.1 0 01-.19-2.15 9.15 9.15 0 01.19-2 3.15 3.15 0 01.59-1.33 1.62 1.62 0 011-.59 2.86 2.86 0 011.44.19 4.3 4.3 0 012.43 2.18 8.74 8.74 0 01.78 3.9 5.54 5.54 0 01-.78 3.34c-.5.67-1.32.8-2.43.4zm0-1.44a1.18 1.18 0 00.72.07.8.8 0 00.48-.35 2.05 2.05 0 00.25-.75 5.8 5.8 0 00.08-1.08v-1.63a5.63 5.63 0 00-.33-2.06 2 2 0 00-1.2-1.15c-.57-.2-1-.11-1.19.28a3.72 3.72 0 00-.34 1.82v1.64a5.41 5.41 0 00.34 2.06 1.94 1.94 0 001.19 1.15zM304.93 373.83l2.66 1a4.39 4.39 0 012.48 2.13 7.94 7.94 0 01.82 3.82 4.87 4.87 0 01-.82 3.23 2.1 2.1 0 01-2.48.32l-2.66-1zm2.55 9c.59.21 1 .16 1.31-.17a2.62 2.62 0 00.42-1.7v-1.64a4.26 4.26 0 00-.42-2 2.4 2.4 0 00-1.31-1.11l-1-.35v6.61zM313.2 386.34v-9.5l5.4 2v1.47l-3.8-1.38v2.47l3.67 1.34v1.47l-3.67-1.34v2.62l3.8 1.38v1.47zM321.55 389.39v-9.5l1.61.58v8l3.78 1.38v1.47z" fill="#340096"/>
  <path d="M160 56.76a23.1 23.1 0 00-4.14-3.38 18 18 0 00-4.3-2 14.14 14.14 0 00-4.25-.61 11.73 11.73 0 00-4 .75l-1.08.39-1.08.39-1.15.4-1.08.4v.05a11 11 0 00-2.64.72 11.44 11.44 0 00-2.28 1.49 13 13 0 00-2.13 2 15.45 15.45 0 00-1.78 2.58 19.61 19.61 0 00-2.2 7.3 27.54 27.54 0 00.4 8.21 31.47 31.47 0 002.82 8.14 28.72 28.72 0 005 7.07 22.56 22.56 0 004.53 3.62 17.23 17.23 0 004.69 2 13.42 13.42 0 004.6.33 11.57 11.57 0 004.22-1.29v.06l1.24-.46 1.25-.46 1.24-.46 1.25-.46a11.46 11.46 0 002-.92 12 12 0 001.87-1.33 14 14 0 003-3.81 19.61 19.61 0 002.2-7.3 27.21 27.21 0 00-.4-8.21 31.47 31.47 0 00-2.8-8.14 28.72 28.72 0 00-5-7.07z" fill="#fff" opacity=".95"/>
  <path d="M141.37 66.72a6.71 6.71 0 00.25 1.78 7.4 7.4 0 00.69 1.63 5.58 5.58 0 001 1.3 3.85 3.85 0 001.25.8 2.28 2.28 0 001.25.11 2.08 2.08 0 001-.55 3.09 3.09 0 00.69-1.13 4.82 4.82 0 00.25-1.59 6.71 6.71 0 00-.25-1.78 7.6 7.6 0 00-.69-1.63 5.79 5.79 0 00-1-1.3 3.66 3.66 0 00-1.25-.79 2.2 2.2 0 00-1.25-.12 2.08 2.08 0 00-1 .55 3.09 3.09 0 00-.69 1.13 4.82 4.82 0 00-.25 1.59z" fill="#fff"/>
  <path d="M141.37 66.72a6.71 6.71 0 00.25 1.78 7.4 7.4 0 00.69 1.63 5.58 5.58 0 001 1.3 3.85 3.85 0 001.25.8 2.28 2.28 0 001.25.11 2.08 2.08 0 001-.55 3.09 3.09 0 00.69-1.13 4.82 4.82 0 00.25-1.59 6.71 6.71 0 00-.25-1.78 7.6 7.6 0 00-.69-1.63 5.79 5.79 0 00-1-1.3 3.66 3.66 0 00-1.25-.79 2.2 2.2 0 00-1.25-.12 2.08 2.08 0 00-1 .55 3.09 3.09 0 00-.69 1.13 4.82 4.82 0 00-.25 1.59z" fill="none" stroke="#340096" stroke-linejoin="round" stroke-width="2"/>
  <path d="M148.76 86.93a1.08 1.08 0 00.53 0 1.06 1.06 0 00.46-.2 1.05 1.05 0 00.42-.91 18.53 18.53 0 00-.52-3.33 12.8 12.8 0 00-1.08-2.9 8.48 8.48 0 00-1.68-2.28 6.42 6.42 0 00-2.3-1.45 4.12 4.12 0 00-2.32-.24 3.17 3.17 0 00-1.73 1 5.79 5.79 0 00-1.14 2.09 12.72 12.72 0 00-.56 2.92 2.21 2.21 0 00.06.68 2.17 2.17 0 00.27.6 2.34 2.34 0 00.45.49 2.22 2.22 0 00.6.34l2.13.77 2.14.78 2.13.78z" fill="#fff"/>
  <path d="M148.76 86.93a1.08 1.08 0 00.53 0 1.06 1.06 0 00.46-.2 1.05 1.05 0 00.42-.91 18.53 18.53 0 00-.52-3.33 12.8 12.8 0 00-1.08-2.9 8.48 8.48 0 00-1.68-2.28 6.42 6.42 0 00-2.3-1.45 4.12 4.12 0 00-2.32-.24 3.17 3.17 0 00-1.73 1 5.79 5.79 0 00-1.14 2.09 12.72 12.72 0 00-.56 2.92 2.21 2.21 0 00.06.68 2.17 2.17 0 00.27.6 2.34 2.34 0 00.45.49 2.22 2.22 0 00.6.34l2.13.77 2.14.78 2.13.78z" fill="none" stroke="#340096" stroke-miterlimit="10" stroke-width="2"/>
  <path d="M154.16 95.23v.06h0v0l1.24-.46 1.25-.46 1.24-.46 1.25-.46a11.46 11.46 0 002-.92 12 12 0 001.86-1.24 14 14 0 003-3.81 19.61 19.61 0 002.2-7.3 27.21 27.21 0 00-.4-8.21 31.47 31.47 0 00-2.8-8.14 28.72 28.72 0 00-5-7.07 23.1 23.1 0 00-4.14-3.38 18 18 0 00-4.3-2 14.14 14.14 0 00-4.25-.61 11.73 11.73 0 00-4 .75l-1.08.39-1.08.39-1.15.4-1.08.4h0v.05h0" fill="none" stroke="#340096" stroke-miterlimit="10" stroke-width="2"/>
  <path d="M165 63.91l-1.64.59-1.65.6-1.64.6-1.65.6a31.48 31.48 0 012.32 6 29.92 29.92 0 011 6.22 24.57 24.57 0 01-.41 6 18.58 18.58 0 01-1.9 5.33 15.5 15.5 0 01-1.1 1.73 13.93 13.93 0 01-1.26 1.46 11.34 11.34 0 01-1.4 1.21 12 12 0 01-1.51 1v.06l1.24-.46 1.25-.46 1.24-.46 1.25-.46a11.46 11.46 0 002-.92 12 12 0 001.86-1.26 14 14 0 003-3.81 18.58 18.58 0 001.9-5.33 24.61 24.61 0 00.41-6 29.81 29.81 0 00-1-6.22 31 31 0 00-2.31-6.02z" fill="#340096" opacity=".08"/>
  <path d="M136.12 90.61a28.72 28.72 0 01-5-7.07 31.47 31.47 0 01-2.82-8.14 27.54 27.54 0 01-.4-8.21 19.61 19.61 0 012.2-7.3 13.45 13.45 0 014.52-5 11.54 11.54 0 015.88-1.78 14.56 14.56 0 016.5 1.44 21.49 21.49 0 016.39 4.6 28.72 28.72 0 015 7.07 31.47 31.47 0 012.82 8.14 27.21 27.21 0 01.4 8.21 19.61 19.61 0 01-2.2 7.3 13.27 13.27 0 01-4.51 4.95 11.68 11.68 0 01-5.9 1.79 14.74 14.74 0 01-6.52-1.4 21.62 21.62 0 01-6.36-4.6z" fill="none" stroke="#340096" stroke-miterlimit="10" stroke-width="2"/>
  <path fill="none" stroke="#3b009b" stroke-linejoin="round" stroke-dasharray="2,2" opacity=".25" d="M145.61 252.25V117.71"/>
  <path fill="none" stroke="#3b009b" stroke-linejoin="round" stroke-dasharray="2,2" d="M145.61 95.14v22.57"/>
  <path fill="none" stroke="#3b009b" stroke-linejoin="round" stroke-dasharray="2,2" opacity=".25" d="M212.27 223.27v-81.3"/>
  <path fill="none" stroke="#3b009b" stroke-linejoin="round" stroke-dasharray="2,2" d="M212.27 119.4v22.57"/>
  <path fill="none" stroke="#3b009b" stroke-linejoin="round" stroke-dasharray="2,2" opacity=".25" d="M278.92 319.41V166.24"/>
  <path fill="none" stroke="#3b009b" stroke-linejoin="round" stroke-dasharray="2,2" d="M278.92 143.66v22.58"/>
  <path fill="none" stroke="#3b009b" stroke-linejoin="round" stroke-dasharray="2,2" opacity=".25" d="M345.58 219v-28.5"/>
  <path fill="none" stroke="#3b009b" stroke-linejoin="round" stroke-dasharray="2,2" d="M345.58 167.92v22.58"/>
  <path fill="none" stroke="#3b009b" stroke-linejoin="round" stroke-dasharray="2,2" opacity=".25" d="M408.3 336.35V213.32"/>
  <path fill="none" stroke="#3b009b" stroke-linejoin="round" stroke-dasharray="2,2" d="M408.3 190.75v22.57"/>
  <path d="M290.38 104.31a23.1 23.1 0 00-4.14-3.38 18 18 0 00-4.3-2 14.14 14.14 0 00-4.25-.61 11.73 11.73 0 00-4 .75l-1.08.39-1.08.39-1.07.39-1.08.4a11 11 0 00-2.64.72 11.44 11.44 0 00-2.41 1.34 12.6 12.6 0 00-2.13 2 15 15 0 00-1.78 2.57 19.61 19.61 0 00-2.2 7.3 27.54 27.54 0 00.4 8.21 31.47 31.47 0 002.82 8.14 28.72 28.72 0 005 7.07 22.56 22.56 0 004.53 3.62 16.92 16.92 0 004.69 2 13.42 13.42 0 004.6.33 11.57 11.57 0 004.22-1.29v.1l1.24-.46 1.25-.46 1.24-.46 1.25-.46a11.46 11.46 0 002-.92 12 12 0 001.83-1.31 13.93 13.93 0 001.62-1.71 14.7 14.7 0 001.39-2.1 19.61 19.61 0 002.2-7.3 27.54 27.54 0 00-.4-8.21 31.47 31.47 0 00-2.82-8.14 28.72 28.72 0 00-4.9-6.91z" fill="#fff" opacity=".95"/>
  <path d="M271.8 114.27a6.71 6.71 0 00.25 1.78 7.4 7.4 0 00.69 1.63 5.58 5.58 0 001 1.3 3.85 3.85 0 001.25.8 2.28 2.28 0 001.25.11 2.08 2.08 0 001-.55 3.09 3.09 0 00.69-1.13 4.82 4.82 0 00.25-1.59 6.71 6.71 0 00-.25-1.78 7.32 7.32 0 00-.69-1.62 5.63 5.63 0 00-1-1.31 3.66 3.66 0 00-1.25-.79 2.2 2.2 0 00-1.25-.12 2.08 2.08 0 00-1 .55 3.09 3.09 0 00-.69 1.13 4.82 4.82 0 00-.25 1.59z" fill="#fff"/>
  <path d="M271.8 114.27a6.71 6.71 0 00.25 1.78 7.4 7.4 0 00.69 1.63 5.58 5.58 0 001 1.3 3.85 3.85 0 001.25.8 2.28 2.28 0 001.25.11 2.08 2.08 0 001-.55 3.09 3.09 0 00.69-1.13 4.82 4.82 0 00.25-1.59 6.71 6.71 0 00-.25-1.78 7.32 7.32 0 00-.69-1.62 5.63 5.63 0 00-1-1.31 3.66 3.66 0 00-1.25-.79 2.2 2.2 0 00-1.25-.12 2.08 2.08 0 00-1 .55 3.09 3.09 0 00-.69 1.13 4.82 4.82 0 00-.25 1.59z" fill="none" stroke="#340096" stroke-linejoin="round" stroke-width="2"/>
  <path d="M279.19 134.48a1 1 0 00.53.05 1.06 1.06 0 00.46-.2.94.94 0 00.32-.39 1.13 1.13 0 00.1-.52 18.53 18.53 0 00-.52-3.33 12.8 12.8 0 00-1.08-2.9 8.48 8.48 0 00-1.68-2.28 6.42 6.42 0 00-2.3-1.45 4.12 4.12 0 00-2.32-.24 3.17 3.17 0 00-1.73 1 5.79 5.79 0 00-1.14 2.09 12.72 12.72 0 00-.56 2.92 2.21 2.21 0 00.06.68 2.17 2.17 0 00.27.6 2.34 2.34 0 00.45.49 2.22 2.22 0 00.6.34l2.13.77 2.14.78 2.13.78z" fill="#fff"/>
  <path d="M279.19 134.48a1 1 0 00.53.05 1.06 1.06 0 00.46-.2.94.94 0 00.32-.39 1.13 1.13 0 00.1-.52 18.53 18.53 0 00-.52-3.33 12.8 12.8 0 00-1.08-2.9 8.48 8.48 0 00-1.68-2.28 6.42 6.42 0 00-2.3-1.45 4.12 4.12 0 00-2.32-.24 3.17 3.17 0 00-1.73 1 5.79 5.79 0 00-1.14 2.09 12.72 12.72 0 00-.56 2.92 2.21 2.21 0 00.06.68 2.17 2.17 0 00.27.6 2.34 2.34 0 00.45.49 2.22 2.22 0 00.6.34l2.13.77 2.14.78 2.13.78z" fill="none" stroke="#340096" stroke-miterlimit="10" stroke-width="2"/>
  <path d="M284.59 142.78v.1h0l1.24-.46 1.25-.46 1.24-.46 1.25-.46a11.46 11.46 0 002-.92 12 12 0 001.83-1.31 13.93 13.93 0 001.62-1.71 14.7 14.7 0 001.39-2.1 19.61 19.61 0 002.2-7.3 27.54 27.54 0 00-.4-8.21 31.47 31.47 0 00-2.82-8.14 28.72 28.72 0 00-5-7.07 23.1 23.1 0 00-4.14-3.38 18 18 0 00-4.3-2 14.14 14.14 0 00-4.25-.61 11.73 11.73 0 00-4 .75l-1.08.39-1.08.39-1.07.39-1.08.4h0v0h0" fill="none" stroke="#340096" stroke-miterlimit="10" stroke-width="2"/>
  <path d="M295.45 111.46l-1.64.59-1.65.6-1.64.6-1.65.6a31.48 31.48 0 012.32 6 29.92 29.92 0 011 6.22 24.57 24.57 0 01-.41 6 18.75 18.75 0 01-1.9 5.34 16.32 16.32 0 01-1.1 1.72 13.93 13.93 0 01-1.26 1.46 11.34 11.34 0 01-1.4 1.21 12 12 0 01-1.51 1v.1l1.24-.46 1.25-.46 1.24-.46 1.25-.46a11.46 11.46 0 002-.92 12 12 0 001.83-1.31 13.93 13.93 0 001.62-1.71 14.7 14.7 0 001.39-2.1 18.58 18.58 0 001.9-5.33 24.61 24.61 0 00.41-6 29.81 29.81 0 00-1-6.22 31 31 0 00-2.29-6.01z" fill="#340096" opacity=".08"/>
  <path d="M266.55 138.16a28.72 28.72 0 01-5-7.07 31.47 31.47 0 01-2.82-8.14 27.54 27.54 0 01-.4-8.21 19.61 19.61 0 012.2-7.3 13.36 13.36 0 014.52-5 11.51 11.51 0 015.88-1.78 14.56 14.56 0 016.52 1.39 21.62 21.62 0 016.39 4.6 28.91 28.91 0 015 7.07 31.47 31.47 0 012.82 8.14 27.54 27.54 0 01.4 8.21 19.66 19.66 0 01-2.2 7.31 13.32 13.32 0 01-4.51 4.94 11.68 11.68 0 01-5.89 1.79 14.71 14.71 0 01-6.52-1.4 21.62 21.62 0 01-6.39-4.55z" fill="none" stroke="#340096" stroke-miterlimit="10" stroke-width="2"/>
  <path d="M420.25 151.58a22.67 22.67 0 00-4.14-3.38 17.64 17.64 0 00-4.3-2 13.83 13.83 0 00-4.25-.61 11.73 11.73 0 00-4 .75l-1.08.39-1.08.39-1.07.39-1.08.39v.2a11.59 11.59 0 00-5.05 2.07 13 13 0 00-2.13 1.95 15.45 15.45 0 00-1.78 2.58 19.61 19.61 0 00-2.2 7.3 27.54 27.54 0 00.4 8.21 31.47 31.47 0 002.82 8.14 28.72 28.72 0 005 7.07A22.15 22.15 0 00401 189a17 17 0 004.69 2 13.42 13.42 0 004.6.33 11.57 11.57 0 004.22-1.29v.1l1.24-.46 1.25-.46 1.24-.46 1.25-.46a11.53 11.53 0 003.8-2.24 13.18 13.18 0 001.63-1.7 14.7 14.7 0 001.39-2.1 19.61 19.61 0 002.2-7.3 27.54 27.54 0 00-.4-8.21 31.47 31.47 0 00-2.82-8.14 28.72 28.72 0 00-5.04-7.03z" fill="#fff" opacity=".95"/>
  <path d="M401.67 161.54a6.71 6.71 0 00.25 1.78 7.4 7.4 0 00.69 1.63 5.79 5.79 0 001 1.3 3.57 3.57 0 001.25.79 2.2 2.2 0 001.25.12 2.08 2.08 0 001-.55 3.09 3.09 0 00.69-1.13 4.82 4.82 0 00.25-1.59 6.71 6.71 0 00-.25-1.78 7.4 7.4 0 00-.69-1.63 5.79 5.79 0 00-1-1.3 3.66 3.66 0 00-1.25-.79 2.21 2.21 0 00-1.25-.12 2.08 2.08 0 00-1 .55 3.09 3.09 0 00-.69 1.13 4.82 4.82 0 00-.25 1.59z" fill="#fff"/>
  <path d="M401.67 161.54a6.71 6.71 0 00.25 1.78 7.4 7.4 0 00.69 1.63 5.79 5.79 0 001 1.3 3.57 3.57 0 001.25.79 2.2 2.2 0 001.25.12 2.08 2.08 0 001-.55 3.09 3.09 0 00.69-1.13 4.82 4.82 0 00.25-1.59 6.71 6.71 0 00-.25-1.78 7.4 7.4 0 00-.69-1.63 5.79 5.79 0 00-1-1.3 3.66 3.66 0 00-1.25-.79 2.21 2.21 0 00-1.25-.12 2.08 2.08 0 00-1 .55 3.09 3.09 0 00-.69 1.13 4.82 4.82 0 00-.25 1.59z" fill="none" stroke="#340096" stroke-linejoin="round" stroke-width="2"/>
  <path d="M409.06 181.75a1.08 1.08 0 00.53.05 1.06 1.06 0 00.46-.2 1 1 0 00.32-.39 1.13 1.13 0 00.1-.52 18.53 18.53 0 00-.52-3.33 12.8 12.8 0 00-1.08-2.9 8.69 8.69 0 00-1.68-2.29 6.54 6.54 0 00-2.3-1.44 4.22 4.22 0 00-2.32-.25 3.25 3.25 0 00-1.73 1 5.79 5.79 0 00-1.14 2.09 12.72 12.72 0 00-.56 2.92 2.21 2.21 0 00.06.68 2.17 2.17 0 00.27.6 2.34 2.34 0 00.45.49 2.19 2.19 0 00.6.33l2.13.78 2.14.78 2.13.78z" fill="#fff"/>
  <path d="M409.06 181.75a1.08 1.08 0 00.53.05 1.06 1.06 0 00.46-.2 1 1 0 00.32-.39 1.13 1.13 0 00.1-.52 18.53 18.53 0 00-.52-3.33 12.8 12.8 0 00-1.08-2.9 8.69 8.69 0 00-1.68-2.29 6.54 6.54 0 00-2.3-1.44 4.22 4.22 0 00-2.32-.25 3.25 3.25 0 00-1.73 1 5.79 5.79 0 00-1.14 2.09 12.72 12.72 0 00-.56 2.92 2.21 2.21 0 00.06.68 2.17 2.17 0 00.27.6 2.34 2.34 0 00.45.49 2.19 2.19 0 00.6.33l2.13.78 2.14.78 2.13.78z" fill="none" stroke="#340096" stroke-miterlimit="10" stroke-width="2"/>
  <path d="M414.46 190.05v.1h0l1.24-.46 1.25-.46 1.24-.46 1.25-.46a11.53 11.53 0 003.8-2.24 13.18 13.18 0 001.63-1.7 14.7 14.7 0 001.39-2.1 19.61 19.61 0 002.2-7.3 27.54 27.54 0 00-.4-8.21 31.47 31.47 0 00-2.82-8.14 28.72 28.72 0 00-5-7.07 22.67 22.67 0 00-4.14-3.38 17.64 17.64 0 00-4.3-2 13.83 13.83 0 00-4.25-.61 11.73 11.73 0 00-4 .75l-1.08.39-1.08.39-1.07.39-1.08.39v.13h0v.1" fill="none" stroke="#340096" stroke-miterlimit="10" stroke-width="2"/>
  <path d="M425.32 158.72l-1.64.6-1.65.6-1.64.6-1.65.6a30.56 30.56 0 012.31 6 29.29 29.29 0 011 6.22 24.57 24.57 0 01-.41 6 18.58 18.58 0 01-1.9 5.33 15.5 15.5 0 01-1.1 1.73 15 15 0 01-1.26 1.46 12.44 12.44 0 01-2.91 2.17v.1l1.24-.46 1.25-.46 1.24-.46 1.25-.46a11.53 11.53 0 003.8-2.24 13.18 13.18 0 001.63-1.7 14.7 14.7 0 001.39-2.1 18.69 18.69 0 001.9-5.33 24.65 24.65 0 00.41-6 29.2 29.2 0 00-1-6.21 30.65 30.65 0 00-2.26-5.99z" fill="#340096" opacity=".08"/>
  <path d="M396.42 185.43a28.72 28.72 0 01-5-7.07 31.47 31.47 0 01-2.82-8.14 27.54 27.54 0 01-.4-8.21 19.61 19.61 0 012.2-7.3 13.43 13.43 0 014.51-5 11.58 11.58 0 015.89-1.78 14.56 14.56 0 016.52 1.39 21.62 21.62 0 016.39 4.6 28.72 28.72 0 015 7.07 31.47 31.47 0 012.82 8.14 27.54 27.54 0 01.4 8.21 19.61 19.61 0 01-2.2 7.3 13.27 13.27 0 01-4.51 4.95 11.58 11.58 0 01-5.89 1.78 14.56 14.56 0 01-6.52-1.39 21.62 21.62 0 01-6.39-4.55z" fill="none" stroke="#340096" stroke-miterlimit="10" stroke-width="2"/>
  <path fill="#340096" opacity=".08" d="M134.96 113.88l2.84-1.04 2.85-1.03 2.85-1.04 2.84-1.04L150 111l3.65 1.27 3.65 1.27 3.65 1.27-3.06 1.11-3.06 1.12-3.06 1.11-3.06 1.11-3.44-1.34-3.43-1.35-3.44-1.35-3.44-1.34zM201.62 138.14l2.85-1.04 2.84-1.03 2.85-1.04L213 134l3.66 1.27 3.65 1.26 3.65 1.27 3.66 1.27-3.06 1.12-3.06 1.11-3.06 1.11-3.06 1.12-3.44-1.35-3.44-1.35-3.44-1.34-3.44-1.35zM267.3 162.05l2.85-1.04 2.84-1.04 2.85-1.03 2.85-1.04 3.65 1.27 3.65 1.27 3.65 1.27 3.66 1.27-3.06 1.11-3.06 1.12-3.06 1.11-3.06 1.11-3.44-1.34-3.44-1.35-3.44-1.35-3.44-1.34zM334.95 186.67l2.84-1.04 2.85-1.03 2.85-1.04 2.84-1.04 3.65 1.27 3.66 1.27 3.65 1.27 3.65 1.27-3.06 1.11-3.06 1.12-3.06 1.11-3.06 1.11-3.44-1.34-3.44-1.35-3.43-1.35-3.44-1.34zM396.69 209.14l2.85-1.04 2.84-1.03 2.85-1.04 2.85-1.03 3.65 1.27 3.65 1.26 3.65 1.27 3.66 1.27-3.06 1.12-3.06 1.11-3.06 1.11-3.06 1.12-3.44-1.35-3.44-1.35-3.44-1.34-3.44-1.35z"/>
  <path d="M225.67 80.81a22.55 22.55 0 00-4.13-3.37 17.33 17.33 0 00-4.31-2 13.76 13.76 0 00-4.25-.62 12.23 12.23 0 00-4 .75l-1.07.4-1.08.39-1.08.39-1.08.39a11.54 11.54 0 00-5.05 2.06 13 13 0 00-2.13 2 14.75 14.75 0 00-1.77 2.57 19.62 19.62 0 00-2.21 7.3 27.29 27.29 0 00.41 8.22 31 31 0 002.81 8.13 28.77 28.77 0 005 7.08 22.78 22.78 0 004.53 3.61 17.2 17.2 0 004.7 2 13.34 13.34 0 004.59.33 11.53 11.53 0 004.22-1.3v.06l1.24-.45 1.25-.46 1.24-.46 1.25-.46a11.6 11.6 0 002-.93 12.47 12.47 0 001.82-1.31 13.12 13.12 0 001.62-1.7 15.92 15.92 0 001.39-2.1 19.53 19.53 0 002.2-7.31 27.21 27.21 0 00-.4-8.21 31.47 31.47 0 00-2.82-8.14 28.91 28.91 0 00-4.89-6.86z" fill="#fff" opacity=".95"/>
  <path d="M207.09 90.78a6.27 6.27 0 00.26 1.77 6.55 6.55 0 00.69 1.63 5.54 5.54 0 001 1.3 3.69 3.69 0 001.25.8 2.33 2.33 0 001.26.12 2 2 0 001-.56 2.84 2.84 0 00.69-1.12 4.87 4.87 0 00.25-1.59 6.71 6.71 0 00-.25-1.78 7 7 0 00-.69-1.63 5.81 5.81 0 00-1-1.3 3.73 3.73 0 00-1.26-.8 2.39 2.39 0 00-1.25-.12 2 2 0 00-1 .56 2.8 2.8 0 00-.69 1.12 4.63 4.63 0 00-.26 1.6z" fill="#fff"/>
  <path d="M207.09 90.78a6.27 6.27 0 00.26 1.77 6.55 6.55 0 00.69 1.63 5.54 5.54 0 001 1.3 3.69 3.69 0 001.25.8 2.33 2.33 0 001.26.12 2 2 0 001-.56 2.84 2.84 0 00.69-1.12 4.87 4.87 0 00.25-1.59 6.71 6.71 0 00-.25-1.78 7 7 0 00-.69-1.63 5.81 5.81 0 00-1-1.3 3.73 3.73 0 00-1.26-.8 2.39 2.39 0 00-1.25-.12 2 2 0 00-1 .56 2.8 2.8 0 00-.69 1.12 4.63 4.63 0 00-.26 1.6z" fill="none" stroke="#340096" stroke-linejoin="round" stroke-width="2"/>
  <path d="M214.48 111a1.21 1.21 0 00.53.05 1.06 1.06 0 00.46-.2 1 1 0 00.32-.4 1 1 0 00.1-.52 19.51 19.51 0 00-.51-3.32 13.59 13.59 0 00-1.09-2.91 8.61 8.61 0 00-1.67-2.28 6.6 6.6 0 00-2.31-1.45 4.3 4.3 0 00-2.32-.24 3.22 3.22 0 00-1.73 1 5.82 5.82 0 00-1.14 2.08 12.83 12.83 0 00-.55 2.93 1.87 1.87 0 00.06.67 2 2 0 00.27.61 2.08 2.08 0 00.45.49 2 2 0 00.59.33l2.14.78 2.13.78 2.14.78z" fill="#fff"/>
  <path d="M214.48 111a1.21 1.21 0 00.53.05 1.06 1.06 0 00.46-.2 1 1 0 00.32-.4 1 1 0 00.1-.52 19.51 19.51 0 00-.51-3.32 13.59 13.59 0 00-1.09-2.91 8.61 8.61 0 00-1.67-2.28 6.6 6.6 0 00-2.31-1.45 4.3 4.3 0 00-2.32-.24 3.22 3.22 0 00-1.73 1 5.82 5.82 0 00-1.14 2.08 12.83 12.83 0 00-.55 2.93 1.87 1.87 0 00.06.67 2 2 0 00.27.61 2.08 2.08 0 00.45.49 2 2 0 00.59.33l2.14.78 2.13.78 2.14.78z" fill="none" stroke="#340096" stroke-miterlimit="10" stroke-width="2"/>
  <path d="M219.88 119.28v0h0v.06l1.24-.45 1.25-.46 1.24-.46 1.25-.46a11.6 11.6 0 002-.93 12.47 12.47 0 001.82-1.31 13.12 13.12 0 001.62-1.7 15.92 15.92 0 001.39-2.1 19.53 19.53 0 002.2-7.31 27.21 27.21 0 00-.4-8.21 31.47 31.47 0 00-2.82-8.14 28.91 28.91 0 00-5-7.07 22.55 22.55 0 00-4.13-3.37 17.33 17.33 0 00-4.31-2 13.76 13.76 0 00-4.25-.62 12.23 12.23 0 00-4 .75l-1.07.4-1.08.39-1.08.39-1.08.39h0v0h0" fill="none" stroke="#340096" stroke-miterlimit="10" stroke-width="2"/>
  <path d="M230.75 88l-1.65.6-1.64.6-1.65.6-1.64.6a31.6 31.6 0 012.31 6 29.84 29.84 0 011 6.22 24.6 24.6 0 01-.42 6 18.58 18.58 0 01-1.9 5.33 15.35 15.35 0 01-1.1 1.72 15.17 15.17 0 01-1.26 1.47 14.33 14.33 0 01-1.39 1.21 11.63 11.63 0 01-1.52 1v.06l1.24-.45 1.25-.46 1.24-.46 1.25-.46a11.6 11.6 0 002-.93 12.47 12.47 0 001.82-1.31 13.12 13.12 0 001.62-1.7 15.92 15.92 0 001.39-2.1 18.75 18.75 0 001.9-5.34 24.57 24.57 0 00.42-6 29.94 29.94 0 00-1-6.22 32.11 32.11 0 00-2.27-5.98z" fill="#340096" opacity=".08"/>
  <path d="M201.84 114.67a28.77 28.77 0 01-5-7.08 31 31 0 01-2.84-8.13 27.29 27.29 0 01-.41-8.22 19.62 19.62 0 012.21-7.3 13.23 13.23 0 014.5-4.94 11.65 11.65 0 015.89-1.79 14.67 14.67 0 016.51 1.4 21.36 21.36 0 016.39 4.6 28.72 28.72 0 015 7.07 31.47 31.47 0 012.91 8.14 27.21 27.21 0 01.4 8.21 19.43 19.43 0 01-2.2 7.3 13.32 13.32 0 01-4.51 4.94 11.59 11.59 0 01-5.89 1.79 14.73 14.73 0 01-6.52-1.39 21.62 21.62 0 01-6.44-4.6z" fill="none" stroke="#340096" stroke-miterlimit="10" stroke-width="2"/>
  <path d="M225.67 24.74a23 23 0 00-4.13-3.38 18.08 18.08 0 00-4.31-2 14.05 14.05 0 00-4.25-.61 11.73 11.73 0 00-4 .75l-1.07.39-1.08.39-1.08.39-1.08.4v.2a10.79 10.79 0 00-2.63.72 11.26 11.26 0 00-2.42 1.34 13 13 0 00-2.13 1.95 14.84 14.84 0 00-1.77 2.58 19.62 19.62 0 00-2.21 7.3 27.22 27.22 0 00.41 8.21 31.07 31.07 0 002.81 8.14 28.72 28.72 0 005 7.07 22.84 22.84 0 004.53 3.62 17.16 17.16 0 004.7 2 13.34 13.34 0 004.59.33 11.51 11.51 0 004.22-1.29v.07l1.24-.46 1.25-.46 1.24-.46 1.25-.46a11.55 11.55 0 002-.92 12.47 12.47 0 001.82-1.31 13.89 13.89 0 001.62-1.71 14.7 14.7 0 001.39-2.1 19.43 19.43 0 002.2-7.3 27.21 27.21 0 00-.4-8.21 31.47 31.47 0 00-2.82-8.14 28.72 28.72 0 00-4.89-7.04z" fill="#fff" opacity=".95"/>
  <path d="M207.09 34.7a6.34 6.34 0 00.26 1.78 6.55 6.55 0 00.69 1.63 5.54 5.54 0 001 1.3 3.85 3.85 0 001.25.8 2.32 2.32 0 001.26.11 2.09 2.09 0 001-.55 3 3 0 00.69-1.13 4.82 4.82 0 00.25-1.59 6.71 6.71 0 00-.25-1.78 7.13 7.13 0 00-.69-1.63 6.05 6.05 0 00-1-1.3 3.7 3.7 0 00-1.26-.79 2.2 2.2 0 00-1.25-.12 2 2 0 00-1 .55 2.84 2.84 0 00-.69 1.13 4.57 4.57 0 00-.26 1.59z" fill="#fff"/>
  <path d="M207.09 34.7a6.34 6.34 0 00.26 1.78 6.55 6.55 0 00.69 1.63 5.54 5.54 0 001 1.3 3.85 3.85 0 001.25.8 2.32 2.32 0 001.26.11 2.09 2.09 0 001-.55 3 3 0 00.69-1.13 4.82 4.82 0 00.25-1.59 6.71 6.71 0 00-.25-1.78 7.13 7.13 0 00-.69-1.63 6.05 6.05 0 00-1-1.3 3.7 3.7 0 00-1.26-.79 2.2 2.2 0 00-1.25-.12 2 2 0 00-1 .55 2.84 2.84 0 00-.69 1.13 4.57 4.57 0 00-.26 1.59z" fill="none" stroke="#340096" stroke-linejoin="round" stroke-width="2"/>
  <path d="M214.48 54.91a1.08 1.08 0 00.52.09 1.06 1.06 0 00.46-.2.94.94 0 00.32-.39 1 1 0 00.1-.52 19.47 19.47 0 00-.51-3.33 13.3 13.3 0 00-1.09-2.9 8.45 8.45 0 00-1.67-2.28 6.46 6.46 0 00-2.31-1.45 4.12 4.12 0 00-2.32-.24 3.21 3.21 0 00-1.73 1 5.79 5.79 0 00-1.14 2.09 12.74 12.74 0 00-.55 2.92 1.94 1.94 0 00.06.68 2.08 2.08 0 00.72 1.09 2 2 0 00.59.34l2.14.77 2.13.78 2.14.78z" fill="#fff"/>
  <path d="M214.48 54.91a1.08 1.08 0 00.52.09 1.06 1.06 0 00.46-.2.94.94 0 00.32-.39 1 1 0 00.1-.52 19.47 19.47 0 00-.51-3.33 13.3 13.3 0 00-1.09-2.9 8.45 8.45 0 00-1.67-2.28 6.46 6.46 0 00-2.31-1.45 4.12 4.12 0 00-2.32-.24 3.21 3.21 0 00-1.73 1 5.79 5.79 0 00-1.14 2.09 12.74 12.74 0 00-.55 2.92 1.94 1.94 0 00.06.68 2.08 2.08 0 00.72 1.09 2 2 0 00.59.34l2.14.77 2.13.78 2.14.78z" fill="none" stroke="#340096" stroke-miterlimit="10" stroke-width="2"/>
  <path d="M219.88 63.21v0h0v.07l1.24-.46 1.25-.46 1.24-.46 1.25-.46a11.55 11.55 0 002-.92 12.47 12.47 0 001.82-1.31 13.89 13.89 0 001.62-1.71 14.7 14.7 0 001.39-2.1 19.43 19.43 0 002.2-7.3 27.21 27.21 0 00-.4-8.21 31.47 31.47 0 00-2.82-8.14 28.72 28.72 0 00-5-7.07 23 23 0 00-4.13-3.38 18.08 18.08 0 00-4.31-2 14.05 14.05 0 00-4.25-.61 11.73 11.73 0 00-4 .75l-1.07.39-1.08.39-1.08.39-1.08.4v.2" fill="none" stroke="#340096" stroke-miterlimit="10" stroke-width="2"/>
  <path d="M230.75 31.89l-1.65.59-1.64.6-1.65.6-1.64.6a32.11 32.11 0 012.31 6 29.94 29.94 0 011 6.22 24.57 24.57 0 01-.42 6 18.58 18.58 0 01-1.9 5.33 15.5 15.5 0 01-1.1 1.73 13.93 13.93 0 01-1.27 1.44 12 12 0 01-1.39 1.21 12.89 12.89 0 01-1.52 1v.07l1.24-.46 1.25-.46 1.24-.46 1.25-.46a11.55 11.55 0 002-.92 12.47 12.47 0 001.82-1.31 13.89 13.89 0 001.62-1.71 14.7 14.7 0 001.39-2.1 18.58 18.58 0 001.9-5.33 24.6 24.6 0 00.42-6 29.84 29.84 0 00-1-6.22 31.6 31.6 0 00-2.26-5.96z" fill="#340096" opacity=".08"/>
  <path d="M201.84 58.59a28.72 28.72 0 01-5-7.07 31.07 31.07 0 01-2.84-8.14 27.22 27.22 0 01-.41-8.21 19.62 19.62 0 012.21-7.3 13.34 13.34 0 014.51-4.95 11.55 11.55 0 015.89-1.78 14.52 14.52 0 016.51 1.39 21.36 21.36 0 016.39 4.6 28.72 28.72 0 015 7.07 31.47 31.47 0 012.9 8.14 27.21 27.21 0 01.4 8.21 19.43 19.43 0 01-2.2 7.3 13.27 13.27 0 01-4.51 4.95 11.68 11.68 0 01-5.89 1.79 14.74 14.74 0 01-6.52-1.4 21.62 21.62 0 01-6.44-4.6z" fill="none" stroke="#340096" stroke-miterlimit="10" stroke-width="2"/>
  <path d="M357.45 128.78a22.67 22.67 0 00-4.14-3.38 17.64 17.64 0 00-4.3-2 13.83 13.83 0 00-4.25-.61 11.73 11.73 0 00-4 .75l-1.08.39-1.08.39-1.07.39-1.08.39v.05a11.59 11.59 0 00-5 2.07 12.57 12.57 0 00-2.13 2 15.45 15.45 0 00-1.78 2.58 19.61 19.61 0 00-2.2 7.3 27.54 27.54 0 00.4 8.21 31.47 31.47 0 002.82 8.14 28.72 28.72 0 005 7.07 22.5 22.5 0 004.53 3.61 17 17 0 004.69 2 13.4 13.4 0 004.6.33 11.57 11.57 0 004.22-1.29v.09l1.24-.46 1.25-.46 1.24-.46 1.25-.46a11.53 11.53 0 003.8-2.24 13.18 13.18 0 001.63-1.7 15.92 15.92 0 001.39-2.1 19.61 19.61 0 002.2-7.3 27.6 27.6 0 00-.4-8.22 31.4 31.4 0 00-2.82-8.13 28.72 28.72 0 00-4.93-6.95z" fill="#fff" opacity=".95"/>
  <path d="M338.87 138.74a6.71 6.71 0 00.25 1.78 7.13 7.13 0 00.69 1.63 5.79 5.79 0 001 1.3 3.57 3.57 0 001.25.79 2.2 2.2 0 001.25.12 2.08 2.08 0 001-.55 3.09 3.09 0 00.69-1.13 4.82 4.82 0 00.25-1.59 6.71 6.71 0 00-.25-1.78 7.4 7.4 0 00-.69-1.63 5.58 5.58 0 00-1-1.3 3.85 3.85 0 00-1.25-.8 2.29 2.29 0 00-1.25-.11 2.08 2.08 0 00-1 .55 3 3 0 00-.69 1.13 4.82 4.82 0 00-.25 1.59z" fill="#fff"/>
  <path d="M338.87 138.74a6.71 6.71 0 00.25 1.78 7.13 7.13 0 00.69 1.63 5.79 5.79 0 001 1.3 3.57 3.57 0 001.25.79 2.2 2.2 0 001.25.12 2.08 2.08 0 001-.55 3.09 3.09 0 00.69-1.13 4.82 4.82 0 00.25-1.59 6.71 6.71 0 00-.25-1.78 7.4 7.4 0 00-.69-1.63 5.58 5.58 0 00-1-1.3 3.85 3.85 0 00-1.25-.8 2.29 2.29 0 00-1.25-.11 2.08 2.08 0 00-1 .55 3 3 0 00-.69 1.13 4.82 4.82 0 00-.25 1.59z" fill="none" stroke="#340096" stroke-linejoin="round" stroke-width="2"/>
  <path d="M346.26 159a1.08 1.08 0 00.53.05 1.06 1.06 0 00.46-.2 1 1 0 00.32-.39 1.15 1.15 0 00.1-.52 18.53 18.53 0 00-.52-3.33 13.06 13.06 0 00-1.08-2.91 8.81 8.81 0 00-1.68-2.28 6.54 6.54 0 00-2.3-1.44 4.22 4.22 0 00-2.32-.25 3.19 3.19 0 00-1.73 1 5.79 5.79 0 00-1.14 2.09 12.62 12.62 0 00-.56 2.92 2.12 2.12 0 00.06.67 2.23 2.23 0 00.27.61 2.62 2.62 0 00.45.49 2.19 2.19 0 00.6.33l2.13.78 2.14.78 2.13.78z" fill="#fff"/>
  <path d="M346.26 159a1.08 1.08 0 00.53.05 1.06 1.06 0 00.46-.2 1 1 0 00.32-.39 1.15 1.15 0 00.1-.52 18.53 18.53 0 00-.52-3.33 13.06 13.06 0 00-1.08-2.91 8.81 8.81 0 00-1.68-2.28 6.54 6.54 0 00-2.3-1.44 4.22 4.22 0 00-2.32-.25 3.19 3.19 0 00-1.73 1 5.79 5.79 0 00-1.14 2.09 12.62 12.62 0 00-.56 2.92 2.12 2.12 0 00.06.67 2.23 2.23 0 00.27.61 2.62 2.62 0 00.45.49 2.19 2.19 0 00.6.33l2.13.78 2.14.78 2.13.78z" fill="none" stroke="#340096" stroke-miterlimit="10" stroke-width="2"/>
  <path d="M351.66 167.25v.09h0l1.24-.46 1.25-.46 1.24-.46 1.25-.46a11.53 11.53 0 003.8-2.24 13.18 13.18 0 001.63-1.7 15.92 15.92 0 001.39-2.1 19.61 19.61 0 002.2-7.3 27.6 27.6 0 00-.4-8.22 31.4 31.4 0 00-2.82-8.13 28.72 28.72 0 00-5-7.07 22.67 22.67 0 00-4.14-3.38 17.64 17.64 0 00-4.3-2 13.83 13.83 0 00-4.25-.61 11.73 11.73 0 00-4 .75l-1.08.39-1.08.39-1.07.39-1.08.39v0h0v.05h0" fill="none" stroke="#340096" stroke-miterlimit="10" stroke-width="2"/>
  <path d="M362.52 135.92l-1.64.6-1.65.6-1.64.6-1.65.6a30.56 30.56 0 012.31 6 29.29 29.29 0 011 6.22 24.61 24.61 0 01-.41 6 18.58 18.58 0 01-1.9 5.33 16.47 16.47 0 01-1.1 1.73 15 15 0 01-1.26 1.46 13.18 13.18 0 01-1.4 1.21 12 12 0 01-1.51 1v.09l1.24-.46 1.25-.46 1.24-.46 1.25-.46a11.53 11.53 0 003.8-2.24 13.18 13.18 0 001.63-1.7 15.92 15.92 0 001.39-2.1 18.79 18.79 0 001.9-5.33 24.65 24.65 0 00.41-6 29.39 29.39 0 00-1-6.22 31.44 31.44 0 00-2.26-6.01z" fill="#340096" opacity=".08"/>
  <path d="M333.62 162.63a28.72 28.72 0 01-5-7.07 31.47 31.47 0 01-2.82-8.14 27.54 27.54 0 01-.4-8.21 19.61 19.61 0 012.2-7.3 13.27 13.27 0 014.51-5 11.58 11.58 0 015.89-1.78 14.56 14.56 0 016.52 1.39 21.62 21.62 0 016.39 4.6 28.72 28.72 0 015 7.07 31.47 31.47 0 012.82 8.14 27.54 27.54 0 01.4 8.21 19.61 19.61 0 01-2.2 7.3 13.43 13.43 0 01-4.51 5 11.58 11.58 0 01-5.89 1.78 14.56 14.56 0 01-6.52-1.39 21.62 21.62 0 01-6.39-4.6z" fill="none" stroke="#340096" stroke-miterlimit="10" stroke-width="2"/>
  <path d="M357.45 72.7a23.1 23.1 0 00-4.14-3.38 17.59 17.59 0 00-4.3-2 13.85 13.85 0 00-4.25-.62 11.73 11.73 0 00-4 .75l-1.08.39-1.08.39-1.07.4-1.08.39a12 12 0 00-2.64.72 11.44 11.44 0 00-2.41 1.34 12.23 12.23 0 00-2.13 2 15 15 0 00-1.78 2.57 19.61 19.61 0 00-2.2 7.3 27.54 27.54 0 00.4 8.21 31.47 31.47 0 002.82 8.14 28.72 28.72 0 005 7.07 22.56 22.56 0 004.53 3.62 16.92 16.92 0 004.69 2 12.92 12.92 0 004.6.33 11.57 11.57 0 004.22-1.29v.1l1.24-.46 1.25-.46 1.24-.46 1.25-.46a11.73 11.73 0 003.8-2.23 12.66 12.66 0 001.63-1.71 14.7 14.7 0 001.39-2.1 19.61 19.61 0 002.2-7.3 27.54 27.54 0 00-.4-8.21 31.47 31.47 0 00-2.82-8.14 28.72 28.72 0 00-4.88-6.9z" fill="#fff" opacity=".95"/>
  <path d="M338.87 82.66a6.71 6.71 0 00.25 1.78 7 7 0 00.69 1.63 5.58 5.58 0 001 1.3 3.6 3.6 0 001.25.8 2.39 2.39 0 001.25.12 2 2 0 001-.56 3 3 0 00.69-1.12 4.89 4.89 0 00.25-1.6 6.64 6.64 0 00-.25-1.77 7.4 7.4 0 00-.69-1.63 5.58 5.58 0 00-1-1.3 3.69 3.69 0 00-1.25-.8 2.3 2.3 0 00-1.25-.12 2 2 0 00-1 .56 2.84 2.84 0 00-.69 1.12 4.87 4.87 0 00-.25 1.59z" fill="#fff"/>
  <path d="M338.87 82.66a6.71 6.71 0 00.25 1.78 7 7 0 00.69 1.63 5.58 5.58 0 001 1.3 3.6 3.6 0 001.25.8 2.39 2.39 0 001.25.12 2 2 0 001-.56 3 3 0 00.69-1.12 4.89 4.89 0 00.25-1.6 6.64 6.64 0 00-.25-1.77 7.4 7.4 0 00-.69-1.63 5.58 5.58 0 00-1-1.3 3.69 3.69 0 00-1.25-.8 2.3 2.3 0 00-1.25-.12 2 2 0 00-1 .56 2.84 2.84 0 00-.69 1.12 4.87 4.87 0 00-.25 1.59z" fill="none" stroke="#340096" stroke-linejoin="round" stroke-width="2"/>
  <path d="M346.26 102.87a1 1 0 00.53 0 1.06 1.06 0 00.46-.2.94.94 0 00.32-.39 1.1 1.1 0 00.1-.52 18.56 18.56 0 00-.52-3.32 13.06 13.06 0 00-1.08-2.91 8.48 8.48 0 00-1.68-2.28 6.56 6.56 0 00-2.3-1.45 4.12 4.12 0 00-2.32-.24 3.17 3.17 0 00-1.73 1 5.87 5.87 0 00-1.14 2.09 12.83 12.83 0 00-.56 2.92 2.19 2.19 0 00.06.68 2 2 0 00.27.6 2.4 2.4 0 00.45.5 2.19 2.19 0 00.6.33l2.13.78 2.14.78 2.13.77z" fill="#fff"/>
  <path d="M346.26 102.87a1 1 0 00.53 0 1.06 1.06 0 00.46-.2.94.94 0 00.32-.39 1.1 1.1 0 00.1-.52 18.56 18.56 0 00-.52-3.32 13.06 13.06 0 00-1.08-2.91 8.48 8.48 0 00-1.68-2.28 6.56 6.56 0 00-2.3-1.45 4.12 4.12 0 00-2.32-.24 3.17 3.17 0 00-1.73 1 5.87 5.87 0 00-1.14 2.09 12.83 12.83 0 00-.56 2.92 2.19 2.19 0 00.06.68 2 2 0 00.27.6 2.4 2.4 0 00.45.5 2.19 2.19 0 00.6.33l2.13.78 2.14.78 2.13.77z" fill="none" stroke="#340096" stroke-miterlimit="10" stroke-width="2"/>
  <path d="M351.66 111.17v.1h0l1.24-.46 1.25-.46 1.24-.46 1.25-.46a11.73 11.73 0 003.8-2.23 12.66 12.66 0 001.63-1.71 14.7 14.7 0 001.39-2.1 19.61 19.61 0 002.2-7.3 27.54 27.54 0 00-.4-8.21 31.47 31.47 0 00-2.82-8.14 28.72 28.72 0 00-5-7.07 23.1 23.1 0 00-4.14-3.38 17.59 17.59 0 00-4.3-2 13.85 13.85 0 00-4.25-.62 11.73 11.73 0 00-4 .75l-1.08.39-1.08.39-1.07.4-1.08.39v0h0" fill="none" stroke="#340096" stroke-miterlimit="10" stroke-width="2"/>
  <path d="M362.52 79.85l-1.64.6-1.65.6-1.64.59-1.65.6a30.8 30.8 0 012.31 6 29.39 29.39 0 011 6.22 24.54 24.54 0 01-.41 6 18.75 18.75 0 01-1.9 5.34 15.35 15.35 0 01-1.1 1.72 13.93 13.93 0 01-1.26 1.46 12.44 12.44 0 01-2.91 2.17v.1l1.24-.46 1.25-.46 1.24-.46 1.25-.46a11.73 11.73 0 003.8-2.23 12.66 12.66 0 001.63-1.71 14.7 14.7 0 001.39-2.1 18.58 18.58 0 001.9-5.33 24.61 24.61 0 00.41-6 29.29 29.29 0 00-1-6.22 31.19 31.19 0 00-2.26-5.97z" fill="#340096" opacity=".08"/>
  <path d="M333.62 106.55a28.72 28.72 0 01-5-7.07 31.47 31.47 0 01-2.82-8.14 27.54 27.54 0 01-.4-8.21 19.61 19.61 0 012.2-7.3 13.32 13.32 0 014.51-4.94A11.59 11.59 0 01338 69.1a14.7 14.7 0 016.52 1.39 21.48 21.48 0 016.39 4.61 28.72 28.72 0 015 7.07 31.4 31.4 0 012.82 8.13 27.6 27.6 0 01.4 8.22 19.61 19.61 0 01-2.2 7.3 13.32 13.32 0 01-4.51 4.94 11.68 11.68 0 01-5.89 1.79 14.71 14.71 0 01-6.52-1.4 21.44 21.44 0 01-6.39-4.6z" fill="none" stroke="#340096" stroke-miterlimit="10" stroke-width="2"/>
  <path d="M357.45 16.49a23 23 0 00-4.14-3.37 17.27 17.27 0 00-4.3-2 14.16 14.16 0 00-4.25-.62 12.23 12.23 0 00-4 .75l-1.08.4-1.08.39-1.07.39-1.08.39v.1a11.42 11.42 0 00-5 2.06 12.64 12.64 0 00-2.13 2 15.36 15.36 0 00-1.78 2.57 19.67 19.67 0 00-2.2 7.3 27.59 27.59 0 00.4 8.22 31.4 31.4 0 002.82 8.13 28.77 28.77 0 005 7.08 22.5 22.5 0 004.59 3.72 17 17 0 004.69 2 13.4 13.4 0 004.6.33 11.57 11.57 0 004.22-1.33v.09l1.24-.46 1.25-.46 1.24-.46 1.25-.46a12 12 0 003.8-2.24 13.18 13.18 0 001.63-1.7 15.92 15.92 0 001.39-2.1 19.67 19.67 0 002.2-7.3 27.6 27.6 0 00-.4-8.22 31.4 31.4 0 00-2.82-8.13 28.77 28.77 0 00-4.99-7.07z" fill="#fff" opacity=".95"/>
  <path d="M338.87 26.46a6.71 6.71 0 00.25 1.78 6.87 6.87 0 00.69 1.62 5.37 5.37 0 001 1.3 3.6 3.6 0 001.25.8 2.29 2.29 0 001.25.12 2 2 0 001-.56 3 3 0 00.69-1.12 4.87 4.87 0 00.25-1.59 6.71 6.71 0 00-.25-1.78 7.4 7.4 0 00-.69-1.63 5.58 5.58 0 00-1-1.3 3.69 3.69 0 00-1.25-.8 2.29 2.29 0 00-1.25-.11 2 2 0 00-1 .55 3 3 0 00-.69 1.13 4.78 4.78 0 00-.25 1.59z" fill="#fff"/>
  <path d="M338.87 26.46a6.71 6.71 0 00.25 1.78 6.87 6.87 0 00.69 1.62 5.37 5.37 0 001 1.3 3.6 3.6 0 001.25.8 2.29 2.29 0 001.25.12 2 2 0 001-.56 3 3 0 00.69-1.12 4.87 4.87 0 00.25-1.59 6.71 6.71 0 00-.25-1.78 7.4 7.4 0 00-.69-1.63 5.58 5.58 0 00-1-1.3 3.69 3.69 0 00-1.25-.8 2.29 2.29 0 00-1.25-.11 2 2 0 00-1 .55 3 3 0 00-.69 1.13 4.78 4.78 0 00-.25 1.59z" fill="none" stroke="#340096" stroke-linejoin="round" stroke-width="2"/>
  <path d="M346.26 46.67a1.21 1.21 0 00.53 0 1.06 1.06 0 00.46-.2 1.08 1.08 0 00.32-.39 1.17 1.17 0 00.1-.53 18.56 18.56 0 00-.52-3.32 13.06 13.06 0 00-1.08-2.91 8.64 8.64 0 00-1.68-2.28 6.54 6.54 0 00-2.3-1.44 4.22 4.22 0 00-2.32-.25 3.19 3.19 0 00-1.73 1 5.79 5.79 0 00-1.14 2.09 12.62 12.62 0 00-.56 2.92 2.12 2.12 0 00.06.67 2.23 2.23 0 00.27.61 2.62 2.62 0 00.45.49 2.19 2.19 0 00.6.33l2.13.78 2.14.78 2.13.78z" fill="#fff"/>
  <path d="M346.26 46.67a1.21 1.21 0 00.53 0 1.06 1.06 0 00.46-.2 1.08 1.08 0 00.32-.39 1.17 1.17 0 00.1-.53 18.56 18.56 0 00-.52-3.32 13.06 13.06 0 00-1.08-2.91 8.64 8.64 0 00-1.68-2.28 6.54 6.54 0 00-2.3-1.44 4.22 4.22 0 00-2.32-.25 3.19 3.19 0 00-1.73 1 5.79 5.79 0 00-1.14 2.09 12.62 12.62 0 00-.56 2.92 2.12 2.12 0 00.06.67 2.23 2.23 0 00.27.61 2.62 2.62 0 00.45.49 2.19 2.19 0 00.6.33l2.13.78 2.14.78 2.13.78z" fill="none" stroke="#340096" stroke-miterlimit="10" stroke-width="2"/>
  <path d="M351.66 55v.09h0l1.24-.46 1.25-.46 1.24-.46 1.25-.46a12 12 0 003.8-2.24 13.18 13.18 0 001.63-1.7 15.92 15.92 0 001.39-2.1 19.67 19.67 0 002.2-7.3 27.6 27.6 0 00-.4-8.22 31.4 31.4 0 00-2.82-8.13 28.77 28.77 0 00-5-7.08 23 23 0 00-4.14-3.37 17.27 17.27 0 00-4.3-2 14.16 14.16 0 00-4.25-.62 12.23 12.23 0 00-4 .75l-1.08.4-1.08.39-1.07.39-1.08.39v.05h0v.05h0" fill="none" stroke="#340096" stroke-miterlimit="10" stroke-width="2"/>
  <path d="M362.52 23.64l-1.64.6-1.65.6-1.64.6-1.65.6a30.56 30.56 0 012.31 6 29.19 29.19 0 011 6.22 24.61 24.61 0 01-.41 6 18.58 18.58 0 01-1.9 5.33 15.35 15.35 0 01-1.1 1.72 15.17 15.17 0 01-1.26 1.47 13.18 13.18 0 01-1.4 1.21 12 12 0 01-1.51 1v.09l1.24-.46 1.25-.46 1.24-.46 1.25-.46a12 12 0 003.8-2.24 13.18 13.18 0 001.63-1.7 15.92 15.92 0 001.39-2.1 18.75 18.75 0 001.9-5.34 24.57 24.57 0 00.41-6 29.39 29.39 0 00-1-6.22 31.44 31.44 0 00-2.26-6z" fill="#340096" opacity=".08"/>
  <path d="M333.62 50.35a28.77 28.77 0 01-5-7.08 31.4 31.4 0 01-2.82-8.13 27.54 27.54 0 01-.4-8.21 19.66 19.66 0 012.2-7.31 13.32 13.32 0 014.51-4.94 11.68 11.68 0 015.89-1.79 14.71 14.71 0 016.52 1.4 21.62 21.62 0 016.39 4.6 28.72 28.72 0 015 7.07 31.47 31.47 0 012.82 8.14 27.54 27.54 0 01.4 8.21 19.61 19.61 0 01-2.2 7.3 13.43 13.43 0 01-4.51 5 11.58 11.58 0 01-5.89 1.78A14.7 14.7 0 01340 55a21.62 21.62 0 01-6.38-4.65z" fill="none" stroke="#340096" stroke-miterlimit="10" stroke-width="2"/>
  <path d="M141.65 253.21a4.23 4.23 0 01.32-1.6 4.08 4.08 0 01.88-1.31 4.31 4.31 0 011.31-.88 4.16 4.16 0 013.2 0 4.31 4.31 0 011.31.88 4.08 4.08 0 01.88 1.31 4.23 4.23 0 01.32 1.6 4.31 4.31 0 01-.32 1.6 4.15 4.15 0 01-.88 1.3 4.31 4.31 0 01-1.31.88 4.16 4.16 0 01-3.2 0 4.31 4.31 0 01-1.31-.88 4.15 4.15 0 01-.88-1.3 4.31 4.31 0 01-.32-1.6z" fill="#fff" stroke="#ff0061" stroke-miterlimit="10" stroke-width="2"/>
  <path d="M145.76 249.1a4 4 0 011.6.32 4.31 4.31 0 011.31.88 4.08 4.08 0 01.88 1.31 4.23 4.23 0 01.32 1.6 4.31 4.31 0 01-.32 1.6 4.15 4.15 0 01-.88 1.3 4.31 4.31 0 01-1.31.88 4 4 0 01-1.6.32" fill="#f5f2f9" stroke="#ff0061" stroke-miterlimit="10" stroke-width="2"/>
  <path d="M208.16 226.41a4 4 0 01.32-1.6 4.31 4.31 0 01.88-1.31 4.19 4.19 0 011.31-.88 4 4 0 011.6-.32 4.1 4.1 0 013.78 2.51 4 4 0 010 3.2 4.21 4.21 0 01-2.18 2.19 4.31 4.31 0 01-1.6.32 4.23 4.23 0 01-1.6-.32 4.06 4.06 0 01-1.31-.89 4.15 4.15 0 01-.88-1.3 4 4 0 01-.32-1.6z" fill="#fff" stroke="#ff0061" stroke-miterlimit="10" stroke-width="2"/>
  <path d="M212.27 222.3a4.1 4.1 0 013.78 2.51 4 4 0 010 3.2 4.21 4.21 0 01-2.18 2.19 4.31 4.31 0 01-1.6.32" fill="#f5f2f9" stroke="#ff0061" stroke-miterlimit="10" stroke-width="2"/>
  <path d="M274.81 319.41a4.05 4.05 0 01.33-1.6 4 4 0 01.88-1.31 4.15 4.15 0 011.3-.88 4.16 4.16 0 013.2 0 4.19 4.19 0 011.31.88 4.31 4.31 0 01.88 1.31 4.16 4.16 0 010 3.2 4.31 4.31 0 01-.88 1.31 4.1 4.1 0 01-2.91 1.2 4.27 4.27 0 01-1.6-.32 4.15 4.15 0 01-1.3-.88 4 4 0 01-.88-1.31 4.05 4.05 0 01-.33-1.6z" fill="#fff" stroke="#ff0061" stroke-miterlimit="10" stroke-width="2"/>
  <path d="M278.92 315.3a4 4 0 011.6.32 4.19 4.19 0 011.31.88 4.31 4.31 0 01.88 1.31 4.16 4.16 0 010 3.2 4.31 4.31 0 01-.88 1.31 4.1 4.1 0 01-2.91 1.2" fill="#f5f2f9" stroke="#ff0061" stroke-miterlimit="10" stroke-width="2"/>
  <path d="M341.51 219a4.05 4.05 0 01.33-1.6 4 4 0 01.88-1.31 4.15 4.15 0 011.3-.88 4.16 4.16 0 013.2 0 4.19 4.19 0 011.31.88 4.31 4.31 0 01.88 1.31 4.16 4.16 0 010 3.2 4.31 4.31 0 01-.88 1.31 4.19 4.19 0 01-1.31.88 4.16 4.16 0 01-3.2 0 4.15 4.15 0 01-1.3-.88 4 4 0 01-.88-1.31 4.05 4.05 0 01-.33-1.6z" fill="#fff" stroke="#ff0061" stroke-miterlimit="10" stroke-width="2"/>
  <path d="M345.62 214.89a4.1 4.1 0 012.91 1.2 4.31 4.31 0 01.88 1.31 4.16 4.16 0 010 3.2 4.31 4.31 0 01-.88 1.31 4.19 4.19 0 01-1.31.88 4 4 0 01-1.6.32" fill="#f5f2f9" stroke="#ff0061" stroke-miterlimit="10" stroke-width="2"/>
  <path d="M404.23 336.35a4.05 4.05 0 01.33-1.6 4.19 4.19 0 01.88-1.31 4.05 4.05 0 012.9-1.2 4 4 0 011.6.32 4.1 4.1 0 012.19 2.19 4.16 4.16 0 010 3.2 4.15 4.15 0 01-.88 1.3 3.88 3.88 0 01-1.31.88 4.05 4.05 0 01-1.6.33 4.13 4.13 0 01-1.6-.33 3.84 3.84 0 01-1.3-.88 4.15 4.15 0 01-.88-1.3 4.05 4.05 0 01-.33-1.6z" fill="#fff" stroke="#ff0061" stroke-miterlimit="10" stroke-width="2"/>
  <path d="M408.34 332.24a4 4 0 011.6.32 4.1 4.1 0 012.19 2.19 4.16 4.16 0 010 3.2 4.15 4.15 0 01-.88 1.3 3.88 3.88 0 01-1.31.88 4.05 4.05 0 01-1.6.33" fill="#f5f2f9" stroke="#ff0061" stroke-miterlimit="10" stroke-width="2"/>
</svg>