<svg data-name="Layer 1" xmlns="http://www.w3.org/2000/svg" xmlns:xlink="http://www.w3.org/1999/xlink" viewBox="0 0 588 440">
  <defs>
    <linearGradient id="a" x1="294.32" y1="77.06" x2="326.93" y2="100.47" gradientTransform="matrix(1 0 0 -1 0 442)" gradientUnits="userSpaceOnUse">
      <stop offset="0" stop-color="#ff0061"/>
      <stop offset="1" stop-color="#fa0"/>
    </linearGradient>
    <linearGradient id="b" x1="266.88" y1="67.66" x2="313" y2="86.63" xlink:href="#a"/>
  </defs>
  <ellipse cx="292.65" cy="261.84" rx="74.41" ry="27.27" fill="none" stroke="#340096" stroke-miterlimit="10"/>
  <circle cx="292.65" cy="289.25" r="2.35" fill="#3b009b"/>
  <g opacity=".15">
    <ellipse cx="292.65" cy="279.84" rx="74.41" ry="27.27" fill="none" stroke="#6300ff" stroke-miterlimit="10"/>
    <path fill="none" stroke="#6300ff" stroke-miterlimit="10" stroke-dasharray="2,2" d="M218.39 281.56L51.24 291.4M522.49 290.03l-155.52-8.91"/>
    <path fill="none" stroke="#6300ff" stroke-miterlimit="10" d="M350.05 262.49l.97-.24"/>
    <path fill="none" stroke="#6300ff" stroke-miterlimit="10" stroke-dasharray="1.9900000095367432,1.9900000095367432" d="M352.95 261.77l88-21.84"/>
    <path fill="none" stroke="#6300ff" stroke-miterlimit="10" d="M441.92 239.69l.97-.24M134.77 358.29l.88-.48"/>
    <path fill="none" stroke="#6300ff" stroke-miterlimit="10" stroke-dasharray="1.9700000286102295,1.9700000286102295" d="M137.38 356.87l102.99-56.06"/>
    <path fill="none" stroke="#6300ff" stroke-miterlimit="10" d="M241.24 300.34l.88-.48M235.25 262.49l-.97-.25"/>
    <path fill="none" stroke="#6300ff" stroke-miterlimit="10" stroke-dasharray="1.9800000190734863,1.9800000190734863" d="M232.37 261.75l-90.98-23.44"/>
    <path fill="none" stroke="#6300ff" stroke-miterlimit="10" d="M140.44 238.06l-.97-.24M442.89 352.14l-.89-.45"/>
    <path fill="none" stroke="#6300ff" stroke-miterlimit="10" stroke-dasharray="1.9700000286102295,1.9700000286102295" d="M440.24 350.8l-97.65-49.28"/>
    <path fill="none" stroke="#6300ff" stroke-miterlimit="10" d="M341.71 301.08l-.89-.45"/>
    <path d="M122.26 353.83l-5.05 1.84a1.25 1.25 0 000 2.35l22.28 8.11a6 6 0 004.11 0l5.05-1.84a1.25 1.25 0 000-2.35l-22.29-8.11a6 6 0 00-4.1 0zM282 393.13l-5.07 1.87a1.23 1.23 0 00-.76 1.58 1.22 1.22 0 00.76.76l22.28 8.11a5.93 5.93 0 004.11 0l5.05-1.83a1.25 1.25 0 000-2.35l-22.29-8.11a6 6 0 00-4.08-.03zM432.7 233.18l-5.05 1.82a1.25 1.25 0 000 2.35l22.28 8.11a6 6 0 004.1 0l5.05-1.84a1.25 1.25 0 000-2.35l-22.28-8.11a6 6 0 00-4.1.02zM36.52 287.53l-5.05 1.84a1.25 1.25 0 000 2.35l22.28 8.11a6 6 0 004.1 0l5-1.84a1.25 1.25 0 000-2.35l-22.28-8.11a6 6 0 00-4.05 0zM519.72 287.13l-5.05 1.87a1.25 1.25 0 000 2.35l22.33 8.08a6 6 0 004.1 0l5-1.84a1.25 1.25 0 000-2.35l-22.28-8.11a6 6 0 00-4.1 0zM123.4 230.53l-5.05 1.84a1.25 1.25 0 000 2.35l22.28 8.11a6 6 0 004.1 0l5.05-1.84a1.25 1.25 0 000-2.35l-22.28-8.11a6 6 0 00-4.1 0zM442.89 352.14l-5.05 1.86a1.25 1.25 0 000 2.35l22.28 8.11a6 6 0 004.11 0l5-1.84a1.25 1.25 0 000-2.35L447 352.14a6 6 0 00-4.11 0z" fill="#6300ff"/>
  </g>
  <path fill="none" stroke="#3b009b" stroke-miterlimit="10" stroke-dasharray="2,2" d="M218.24 259.57l-157.72.04M527.51 259.57H367.06"/>
  <circle cx="137.12" cy="259.57" r="2.35" fill="#3b009b"/>
  <circle cx="450.53" cy="259.57" r="2.35" fill="#3b009b"/>
  <circle cx="393.68" cy="296.93" r="2.35" fill="#3b009b"/>
  <circle cx="392.46" cy="223.83" r="2.35" fill="#3b009b"/>
  <circle cx="292.65" cy="187.98" r="3.13" fill="#3b009b"/>
  <circle cx="193.2" cy="296.34" r="2.35" fill="#3b009b"/>
  <circle cx="292.65" cy="309.29" r="2.35" fill="#3b009b"/>
  <circle cx="237.6" cy="280.19" r="2.35" fill="#3b009b"/>
  <circle cx="193.03" cy="223.86" r="2.35" fill="#3b009b"/>
  <circle cx="242.12" cy="241.76" r="2.35" fill="#3b009b"/>
  <circle cx="347.7" cy="280.19" r="2.35" fill="#3b009b"/>
  <circle cx="342.74" cy="241.79" r="2.35" fill="#3b009b"/>
  <circle cx="367.06" cy="259.57" r="2.35" fill="#3b009b"/>
  <path fill="none" stroke="#3b009b" stroke-miterlimit="10" d="M343.09 241.79l.94-.34"/>
  <path fill="none" stroke="#3b009b" stroke-miterlimit="10" stroke-dasharray="2.0199999809265137,2.0199999809265137" d="M345.93 240.76l94.01-34.22"/>
  <path fill="none" stroke="#3b009b" stroke-miterlimit="10" d="M440.89 206.2l.94-.34M134 317.9l.94-.34"/>
  <path fill="none" stroke="#3b009b" stroke-miterlimit="10" stroke-dasharray="1.9700000286102295,1.9700000286102295" d="M136.79 316.88l98.94-36.01"/>
  <path fill="none" stroke="#3b009b" stroke-miterlimit="10" d="M236.66 280.53l.94-.34M242.12 241.76l-.94-.34"/>
  <path fill="none" stroke="#3b009b" stroke-miterlimit="10" stroke-dasharray="2.009999990463257,2.009999990463257" d="M239.29 240.73l-97.1-35.34"/>
  <path fill="none" stroke="#3b009b" stroke-miterlimit="10" d="M141.25 205.05l-.94-.34M439.66 313.66l-.94-.34"/>
  <path fill="none" stroke="#3b009b" stroke-miterlimit="10" stroke-dasharray="2.0399999618530273,2.0399999618530273" d="M436.8 312.62l-87.21-31.74"/>
  <path fill="none" stroke="#3b009b" stroke-miterlimit="10" d="M348.64 280.53l-.94-.34"/>
  <ellipse cx="450.58" cy="201.48" rx="24.08" ry="33.78" transform="rotate(-21.41 450.574 201.466)" fill="#fff" stroke="#340096" stroke-miterlimit="10" stroke-width="2"/>
  <path d="M471 188.73l-7.31 2.66c5.86 11.63 6.77 25.6 1.43 35.33a19.17 19.17 0 01-9 8.63l.1.28 6.12-2.26a19 19 0 0010.25-9.08c5.33-9.8 4.41-23.88-1.59-35.56z" style="isolation:isolate" fill="#340096" opacity=".08"/>
  <ellipse cx="443.05" cy="204.2" rx="24.08" ry="33.78" transform="rotate(-21.41 443.043 204.207)" fill="#fff"/>
  <ellipse cx="443.05" cy="204.2" rx="24.08" ry="33.78" transform="rotate(-21.41 443.043 204.207)" fill="none" stroke="#340096" stroke-miterlimit="10" stroke-width="2"/>
  <path fill="none" stroke="#340096" stroke-miterlimit="10" stroke-width="2" d="M430.95 172.66l7.65-2.78M455.42 235.63l7.21-2.61"/>
  <path d="M446.44 214.58l-7.75-2.86a2.23 2.23 0 01-1.29-2v-17c0-.82.58-1.28 1.29-1l7.75 2.86a2.21 2.21 0 011.29 2v17c0 .8-.57 1.26-1.29 1zm-7.32-4.7l6.89 2.54v-16l-6.89-2.54zM446.01 218.42l-6.89-2.54v-2l6.89 2.54v2z" fill="#291a8a"/>
  <path fill="#291a8a" d="M443.43 216.47l-1.73-.64v-4l1.73.64v4zM442.57 200.15a3 3 0 01-1.73-2.64c0-1.1.78-1.71 1.73-1.36a3 3 0 011.72 2.64c0 1.1-.77 1.71-1.72 1.36zM442.57 205.15a3 3 0 01-1.73-2.64c0-1.1.78-1.71 1.73-1.36a3 3 0 011.72 2.64c0 1.1-.77 1.71-1.72 1.36zM442.57 210.15a3 3 0 01-1.73-2.64c0-1.1.78-1.71 1.73-1.36a3 3 0 011.72 2.64c0 1.1-.77 1.71-1.72 1.36zM438.26 197.56l-.86-.32a4.43 4.43 0 01-2.59-4v-1l3.45 1.27zm-.86-2.32l.86.32zM438.26 203.56l-.86-.32a4.43 4.43 0 01-2.59-4v-1l3.45 1.27zm-.86-2.32l.86.32zM438.26 209.56l-.86-.32a4.43 4.43 0 01-2.59-4v-1l3.45 1.27zm-.86-2.32l.86.32zM447.73 201.06l-.86-.32v-2l.86.32-.86-.32v-2l3.45 1.27v1c0 1.66-1.16 2.57-2.59 2.05zM447.73 207.06l-.86-.32v-2l.86.32-.86-.32v-2l3.45 1.27v1c0 1.66-1.16 2.57-2.59 2.05zM447.73 213.06l-.86-.32v-2l.86.32-.86-.32v-2l3.45 1.27v1c0 1.66-1.16 2.57-2.59 2.05z"/>
  <ellipse cx="54.25" cy="255.84" rx="24.08" ry="33.78" transform="rotate(-21.41 54.253 255.846)" fill="#fff" stroke="#340096" stroke-miterlimit="10" stroke-width="2"/>
  <path d="M74.68 243.1l-7.31 2.67c5.86 11.63 6.77 25.6 1.43 35.33a19.31 19.31 0 01-9 8.63l.1.28 6.1-2.27a18.91 18.91 0 0010.25-9.08c5.35-9.79 4.4-23.88-1.57-35.56z" style="isolation:isolate" fill="#340096" opacity=".08"/>
  <ellipse cx="46.73" cy="258.57" rx="24.08" ry="33.78" transform="rotate(-21.41 46.727 258.56)" fill="#fff"/>
  <ellipse cx="46.73" cy="258.57" rx="24.08" ry="33.78" transform="rotate(-21.41 46.727 258.56)" fill="none" stroke="#340096" stroke-miterlimit="10" stroke-width="2"/>
  <path fill="none" stroke="#340096" stroke-miterlimit="10" stroke-width="2" d="M34.63 227.04l7.65-2.79M59.1 290.01l7.21-2.62"/>
  <path d="M44.79 252.12a7 7 0 011.39.72 1.77 1.77 0 012.06-.45 4.45 4.45 0 012.58 3.95 2.32 2.32 0 01-.62 1.7 10.77 10.77 0 01.38 1.26 6.27 6.27 0 01.89.55 3.87 3.87 0 001.07-2.85 7.4 7.4 0 00-4.3-6.59 2.93 2.93 0 00-3.91 1.38l-.09.21a4.88 4.88 0 01.55.12zM49.1 249.71l-1.72-.64v-3l1.72.64v3zM52.5 253.43l-1.22-1.87 1.83-1.44 1.22 1.86-1.83 1.45zM55.99 259.25l-2.58-.95v-2l2.58.95v2zM43.97 250.28l-1.82-2.79 1.21-.97 1.83 2.8-1.22.96z" fill="#291a8a"/>
  <path d="M50 270l-10.34-3.82a7.43 7.43 0 01-4.31-6.59c0-2.76 1.94-4.29 4.31-3.41h.07c.42-2.69 2.54-4.07 5.1-3.12a8.85 8.85 0 015.1 6.88H50a7.4 7.4 0 014.31 6.59c-.04 2.84-1.97 4.37-4.31 3.47zm-10.38-11.79c-1.42-.53-2.58.39-2.58 2.05a4.45 4.45 0 002.58 3.95L50 268c1.43.52 2.58-.4 2.58-2a4.4 4.4 0 00-2.58-4l-1.72-.64v-1a5.92 5.92 0 00-3.45-5.27c-1.9-.7-3.44.52-3.44 2.73v1z" fill="#291a8a"/>
  <ellipse cx="141.53" cy="199.34" rx="24.08" ry="33.78" transform="rotate(-21.41 141.53 199.34)" fill="#fff" stroke="#340096" stroke-miterlimit="10" stroke-width="2"/>
  <path d="M162 186.6l-7.31 2.66c5.86 11.63 6.77 25.6 1.43 35.33a19.17 19.17 0 01-9 8.63l.1.28 6.12-2.26a19 19 0 0010.25-9.08c5.28-9.8 4.33-23.88-1.59-35.56z" style="isolation:isolate" fill="#340096" opacity=".08"/>
  <ellipse cx="134" cy="202.07" rx="24.08" ry="33.78" transform="rotate(-21.41 133.999 202.08)" fill="#fff"/>
  <ellipse cx="134" cy="202.07" rx="24.08" ry="33.78" transform="rotate(-21.41 133.999 202.08)" fill="none" stroke="#340096" stroke-miterlimit="10" stroke-width="2"/>
  <path fill="none" stroke="#340096" stroke-miterlimit="10" stroke-width="2" d="M121.9 170.53l7.65-2.78M146.37 233.5l7.21-2.61"/>
  <path fill="#e0d2f1" d="M131.65 194.51l-6.89-2.55v-3l6.89 2.55v3zM141.99 198.32l-6.89-2.54v-3l6.89 2.54v3zM129.93 207.87l-3.45-1.27v-8l3.45 1.27v8zM140.27 211.69l-3.45-1.28v-8l3.45 1.28v8z"/>
  <path d="M130.41 201.05l-4.4-1.63a2.22 2.22 0 01-1.29-1.8l-.92-10 8.82 3.25-.93 9.33a.91.91 0 01-.89.93 1 1 0 01-.39-.08zm-4-3.48l3.59 1.33.67-6.75-5-1.83z" fill="#291a8a"/>
  <path fill="#291a8a" d="M131.65 195.51l-6.89-2.55v-2l6.89 2.55v2zM135.96 203.1l-5.17-1.91v-2l5.17 1.91v2zM135.96 209.1l-5.17-1.91v-2l5.17 1.91v2z"/>
  <path d="M130.2 212l-4-1.47a2 2 0 01-1-1 1.9 1.9 0 01-.17-1.42l.62-2v-8.84l5.17 1.91V208l.63 2.42a1.45 1.45 0 01-.18 1.28.88.88 0 01-1.07.3zm-3.38-3.25l2.78 1-.53-2v-7.16l-1.72-.63v7.16z" fill="#291a8a"/>
  <path fill="#291a8a" d="M130.79 209.19l-5.17-1.91v-2l5.17 1.91v2zM140.75 204.86l-4.4-1.62a2.24 2.24 0 01-1.29-1.81l-.92-10 8.81 3.26L142 204a.91.91 0 01-.89.93.86.86 0 01-.36-.07zm-4-3.48l3.63 1.34.62-6.72-5-1.84z"/>
  <path fill="#291a8a" d="M141.99 199.32l-6.89-2.54v-2l6.89 2.54v2zM140.53 215.78l-4-1.46a2 2 0 01-1.05-1 2 2 0 01-.18-1.42l.63-2v-8.8l5.17 1.9v8.84l.63 2.42a1.51 1.51 0 01-.18 1.29.88.88 0 01-1.02.23zm-3.37-3.24l2.77 1-.52-2v-7.16l-1.73-.64v7.16z"/>
  <path fill="#291a8a" d="M141.13 213l-5.17-1.9v-2l5.17 1.9v2z"/>
  <ellipse cx="133.37" cy="204.16" rx=".77" ry="1.12" transform="rotate(-28.38 133.37 204.157)" fill="#291a8a"/>
  <ellipse cx="138.84" cy="321.6" rx="24.08" ry="33.78" transform="rotate(-21.41 138.851 321.614)" fill="#fff" stroke="#340096" stroke-miterlimit="10" stroke-width="2"/>
  <path d="M159.27 308.86l-7.27 2.66c5.86 11.63 6.77 25.6 1.43 35.33a19.21 19.21 0 01-9 8.63l.1.28 6.12-2.27a18.93 18.93 0 0010.25-9.07c5.29-9.8 4.34-23.89-1.63-35.56z" style="isolation:isolate" fill="#340096" opacity=".08"/>
  <ellipse cx="131.32" cy="324.33" rx="24.08" ry="33.78" transform="rotate(-21.41 131.325 324.328)" fill="#fff"/>
  <path d="M139.37 332.8l-5.17-1.91c-.48-.18-.86.13-.86.68v6" fill="#e0d2f1"/>
  <path d="M133.7 338.71l-9-3.32a3 3 0 01-1.72-2.63v-3l1.72.63v3l8.27 3.05 5.52-4.37v-13.59l-13.79-5.09v3l-1.72-.63v-3c0-1.11.77-1.72 1.72-1.37l13.79 5.09a3 3 0 011.72 2.63v14.42z" fill="#291a8a"/>
  <path d="M134.2 337.89l-1.72-.64v-6.5c0-.82.58-1.28 1.29-1l5.6 2.07v2l-5.17-1.91zM133.69 324.7L123 320.76v-2l6.89 2.54v-2.41l3.8 5.81zM123.86 327.49l-3.8-5.82 10.69 3.95v2l-6.89-2.55v2.42z" fill="#291a8a"/>
  <ellipse cx="131.32" cy="324.33" rx="24.08" ry="33.78" transform="rotate(-21.41 131.325 324.328)" fill="none" stroke="#340096" stroke-miterlimit="10" stroke-width="2"/>
  <path fill="none" stroke="#340096" stroke-miterlimit="10" stroke-width="2" d="M119.22 292.79l7.65-2.79M143.69 355.76l7.21-2.62"/>
  <ellipse cx="460.33" cy="320.24" rx="24.08" ry="33.78" transform="rotate(-21.41 460.333 320.258)" fill="#fff" stroke="#340096" stroke-miterlimit="10" stroke-width="2"/>
  <path d="M480.76 307.49l-7.32 2.66c5.86 11.63 6.77 25.6 1.44 35.33a19.18 19.18 0 01-9.05 8.63l.1.28 6.13-2.26a18.89 18.89 0 0010.24-9.08c5.38-9.8 4.42-23.88-1.54-35.56z" style="isolation:isolate" fill="#340096" opacity=".08"/>
  <ellipse cx="452.81" cy="322.97" rx="24.08" ry="33.78" transform="rotate(-21.41 452.807 322.971)" fill="#fff"/>
  <ellipse cx="452.81" cy="322.97" rx="24.08" ry="33.78" transform="rotate(-21.41 452.807 322.971)" fill="none" stroke="#340096" stroke-miterlimit="10" stroke-width="2"/>
  <path fill="none" stroke="#340096" stroke-miterlimit="10" stroke-width="2" d="M440.7 291.42l7.65-2.78M465.18 354.39l7.2-2.62"/>
  <path fill="#e0d2f1" d="M459.42 316.84l-17.23-6.35v4l17.23 6.35v-4z"/>
  <path d="M448.22 331.71l-5.6-2.07a2.21 2.21 0 01-1.29-2v-17c0-.83.57-1.29 1.29-1l16.37 6a2.23 2.23 0 011.29 2v4.5l-1.72-.63v-4l-15.51-5.73v16l5.17 1.91z" fill="#291a8a"/>
  <path fill="#291a8a" d="M459.42 321.84l-17.23-6.35v-2l17.23 6.35v2zM446.49 312.07l-1.72-.63v-3l1.72.63v3zM456.83 315.89l-1.72-.64v-3l1.72.64v3zM451.66 334.98l-1.72-.63v-8l1.72.63v8zM455.11 336.25l-1.72-.63v-13l1.72.63v13zM458.56 337.52l-1.73-.63v-8l1.73.63v8zM462 338.8l-1.72-.64v-13l1.72.64v13z"/>
  <ellipse cx="538.3" cy="255.87" rx="24.08" ry="33.78" transform="rotate(-21.41 538.304 255.883)" fill="#fff" stroke="#340096" stroke-miterlimit="10" stroke-width="2"/>
  <path d="M558.73 243.12l-7.32 2.66c5.86 11.64 6.77 25.6 1.43 35.34a19.31 19.31 0 01-9 8.63l.1.28 6.12-2.27a18.91 18.91 0 0010.25-9.08c5.33-9.79 4.38-23.88-1.58-35.56z" style="isolation:isolate" fill="#340096" opacity=".08"/>
  <ellipse cx="530.78" cy="258.61" rx="24.08" ry="33.78" transform="rotate(-21.41 530.778 258.596)" fill="#fff"/>
  <ellipse cx="530.78" cy="258.61" rx="24.08" ry="33.78" transform="rotate(-21.41 530.778 258.596)" fill="none" stroke="#340096" stroke-miterlimit="10" stroke-width="2"/>
  <path fill="none" stroke="#340096" stroke-miterlimit="10" stroke-width="2" d="M518.67 227.06l7.65-2.79M543.14 290.03l7.21-2.62"/>
  <path d="M528.83 269.83v-2.18a8.93 8.93 0 01-2.79-2 14 14 0 01-2-2.65l1.59-1.08a11.25 11.25 0 001.47 2.08 6.54 6.54 0 001.85 1.41v-5.67a10.86 10.86 0 01-3.4-3 6.09 6.09 0 01-1-3.48 3.12 3.12 0 011.16-2.79 3.89 3.89 0 013.13-.28V248l1.86.68v2.2a8.42 8.42 0 012.43 1.71 10.55 10.55 0 011.79 2.46l-1.61.94a8.44 8.44 0 00-1.14-1.64 6.14 6.14 0 00-1.6-1.27v5.19l.08.06a19.24 19.24 0 012 1.54 7.92 7.92 0 011.38 1.51 5.4 5.4 0 01.78 1.6 6.24 6.24 0 01.24 1.82 3.22 3.22 0 01-2.68 3.67 3.16 3.16 0 01-1.72-.21v2.22zm-2-15.82a3 3 0 00.53 1.8 6.78 6.78 0 001.65 1.51v-4.81a2.17 2.17 0 00-1.62.16 1.5 1.5 0 00-.58 1.33zm6 10.15a3.31 3.31 0 00-.48-1.76 5.66 5.66 0 00-1.76-1.65V266a1.71 1.71 0 002.24-1.85z" fill="#291a8a"/>
  <ellipse cx="292.65" cy="259.57" rx="26.8" ry="8.34" fill="#fff" stroke="#2e1091" stroke-linejoin="round"/>
  <path fill="none" stroke="#3b009b" stroke-miterlimit="10" d="M292.65 208.05v1"/>
  <path fill="none" stroke="#3b009b" stroke-miterlimit="10" stroke-dasharray="1.9900000095367432,1.9900000095367432" d="M292.65 211.05v54.86"/>
  <path fill="none" stroke="#3b009b" stroke-miterlimit="10" d="M292.65 266.91v1M292.65 333.81v-1"/>
  <path fill="none" stroke="#3b009b" stroke-miterlimit="10" stroke-dasharray="2.0299999713897705,2.0299999713897705" d="M292.65 330.78v-39.65"/>
  <path fill="none" stroke="#3b009b" stroke-miterlimit="10" d="M292.65 290.11v-1"/>
  <path d="M281.68 203.7c0 2 4.91 3.63 11 3.63s11-1.62 11-3.63v-24.65h-22z" fill="#fff" stroke="#340096" stroke-linejoin="round" stroke-width="2"/>
  <path d="M297.49 207c3.63-.6 6.13-1.83 6.13-3.26v-24.69h-6.13z" style="isolation:isolate" fill="#8400d6" opacity=".05"/>
  <path d="M281.68 199.18c0 2 4.91 3.63 11 3.63s11-1.63 11-3.63" style="isolation:isolate" fill="none" stroke="#340096" stroke-miterlimit="10" opacity=".05"/>
  <ellipse cx="292.65" cy="179.05" rx="10.97" ry="3.63" fill="#f5f2f9"/>
  <path d="M283.38 181a21.81 21.81 0 019.27-1.69c3.9 0 7.32.68 9.26 1.69 1.08-.56 1.71-1.22 1.71-1.94 0-2-4.91-3.63-11-3.63s-11 1.63-11 3.63c.06.71.69 1.37 1.76 1.94z" fill="#fff"/>
  <ellipse cx="292.65" cy="179.05" rx="10.97" ry="3.63" fill="none" stroke="#340096" stroke-linejoin="round" stroke-width="2"/>
  <path fill="none" stroke="#3b009b" stroke-miterlimit="10" d="M292.65 122.32v1"/>
  <path fill="none" stroke="#3b009b" stroke-miterlimit="10" stroke-dasharray="2,2" d="M292.65 125.31v54.87"/>
  <path fill="none" stroke="#3b009b" stroke-miterlimit="10" d="M292.65 181.18v1"/>
  <path d="M322.37 353.81a12.68 12.68 0 00-2.47-3.89l-17.79-18.81a9.09 9.09 0 00-3.39-2.32 5.16 5.16 0 00-3.38-.12l-17.79 6a4.65 4.65 0 00-2.48 2.1 7.57 7.57 0 00-.9 3.76v24.81a11.89 11.89 0 00.9 4.4 12.52 12.52 0 002.48 3.89l17.79 18.81a8.86 8.86 0 003.38 2.32 5.06 5.06 0 003.39.12l17.79-6a4.56 4.56 0 002.47-2.1 7.54 7.54 0 00.91-3.75v-24.81a12 12 0 00-.91-4.41" fill="url(#a)"/>
  <path d="M315.19 356.23a12.68 12.68 0 00-2.47-3.89l-17.79-18.81a9.09 9.09 0 00-3.39-2.32 5.16 5.16 0 00-3.38-.12l-17.79 6a4.5 4.5 0 00-2.47 2.11 7.54 7.54 0 00-.9 3.8v24.81a11.9 11.9 0 00.91 4.4 12.49 12.49 0 002.47 3.89l17.79 18.82a9 9 0 003.38 2.31 5.06 5.06 0 003.39.12l17.79-6a4.56 4.56 0 002.47-2.1 7.44 7.44 0 00.91-3.75v-24.86a11.52 11.52 0 00-.91-4.41" fill="url(#b)"/>
  <path d="M285.5 366.66a15.52 15.52 0 01-2.5-8.2 8.19 8.19 0 012.5-6.39 5.88 5.88 0 016-.84 12.57 12.57 0 016 5.2 15.57 15.57 0 012.5 8.19 8.17 8.17 0 01-2.5 6.4 5.29 5.29 0 01-2.36 1.16l3.62 5.69 2-1.71c5.14-4.36 5.14-14.44 0-22.51s-13.5-11.08-18.65-6.73-5.14 14.45 0 22.52l9.32 14.62 3.29-2.78z" fill="#fff"/>
  <path d="M291.55 365a4.17 4.17 0 01-2-1.73 5.09 5.09 0 01-.83-2.73 2.7 2.7 0 01.83-2.13 1.94 1.94 0 012-.28 4.12 4.12 0 012 1.73 5.09 5.09 0 01.83 2.73 2.7 2.7 0 01-.83 2.13 1.94 1.94 0 01-2 .28" fill="#fff"/>
  <path fill="none" stroke="#340096" stroke-linejoin="round" stroke-width="2" d="M257.36 123.68l35.35-12.87 35.23 12.87M292.65 96.02V63.85"/>
  <path style="isolation:isolate" fill="#fff" opacity=".95" d="M292.65 63.85L257.36 76.7v46.98l35.29 12.84 35.29-12.84V76.7l-35.29-12.85z"/>
  <path fill="none" stroke="#340096" stroke-linejoin="round" stroke-width="2" d="M327.94 76.7v46.98l-35.29 12.84-35.29-12.84V76.7l35.29-12.85 35.29 12.85zM292.65 89.54L257.36 76.7"/>
  <path fill="none" stroke="#340096" stroke-linejoin="round" stroke-width="2" d="M292.65 136.52V89.54l35.29-12.84v46.98l-35.29 12.84z"/>
  <path style="isolation:isolate" fill="#340096" opacity=".05" d="M292.65 136.52V89.54l35.29-12.84v46.98l-35.29 12.84z"/>
  <circle cx="292.65" cy="154.33" r="2.35" fill="#3b009b"/>
  <circle cx="292.65" cy="259.37" r="2.35" fill="#3b009b"/>
  <circle cx="218.24" cy="259.61" r="2.35" fill="#3b009b"/>
</svg>