<svg xmlns="http://www.w3.org/2000/svg" viewBox="0 0 588 440"><defs><clipPath id="clip-path"><path class="cls-1" d="M224.26 249.07c-12.09-12.35-26.43-16.22-37.94-11.89l-7.75 2.82 4 11c-7.33 19.7-.78 47.36 16.1 64.6a51.39 51.39 0 0010.15 8.1l4.46 12.34 9.26-3.43c6.23-2.21 11.68-6.76 15.5-13.73 10.81-19.73 4.65-50.99-13.78-69.81z"/></clipPath><clipPath id="clip-path-2"><path class="cls-1" d="M318.9 283.51c-12.09-12.35-26.43-16.22-37.94-11.89l-7.75 2.81 4 11c-7.33 19.7-.78 47.36 16.1 64.6a51.39 51.39 0 0010.15 8.1l4.46 12.34 9.26-3.43c6.23-2.21 11.68-6.76 15.5-13.73 10.81-19.72 4.65-50.98-13.78-69.8z"/></clipPath><clipPath id="clip-path-3"><path class="cls-1" d="M129.09 214.41c-12.09-12.34-26.43-16.22-37.94-11.89l-7.75 2.82 4 11c-7.33 19.71-.78 47.36 16.1 64.6a51.82 51.82 0 0010.15 8.11l4.46 12.33 9.26-3.43c6.23-2.21 11.68-6.76 15.5-13.73 10.81-19.73 4.65-50.99-13.78-69.81z"/></clipPath><style>.cls-1,.cls-14,.cls-2{fill:#fff}.cls-1,.cls-18{stroke:#3b009b}.cls-1,.cls-13,.cls-18,.cls-2,.cls-7{stroke-linejoin:round}.cls-1,.cls-18,.cls-2{stroke-width:2px}.cls-2,.cls-7{stroke:#340096}.cls-16,.cls-5{opacity:.05}.cls-4,.cls-5{fill:#340096}.cls-6{fill:#ff5b0b}.cls-13,.cls-18,.cls-7{fill:none}.cls-13,.cls-7{stroke-dasharray:2 2}.cls-8{fill:#ff0061}.cls-9{fill:#fa0}.cls-11{fill:#6300ff}.cls-13{stroke:#6300ff}.cls-17{fill:#3b009b}.cls-19{fill:#ff005e}</style></defs><g id="Layer_14" data-name="Layer 14"><path class="cls-2" d="M500.08 165L265.39 79.55a2.31 2.31 0 00-1.62 0l-15.25 5.55 13.77 14.32v108.9a4.62 4.62 0 003.05 4.35l205.42 74.77 15.59 16.2 15.29-5.56a2.32 2.32 0 001.49-2.16v-126.6a4.63 4.63 0 00-3.05-4.32z"/><path d="M468.38 286.58l2.37.86 15.59 16.2 15.29-5.56a2.32 2.32 0 001.49-2.16v-126.6a4.6 4.6 0 00-.88-2.71L487 172.15z" opacity=".05" fill="#8400d6"/><path class="cls-2" d="M250.11 218.21l234.69 85.42a2.31 2.31 0 003.1-2.17v-126.6a4.62 4.62 0 00-3-4.35L250.17 85.09a2.31 2.31 0 00-3.1 2.18v126.59a4.61 4.61 0 003.04 4.35z"/><path class="cls-4" d="M264.69 121.67l-.66-2.89-2.79-1-.65 2.42-1.78-.65 2.64-9.51 2.46.89 2.66 11.43zm-2-9.25h-.1l-1 3.9 2.19.79zM268.39 112.54l2.93 1.06c2.44.89 3.63 3.16 3.63 6.55s-1.19 4.81-3.63 3.92l-2.93-1.07zm2.81 9.91c1.29.47 1.9-.28 1.9-2.07v-1.81c0-1.77-.61-3-1.9-3.44l-1.07-.38v7.32zM277.3 126.24v-10.47l5.95 2.15v1.62l-4.18-1.54v2.73l4 1.46v1.62l-4-1.46v2.88l4.18 1.51v1.62zM286.3 129.5V119l1.77.64v8.85l4.17 1.51v1.62zM294.84 132.59v-10.47l6 2.16v1.62l-4.19-1.52v2.73l4 1.46v1.62l-4-1.46v2.88l4.19 1.51v1.63zM311.94 133.55c0-3.45 1.17-5 3.62-4.11a5.09 5.09 0 013.22 4l-1.63-.08a2.71 2.71 0 00-1.62-2.29c-1.21-.44-1.71.49-1.71 2.29v1.79c0 1.8.5 3.1 1.71 3.54 1 .36 1.38-.24 1.62-1.13l1.63 1.1c-.41 1.49-1.34 2.32-3.22 1.64-2.45-.92-3.62-3.3-3.62-6.75zM320.53 136.65c0-3.42 1.1-5 3.56-4.12s3.57 3.28 3.57 6.7-1.11 5-3.57 4.13-3.56-3.29-3.56-6.71zm5.25 2.79v-1.79c0-1.8-.43-3.06-1.69-3.52s-1.69.5-1.69 2.3v1.8c0 1.8.44 3.07 1.69 3.52s1.69-.5 1.69-2.31zM331.37 138.3l-.14-.05v7.51l-1.51-.54v-10.47l2.17.78 2.47 8.41.14.05v-7.51l1.5.52v10.47l-2.17-.78zM338.26 143.07c0-3.45 1.16-5 3.62-4.1a5.06 5.06 0 013.21 4l-1.62-.08a2.74 2.74 0 00-1.62-2.3c-1.21-.44-1.71.49-1.71 2.29v1.8c0 1.8.5 3.09 1.71 3.53 1 .37 1.38-.23 1.62-1.12l1.62 1.1c-.4 1.48-1.33 2.32-3.21 1.64-2.46-.92-3.62-3.31-3.62-6.76zM347.48 151.65v-10.47l5.95 2.15V145l-4.18-1.51v2.73l4 1.46v1.62l-4-1.46v2.88l4.18 1.51v1.62zM358 155.45l-1.77-.64v-10.47l3.58 1.29a4.31 4.31 0 012.84 4.27c0 1.53-.68 2.41-1.85 2.27l2 5-2-.71-1.79-4.71-1.07-.39zm1.45-5.07c.94.34 1.33.06 1.33-.87v-.57a1.75 1.75 0 00-1.33-1.83l-1.45-.53v3.27zM368.83 150.53v8.85l-1.75-.64v-8.85l-2.84-1v-1.62l7.43 2.68v1.62z"/><path class="cls-5" d="M391.58 197.77l-133.03-48.42v-17.23l133.03 48.42v17.23zM471.95 227.03l-72.58-26.42v-17.24l72.58 26.42v17.24zM471.95 200.24l-16.98-6.18v-17.23l16.98 6.18v17.23z"/><ellipse class="cls-5" cx="279.31" cy="194.14" rx="15.92" ry="22.33" transform="rotate(-21.41 279.343 194.162)"/><path class="cls-6" d="M287.88 178.52a19.75 19.75 0 00-8.57-5.37v2.35a18 18 0 017 4.6c7.4 7.55 9.93 20.05 5.65 27.85a9.78 9.78 0 01-8.75 5.53c-3.64 0-7.48-1.88-10.82-5.29a27.87 27.87 0 01-7.72-19.39l-2.19-.8a30.14 30.14 0 008.3 21.77c3.91 4 8.35 6 12.43 6A12 12 0 00293.9 209c4.73-8.59 2.04-22.26-6.02-30.48z"/><ellipse class="cls-6" cx="279.31" cy="194.14" rx="4.74" ry="6.64" transform="rotate(-21.41 279.343 194.162)"/><path class="cls-7" d="M279.31 194.14L109.2 256.06"/><ellipse class="cls-5" cx="367.72" cy="226.32" rx="15.92" ry="22.33" transform="rotate(-21.41 367.746 226.325)"/><path class="cls-8" d="M376.29 210.7a19.93 19.93 0 00-8.57-5.38v2.35a18.23 18.23 0 017 4.6c7.4 7.56 9.93 20 5.65 27.86a9.8 9.8 0 01-8.75 5.52c-3.64 0-7.48-1.87-10.82-5.28-7.4-7.55-9.93-20.05-5.65-27.86a10.14 10.14 0 016.33-5.21l-.71-2.15a12.34 12.34 0 00-7.6 6.28c-4.73 8.63-2 22.29 6 30.52 3.9 4 8.34 6 12.43 6a12 12 0 0010.72-6.69c4.68-8.67 2.02-22.34-6.03-30.56z"/><ellipse class="cls-8" cx="367.72" cy="226.32" rx="4.74" ry="6.64" transform="rotate(-21.41 367.746 226.325)"/><path class="cls-7" d="M367.72 226.32l-170.11 61.92"/><ellipse class="cls-5" cx="455.04" cy="258.1" rx="15.92" ry="22.33" transform="rotate(-21.6 448.919 254.714)"/><path class="cls-9" d="M463.61 242.48a20 20 0 00-8.61-5.38v2.35a18.42 18.42 0 017 4.6c7.39 7.56 9.93 20.06 5.65 27.86a10.47 10.47 0 01-5 4.78l.86 2.09a12.68 12.68 0 006.16-5.78c4.68-8.63 1.99-22.3-6.06-30.52z"/><ellipse class="cls-9" cx="455.04" cy="258.1" rx="4.74" ry="6.64" transform="rotate(-21.41 455.068 258.118)"/><path class="cls-7" d="M455.04 258.1l-170.11 61.92"/><g opacity=".15"><path class="cls-11" d="M84.43 295.58l-7.69 2.8a1 1 0 000 1.88l35.36 12.87a6 6 0 004.11 0l7.69-2.8a1 1 0 000-1.88l-35.37-12.87a6 6 0 00-4.1 0zM178.4 329.78l-7.69 2.8a1 1 0 000 1.88l35.37 12.88a6 6 0 004.11 0l7.69-2.8a1 1 0 000-1.88l-35.37-12.88a6 6 0 00-4.11 0zM272.38 364l-7.69 2.8a1 1 0 000 1.88l35.37 12.87a6 6 0 004.11 0l7.69-2.8a1 1 0 000-1.88L276.49 364a6 6 0 00-4.11 0z"/><path d="M265.66 222.54l-16.23 5.9a1.66 1.66 0 000 3.12l231.7 84.34a7.89 7.89 0 005.38 0l16.23-5.9a1.66 1.66 0 000-3.12L271 222.54a7.78 7.78 0 00-5.34 0z" fill="#5700fc"/><path class="cls-13" d="M277.43 238.94L109.2 300.17M369.98 272.57l-172.37 62.74M465.51 307.07L285 372.77"/></g><path class="cls-14" d="M224.26 249.07c-12.09-12.35-26.43-16.22-37.94-11.89l-7.75 2.82 4 11c-7.33 19.7-.78 47.36 16.1 64.6a51.39 51.39 0 0010.15 8.1l4.46 12.34 9.26-3.43c6.23-2.21 11.68-6.76 15.5-13.73 10.81-19.73 4.65-50.99-13.78-69.81z"/><g class="cls-16" clip-path="url(#clip-path)"><path class="cls-17" d="M215.28 288.29l37.84-14.41 11.47 39.45-49.31 33.34v-58.38z"/></g><path class="cls-18" d="M224.26 249.07c-12.09-12.35-26.43-16.22-37.94-11.89l-7.75 2.82 4 11c-7.33 19.7-.78 47.36 16.1 64.6a51.39 51.39 0 0010.15 8.1l4.46 12.34 9.26-3.43c6.23-2.21 11.68-6.76 15.5-13.73 10.81-19.73 4.65-50.99-13.78-69.81z"/><ellipse class="cls-1" cx="195.13" cy="288.28" rx="36.43" ry="51.09" transform="rotate(-21.41 195.146 288.288)"/><path class="cls-19" d="M210.61 257.41a39.84 39.84 0 00-15.48-10.19v3.1a38 38 0 0113.39 9.14c15.38 15.71 20.71 41.58 11.88 57.68-3.79 6.93-9.79 10.74-16.88 10.74-7.25 0-15-3.82-21.77-10.76-15.39-15.7-20.72-41.58-11.89-57.68 3.16-5.75 7.84-9.35 13.4-10.4l-.85-2.84c-6.3 1.28-11.57 5.36-15.12 11.83-9.41 17.15-3.86 44.58 12.36 61.15 7.35 7.5 15.82 11.63 23.87 11.63 8.21 0 15.12-4.35 19.46-12.26 9.4-17.15 3.86-44.55-12.37-61.14z"/><path class="cls-19" d="M185.55 288.66l-4.77-1.73c4.47-1.86 7.07-3.69 7.93-7.67l-.21-.14c-.73 1.35-1.93 2.37-4.35 1.5a8.92 8.92 0 01-5.54-8.47c0-4.2 2.7-6.17 6.86-4.66 4.34 1.57 6.89 5.68 6.89 10.65 0 5.96-3.62 9.35-6.81 10.52zm3.19-13v-.36a4.78 4.78 0 00-3.25-4.78c-2.11-.76-3.27.13-3.27 2.42v.36a4.78 4.78 0 003.27 4.76c2.04.78 3.25-.06 3.25-2.36zM209.27 297.25l-13.19-4.78v-3.63l6-3.51c2-1.19 2.95-2.3 2.95-4.06V281a4.13 4.13 0 00-2.84-4.07c-2-.7-2.92.32-3.38 1.88l-3.05-2.39c.8-2.45 2.84-4.15 6.73-2.74a9 9 0 016.27 8.43c0 3.4-2.07 4.88-4.77 6.32l-4.08 2.19 9.36 3.38z"/><path class="cls-17" d="M184.15 308l-1-.35v-5.81l2 .72a2.39 2.39 0 011.57 2.37c0 .85-.37 1.33-1 1.26l1.11 2.78-1.07-.39-1-2.62-.59-.21zm.8-2.81c.52.19.74 0 .74-.48v-.31a1 1 0 00-.74-1l-.8-.29v1.81zM190.79 310.36l-.36-1.6-1.55-.57-.36 1.35-1-.36 1.47-5.27 1.36.49 1.48 6.34zm-1.1-5.13h-.06l-.58 2.16 1.21.44zM193.71 307.25h-.07v4.17l-.84-.3v-5.81l1.21.44 1.37 4.66h.07v-4.17l.84.3v5.81l-1.21-.44zM199.24 310.87l-.55.6v1.75l-1-.36v-5.8l1 .35V310h.05l.6-.74 1.1-1.25 1.11.4-1.64 1.85 1.72 4-1.11-.4zM181.48 298.57v-5.81l1 .36V298l2.31.84v.9zM185.86 297.25c0-1.89.62-2.78 2-2.28s2 1.82 2 3.71-.62 2.78-2 2.29-2-1.82-2-3.72zm2.92 1.55v-1c0-1-.25-1.7-.94-1.95s-.94.27-.94 1.27v1c0 1 .24 1.7.94 1.95s.94-.27.94-1.27zM190.83 299.05c0-1.91.65-2.77 2-2.27a2.79 2.79 0 011.78 2.2l-.9-.05a1.5 1.5 0 00-.9-1.27c-.67-.24-.95.27-.95 1.27v1c0 1 .28 1.71.95 2s.77-.14.9-.63l.9.61a1.19 1.19 0 01-1.78.91c-1.35-.53-2-1.82-2-3.77zM198.69 304.8l-.37-1.61-1.55-.56-.36 1.34-1-.35 1.47-5.28 1.36.5 1.48 6.33zm-1.11-5.14h-.06l-.58 2.16 1.21.44zM200.94 305.61v-5.8l1 .35v4.91l2.31.84v.9zM204.27 308.47v2.26l-.45-.16v-2.26l-.72-.26v-.42l1.89.69v.41zM206.76 310.39v-.76l-.47 1.2-.46-1.54v2.02l-.4-.15v-2.67l.54.2.33 1.1.34-.86.5.18v2.67l-.39-.14z"/><path class="cls-14" d="M318.9 283.51c-12.09-12.35-26.43-16.22-37.94-11.89l-7.75 2.81 4 11c-7.33 19.7-.78 47.36 16.1 64.6a51.39 51.39 0 0010.15 8.1l4.46 12.34 9.26-3.43c6.23-2.21 11.68-6.76 15.5-13.73 10.81-19.72 4.65-50.98-13.78-69.8z"/><g class="cls-16" clip-path="url(#clip-path-2)"><path class="cls-17" d="M309.93 322.73l37.83-14.41 11.47 39.45-49.3 33.34v-58.38z"/></g><path class="cls-18" d="M318.9 283.51c-12.09-12.35-26.43-16.22-37.94-11.89l-7.75 2.81 4 11c-7.33 19.7-.78 47.36 16.1 64.6a51.39 51.39 0 0010.15 8.1l4.46 12.34 9.26-3.43c6.23-2.21 11.68-6.76 15.5-13.73 10.81-19.72 4.65-50.98-13.78-69.8z"/><ellipse class="cls-1" cx="289.77" cy="322.72" rx="36.43" ry="51.09" transform="rotate(-21.41 289.797 322.755)"/><path class="cls-9" d="M303.16 293.9c15.38 15.71 20.71 41.58 11.88 57.68-3.48 6.36-8.82 10.08-15.16 10.65l.81 2.87c7.1-.81 13.05-5 16.93-12.11 9.4-17.15 3.86-44.58-12.36-61.14a39.87 39.87 0 00-15.49-10.19v3.1a37.87 37.87 0 0113.39 9.14zM281.56 323.6v-4l-8.66-3.14v-3.33l7.64-10.67 4.36 1.54v13.73l2.53.91v3l-2.53-.91v4zm-5.79-9.16l5.79 2.1v-9.92l-.22-.08z"/><path class="cls-9" d="M291.6 327.24v-3.19l5.15 1.86v-14.77l-.24-.09-4.07 3.89-2.2-2.86 4.63-4.45 5.39 1.95v17.6l4.23 1.53v3.19z"/><path class="cls-17" d="M278.48 342.29l-1-.36v-5.8l2 .72a2.38 2.38 0 011.58 2.36c0 .85-.38 1.34-1 1.26l1.12 2.78-1.08-.39-1-2.61-.59-.21zm.8-2.81c.52.19.74 0 .74-.48v-.32a1 1 0 00-.74-1l-.8-.29v1.82zM285.13 344.7l-.37-1.61-1.55-.56-.36 1.34-1-.36 1.47-5.27 1.36.49 1.48 6.34zm-1.13-5.14h-.06l-.58 2.16 1.21.44zM288 341.59h-.07v4.17l-.84-.31v-5.8l1.21.43 1.37 4.67h.07v-4.16l.84.3v5.8l-1.21-.43zM293.57 345.21l-.55.6v1.74l-1-.35v-5.81l1 .36v2.61h.05l.6-.75 1.1-1.25 1.11.41-1.64 1.85 1.72 4-1.11-.4zM271.2 331.23l-.37-1.6-1.55-.56-.36 1.34-1-.36 1.47-5.27 1.36.49 1.48 6.34zm-1.11-5.13h-.06l-.58 2.16 1.22.44zM274.26 332.34l-1.43-6.34 1.07.39.66 3.17.38 2h.05l.39-1.69.66-2.7 1 .37-1.43 5.29zM278.15 333.75v-.81l1.18.42v-4.17l-1.18-.43V328l3.33 1.2v.8l-1.18-.42v4.17l1.18.43v.82zM285.79 336.52l-.36-1.61-1.55-.56-.36 1.34-1-.35 1.47-5.28 1.36.5 1.47 6.33zm-1.11-5.14h-.06l-.57 2.16 1.21.44zM290 333.14v4.91l-1-.35v-4.91l-1.58-.57v-.9l4.12 1.5v.89zM292.74 339v-.82l1.18.42v-4.17l-1.18-.43v-.81l3.33 1.2v.82l-1.18-.43V339l1.18.42v.82zM297.3 337.78c0-1.9.61-2.78 2-2.29s2 1.83 2 3.72-.61 2.78-2 2.29-2-1.82-2-3.72zm2.91 1.55v-1c0-1-.24-1.71-.94-2s-.93.28-.93 1.28v1c0 1 .24 1.7.93 1.95s.94-.23.94-1.23zM303.31 338.69h-.08v4.17l-.84-.3v-5.81l1.21.44 1.37 4.66h.07v-4.17l.84.31v5.8l-1.2-.43zM298.6 342.8v2.26l-.45-.16v-2.26l-.72-.26V342l1.89.68v.42zM301.09 344.73v-.77l-.47 1.21-.46-1.54v2.02l-.4-.14v-2.67l.54.19.34 1.11.34-.86.5.18v2.68l-.39-.14z"/><path class="cls-14" d="M129.09 214.41c-12.09-12.34-26.43-16.22-37.94-11.89l-7.75 2.82 4 11c-7.33 19.71-.78 47.36 16.1 64.6a51.82 51.82 0 0010.15 8.11l4.46 12.33 9.26-3.43c6.23-2.21 11.68-6.76 15.5-13.73 10.81-19.73 4.65-50.99-13.78-69.81z"/><g class="cls-16" clip-path="url(#clip-path-3)"><path class="cls-17" d="M120.11 253.63l37.84-14.4 11.47 39.44-49.31 33.34v-58.38z"/></g><path class="cls-18" d="M129.09 214.41c-12.09-12.34-26.43-16.22-37.94-11.89l-7.75 2.82 4 11c-7.33 19.71-.78 47.36 16.1 64.6a51.82 51.82 0 0010.15 8.11l4.46 12.33 9.26-3.43c6.23-2.21 11.68-6.76 15.5-13.73 10.81-19.73 4.65-50.99-13.78-69.81z"/><ellipse class="cls-1" cx="99.96" cy="253.62" rx="36.43" ry="51.09" transform="rotate(-21.41 99.98 253.642)"/><path class="cls-6" d="M115.44 222.75A40.07 40.07 0 00100 212.56v3.1a38 38 0 0113.39 9.14c15.38 15.71 20.71 41.59 11.88 57.68-3.79 6.93-9.79 10.74-16.88 10.74-7.25 0-15-3.82-21.77-10.75a58.18 58.18 0 01-16.14-39.59l-2.89-1a61.19 61.19 0 0016.93 42.69c7.35 7.5 15.82 11.64 23.87 11.64 8.21 0 15.12-4.36 19.46-12.27 9.36-17.19 3.82-44.62-12.41-61.19z"/><path class="cls-6" d="M86.81 252.71l6.68-15.18-6.68-2.42v3.81l-3-1.08v-7L97 235.6v3.4l-6.46 15.05zM113.24 244.89l-8.58-3.11-.45 6.81.21.07c.83-1.45 2-2.24 4.15-1.44a9.07 9.07 0 015.71 8.62c0 4.14-2.54 6.26-7 4.63a11.44 11.44 0 01-6.54-6.2l2.55-1.32c.88 1.93 2 3.57 4 4.33s3.29-.21 3.29-2.44v-.24a4.79 4.79 0 00-3.27-4.67 2.86 2.86 0 00-3.11.42l-2.87-1.48.7-11.42 11.18 4z"/><path class="cls-17" d="M89 273.3l-1-.36v-5.8l2 .72a2.38 2.38 0 011.57 2.36c0 .85-.37 1.34-1 1.26l1.11 2.78-1.07-.39-1-2.61L89 271zm.8-2.81c.52.19.74 0 .74-.48v-.32a1 1 0 00-.74-1l-.8-.29v1.82zM95.62 275.71l-.36-1.61-1.55-.56-.36 1.34-1-.36 1.47-5.27 1.36.49 1.48 6.34zm-1.1-5.14h-.06l-.58 2.16 1.21.44zM98.54 272.59h-.07v4.16l-.84-.3v-5.81l1.21.44 1.37 4.66h.07v-4.16l.84.3v5.8l-1.21-.43zM104.07 276.21l-.55.61v1.74l-1-.35v-5.81l1 .36v2.61l.6-.75 1.1-1.25 1.11.4-1.64 1.85 1.72 4-1.11-.4zM91.05 265.63v-5.8l2 .71a2.39 2.39 0 011.57 2.37c0 1.1-.56 1.59-1.57 1.23l-1-.37V266zm1-2.75l.8.29c.52.19.74 0 .74-.48v-.31a1 1 0 00-.74-1l-.8-.29zM98.33 265.77l-1.53-.55v2.49l-1-.35v-5.81l1 .36v2.41l1.53.55v-2.41l1 .36v5.8l-1-.36zM104.05 271.86l-1-.37a1.48 1.48 0 01-1-1.51v-.33c-1.07-.59-1.55-1.83-1.55-3.52 0-1.89.61-2.78 2-2.29s2 1.83 2 3.72c0 1.69-.49 2.58-1.55 2.4v.68l1.19.43zm-.68-4.18v-1c0-1-.24-1.7-.94-1.95s-.93.27-.93 1.27v1c0 1 .24 1.7.93 1.95s.94-.27.94-1.27zM109.1 273.81v2.26l-.45-.16v-2.26l-.72-.26V273l1.89.68v.41zM111.59 275.74v-.77l-.47 1.21-.46-1.55v2.02l-.4-.14v-2.68l.54.2.33 1.11.34-.86.5.18v2.68l-.39-.15z"/></g></svg>