<svg data-name="Layer 1" xmlns="http://www.w3.org/2000/svg" viewBox="0 0 588 440">
  <defs>
    <clipPath id="a">
      <path d="M292.61 221.29v-163a2.92 2.92 0 01.34-1.39 3 3 0 01.91-1 2.88 2.88 0 011.27-.5 2.8 2.8 0 011.42.15L358.6 78l62 22.53 62 22.53 62.05 22.52a6.54 6.54 0 011.6.88 6.07 6.07 0 011.23 1.3 5.86 5.86 0 011.08 3.4v163a3 3 0 01-1.25 2.41 3 3 0 01-2.7.35l-62-22.53-62.05-22.53-62.05-22.52-62-22.53a5.65 5.65 0 01-1.6-.88 6.07 6.07 0 01-1.24-1.29 5.95 5.95 0 01-1.07-3.4z" fill="none"/>
    </clipPath>
  </defs>
  <g opacity=".15">
    <path fill="none" stroke="#ff005e" stroke-miterlimit="10" d="M287.23 425.16l-56.44-20.55-56.44-20.54-56.44-20.54-56.44-20.54"/>
    <path d="M149.62 377.45l2.1-.77 2.11-.76 2.1-.77 2.11-.76a8.52 8.52 0 011.48-.4 8.79 8.79 0 014.54.4l9.07 3.3 9.07 3.3 9.07 3.3 9.07 3.3a1.63 1.63 0 01.81.63 1.71 1.71 0 01.28.92 1.69 1.69 0 01-.28.92 1.63 1.63 0 01-.81.63l-2.11.77-2.1.76-2.13.78-2.1.77a8.77 8.77 0 01-6 0l-9.07-3.3-9.07-3.31-9.07-3.3-9.07-3.3a1.61 1.61 0 01-.82-.63 1.7 1.7 0 010-1.84 1.61 1.61 0 01.82-.64z" fill="#ff005e"/>
    <path fill="none" stroke="#ff005e" stroke-linejoin="round" stroke-dasharray="2,2" d="M429.03 288.21l-63.08 22.96-63.08 22.96-63.09 22.96-63.08 22.96"/>
    <path d="M276.88 422.81l1.45-.52 1.45-.53 1.45-.53 1.45-.53a4.67 4.67 0 01.71-.19 4.59 4.59 0 01.73-.06 4.09 4.09 0 011.44.25l5.4 2 5.39 2 5.4 2 5.39 2a1 1 0 01.52.4 1.07 1.07 0 010 1.16 1 1 0 01-.52.4l-1.38.51-1.38.5-1.38.33-1.39.51a5 5 0 01-.84.22 5.12 5.12 0 01-.87.08 4.91 4.91 0 01-.86-.08 5.06 5.06 0 01-.85-.22l-5.32-1.94-5.33-1.94-5.33-1.94-5.33-1.94a1 1 0 01-.51-.4 1 1 0 01.51-1.57zM309.93 231.68l-2.87 1-2.86 1-2.86 1-2.87 1a1.26 1.26 0 00-.62.48 1.43 1.43 0 00-.21.69 1.25 1.25 0 00.21.7 1.19 1.19 0 00.61.48l60.84 22.49 60.85 22.49L481 305.59l60.84 22.49a8.16 8.16 0 001.35.36 7.19 7.19 0 001.39.13 8 8 0 001.38-.11 8.27 8.27 0 001.36-.36l2.86-1 2.86-1 2.87-1 2.86-1a1.2 1.2 0 00.62-.47 1.25 1.25 0 00.21-.7 1.32 1.32 0 00-.2-.69 1.29 1.29 0 00-.62-.49l-60.84-22.48-60.84-22.49-60.86-22.58-60.84-22.49a9 9 0 00-1.35-.37 8 8 0 00-1.38-.12 7.18 7.18 0 00-1.39.11 8.92 8.92 0 00-1.35.35zM47.67 339.39l1.45-.53 1.45-.53 1.45-.52 1.46-.53a4.19 4.19 0 012.87 0l5.4 2 5.39 2 5.4 2 5.4 2a1.09 1.09 0 01.51.4 1.09 1.09 0 010 1.17 1.09 1.09 0 01-.51.4l-1.39.5-1.38.5-1.38.51-1.39.5a4.74 4.74 0 01-.84.23 5 5 0 01-2.58-.23l-5.32-1.94-5.33-1.94-5.33-2.09-5.33-1.94a.94.94 0 01-.51-.4 1 1 0 01-.18-.58 1 1 0 01.18-.58 1 1 0 01.51-.4z" fill="#ff005e"/>
  </g>
  <path fill="none" stroke="#3b009b" stroke-linejoin="round" d="M297.53 287.5l.94-.34"/>
  <path d="M300.33 286.49l3.7-1.35 6.51-2.37 6.5-2.37 6.5-2.36a11.12 11.12 0 011.69-.46 10 10 0 015.14.45l10.24 3.72 10.24 3.71 10.23 3.72 10.24 3.72a9.79 9.79 0 001.69.45 10.14 10.14 0 005.14-.46l12.49-4.54 12.48-4.55 12.49-4.54 10.62-3.87" fill="none" stroke="#3b009b" stroke-linejoin="round" stroke-dasharray="1.9755808115005493,1.9755808115005493"/>
  <path fill="none" stroke="#3b009b" stroke-linejoin="round" d="M427.16 275.06l.93-.35"/>
  <path d="M284.86 280a6 6 0 012-.4 7.11 7.11 0 012.16.29 9.2 9.2 0 012.18 1 11.21 11.21 0 012.09 1.71 14.29 14.29 0 012.53 3.54 15.55 15.55 0 011.41 4.08 13.64 13.64 0 01.2 4.11 9.88 9.88 0 01-1.1 3.66 8.75 8.75 0 01-.68 1 7.18 7.18 0 01-.8.85 5.07 5.07 0 01-.89.65 5.33 5.33 0 01-1 .47l-4.46 1.63-4.46 1.62-4.46 1.62-4.46 1.63-1.92-5.29-1.92-5.29-1.93-5.29-1.92-5.29 4.34-1.58 4.35-1.58 4.34-1.58z" fill="#fff" stroke="#340096" stroke-linejoin="round" stroke-width="2"/>
  <path d="M275.18 307.45l4.46-1.63 4.46-1.62 4.46-1.62L293 301a5.33 5.33 0 001-.47 5.07 5.07 0 00.89-.65 7.18 7.18 0 00.8-.85 8.75 8.75 0 00.68-1 9.64 9.64 0 00.53-1.18 10.35 10.35 0 00.37-1.27c.09-.44.16-.89.21-1.34a13 13 0 00.05-1.4L291.4 295l-6.1 2.23-6.11 2.22-6.11 2.23.52 1.44.53 1.45.52 1.45z" fill="#2e1091" opacity=".05"/>
  <path d="M266.86 304.8a14.44 14.44 0 01-2.52-3.54 15.71 15.71 0 01-1.42-4.08 14 14 0 01-.2-4.11 9.89 9.89 0 011.11-3.66 6.66 6.66 0 012.26-2.48A5.76 5.76 0 01269 286a7.4 7.4 0 013.27.7 10.92 10.92 0 013.2 2.3 14.31 14.31 0 012.52 3.55 15.49 15.49 0 011.41 4.07 13.65 13.65 0 01.21 4.11 9.84 9.84 0 01-1.11 3.66 6.58 6.58 0 01-2.26 2.48 5.79 5.79 0 01-2.95.89 7.25 7.25 0 01-3.26-.7 10.61 10.61 0 01-3.17-2.26z" fill="#f5f2f9" stroke="#340096" stroke-linejoin="round" stroke-width="2"/>
  <path fill="none" stroke="#3b009b" stroke-linejoin="round" d="M208.74 319.82l.94-.34"/>
  <path fill="none" stroke="#3b009b" stroke-linejoin="round" stroke-dasharray="1.960265874862671,1.960265874862671" d="M211.52 318.81l14.73-5.36 17.51-6.37 17.51-6.38 15.65-5.69"/>
  <path fill="none" stroke="#3b009b" stroke-linejoin="round" d="M277.84 294.67l.94-.34"/>
  <path d="M281.13 281.6a6 6 0 012-.33 7.13 7.13 0 012.11.33 9 9 0 012.12 1 11.55 11.55 0 012.05 1.68 14.33 14.33 0 012.52 3.54 15.61 15.61 0 011.41 4.07 13.39 13.39 0 01.2 4.12 9.6 9.6 0 01-1.1 3.65 7 7 0 01-.71 1.08 6.17 6.17 0 01-.83.86 5.48 5.48 0 01-.93.67 5.88 5.88 0 01-1 .46" fill="none" stroke="#340096" stroke-miterlimit="10" opacity=".05"/>
  <path d="M556 141.58l-62-22.53-62-22.53L369.86 74l-62-22.53a3.41 3.41 0 00-.55-.14 3.23 3.23 0 00-.53 0 4.35 4.35 0 00-.52.06 4.13 4.13 0 00-.5.15l-2.77 1-2.78 1-2.77 1-2.78 1a3.15 3.15 0 00-.8.4 2.89 2.89 0 00-.64.62 2.86 2.86 0 00-.43.81 2.89 2.89 0 00-.15.94v163a5.95 5.95 0 001.07 3.4 6.07 6.07 0 001.24 1.29 5.65 5.65 0 001.6.88l62 22.53 62.05 22.52 62.05 22.53 62 22.53a3.59 3.59 0 00.52.13 2.19 2.19 0 00.51 0 2.73 2.73 0 00.5-.05 2.42 2.42 0 00.48-.13l2.8-1 2.8-1 2.79-1 2.8-1a3.36 3.36 0 00.8-.41 2.85 2.85 0 00.63-.62 2.94 2.94 0 00.43-.8 2.89 2.89 0 00.15-.94v-163a5.95 5.95 0 00-1.07-3.4 6.07 6.07 0 00-1.24-1.29 5.65 5.65 0 00-1.55-.9z" fill="#fff" opacity=".97"/>
  <path d="M558.78 143.68l-2.82 1-2.81 1-2.82 1-2.81 1a7.68 7.68 0 01.47.78 5.86 5.86 0 01.36.85 5.38 5.38 0 01.22.9 5.77 5.77 0 01.08.94v163a2.89 2.89 0 01-.56 1.72 3 3 0 01-.61.62 3.16 3.16 0 01-.77.41l2.8-1 2.8-1 2.79-1 2.8-1a3.36 3.36 0 00.8-.41 2.85 2.85 0 00.63-.62 2.94 2.94 0 00.43-.8 2.89 2.89 0 00.15-.94v-163a5.86 5.86 0 00-.07-.94 5.4 5.4 0 00-.23-.9 4.9 4.9 0 00-.35-.85 6.28 6.28 0 00-.48-.76z" fill="#340096" opacity=".05"/>
  <path d="M546.71 317h0l2.8-1 2.8-1 2.79-1 2.8-1h0a3.36 3.36 0 00.8-.41 2.85 2.85 0 00.63-.62 2.94 2.94 0 00.43-.8 2.89 2.89 0 00.15-.94v-163a5.95 5.95 0 00-1.07-3.4 6.07 6.07 0 00-1.24-1.29 5.65 5.65 0 00-1.6-.88l-62-22.53-62-22.53L369.86 74l-62-22.53a3.41 3.41 0 00-.55-.14 3.23 3.23 0 00-.53 0 4.35 4.35 0 00-.52.06 4.13 4.13 0 00-.5.15h0l-2.77 1-2.78 1-2.77 1-2.78 1h0" fill="none" stroke="#340096" stroke-linejoin="round" stroke-width="2"/>
  <g clip-path="url(#a)" fill="none" stroke-linejoin="round">
    <path stroke="#340096" opacity=".12" d="M558.06 193.74l-68.53-24.92-68.52-24.92-68.52-24.92-68.52-24.92M558.21 236.03l-68.52-24.92-68.52-24.92-68.52-24.92-68.53-24.92M558.37 278.31l-68.52-24.92-68.53-24.92-68.52-24.92-68.52-24.92"/>
    <path stroke="#ff0061" stroke-width="2" d="M550.26 255.53l-2.64.61-2.64.6-2.64.61-2.64.61-2.11-6.03-2.1-6.03-2.1-6.04-2.1-6.03-2.71-.95-2.7-.94-2.71-.95-2.7-.95-3.56-9.1-3.56-9.11-3.55-9.1-3.56-9.1-6.35 11.44-6.36 11.45-6.35 11.45-6.36 11.44-3.32-11.51-3.33-11.52-3.32-11.51-3.33-11.52-3.99 4.65-3.99 4.64-3.99 4.64-3.99 4.65-2.94-3.74-2.94-3.74-2.93-3.74-2.94-3.74-2.93-14.72-2.93-14.71-2.93-14.72-2.92-14.72-4.8 15.79-4.79 15.78-4.8 15.78-4.79 15.79-3.71 7.29-3.72 7.3-3.71 7.3-3.72 7.3-5.18-10.6-5.17-10.6-5.18-10.59-5.18-10.6-1.78 2.19-1.79 2.18-1.78 2.19-1.79 2.18-4.06-12.04-4.07-12.05-4.07-12.05-4.06-12.04-2.32 4.11-2.31 4.11-2.32 4.11-2.31 4.11-2.48 1.16-2.48 1.17-2.48 1.16-2.48 1.16-2.76 5.01-2.76 5.01-2.77 5.01-2.76 5.01-2.27-5.43-2.26-5.43-2.27-5.43-2.27-5.44-2.53 2.55-2.52 2.54-2.53 2.55-2.52 2.54-3.28-1.09L294 176l-3.27-1.09-3.28-1.08"/>
  </g>
  <path d="M292.61 221.29v-163a2.92 2.92 0 01.34-1.39 3 3 0 01.91-1 2.88 2.88 0 011.27-.5 2.8 2.8 0 011.42.15L358.6 78l62 22.53 62 22.53 62.05 22.52a6.54 6.54 0 011.6.88 6.07 6.07 0 011.23 1.3 5.86 5.86 0 011.08 3.4v163a3 3 0 01-1.25 2.41 3 3 0 01-2.7.35l-62-22.53-62.05-22.53-62.05-22.52-62-22.53a5.65 5.65 0 01-1.6-.88 6.07 6.07 0 01-1.24-1.29 5.95 5.95 0 01-1.07-3.4z" fill="none" stroke="#340096" stroke-linejoin="round" stroke-width="2"/>
  <path d="M336.21 55.42v-.75l.87-.62c2.09-1.45 3-2.28 3.05-3.65a2.39 2.39 0 00-1.63-2.4 2 2 0 00-1.73.14l-.36-1a2.73 2.73 0 012.32-.07 3.79 3.79 0 012.51 3.56c0 1.68-1.1 2.64-2.82 3.86l-.66.43 3.68 1.34v1zM348.75 55.36c0 3.1-1 4.43-2.85 3.76-1.6-.58-2.68-2.65-2.71-5.67s1.19-4.3 2.85-3.69 2.71 2.7 2.71 5.6zm-4.45-1.49c0 2.37.65 4 1.66 4.32s1.68-.85 1.68-3.18-.52-3.9-1.67-4.32c-.97-.36-1.67.7-1.67 3.18zM350.4 60.61v-.75l.87-.62c2.09-1.45 3-2.28 3-3.65a2.39 2.39 0 00-1.62-2.37 2.06 2.06 0 00-1.74.13l-.35-1a2.73 2.73 0 012.32-.07 3.79 3.79 0 012.5 3.56c0 1.68-1.09 2.64-2.82 3.86l-.66.43 3.68 1.35v1zM362.93 60.55c0 3.1-1 4.43-2.85 3.77-1.6-.59-2.68-2.65-2.71-5.67s1.19-4.31 2.85-3.7 2.71 2.7 2.71 5.6zm-4.45-1.48c0 2.36.66 4 1.67 4.32s1.67-.86 1.67-3.19-.52-3.9-1.66-4.32c-.97-.35-1.68.71-1.68 3.19zM414 83.72V83l.87-.62c2.09-1.45 3-2.28 3-3.65a2.37 2.37 0 00-1.62-2.37 2 2 0 00-1.74.13l-.35-1a2.73 2.73 0 012.32-.07A3.79 3.79 0 01419 79c0 1.68-1.09 2.64-2.82 3.86l-.65.43 3.67 1.34v1zM426.5 83.66c0 3.1-1 4.43-2.85 3.76-1.6-.58-2.68-2.65-2.7-5.67s1.18-4.3 2.84-3.69 2.71 2.7 2.71 5.6zm-4.45-1.49c0 2.37.66 4 1.67 4.32s1.67-.85 1.67-3.18-.51-3.9-1.66-4.32c-.97-.36-1.68.7-1.68 3.18zM428.15 88.92v-.76l.87-.62c2.09-1.45 3-2.28 3.05-3.65a2.38 2.38 0 00-1.63-2.37 2 2 0 00-1.73.13l-.36-1a2.73 2.73 0 012.32-.07 3.8 3.8 0 012.51 3.56c0 1.68-1.1 2.64-2.82 3.86l-.66.43 3.68 1.35v1zM437.65 84.44l-1.42.33-.21-1 1.79-.41.94.35v9.1l-1.07-.39zM491.72 112v-.75l.87-.62c2.09-1.45 3-2.28 3.05-3.65a2.37 2.37 0 00-1.63-2.37 2 2 0 00-1.73.13l-.36-1a2.73 2.73 0 012.32-.07 3.8 3.8 0 012.51 3.56c0 1.68-1.1 2.64-2.82 3.86l-.66.43 3.68 1.34v1zM504.25 112c0 3.1-1 4.43-2.84 3.76-1.6-.58-2.68-2.65-2.71-5.67s1.18-4.3 2.85-3.69 2.7 2.66 2.7 5.6zm-4.44-1.49c0 2.37.65 4 1.66 4.32s1.68-.85 1.68-3.18-.52-3.9-1.67-4.32c-.97-.4-1.67.67-1.67 3.14zM505.91 117.21v-.75l.86-.62c2.1-1.45 3-2.28 3.05-3.65a2.38 2.38 0 00-1.62-2.37 2.06 2.06 0 00-1.74.13l-.35-1a2.71 2.71 0 012.31-.07 3.79 3.79 0 012.51 3.56c0 1.68-1.1 2.64-2.82 3.86l-.66.43 3.68 1.35v1zM513 119.81v-.75l.87-.63c2.09-1.44 3-2.27 3-3.64a2.37 2.37 0 00-1.62-2.37 2 2 0 00-1.74.13l-.35-1a2.73 2.73 0 012.32-.07A3.79 3.79 0 01518 115c0 1.68-1.09 2.64-2.82 3.86l-.65.43 3.67 1.34v1z" fill="#340096"/>
  <path fill="none" stroke="#3b009b" stroke-linejoin="round" stroke-dasharray="2,2" opacity=".25" d="M428.1 274.71V135.1"/>
  <path d="M424 135.1a4.08 4.08 0 01.32-1.6 4.15 4.15 0 01.88-1.3 3.93 3.93 0 011.31-.88 4 4 0 013.19 0 3.93 3.93 0 011.31.88 4.15 4.15 0 01.88 1.3 4.16 4.16 0 010 3.2 4.19 4.19 0 01-.89 1.3 4.1 4.1 0 01-2.91 1.2 4 4 0 01-1.59-.32 4.08 4.08 0 01-1.31-.88 4.19 4.19 0 01-.88-1.31 4 4 0 01-.31-1.59z" fill="#fff" stroke="#ff0061" stroke-miterlimit="10" stroke-width="2"/>
  <path d="M428.09 131a4.05 4.05 0 011.6.33 3.93 3.93 0 011.31.88 4.15 4.15 0 01.88 1.3 4.16 4.16 0 010 3.2A4.19 4.19 0 01431 138a4.1 4.1 0 01-2.91 1.2" fill="#f5f2f9" stroke="#ff0061" stroke-miterlimit="10" stroke-width="2"/>
  <path fill="none" stroke="#3b009b" stroke-linejoin="round" d="M178.46 262.44V222.6M68.29 278.15l56.58 20.59 56.57 20.59 56.57 20.59 56.57 20.59"/>
  <path d="M157.77 360.3a75.77 75.77 0 01-13.29-18.67 82.19 82.19 0 01-7.48-21.47 72.09 72.09 0 01-1-21.67 51.52 51.52 0 015.82-19.27 35.11 35.11 0 0111.9-13.05 30.63 30.63 0 0115.55-4.71 38.48 38.48 0 0117.19 3.68 56.56 56.56 0 0116.87 12.14 75.91 75.91 0 0113.29 18.66 82.38 82.38 0 017.38 21.48 72.06 72.06 0 011.07 21.67 51.52 51.52 0 01-5.82 19.27 35.19 35.19 0 01-11.9 13.05 30.72 30.72 0 01-15.54 4.71 38.63 38.63 0 01-17.2-3.68 56.74 56.74 0 01-16.84-12.14z" fill="#fff" stroke="#340096" stroke-miterlimit="10" stroke-width="2"/>
  <path d="M217.11 297l-2.58.94-2.58.94-2.58.94-2.59.94a83.68 83.68 0 015.85 15.77 78.34 78.34 0 012.45 16.18 64.73 64.73 0 01-1.16 15.54 49.31 49.31 0 01-5 13.86 42 42 0 01-2.7 4.27 37 37 0 01-3.05 3.68 32.45 32.45 0 01-3.37 3.09 31.37 31.37 0 01-3.66 2.52 30.49 30.49 0 0013-5.52 33 33 0 005.5-5.12 38.74 38.74 0 004.59-6.68 49.24 49.24 0 005-13.86 64.27 64.27 0 001.18-15.49 77 77 0 00-2.41-16.22 82.32 82.32 0 00-5.89-15.78z" fill="#340096" opacity=".08"/>
  <path d="M147.43 364.06a75.91 75.91 0 01-13.29-18.66 83.13 83.13 0 01-7.44-21.48 72.38 72.38 0 01-1.07-21.67 51.88 51.88 0 015.82-19.25 35.12 35.12 0 0111.91-13.05 30.56 30.56 0 0115.54-4.71 38.59 38.59 0 0117.19 3.68A56.77 56.77 0 01193 281a76.44 76.44 0 0113.29 18.66 83.13 83.13 0 017.44 21.48 72 72 0 011.06 21.67 51.69 51.69 0 01-5.79 19.31 35.29 35.29 0 01-12 13.05 30.62 30.62 0 01-15.54 4.71 38.63 38.63 0 01-17.2-3.68 56.86 56.86 0 01-16.83-12.14z" fill="#fff"/>
  <path d="M147.43 364.06a75.91 75.91 0 01-13.29-18.66 83.13 83.13 0 01-7.44-21.48 72.38 72.38 0 01-1.07-21.67 51.88 51.88 0 015.82-19.25 35.12 35.12 0 0111.91-13.05 30.56 30.56 0 0115.54-4.71 38.59 38.59 0 0117.19 3.68A56.77 56.77 0 01193 281a76.44 76.44 0 0113.29 18.66 83.13 83.13 0 017.44 21.48 72 72 0 011.06 21.67 51.69 51.69 0 01-5.79 19.31 35.29 35.29 0 01-12 13.05 30.62 30.62 0 01-15.54 4.71 38.63 38.63 0 01-17.2-3.68 56.86 56.86 0 01-16.83-12.14z" fill="none" stroke="#340096" stroke-miterlimit="10" stroke-width="2"/>
  <path d="M182 351.81l-6.28-2.36-6.29-2.37-6.28-2.37-6.29-2.37a3.25 3.25 0 01-1-.63 4.68 4.68 0 01-.83-1 4.76 4.76 0 01-.56-1.21 4.42 4.42 0 01-.21-1.3v-26.05a3.1 3.1 0 01.21-1.15 1.89 1.89 0 01.56-.78 1.68 1.68 0 01.83-.36 2.07 2.07 0 011 .14l6.29 2.37 6.28 2.37 6.29 2.36 6.28 2.37a3.21 3.21 0 011 .63 4.49 4.49 0 01.84 1 5.71 5.71 0 01.56 1.2 4.51 4.51 0 01.2 1.3v26.08a3.09 3.09 0 01-.2 1.14 2.09 2.09 0 01-.56.78 1.59 1.59 0 01-.84.36 2.1 2.1 0 01-1-.15z" fill="#fff" stroke="#340096" stroke-linejoin="round" stroke-width="2"/>
  <path fill="none" stroke="#340096" stroke-linejoin="round" stroke-width="2" d="M169.41 332.45V341M177.53 307.38a14 14 0 00-.65-4.14 16.67 16.67 0 00-1.79-3.85 14.79 14.79 0 00-2.66-3.14 10.63 10.63 0 00-3.25-2h0a6.68 6.68 0 00-3.25-.44 5.23 5.23 0 00-2.66 1.14 6.23 6.23 0 00-1.79 2.5 9.69 9.69 0 00-.66 3.64v11.19M173.31 329.25a4.61 4.61 0 01-.3 1.7 2.94 2.94 0 01-.84 1.17 2.39 2.39 0 01-1.24.53 3.19 3.19 0 01-1.52-.2 4.82 4.82 0 01-1.51-.94 6.58 6.58 0 01-1.24-1.47 7.32 7.32 0 01-.84-1.79 6.44 6.44 0 01-.31-1.93 4.41 4.41 0 01.31-1.7 2.85 2.85 0 01.84-1.17 2.39 2.39 0 011.24-.53 3.16 3.16 0 011.51.2 5.18 5.18 0 011.52.94 6.58 6.58 0 011.24 1.47 7.71 7.71 0 01.84 1.79 6.81 6.81 0 01.3 1.93z"/>
  <path d="M164.27 216.52a55.78 55.78 0 01-9.75-13.68 60.9 60.9 0 01-5.45-15.74 52.86 52.86 0 01-.78-15.89 38 38 0 014.26-14.13 25.81 25.81 0 018.73-9.56 22.46 22.46 0 0111.39-3.46 28.49 28.49 0 0112.61 2.7 41.68 41.68 0 0112.36 8.9 56 56 0 019.75 13.68 60.9 60.9 0 015.45 15.74 52.86 52.86 0 01.78 15.89 38 38 0 01-4.26 14.13 25.81 25.81 0 01-8.73 9.56 22.46 22.46 0 01-11.39 3.46 28.35 28.35 0 01-12.61-2.7 41.68 41.68 0 01-12.36-8.9z" fill="#fff" stroke="#340096" stroke-miterlimit="10" stroke-width="2"/>
  <path d="M207.58 169.74l-2.32.85-2.33.84-2.32.85-2.33.85a61.42 61.42 0 014.4 11.64 57.06 57.06 0 011.86 12 47.42 47.42 0 01-.82 11.5 35.86 35.86 0 01-3.67 10.25 29.83 29.83 0 01-1.81 2.91 27.52 27.52 0 01-2.05 2.55 25.46 25.46 0 01-2.25 2.17 21.87 21.87 0 01-2.43 1.81 22.25 22.25 0 0010.07-3.9 23.85 23.85 0 004.24-3.84 28.25 28.25 0 003.54-5.08 36.32 36.32 0 003.64-10.3 46.93 46.93 0 00.82-11.5 57.27 57.27 0 00-1.86-12 60.75 60.75 0 00-4.38-11.6z" fill="#340096" opacity=".08"/>
  <path d="M155 219.91a55.8 55.8 0 01-9.74-13.69 60.77 60.77 0 01-5.45-15.74 53.18 53.18 0 01-.79-15.89 37.83 37.83 0 014.27-14.12 25.64 25.64 0 018.73-9.56 22.37 22.37 0 0111.39-3.46 28.28 28.28 0 0112.6 2.7 41.42 41.42 0 0112.37 8.9 55.56 55.56 0 019.74 13.68 60.43 60.43 0 015.46 15.74 52.86 52.86 0 01.78 15.89 37.77 37.77 0 01-4.27 14.12 25.81 25.81 0 01-8.72 9.57 22.52 22.52 0 01-11.4 3.45 28.15 28.15 0 01-12.6-2.7 41.68 41.68 0 01-12.37-8.89z" fill="#fff"/>
  <path fill="none" stroke="#340096" stroke-linejoin="round" d="M153.47 200.43l2.13-.77 2.13-.78 2.13-.77 2.13-.78 2.12.78 2.12.77 2.12.78 2.12.77M161.97 195.46v-7.75"/>
  <path fill="#fff" d="M160.87 187.31l-2.12.77-2.13.77-2.12.78-2.13.77v9.63l2.4.87 2.4.88 2.4.87 2.4.87 2.13-.77 2.12-.77 2.12-.77 2.13-.78v-9.63l-2.4-.87-2.4-.87-2.4-.88-2.4-.87z"/>
  <path fill="none" stroke="#340096" stroke-linejoin="round" d="M170.47 190.8v9.63l-2.13.78-2.12.77-2.12.77-2.13.77-2.4-.87-2.4-.87-2.4-.88-2.4-.87v-9.63l2.13-.77 2.12-.77 2.13-.78 2.12-.77 2.4.87 2.4.88 2.4.87 2.4.87z"/>
  <path fill="none" stroke="#340096" stroke-linejoin="round" d="M161.97 193.9l-2.4-.88-2.4-.87-2.4-.87-2.4-.88M161.97 203.52V193.9l2.13-.78 2.12-.77 2.12-.77 2.13-.78v9.63l-2.13.78-2.12.77-2.12.77-2.13.77z"/>
  <path fill="#340096" opacity=".05" d="M161.97 203.52V193.9l2.13-.78 2.12-.77 2.12-.77 2.13-.78v9.63l-2.13.78-2.12.77-2.12.77-2.13.77z"/>
  <path fill="none" stroke="#3b009b" stroke-linejoin="round" stroke-dasharray="2,2" opacity=".25" d="M157.72 192.35l2.13-.77 2.12-.78 2.13-.77 2.12-.77"/>
  <path fill="none" stroke="#340096" stroke-linejoin="round" d="M161.97 203.52l2.13-.77 2.13-.78 2.13-.77 2.12-.77 2.12.77 2.13.77 2.12.78 2.12.77M170.47 198.55v-7.75"/>
  <path fill="#fff" d="M170.47 190.8l-2.13.78-2.12.77-2.12.77-2.13.78V203.52l2.13.78 2.12.77 2.12.77 2.13.78 2.12-.78 2.13-.77 2.12-.77 2.13-.78V193.9l-2.13-.78-2.12-.77-2.13-.77-2.12-.78z"/>
  <path fill="none" stroke="#340096" stroke-linejoin="round" d="M178.97 193.9V203.52l-2.13.78-2.12.77-2.13.77-2.12.78-2.13-.78-2.12-.77-2.12-.77-2.13-.78V193.9l2.13-.78 2.12-.77 2.12-.77 2.13-.78 2.12.78 2.13.77 2.12.77 2.13.78z"/>
  <path fill="none" stroke="#340096" stroke-linejoin="round" d="M170.47 196.99l-2.13-.77-2.12-.78-2.12-.77-2.13-.77M170.47 206.62v-9.63l2.12-.77 2.13-.78 2.12-.77 2.13-.77V203.52l-2.13.78-2.12.77-2.13.77-2.12.78z"/>
  <path fill="#340096" opacity=".05" d="M170.47 206.62v-9.63l2.12-.77 2.13-.78 2.12-.77 2.13-.77V203.52l-2.13.78-2.12.77-2.13.77-2.12.78z"/>
  <path fill="none" stroke="#3b009b" stroke-linejoin="round" stroke-dasharray="2,2" opacity=".25" d="M166.22 195.44l2.12-.77 2.13-.77 2.12-.78 2.13-.77"/>
  <path fill="none" stroke="#340096" stroke-linejoin="round" d="M170.47 206.62l2.13-.78 2.13-.77 2.12-.78 2.13-.77 2.12.77 2.12.78 2.12.77 2.13.78M178.97 201.64v-7.74"/>
  <path fill="#fff" d="M178.97 193.9l-2.13.77-2.12.77-2.13.78-2.12.77v9.63l2.4.87 2.4.87 2.4.88 2.4.87 2.12-.77 2.13-.78 2.12-.77 2.13-.77v-9.63l-2.4-.87-2.4-.88-2.4-.87-2.4-.87z"/>
  <path fill="none" stroke="#340096" stroke-linejoin="round" d="M188.57 197.39v9.63l-2.13.77-2.12.77-2.13.78-2.12.77-2.4-.87-2.4-.88-2.4-.87-2.4-.87v-9.63l2.12-.77 2.13-.78 2.12-.77 2.13-.77 2.4.87 2.4.87 2.4.88 2.4.87z"/>
  <path fill="none" stroke="#340096" stroke-linejoin="round" d="M180.07 200.48l-2.4-.87-2.4-.87-2.4-.88-2.4-.87M180.07 210.11v-9.63l2.12-.77 2.13-.77 2.12-.78 2.13-.77v9.63l-2.13.77-2.12.77-2.13.78-2.12.77z"/>
  <path fill="#340096" opacity=".05" d="M180.07 210.11v-9.63l2.12-.77 2.13-.77 2.12-.78 2.13-.77v9.63l-2.13.77-2.12.77-2.13.78-2.12.77z"/>
  <path fill="none" stroke="#3b009b" stroke-linejoin="round" stroke-dasharray="2,2" opacity=".25" d="M174.72 198.53l2.12-.77 2.13-.77 2.12-.77 2.13-.78"/>
  <path fill="none" stroke="#340096" stroke-linejoin="round" d="M157.73 192.35l2.12-.77 2.13-.78 2.13-.77 2.13-.78 2.12.78 2.12.77 2.12.78 2.12.77M166.22 187.38v-7.75"/>
  <path fill="#fff" d="M166.22 179.63l-2.12.77-2.12.78-2.13.77-2.12.77v9.63l2.12.77 2.13.78 2.12.77 2.12.77 2.13-.77 2.12-.77 2.13-.78 2.12-.77v-9.63l-2.12-.77-2.13-.77-2.12-.78-2.13-.77z"/>
  <path fill="none" stroke="#340096" stroke-linejoin="round" d="M174.72 182.72v9.63l-2.12.77-2.13.78-2.12.77-2.13.77-2.12-.77-2.12-.77-2.13-.78-2.12-.77v-9.63l2.12-.77 2.13-.77 2.12-.78 2.12-.77 2.13.77 2.12.78 2.13.77 2.12.77z"/>
  <path fill="none" stroke="#340096" stroke-linejoin="round" d="M166.22 185.81l-2.12-.77-2.12-.77-2.13-.77-2.12-.78M166.22 195.44v-9.63l2.13-.77 2.12-.77 2.13-.77 2.12-.78v9.63l-2.12.77-2.13.78-2.12.77-2.13.77z"/>
  <path fill="#340096" opacity=".05" d="M166.22 195.44v-9.63l2.13-.77 2.12-.77 2.13-.77 2.12-.78v9.63l-2.12.77-2.13.78-2.12.77-2.13.77z"/>
  <path fill="none" stroke="#340096" stroke-linejoin="round" d="M166.22 195.44l2.13-.77 2.13-.78 2.12-.77 2.13-.78 2.12.78 2.12.77 2.13.78 2.12.77M174.72 190.47v-7.75"/>
  <path fill="#fff" d="M174.72 182.72l-2.13.77-2.12.78-2.13.77-2.12.77v9.63l2.12.78 2.13.77 2.12.77 2.13.77 2.12-.77 2.13-.77 2.12-.77 2.13-.78v-9.63l-2.13-.77-2.12-.77-2.13-.78-2.12-.77z"/>
  <path fill="none" stroke="#340096" stroke-linejoin="round" d="M183.22 185.81v9.63l-2.13.78-2.12.77-2.13.77-2.12.77-2.13-.77-2.12-.77-2.13-.77-2.12-.78v-9.63l2.12-.77 2.13-.77 2.12-.78 2.13-.77 2.12.77 2.13.78 2.12.77 2.13.77z"/>
  <path fill="none" stroke="#340096" stroke-linejoin="round" d="M174.72 188.91l-2.13-.78-2.12-.77-2.13-.77-2.12-.78M174.72 198.53V188.91l2.12-.78 2.13-.77 2.12-.77 2.13-.78v9.63l-2.13.78-2.12.77-2.13.77-2.12.77z"/>
  <path fill="#340096" opacity=".05" d="M174.72 198.53V188.91l2.12-.78 2.13-.77 2.12-.77 2.13-.78v9.63l-2.13.78-2.12.77-2.13.77-2.12.77z"/>
  <path fill="none" stroke="#3b009b" stroke-linejoin="round" stroke-dasharray="2,2" opacity=".25" d="M170.47 187.36l2.12-.77 2.13-.78 2.12-.77 2.13-.77"/>
  <path fill="none" stroke="#340096" stroke-linejoin="round" d="M166.22 185.81l2.13-.77 2.13-.77 2.13-.78 2.13-.77 2.12.77 2.12.78 2.12.77 2.12.77M174.72 180.84v-7.75"/>
  <path fill="#fff" d="M174.72 173.09l-2.12.78-2.13.77-2.12.77-2.13.78V185.81l2.13.78 2.12.77 2.13.77 2.12.78 2.13-.78 2.12-.77 2.13-.77 2.12-.78V176.19l-2.12-.78-2.13-.77-2.12-.77-2.13-.78z"/>
  <path fill="none" stroke="#340096" stroke-linejoin="round" d="M183.22 176.19V185.81l-2.12.78-2.13.77-2.12.77-2.13.78-2.12-.78-2.13-.77-2.12-.77-2.13-.78V176.19l2.13-.78 2.12-.77 2.13-.77 2.12-.78 2.13.78 2.12.77 2.13.77 2.12.78z"/>
  <path fill="none" stroke="#340096" stroke-linejoin="round" d="M174.72 179.28l-2.12-.77-2.13-.78-2.12-.77-2.13-.77M174.72 188.91v-9.63l2.13-.77 2.12-.78 2.13-.77 2.12-.77V185.81l-2.12.78-2.13.77-2.12.77-2.13.78z"/>
  <path fill="#340096" opacity=".05" d="M174.72 188.91v-9.63l2.13-.77 2.12-.78 2.13-.77 2.12-.77V185.81l-2.12.78-2.13.77-2.12.77-2.13.78z"/>
  <path d="M155 219.91a55.8 55.8 0 01-9.74-13.69 60.77 60.77 0 01-5.45-15.74 53.18 53.18 0 01-.79-15.89 37.83 37.83 0 014.27-14.12 25.64 25.64 0 018.73-9.56 22.37 22.37 0 0111.39-3.46 28.28 28.28 0 0112.6 2.7 41.42 41.42 0 0112.37 8.9 55.56 55.56 0 019.74 13.68 60.43 60.43 0 015.46 15.74 52.86 52.86 0 01.78 15.89 37.77 37.77 0 01-4.27 14.12 25.81 25.81 0 01-8.72 9.57 22.52 22.52 0 01-11.4 3.45 28.15 28.15 0 01-12.6-2.7 41.68 41.68 0 01-12.37-8.89z" fill="none" stroke="#340096" stroke-miterlimit="10" stroke-width="2"/>
  <path fill="#f5f2f9" stroke="#340096" stroke-miterlimit="10" stroke-width="2" d="M165.3 145.51l-2.26.83-2.26.82-2.26.82-2.27.82M196.43 226.74l-2.23.8-2.23.81-2.22.81-2.23.81"/>
  <path d="M279 390.3a55.56 55.56 0 01-9.74-13.68 60.77 60.77 0 01-5.45-15.74 52.86 52.86 0 01-.78-15.89 37.94 37.94 0 014.26-14.12 25.75 25.75 0 018.71-9.57 22.45 22.45 0 0111.39-3.45 28.15 28.15 0 0112.6 2.7 41.55 41.55 0 0112.37 8.89 56.1 56.1 0 019.75 13.69 60.77 60.77 0 015.45 15.74 52.84 52.84 0 01.78 15.89 38 38 0 01-4.26 14.12 25.81 25.81 0 01-8.73 9.56A22.4 22.4 0 01304 401.9a28.32 28.32 0 01-12.61-2.7 41.67 41.67 0 01-12.39-8.9z" fill="#fff" stroke="#340096" stroke-miterlimit="10" stroke-width="2"/>
  <path d="M322.34 343.52l-2.32.85-2.33.85-2.32.84-2.33.85a60.71 60.71 0 014.39 11.64 56.64 56.64 0 011.87 12 47.42 47.42 0 01-.82 11.5 35.86 35.86 0 01-3.67 10.25 27.21 27.21 0 01-1.82 2.92 25.67 25.67 0 01-4.29 4.72 24.82 24.82 0 01-2.44 1.81 22.8 22.8 0 005.26-1.33 22.2 22.2 0 004.82-2.58 24.17 24.17 0 004.24-3.83 28.7 28.7 0 003.54-5.09 36.21 36.21 0 003.66-10.26 46.89 46.89 0 00.82-11.5 57.27 57.27 0 00-1.86-12 61.42 61.42 0 00-4.4-11.64z" fill="#340096" opacity=".08"/>
  <path d="M269.72 393.69A55.74 55.74 0 01260 380a60.53 60.53 0 01-5.45-15.74 52.87 52.87 0 01-.79-15.89 37.82 37.82 0 014.24-14.12 25.7 25.7 0 018.72-9.56 22.53 22.53 0 0111.4-3.46 28.28 28.28 0 0112.6 2.7 41.72 41.72 0 0112.37 8.9 55.74 55.74 0 019.74 13.68 60.53 60.53 0 015.45 15.74 52.87 52.87 0 01.79 15.89 37.77 37.77 0 01-4.27 14.12 25.6 25.6 0 01-8.73 9.57 22.46 22.46 0 01-11.39 3.46 28.42 28.42 0 01-12.6-2.7 41.72 41.72 0 01-12.36-8.9z" fill="#fff"/>
  <path fill="none" stroke="#3b009b" stroke-linejoin="round" stroke-dasharray="2,2" opacity=".25" d="M284.18 365.56l2.36-.86 2.36-.86 2.36-.85 2.36-.86"/>
  <path fill="none" stroke="#340096" stroke-linejoin="round" d="M271.01 375.28l3.3-1.2 3.3-1.2 3.29-1.2 3.3-1.2 3.29 1.2 3.28 1.2 3.29 1.2 3.29 1.2M284.18 367.57v-12.01"/>
  <path fill="#fff" d="M284.18 355.56l-3.29 1.2-3.3 1.2-3.29 1.2-3.29 1.2v14.92l3.29 1.2 3.29 1.2 3.3 1.2 3.29 1.19 3.29-1.19 3.29-1.2 3.3-1.2 3.29-1.2v-14.92l-3.29-1.2-3.3-1.2-3.29-1.2-3.29-1.2z"/>
  <path fill="none" stroke="#340096" stroke-linejoin="round" d="M297.35 360.36v14.92l-3.29 1.2-3.3 1.2-3.29 1.2-3.29 1.19-3.29-1.19-3.3-1.2-3.29-1.2-3.29-1.2v-14.92l3.29-1.2 3.29-1.2 3.3-1.2 3.29-1.2 3.29 1.2 3.29 1.2 3.3 1.2 3.29 1.2z"/>
  <path fill="none" stroke="#340096" stroke-linejoin="round" d="M284.18 365.15l-3.29-1.2-3.3-1.2-3.29-1.19-3.29-1.2M284.18 380.07v-14.92l3.29-1.2 3.29-1.2 3.3-1.19 3.29-1.2v14.92l-3.29 1.2-3.3 1.2-3.29 1.2-3.29 1.19z"/>
  <path fill="#340096" opacity=".05" d="M284.18 380.07v-14.92l3.29-1.2 3.29-1.2 3.3-1.19 3.29-1.2v14.92l-3.29 1.2-3.3 1.2-3.29 1.2-3.29 1.19z"/>
  <path d="M296.87 371h-.15l-2.78-.85a.5.5 0 01-.36-.46l-.07-2.33c-.22-.1-.43-.19-.63-.3s-.59-.31-.87-.48a8.57 8.57 0 01-.79-.55q-.37-.28-.72-.6c-.23-.2-.44-.41-.65-.63s-.41-.45-.61-.68-.38-.47-.56-.71-.36-.5-.53-.75a.51.51 0 01.11-.67l2.12-1.69a.52.52 0 01.32-.11h.07a.51.51 0 01.34.21l.36.51c.12.16.25.31.38.46s.26.3.39.44.27.28.41.41a3.62 3.62 0 00.42.36 4.46 4.46 0 00.43.33l.18.12-.13-4c-.38-.21-.74-.43-1.08-.65a13.45 13.45 0 01-1.14-.83 10.23 10.23 0 01-1-.88 8.14 8.14 0 01-.76-.93 8 8 0 01-.59-1 8.18 8.18 0 01-.43-1 9.13 9.13 0 01-.27-1.06 8 8 0 01-.11-1.1 7 7 0 010-1.14 5.67 5.67 0 01.22-1 4.36 4.36 0 01.41-.87 3.44 3.44 0 011.39-1.23 3.69 3.69 0 01.94-.3 5.7 5.7 0 011-.08h.69l-.07-2.11a.48.48 0 01.2-.41.45.45 0 01.3-.1.32.32 0 01.14 0l2.79.84a.51.51 0 01.36.47l.07 2.39.46.23c.24.13.48.26.7.4s.45.3.66.46a7.42 7.42 0 01.62.49l.57.54c.18.19.36.38.53.58l.5.63c.15.22.31.45.45.68a.5.5 0 01-.11.66l-2.15 1.68a.51.51 0 01-.31.11h-.08a.49.49 0 01-.34-.22l-.22-.33a3.92 3.92 0 00-.25-.32c-.08-.11-.17-.21-.26-.32l-.29-.31-.3-.29-.32-.26.11 3.54c.36.21.69.42 1 .63s.76.53 1.09.8a9.51 9.51 0 01.93.84 8.88 8.88 0 01.77.87 7 7 0 01.6.93 8.37 8.37 0 01.45 1 7.92 7.92 0 01.28 1.09 10.21 10.21 0 01.12 1.14 7.67 7.67 0 01-.05 1.09 5.16 5.16 0 01-.2 1 4.75 4.75 0 01-.37.89 4.29 4.29 0 01-.55.77 3 3 0 01-.75.63 3.39 3.39 0 01-.93.4 4.35 4.35 0 01-1.07.18h-.64l.07 2.21a.5.5 0 01-.2.42.51.51 0 01-.26.12z" fill="#fff"/>
  <path d="M293.28 344.84l.7.21.69.21.7.21.7.21V348.39a7.94 7.94 0 01.72.34c.23.12.45.25.67.39s.42.28.63.43.39.3.58.47.37.33.54.51.34.36.51.56.32.39.47.6.3.42.44.65l-.54.42-.53.42-.54.42-.54.42a2.71 2.71 0 00-.24-.35c-.08-.12-.17-.23-.26-.35l-.28-.33-.3-.33-.33-.31-.36-.3-.4-.27a4.45 4.45 0 00-.43-.26v4.77a19.466 19.466 0 012.28 1.53 11.69 11.69 0 01.89.8 7.69 7.69 0 01.72.82 6.76 6.76 0 01.56.87 6.07 6.07 0 01.41.94 6.7 6.7 0 01.27 1 9.4 9.4 0 01.11 1.08 6.67 6.67 0 010 1 4.94 4.94 0 01-.19.9 5 5 0 01-.33.79 4.15 4.15 0 01-.48.68 3 3 0 01-.64.54 3.38 3.38 0 01-.8.34 4.18 4.18 0 01-1 .16h-.35a7 7 0 01-.78 0v2.76l-.7-.21-.69-.22-.7-.21-.7-.21V367c-.31-.12-.61-.26-.9-.4a9.23 9.23 0 01-.82-.47 8.38 8.38 0 01-.76-.51 7.59 7.59 0 01-.68-.57c-.22-.2-.43-.41-.63-.62s-.4-.43-.59-.65-.37-.45-.54-.69-.35-.48-.51-.73l.53-.42.53-.42.53-.42.54-.43c.12.18.24.36.37.53s.26.33.4.49.27.31.41.46.28.29.43.42a5.34 5.34 0 00.44.39 5.2 5.2 0 00.47.35l.48.31.51.26v-5.18c-.46-.25-.89-.5-1.29-.77a12.17 12.17 0 01-1.11-.8 12.31 12.31 0 01-.91-.83 7.75 7.75 0 01-.71-.87 7.87 7.87 0 01-.55-.91 7.1 7.1 0 01-.4-.95 6.54 6.54 0 01-.26-1 6.91 6.91 0 01-.1-1 6.07 6.07 0 010-1.06 4.18 4.18 0 01.2-.91 3.45 3.45 0 01.35-.75 3.05 3.05 0 01.52-.61 2.51 2.51 0 01.67-.44 3.21 3.21 0 01.81-.26 4.68 4.68 0 01.86-.07h.1a7.57 7.57 0 011.11.11v-2.7m0-1a1 1 0 00-1 1v1.56h-.17a5.67 5.67 0 00-1 .09 4.38 4.38 0 00-1.06.33 4 4 0 00-.91.6 4.14 4.14 0 00-1.15 1.8 5.36 5.36 0 00-.24 1.1 6.91 6.91 0 00-.05 1.22 7.61 7.61 0 00.12 1.17 8.92 8.92 0 00.29 1.13 7.9 7.9 0 00.46 1.09 9.92 9.92 0 00.62 1 8.17 8.17 0 00.81 1 12.83 12.83 0 001 .92 14.63 14.63 0 001.19.86c.27.18.56.36.86.53v2.69l-.16-.14-.39-.39c-.12-.14-.25-.27-.37-.42s-.24-.29-.36-.45a5.92 5.92 0 01-.35-.48 1 1 0 00-.68-.42h-.14a1 1 0 00-.63.22l-.53.42-.53.43-.53.42-.53.42a1 1 0 00-.22 1.33l.54.78c.19.25.39.5.59.74s.41.47.63.69.44.45.67.66a9.41 9.41 0 00.76.63c.26.2.54.39.83.57s.59.35.9.51l.37.18v1.98a1 1 0 00.71.93l.7.21.7.21.69.21.7.21a.93.93 0 00.29.05 1 1 0 00.61-.21 1 1 0 00.39-.82v-1.69h.31a6.06 6.06 0 001.18-.19 4.34 4.34 0 001.05-.46 3.59 3.59 0 00.87-.73 4.72 4.72 0 00.6-.86 5.08 5.08 0 00.42-1 6.07 6.07 0 00.22-1.08 8.63 8.63 0 00.05-1.16 9.53 9.53 0 00-.13-1.21 7.31 7.31 0 00-.3-1.16 7 7 0 00-.48-1.08 7.22 7.22 0 00-.65-1 9.56 9.56 0 00-.8-.92c-.29-.29-.62-.58-1-.87s-.73-.56-1.13-.83c-.25-.17-.52-.33-.8-.5v-2.05a3.47 3.47 0 01.25.29l.23.3a2.82 2.82 0 01.21.31 1 1 0 00.68.44h.16a1.08 1.08 0 00.62-.21l.54-.43.53-.42.54-.42.54-.42a1 1 0 00.23-1.32l-.48-.7c-.17-.23-.34-.45-.52-.66a8.09 8.09 0 00-.56-.61c-.19-.2-.39-.39-.59-.57s-.43-.35-.65-.52-.45-.32-.69-.47-.48-.29-.73-.42l-.21-.11V345.62a1 1 0 00-.71-.92l-.7-.22-.7-.21-.69-.21-.7-.21a.92.92 0 00-.29 0z" fill="#2e1091"/>
  <path d="M293.42 355.13a2 2 0 01-.68-.37 2.55 2.55 0 01-.57-.61 3.07 3.07 0 01-.4-.76 3.11 3.11 0 01-.16-.85 2 2 0 01.11-.75 1.3 1.3 0 01.35-.54 1.27 1.27 0 01.54-.28 1.46 1.46 0 01.68 0v3zM296.74 360.14a2 2 0 01.68.37 2.55 2.55 0 01.57.61 3.07 3.07 0 01.4.76 2.78 2.78 0 01.16.85 1.94 1.94 0 01-.11.75 1.3 1.3 0 01-.35.54 1.22 1.22 0 01-.54.28 1.46 1.46 0 01-.68-.05v-3z" fill="#fff" stroke="#2e1091" stroke-linejoin="round"/>
  <path d="M269.72 393.69A55.74 55.74 0 01260 380a60.53 60.53 0 01-5.45-15.74 52.87 52.87 0 01-.79-15.89 37.82 37.82 0 014.24-14.12 25.7 25.7 0 018.72-9.56 22.53 22.53 0 0111.4-3.46 28.28 28.28 0 0112.6 2.7 41.72 41.72 0 0112.37 8.9 55.74 55.74 0 019.74 13.68 60.53 60.53 0 015.45 15.74 52.87 52.87 0 01.79 15.89 37.77 37.77 0 01-4.27 14.12 25.6 25.6 0 01-8.73 9.57 22.46 22.46 0 01-11.39 3.46 28.42 28.42 0 01-12.6-2.7 41.72 41.72 0 01-12.36-8.9z" fill="none" stroke="#340096" stroke-miterlimit="10" stroke-width="2"/>
  <path fill="#f5f2f9" stroke="#340096" stroke-miterlimit="10" stroke-width="2" d="M280.06 319.3l-2.26.82-2.26.82-2.27.82-2.26.82M311.19 400.52l-2.23.81-2.23.81-2.23.81-2.22.81"/>
  <path d="M51.38 306.2a55.74 55.74 0 01-9.74-13.68 60.47 60.47 0 01-5.45-15.75 52.8 52.8 0 01-.79-15.88 37.82 37.82 0 014.27-14.13 25.64 25.64 0 018.73-9.56 22.46 22.46 0 0111.39-3.46 28.28 28.28 0 0112.6 2.7 41.72 41.72 0 0112.37 8.9A55.56 55.56 0 0194.5 259a60.43 60.43 0 015.5 15.76 52.86 52.86 0 01.78 15.89 37.77 37.77 0 01-4.27 14.12 25.66 25.66 0 01-8.72 9.57 22.53 22.53 0 01-11.4 3.46 28.42 28.42 0 01-12.6-2.7 41.72 41.72 0 01-12.41-8.9z" fill="#fff" stroke="#340096" stroke-miterlimit="10" stroke-width="2"/>
  <path d="M94.7 259.42l-2.33.85-2.32.84-2.33.85-2.32.84a60.71 60.71 0 014.39 11.64 56.44 56.44 0 011.87 12 47.42 47.42 0 01-.82 11.5 36.16 36.16 0 01-3.67 10.25 28.08 28.08 0 01-1.82 2.91 27.44 27.44 0 01-2 2.55 25.46 25.46 0 01-2.25 2.17 23 23 0 01-2.44 1.81 22.54 22.54 0 005.26-1.32 22.2 22.2 0 004.82-2.58 23.85 23.85 0 004.24-3.84 28.3 28.3 0 003.53-5.09 35.86 35.86 0 003.67-10.25A47.42 47.42 0 00101 283a57.06 57.06 0 00-1.86-12 61.42 61.42 0 00-4.44-11.58z" fill="#340096" opacity=".08"/>
  <path d="M42.08 309.58a55.56 55.56 0 01-9.74-13.68 60.43 60.43 0 01-5.46-15.74 52.86 52.86 0 01-.78-15.89 37.77 37.77 0 014.27-14.12 25.81 25.81 0 018.72-9.57 22.48 22.48 0 0111.39-3.45 28.32 28.32 0 0112.61 2.7 41.67 41.67 0 0112.37 8.9 55.56 55.56 0 019.74 13.68 60.77 60.77 0 015.45 15.74 52.86 52.86 0 01.78 15.85 37.58 37.58 0 01-4.26 14.12 25.75 25.75 0 01-8.73 9.57 22.45 22.45 0 01-11.39 3.45 28.28 28.28 0 01-12.6-2.7 41.42 41.42 0 01-12.37-8.86z" fill="#fff"/>
  <path d="M42.08 309.58a55.56 55.56 0 01-9.74-13.68 60.43 60.43 0 01-5.46-15.74 52.86 52.86 0 01-.78-15.89 37.77 37.77 0 014.27-14.12 25.81 25.81 0 018.72-9.57 22.48 22.48 0 0111.39-3.45 28.32 28.32 0 0112.61 2.7 41.67 41.67 0 0112.37 8.9 55.56 55.56 0 019.74 13.68 60.77 60.77 0 015.45 15.74 52.86 52.86 0 01.78 15.85 37.58 37.58 0 01-4.26 14.12 25.75 25.75 0 01-8.73 9.57 22.45 22.45 0 01-11.39 3.45 28.28 28.28 0 01-12.6-2.7 41.42 41.42 0 01-12.37-8.86z" fill="none" stroke="#340096" stroke-miterlimit="10" stroke-width="2"/>
  <path fill="#f5f2f9" stroke="#340096" stroke-miterlimit="10" stroke-width="2" d="M52.42 235.19l-2.26.82-2.27.83-2.26.82-2.26.82M83.54 316.41l-2.22.81-2.23.81-2.23.81-2.23.81"/>
  <path d="M64.84 269.49a7.91 7.91 0 00.3 2.11 8.76 8.76 0 00.82 1.93 6.8 6.8 0 001.22 1.55 4.53 4.53 0 001.49.95 2.68 2.68 0 001.49.13 2.48 2.48 0 001.21-.65 3.45 3.45 0 00.82-1.34 5.72 5.72 0 00.3-1.89 7.91 7.91 0 00-.3-2.11 8.14 8.14 0 00-.82-1.94 7.23 7.23 0 00-1.21-1.54 4.64 4.64 0 00-1.49-.95 2.79 2.79 0 00-1.49-.14 2.48 2.48 0 00-1.22.66 3.63 3.63 0 00-.82 1.34 5.72 5.72 0 00-.3 1.89z" fill="#fff"/>
  <path d="M64.84 269.49a7.91 7.91 0 00.3 2.11 8.76 8.76 0 00.82 1.93 6.8 6.8 0 001.22 1.55 4.53 4.53 0 001.49.95 2.68 2.68 0 001.49.13 2.48 2.48 0 001.21-.65 3.45 3.45 0 00.82-1.34 5.72 5.72 0 00.3-1.89 7.91 7.91 0 00-.3-2.11 8.14 8.14 0 00-.82-1.94 7.23 7.23 0 00-1.21-1.54 4.64 4.64 0 00-1.49-.95 2.79 2.79 0 00-1.49-.14 2.48 2.48 0 00-1.22.66 3.63 3.63 0 00-.82 1.34 5.72 5.72 0 00-.3 1.89z" fill="none" stroke="#340096" stroke-linejoin="round"/>
  <path d="M73.62 293.49a1.23 1.23 0 00.63.05 1.22 1.22 0 00.55-.23 1.24 1.24 0 00.49-1.09 22.37 22.37 0 00-.61-3.94 15.68 15.68 0 00-1.28-3.45 10.25 10.25 0 00-2-2.71 7.63 7.63 0 00-2.73-1.72 5 5 0 00-2.76-.29 3.78 3.78 0 00-2 1.23 7 7 0 00-1.36 2.48 15.5 15.5 0 00-.66 3.47 2.68 2.68 0 00.07.8 2.36 2.36 0 00.33.72 2.25 2.25 0 00.53.58 2.7 2.7 0 00.7.4l2.54.92 2.54.93 2.53.92z" fill="#fff"/>
  <path d="M73.62 293.49a1.23 1.23 0 00.63.05 1.22 1.22 0 00.55-.23 1.24 1.24 0 00.49-1.09 22.37 22.37 0 00-.61-3.94 15.68 15.68 0 00-1.28-3.45 10.25 10.25 0 00-2-2.71 7.63 7.63 0 00-2.73-1.72 5 5 0 00-2.76-.29 3.78 3.78 0 00-2 1.23 7 7 0 00-1.36 2.48 15.5 15.5 0 00-.66 3.47 2.68 2.68 0 00.07.8 2.36 2.36 0 00.33.72 2.25 2.25 0 00.53.58 2.7 2.7 0 00.7.4l2.54.92 2.54.93 2.53.92z" fill="none" stroke="#340096" stroke-miterlimit="10"/>
  <path d="M54.16 270.78a7.52 7.52 0 00.3 2.11 8 8 0 00.82 1.94 6.93 6.93 0 001.21 1.54 4.38 4.38 0 001.49.95 2.79 2.79 0 001.49.14 2.48 2.48 0 001.22-.66 3.63 3.63 0 00.82-1.34 5.72 5.72 0 00.3-1.89 8 8 0 00-.3-2.11 8.76 8.76 0 00-.82-1.93 7 7 0 00-1.22-1.53 4.5 4.5 0 00-1.47-1 2.6 2.6 0 00-1.49-.14 2.38 2.38 0 00-1.21.66 3.41 3.41 0 00-.82 1.33 5.51 5.51 0 00-.32 1.93z" fill="#fff"/>
  <path d="M54.16 270.78a7.52 7.52 0 00.3 2.11 8 8 0 00.82 1.94 6.93 6.93 0 001.21 1.54 4.38 4.38 0 001.49.95 2.79 2.79 0 001.49.14 2.48 2.48 0 001.22-.66 3.63 3.63 0 00.82-1.34 5.72 5.72 0 00.3-1.89 8 8 0 00-.3-2.11 8.76 8.76 0 00-.82-1.93 7 7 0 00-1.22-1.53 4.5 4.5 0 00-1.47-1 2.6 2.6 0 00-1.49-.14 2.38 2.38 0 00-1.21.66 3.41 3.41 0 00-.82 1.33 5.51 5.51 0 00-.32 1.93z" fill="none" stroke="#340096" stroke-linejoin="round"/>
  <path d="M62.93 294.78a1.25 1.25 0 00.63.06 1.36 1.36 0 00.55-.24 1.24 1.24 0 00.5-1.08 22.62 22.62 0 00-.62-3.95 15.68 15.68 0 00-1.28-3.45 10.39 10.39 0 00-2-2.71 7.9 7.9 0 00-2.71-1.72 5 5 0 00-2.76-.29 3.81 3.81 0 00-2 1.23 6.91 6.91 0 00-1.35 2.48 14.46 14.46 0 00-.66 3.47 2.35 2.35 0 00.07.8 2.59 2.59 0 00.32.72 3 3 0 00.53.59 2.58 2.58 0 00.71.39l2.54.92 2.53.93 2.54.92z" fill="#fff"/>
  <path d="M62.93 294.78a1.25 1.25 0 00.63.06 1.36 1.36 0 00.55-.24 1.24 1.24 0 00.5-1.08 22.62 22.62 0 00-.62-3.95 15.68 15.68 0 00-1.28-3.45 10.39 10.39 0 00-2-2.71 7.9 7.9 0 00-2.71-1.72 5 5 0 00-2.76-.29 3.81 3.81 0 00-2 1.23 6.91 6.91 0 00-1.35 2.48 14.46 14.46 0 00-.66 3.47 2.35 2.35 0 00.07.8 2.59 2.59 0 00.32.72 3 3 0 00.53.59 2.58 2.58 0 00.71.39l2.54.92 2.53.93 2.54.92z" fill="none" stroke="#340096" stroke-miterlimit="10"/>
  <path d="M43.47 272.08a8 8 0 00.3 2.11 9 9 0 00.82 1.93 6.74 6.74 0 001.22 1.54 4.38 4.38 0 001.49.95 2.75 2.75 0 001.48.14 2.41 2.41 0 001.22-.66 3.41 3.41 0 00.82-1.33 5.83 5.83 0 00.3-1.9 8 8 0 00-.3-2.11 8.07 8.07 0 00-.82-1.93 6.74 6.74 0 00-1.22-1.54 4.34 4.34 0 00-1.48-.95 2.79 2.79 0 00-1.49-.14 2.41 2.41 0 00-1.22.66 3.67 3.67 0 00-.82 1.33 5.83 5.83 0 00-.3 1.9z" fill="#fff"/>
  <path d="M43.47 272.08a8 8 0 00.3 2.11 9 9 0 00.82 1.93 6.74 6.74 0 001.22 1.54 4.38 4.38 0 001.49.95 2.75 2.75 0 001.48.14 2.41 2.41 0 001.22-.66 3.41 3.41 0 00.82-1.33 5.83 5.83 0 00.3-1.9 8 8 0 00-.3-2.11 8.07 8.07 0 00-.82-1.93 6.74 6.74 0 00-1.22-1.54 4.34 4.34 0 00-1.48-.95 2.79 2.79 0 00-1.49-.14 2.41 2.41 0 00-1.22.66 3.67 3.67 0 00-.82 1.33 5.83 5.83 0 00-.3 1.9z" fill="none" stroke="#340096" stroke-linejoin="round"/>
  <path d="M52.25 296.07a1.21 1.21 0 00.62.06 1.23 1.23 0 00.56-.24 1.27 1.27 0 00.49-1.08 23.61 23.61 0 00-.61-3.95 15.39 15.39 0 00-1.31-3.45 10.16 10.16 0 00-2-2.71 7.6 7.6 0 00-2.7-1.7 5 5 0 00-2.76-.29 3.76 3.76 0 00-2 1.22 7.17 7.17 0 00-1.36 2.48 15.49 15.49 0 00-.66 3.48 2.68 2.68 0 00.07.8 2.41 2.41 0 00.33.71 2.47 2.47 0 00.53.59 2.67 2.67 0 00.7.39l2.54.93 2.54.92 2.53.93z" fill="#fff"/>
  <path d="M52.25 296.07a1.21 1.21 0 00.62.06 1.23 1.23 0 00.56-.24 1.27 1.27 0 00.49-1.08 23.61 23.61 0 00-.61-3.95 15.39 15.39 0 00-1.31-3.45 10.16 10.16 0 00-2-2.71 7.6 7.6 0 00-2.7-1.7 5 5 0 00-2.76-.29 3.76 3.76 0 00-2 1.22 7.17 7.17 0 00-1.36 2.48 15.49 15.49 0 00-.66 3.48 2.68 2.68 0 00.07.8 2.41 2.41 0 00.33.71 2.47 2.47 0 00.53.59 2.67 2.67 0 00.7.39l2.54.93 2.54.92 2.53.93z" fill="none" stroke="#340096" stroke-miterlimit="10"/>
  <path fill="none" stroke="#340096" stroke-miterlimit="10" stroke-width="2" d="M159.58 263.28l-2.52.92-2.51.92-2.52.91-2.52.92M201.82 374.17l-2.68.98-2.67.97-2.68.98-2.68.97"/>
</svg>