<svg xmlns="http://www.w3.org/2000/svg" viewBox="0 0 588 440">
  <defs>
    <clipPath id="a">
      <path fill="none" d="M430.6 322.16l-49.88 18.15-49.88 18.15-49.88 18.16-49.88 18.15-49.22-17.91-49.22-17.92-49.23-17.91-49.22-17.92 49.88-18.15 49.88-18.16 49.88-18.15 49.88-18.16 49.22 17.92 49.22 17.91 49.22 17.92 49.23 17.92z"/>
    </clipPath>
    <clipPath id="b">
      <path d="M306.38 259.16L298 256.1l-8.39-3.05-8.4-3.05-8.39-3.05h-.57 0l-1.33.48-1.34.49-1.34.49-1.33.48.56.62.56.61.57.62.56.62v20.54a1.77 1.77 0 00.08.52 2.28 2.28 0 00.23.47 1.58 1.58 0 00.36.37 1.66 1.66 0 00.47.26l7.19 2.62 7.2 2.62 7.2 2.62 7.2 2.62.63.69.64.69.63.69.63.69 1.34-.49 1.34-.48 1.33-.49 1.34-.49h0a.94.94 0 00.22-.12.58.58 0 00.17-.18 1 1 0 00.12-.23.8.8 0 000-.27v-23.24a1.82 1.82 0 00-.08-.52 1.53 1.53 0 00-.23-.46 1.63 1.63 0 00-.36-.38 1.46 1.46 0 00-.43-.25z" fill="#fff" stroke="#3b009b" stroke-linejoin="round" stroke-width="2"/>
    </clipPath>
    <clipPath id="c">
      <path d="M235.19 290.94a6.76 6.76 0 00-1-.24 6.92 6.92 0 00-1-.07 7.77 7.77 0 00-1 .09 5.85 5.85 0 00-.91.25h0l-1.17.43-1.17.43-1.17.42-1.18.43.19.49.19.48.18.49.19.48a8.72 8.72 0 00-.45 1.12 11 11 0 00-.34 1.23 10.89 10.89 0 00-.2 1.33 13.3 13.3 0 00-.07 1.43 43.85 43.85 0 00.65 4.75c.39 2.3.92 5.13 1.44 7.87s1 5.41 1.44 7.38.65 3.27.65 3.27l1.19-.43 1.18-.43 1.19-.43 1.18-.43 1.72-2.49 1.71-2.49 1.71-2.49 1.72-2.49a9 9 0 00.77-1.29 11.26 11.26 0 00.58-1.51 12.6 12.6 0 00.36-1.71 14.3 14.3 0 00.12-1.89 16.4 16.4 0 00-.68-4.62 17.06 17.06 0 00-1.86-4.17 14.28 14.28 0 00-2.76-3.27 9.59 9.59 0 00-3.4-1.92z" fill="#fff" stroke="#2e1091" stroke-linejoin="round" stroke-width="2"/>
    </clipPath>
    <clipPath id="d">
      <path d="M92.94 301.08L84.55 298l-8.39-3-8.39-3.05-8.39-3.06h-.57 0l-1.33.48-1.34.49-1.34.49-1.33.48.56.62.57.62.56.61.56.62v20.55a1.6 1.6 0 00.09.53 1.65 1.65 0 00.23.46 1.57 1.57 0 00.35.38 1.92 1.92 0 00.47.25l7.2 2.62 7.19 2.62 7.2 2.62 7.2 2.62.63.69.64.69.63.69.63.69 1.34-.48 1.34-.49 1.33-.49 1.34-.48h0a1 1 0 00.22-.13.77.77 0 00.18-.18 1 1 0 00.11-.23.77.77 0 000-.27v-23.27a1.53 1.53 0 00-.08-.52 1.65 1.65 0 00-.23-.46 2.11 2.11 0 00-.35-.38 1.92 1.92 0 00-.44-.25z" fill="#fff" stroke="#3b009b" stroke-linejoin="round" stroke-width="2"/>
    </clipPath>
    <clipPath id="e">
      <path d="M179.92 268.13l-8.39-3.06-8.39-3.07-8.39-3-8.39-3h-.58 0l-1.34.48-1.33.49-1.34.49-1.34.48.57.62.56.61.57.62.56.62v20.55a1.77 1.77 0 00.08.52 1.87 1.87 0 00.23.47 1.58 1.58 0 00.36.37 1.61 1.61 0 00.46.26l7.2 2.62 7.2 2.62 7.2 2.62 7.2 2.62.63.69.63.69.64.69.63.69 1.34-.49 1.33-.48 1.34-.49 1.34-.49h0a.94.94 0 00.22-.12 1 1 0 00.17-.18 1 1 0 00.12-.23.8.8 0 000-.27v-23.33a1.82 1.82 0 00-.08-.52 1.53 1.53 0 00-.23-.46 1.63 1.63 0 00-.36-.38 1.58 1.58 0 00-.42-.25z" fill="#fff" stroke="#3b009b" stroke-linejoin="round" stroke-width="2"/>
    </clipPath>
    <clipPath id="f">
      <path d="M262.12 342.87l-8.39-3.05-8.39-3.06-8.34-3.05-8.39-3h-.57 0l-1.33.49-1.34.49-1.34.48-1.33.49.56.61.57.62.56.62.57.61v20.56a1.49 1.49 0 00.08.52 1.71 1.71 0 00.23.47 2 2 0 00.35.37 2 2 0 00.47.26l7.2 2.62 7.2 2.62 7.19 2.62 7.2 2.62.64.69.63.69.63.69.63.69 1.34-.49 1.34-.49 1.34-.48 1.33-.49h0a.94.94 0 00.22-.12 1 1 0 00.18-.18.7.7 0 00.11-.23.86.86 0 00.05-.27v-23.3a1.5 1.5 0 00-.09-.52 1.58 1.58 0 00-.23-.47 1.76 1.76 0 00-.35-.37 1.66 1.66 0 00-.53-.26z" fill="#fff" stroke="#3b009b" stroke-linejoin="round" stroke-width="2"/>
    </clipPath>
    <clipPath id="g">
      <path d="M179.66 335.24l-8.39-3.05-8.39-3.05-8.39-3.06-8.39-3.08h-.58 0l-1.34.49-1.33.49-1.34.48-1.34.49.57.62.56.61.57.62.56.61V348a1.77 1.77 0 00.08.52 2 2 0 00.23.47 1.8 1.8 0 00.36.37 1.89 1.89 0 00.46.26l7.2 2.62 7.2 2.62 7.2 2.62 7.2 2.62.63.69.63.69.64.69.63.69 1.34-.49 1.33-.48 1.34-.49 1.34-.49h0a.94.94 0 00.22-.12 1.45 1.45 0 00.17-.18 1 1 0 00.12-.23.84.84 0 000-.27v-23.25a1.77 1.77 0 00-.08-.52 1.65 1.65 0 00-.59-.84 1.61 1.61 0 00-.42-.26z" fill="#fff" stroke="#3b009b" stroke-linejoin="round" stroke-width="2"/>
    </clipPath>
    <clipPath id="h">
      <path d="M194.82 291.86l-8.39-3.06-8.43-3.05-8.39-3.05-8.39-3.06h-.58 0l-1.34.48-1.33.49-1.34.49-1.34.48.57.62.56.61.57.62.56.62v20.55a1.89 1.89 0 00.08.53 1.65 1.65 0 00.23.46 1.58 1.58 0 00.36.37 1.61 1.61 0 00.46.26l7.2 2.62 7.2 2.62 7.2 2.62 7.2 2.62.63.69.63.69.64.69.63.69 1.34-.48 1.33-.49 1.34-.49 1.34-.48h0l.22-.13a1 1 0 00.17-.18 1 1 0 00.12-.23 1.1 1.1 0 000-.27v-23.24a1.82 1.82 0 00-.08-.52 1.8 1.8 0 00-.23-.46 1.67 1.67 0 00-.82-.63z" fill="#fff" stroke="#3b009b" stroke-linejoin="round" stroke-width="2"/>
    </clipPath>
    <clipPath id="i">
      <path d="M400.1 300.37l-8.39-3.05-8.39-3.05-8.39-3.06-8.39-3H365.97h0l-1.34.49-1.34.49-1.33.48-1.34.49.56.62.57.61.56.62.57.61v20.56a1.77 1.77 0 00.08.52 1.65 1.65 0 00.59.84 1.48 1.48 0 00.46.26l7.2 2.62 7.2 2.62 7.2 2.62 7.19 2.62.64.69.63.69.63.69.64.69 1.33-.49L398 327l1.34-.49 1.33-.49h0a.89.89 0 00.4-.3.7.7 0 00.11-.23.86.86 0 00.05-.27V302a1.77 1.77 0 00-.08-.52 2.56 2.56 0 00-.23-.47 1.8 1.8 0 00-.36-.37 2 2 0 00-.46-.27z" fill="#fff" stroke="#3b009b" stroke-linejoin="round" stroke-width="2"/>
    </clipPath>
    <clipPath id="j">
      <path d="M329.19 306.12l-8.39-3.05-8.39-3.07-8.41-3-8.39-3.06H295.03h0l-1.34.49-1.34.48-1.33.49-1.34.49.57.61.56.62.56.61.57.62v20.56a1.82 1.82 0 00.08.52 1.65 1.65 0 00.23.46 1.67 1.67 0 00.82.63l7.2 2.62 7.2 2.62 7.2 2.62 7.2 2.62.63.69.63.69.63.7.64.69 1.33-.49 1.34-.49 1.34-.48 1.34-.49h0a.61.61 0 00.22-.13.77.77 0 00.18-.18.84.84 0 00.12-.23 1.1 1.1 0 000-.27v-23.27a1.89 1.89 0 00-.08-.53 2 2 0 00-.23-.46 1.67 1.67 0 00-.82-.63z" fill="#fff" stroke="#3b009b" stroke-linejoin="round" stroke-width="2"/>
    </clipPath>
    <clipPath id="k">
      <path d="M341.39 329.78l-8.39-3-8.39-3.06-8.39-3.05-8.39-3.05a.42.42 0 00-.15 0H307.26h0l-1.33.49-1.34.48-1.34.49-1.33.49.56.61.57.62.56.61.56.62v20.56a1.79 1.79 0 00.32 1 1.58 1.58 0 00.35.38 1.63 1.63 0 00.47.25l7.2 2.62 7.19 2.62 7.2 2.62 7.2 2.62.63.69.64.7.63.69.63.69 1.34-.49 1.34-.49 1.33-.48 1.34-.49h0a.94.94 0 00.22-.12 1.07 1.07 0 00.18-.19.82.82 0 00.11-.23.75.75 0 000-.26V331.4a1.59 1.59 0 00-.08-.53 1.65 1.65 0 00-.23-.46 1.76 1.76 0 00-.35-.37 1.66 1.66 0 00-.44-.26z" fill="#fff" stroke="#3b009b" stroke-linejoin="round" stroke-width="2"/>
    </clipPath>
  </defs>
  <g data-name="Layer 4">
    <g opacity=".15">
      <path d="M387.16 275.56l1.81.68 1.81.67 1.81.68 1.81.68a1.73 1.73 0 01.87.69 1.93 1.93 0 010 2 1.73 1.73 0 01-.87.69l-4 1.53-4 1.53-4 1.53-4 1.54a9.36 9.36 0 01-1.63.44 9.26 9.26 0 01-3.32 0 9.36 9.36 0 01-1.63-.44l-1.81-.68-1.81-.68-1.81-.68-1.82-.68a1.74 1.74 0 01-.86-.68 1.89 1.89 0 010-2 1.74 1.74 0 01.86-.68l4-1.54 4-1.53 4-1.53 4-1.53a9.3 9.3 0 014.95-.45 9.39 9.39 0 011.64.44zM345.41 216.51l-2.49.91-2.5.91-2.49.9-2.5.91a1.23 1.23 0 00-.61.48 1.26 1.26 0 000 1.39 1.23 1.23 0 00.61.48L386 240.91l50.61 18.42 50.6 18.42 50.61 18.42a7.91 7.91 0 001.35.36 8.05 8.05 0 002.77 0 7.91 7.91 0 001.35-.36l2.5-.91 2.49-.91 2.49-.91 2.5-.91a1.3 1.3 0 00.62-.47 1.32 1.32 0 000-1.4 1.3 1.3 0 00-.62-.47l-50.57-18.42-50.6-18.42-50.61-18.42-50.6-18.42a8.27 8.27 0 00-1.36-.36 8 8 0 00-2.76 0 8.27 8.27 0 00-1.36.36z" fill="#008cdd"/>
      <path fill="none" stroke="#008cdd" stroke-linejoin="round" d="M392.07 277.27l.94-.34"/>
      <path fill="none" stroke="#008cdd" stroke-linejoin="round" stroke-dasharray="2.061541795730591,2.061541795730591" d="M394.95 276.22l11.63-4.23 14.52-5.29 14.51-5.28 12.61-4.59"/>
      <path fill="none" stroke="#008cdd" stroke-linejoin="round" d="M449.19 256.48l.94-.34M367.53 286.2l-.94.34"/>
      <path fill="none" stroke="#008cdd" stroke-linejoin="round" stroke-dasharray="1.9080618619918823,1.9080618619918823" d="M364.8 287.2l-7.16 2.6-9.88 3.6-9.88 3.59-8.05 2.93"/>
      <path fill="none" stroke="#008cdd" stroke-linejoin="round" d="M328.93 300.25l-.93.34"/>
    </g>
    <path fill="none" stroke="#340096" stroke-linejoin="round" d="M382.19 256.33l.93-.34"/>
    <path fill="none" stroke="#340096" stroke-linejoin="round" stroke-dasharray="1.962567687034607,1.962567687034607" d="M384.97 255.31l8.29-3.01 11.07-4.03 11.08-4.03 9.21-3.36"/>
    <path fill="none" stroke="#340096" stroke-linejoin="round" d="M425.54 240.55l.94-.34v-1"/>
    <path fill="none" stroke="#340096" stroke-linejoin="round" stroke-dasharray="2.0735485553741455,2.0735485553741455" d="M426.48 237.13v-36.29"/>
    <path fill="none" stroke="#340096" stroke-linejoin="round" d="M426.48 199.81v-1"/>
    <path d="M554 119.17l-51.89-18.88-51.85-18.89-51.89-18.89-51.89-18.88a4.9 4.9 0 00-.89-.24 4.39 4.39 0 00-.88-.06 6.11 6.11 0 00-.86.09 5.41 5.41 0 00-.81.24l-3 1.1-3 1.09L334 47l-3 1.1a5.13 5.13 0 00-1.34.68 5 5 0 00-1.07 1 4.85 4.85 0 00-.71 1.33 4.8 4.8 0 00-.26 1.58v130.87a9.87 9.87 0 00.46 3 10 10 0 001.31 2.64 9.76 9.76 0 004.68 3.59L386 211.66l51.89 18.88 51.89 18.89 51.89 18.89a5.3 5.3 0 00.93.24 5.8 5.8 0 00.93.05 6.57 6.57 0 00.89-.12 6.5 6.5 0 00.85-.28l3-1.09 3-1.08 3-1.08 3-1.09a4.81 4.81 0 001.34-.67 5.12 5.12 0 001.09-1 4.75 4.75 0 001-2.93V128.38a9.87 9.87 0 00-.46-3 10.33 10.33 0 00-1.31-2.64 9.81 9.81 0 00-2-2.13 9.55 9.55 0 00-2.93-1.44z" fill="#fff"/>
    <path d="M559.64 124.45l-3.07 1.11-3.07 1.12-3.07 1.12-3.07 1.12q.2.45.36.93c.1.32.19.64.26 1a8.7 8.7 0 01.17 1 8.89 8.89 0 01.06 1v130.86a4.71 4.71 0 01-.23 1.47 4.6 4.6 0 01-.62 1.28 4.79 4.79 0 01-.94 1 4.67 4.67 0 01-1.19.72l3-1.09 3-1.08 3-1.08 3-1.09a4.81 4.81 0 001.34-.67 5.12 5.12 0 001.09-1 4.75 4.75 0 001-2.93V128.38a8.89 8.89 0 00-.06-1c0-.34-.09-.67-.16-1s-.17-.65-.27-1-.4-.63-.53-.93z" fill="#340096" opacity=".05"/>
    <path d="M545.23 268.22l3-1.09 3-1.08 3-1.08 3-1.09a4.81 4.81 0 001.34-.67 5.12 5.12 0 001.09-1 4.75 4.75 0 001-2.93v-130.9a9.87 9.87 0 00-.46-3 10.33 10.33 0 00-1.31-2.64 9.81 9.81 0 00-2-2.13 9.55 9.55 0 00-2.64-1.46l-51.89-18.88-52.1-18.87-51.89-18.89-51.89-18.88a4.9 4.9 0 00-.89-.24 4.39 4.39 0 00-.88-.06 6.11 6.11 0 00-.86.09 5.41 5.41 0 00-.81.24h0l-3 1.1-3 1.09L334 47l-3 1.1" fill="none" stroke="#340096" stroke-linejoin="round" stroke-width="2"/>
    <path d="M327.62 52.7v130.86a9.87 9.87 0 00.46 3 10 10 0 001.31 2.64 9.76 9.76 0 004.68 3.59L386 211.66l51.89 18.88 51.89 18.89 51.89 18.89a4.91 4.91 0 002.38.25 5 5 0 002.11-.85 4.92 4.92 0 001.51-1.69 4.84 4.84 0 00.58-2.32V132.85a9.58 9.58 0 00-.47-3 9.72 9.72 0 00-1.31-2.64 9.54 9.54 0 00-2-2.13 10 10 0 00-2.64-1.46l-51.89-18.88L438 85.87 386.09 67 334.2 48.1a4.91 4.91 0 00-2.38-.25 4.95 4.95 0 00-3.62 2.53 4.87 4.87 0 00-.58 2.32z" fill="none" stroke="#340096" stroke-linejoin="round" stroke-width="2"/>
    <path d="M342.06 68.31l2.54.92a4.21 4.21 0 012.36 2 7.67 7.67 0 01.78 3.65A4.67 4.67 0 01347 78a2 2 0 01-2.36.31l-2.54-.92zm2.43 8.57c.56.21 1 .16 1.25-.15a2.57 2.57 0 00.4-1.63v-1.57a4.11 4.11 0 00-.4-1.9 2.19 2.19 0 00-1.25-1.06l-.92-.34v6.32zM354.06 81.73l-.58-2.52-2.42-.88-.56 2.11-1.5-.56 2.29-8.24 2.13.77 2.3 9.91zm-1.73-8h-.1l-.9 3.38 1.9.68zM360.68 76.45v7.67l-1.52-.55V75.9l-2.46-.9v-1.4l6.44 2.33v1.4zM365 85.68v-9.07l5.16 1.87v1.4l-3.62-1.31v2.36L370 82.2v1.4l-3.49-1.26v2.49l3.62 1.32v1.4z" fill="#e40089"/>
    <path fill="none" stroke="#e40089" stroke-linejoin="round" stroke-width=".85" d="M420.47 106.66l2.1.76 2.1.77 2.1.76 2.1.76V99.64l-2.1-.76-2.1-.76-2.1-.77-2.1-.76V106.66z"/>
    <path fill="#e40089" d="M423.41 104.69l.58.21.59.21.58.21.58.22v-2.8l-.58-.22-.58-.21-.59-.21-.58-.21v2.8z"/>
    <path d="M423.2 98.41a.54.54 0 01-.27 0 .38.38 0 01-.23-.11.61.61 0 01-.15-.23.9.9 0 01-.06-.34 1.19 1.19 0 01.06-.37 1.37 1.37 0 01.15-.35 1.09 1.09 0 01.23-.29.77.77 0 01.27-.17.56.56 0 01.28 0 .46.46 0 01.22.11.63.63 0 01.16.23 1.16 1.16 0 01.05.34v.13a.51.51 0 000 .13.93.93 0 010 .13.56.56 0 010 .12M427.19 100.05a.69.69 0 01-.28 0 .45.45 0 01-.23-.11.66.66 0 01-.15-.23 1.09 1.09 0 010-.33 1.58 1.58 0 010-.38 2.17 2.17 0 01.15-.35 1.64 1.64 0 01.23-.28 1 1 0 01.28-.18.54.54 0 01.27 0 .45.45 0 01.23.11.61.61 0 01.15.23.9.9 0 01.06.34.57.57 0 010 .13.59.59 0 010 .13v.13a.61.61 0 010 .12" fill="none" stroke="#e40089" stroke-linejoin="round" stroke-width=".85"/>
    <path fill="#fff" d="M427.01 99.64V101.09l.17-.04.17-.03.17-.04.17-.04.07-.24.07-.24.07-.24.08-.23-.24-.09-.24-.09-.25-.09-.24-.08zM423.1 98.21v1.46l.24-.28.24-.27.25-.28.24-.28-.25-.08-.24-.09-.24-.09-.24-.09z"/>
    <path d="M349.12 110l-6.77-2.46v-2.05l3-1.67a4 4 0 001.1-.88 1.51 1.51 0 00.34-1v-.15a1.85 1.85 0 00-.35-1.13 2.08 2.08 0 00-1-.68 1 1 0 00-1 .06 1.65 1.65 0 00-.51.85l-1.77-1.39a3.06 3.06 0 01.45-.86 1.79 1.79 0 01.72-.59 2.47 2.47 0 011-.21 3.83 3.83 0 011.34.27 5.12 5.12 0 011.37.73 5.07 5.07 0 011 1 4.29 4.29 0 01.63 1.22 4.08 4.08 0 01.22 1.33 3 3 0 01-.2 1.14 2.48 2.48 0 01-.54.83 4 4 0 01-.81.64q-.47.28-1 .54l-1.79.9 4.53 1.64zM354.45 112.11a4.86 4.86 0 01-2.78-2.44 9.32 9.32 0 01-.9-4.31 5.86 5.86 0 01.9-3.67c.59-.73 1.52-.87 2.78-.41a4.89 4.89 0 012.79 2.43 9.39 9.39 0 01.9 4.32 5.81 5.81 0 01-.9 3.66q-.9 1.1-2.79.42zm0-1.77c.6.22 1 .13 1.26-.25a3.59 3.59 0 00.36-1.84v-2a5.3 5.3 0 00-.36-2.09 2 2 0 00-1.26-1.16c-.6-.22-1-.14-1.26.25a3.54 3.54 0 00-.36 1.83v2a5.35 5.35 0 00.36 2.1 2.1 2.1 0 001.26 1.16zm0-2.76a1.34 1.34 0 01-.65-.45 1 1 0 01-.18-.58v-.33a.53.53 0 01.18-.44c.12-.1.34-.09.65 0a1.25 1.25 0 01.66.44 1.07 1.07 0 01.18.58v.33a.52.52 0 01-.18.44c-.11.13-.34.12-.66.01zM366.67 116.35l-6.78-2.45v-2.06l3-1.67a4.19 4.19 0 001.11-.87 1.6 1.6 0 00.33-1v-.15A1.74 1.74 0 00364 107a1.92 1.92 0 00-.94-.68 1 1 0 00-1 0 1.69 1.69 0 00-.51.85l-1.77-1.39a3.32 3.32 0 01.44-.86 1.84 1.84 0 01.73-.59 2.64 2.64 0 011-.21 4 4 0 011.33.27 5.08 5.08 0 011.38.74 4.74 4.74 0 011 1 4.51 4.51 0 01.64 1.23 4.3 4.3 0 01.21 1.33 2.94 2.94 0 01-.19 1.13 2.48 2.48 0 01-.54.83 4 4 0 01-.81.64q-.46.28-1 .54l-1.8.9 4.54 1.64zM372 118.46a4.93 4.93 0 01-2.79-2.43 9.39 9.39 0 01-.9-4.32 5.81 5.81 0 01.9-3.66q.9-1.11 2.79-.42a4.93 4.93 0 012.79 2.43 9.53 9.53 0 01.89 4.32 5.88 5.88 0 01-.89 3.66q-.9 1.11-2.79.42zm0-1.77c.6.22 1 .14 1.26-.25a3.54 3.54 0 00.36-1.83v-2a5.35 5.35 0 00-.36-2.1 2.1 2.1 0 00-1.26-1.11c-.6-.22-1-.14-1.26.25a3.54 3.54 0 00-.36 1.83v2a5.35 5.35 0 00.36 2.1 2.07 2.07 0 001.26 1.11zm0-2.76a1.21 1.21 0 01-.66-.45 1 1 0 01-.18-.57v-.33a.55.55 0 01.18-.45q.18-.13.66 0a1.22 1.22 0 01.65.45 1 1 0 01.19.57v.33a.56.56 0 01-.19.45c-.12.12-.34.07-.65 0zM377.71 122.42l4.33-11.9 1.79.64-4.33 11.91zM389.54 124.81a4.87 4.87 0 01-2.78-2.43 9.39 9.39 0 01-.9-4.32 5.81 5.81 0 01.9-3.66c.6-.74 1.52-.87 2.78-.42a4.91 4.91 0 012.79 2.44 9.32 9.32 0 01.9 4.31 5.86 5.86 0 01-.9 3.67c-.6.73-1.53.87-2.79.41zm0-1.77c.61.22 1 .14 1.27-.25a3.67 3.67 0 00.35-1.83V119a5.55 5.55 0 00-.35-2.1 2.09 2.09 0 00-1.27-1.16c-.6-.22-1-.13-1.26.25a3.59 3.59 0 00-.36 1.84v2a5.3 5.3 0 00.36 2.09 2.07 2.07 0 001.26 1.08zm0-2.76a1.22 1.22 0 01-.65-.45 1 1 0 01-.18-.57v-.33a.55.55 0 01.18-.45c.12-.09.34-.08.65 0a1.32 1.32 0 01.66.45 1 1 0 01.18.57v.33a.54.54 0 01-.18.45c-.12.12-.34.12-.66 0zM398 121.35a1.5 1.5 0 001.14.08.74.74 0 00.36-.69v-.1a1.68 1.68 0 00-.34-1 2.12 2.12 0 00-1-.7 1.8 1.8 0 00-1.09-.07 1.62 1.62 0 00-.86.62l-1.28-1.79a3.14 3.14 0 01.6-.49 2.36 2.36 0 01.71-.29 2.85 2.85 0 01.89 0 5.15 5.15 0 011.11.28 6 6 0 011.39.7 5.09 5.09 0 011.06.94 4.25 4.25 0 01.68 1.13 3.28 3.28 0 01.24 1.23 2.3 2.3 0 01-.14.84 1.49 1.49 0 01-.4.56 1.26 1.26 0 01-.58.28 1.87 1.87 0 01-.71 0v.09a4.21 4.21 0 011.44 1.32 3.34 3.34 0 01.57 1.92 2.45 2.45 0 01-.26 1.18 1.66 1.66 0 01-.75.71 2.44 2.44 0 01-1.16.2 5.29 5.29 0 01-1.52-.33 6.16 6.16 0 01-1.26-.62 5.78 5.78 0 01-1-.79 5.08 5.08 0 01-.72-.9 9.16 9.16 0 01-.54-1l1.5-.74a5.68 5.68 0 00.78 1.34 2.8 2.8 0 001.24.86 1.32 1.32 0 001.12 0 1 1 0 00.4-.9v-.11a1.6 1.6 0 00-.45-1.13 3.09 3.09 0 00-1.24-.77l-.88-.32V121zM404 131.94l4.33-11.9 1.79.65-4.33 11.9zM413.08 133.15v-1.81l2.54.92v-7h-.12l-1.92 2.1-1.29-1.6 2.25-2.48 3.1 1.12v8.6l2 .72v1.82zM427.67 129.93l-4.36-1.58-.21 3.24h.12a2.91 2.91 0 01.34-.54 1.3 1.3 0 01.44-.37 1.4 1.4 0 01.6-.12 2.35 2.35 0 01.76.16 3.88 3.88 0 011.1.62 4.57 4.57 0 01.92 1 4.63 4.63 0 01.63 1.28 4.82 4.82 0 01.23 1.48 3.62 3.62 0 01-.24 1.38 2.14 2.14 0 01-.71.92 2.21 2.21 0 01-1.16.35 4.13 4.13 0 01-1.56-.29 5.43 5.43 0 01-1.23-.61 5.73 5.73 0 01-.95-.78 5.57 5.57 0 01-.72-.9 9.89 9.89 0 01-.52-.94l1.47-.76c.11.24.23.47.35.7a3.75 3.75 0 00.42.62 3.14 3.14 0 00.52.51 2.83 2.83 0 00.67.35 1.14 1.14 0 001.14 0 1.35 1.35 0 00.39-1.09v-.12a2.25 2.25 0 00-.39-1.31 2.32 2.32 0 00-1.08-.81 1.46 1.46 0 00-.94-.09 1.39 1.39 0 00-.56.28l-1.66-.85.35-5.8 5.84 2.12z" fill="#e40089"/>
    <path d="M445.69 145.16v-1.82l2.53.92v-7h-.12l-1.92 2.09-1.29-1.59 2.25-2.49 3.11 1.13v8.6l2 .73v1.81zM454.46 148.33v-1.81l2.54.92v-7h-.13l-1.91 2.1-1.3-1.6 2.26-2.48 3.1 1.12v8.66l2 .72v1.82zM466 152.69a4.86 4.86 0 01-2.79-2.43 9.48 9.48 0 01-.89-4.31 5.91 5.91 0 01.89-3.67q.9-1.09 2.79-.42a4.91 4.91 0 012.79 2.44 9.35 9.35 0 01.9 4.31 5.84 5.84 0 01-.9 3.67c-.59.72-1.52.87-2.79.41zm0-1.77q.9.33 1.26-.24a3.61 3.61 0 00.36-1.84v-2a5.26 5.26 0 00-.36-2.09 2.09 2.09 0 00-1.26-1.17c-.6-.21-1-.13-1.26.25a3.61 3.61 0 00-.36 1.84v1.95a5.26 5.26 0 00.36 2.09 2 2 0 001.26 1.21zm0-2.76a1.26 1.26 0 01-.65-.44 1 1 0 01-.19-.58v-.33a.5.5 0 01.19-.44c.12-.1.34-.09.65 0a1.37 1.37 0 01.66.45 1.07 1.07 0 01.18.58v.33a.52.52 0 01-.18.44c-.12.12-.33.11-.66-.01zM473.8 152.72l2.56.93-1.85 4.21-1.48-.54zM483.56 159.05a4.91 4.91 0 01-2.79-2.44 9.32 9.32 0 01-.9-4.31 5.86 5.86 0 01.9-3.67c.6-.73 1.53-.87 2.79-.41a4.81 4.81 0 012.78 2.43 9.39 9.39 0 01.9 4.32 5.81 5.81 0 01-.9 3.66c-.59.73-1.52.87-2.78.42zm0-1.77c.6.21 1 .13 1.26-.25a3.61 3.61 0 00.36-1.84v-1.95a5.26 5.26 0 00-.36-2.09 2 2 0 00-1.26-1.16c-.61-.22-1-.14-1.27.24a3.74 3.74 0 00-.35 1.84v2a5.46 5.46 0 00.35 2.09 2.08 2.08 0 001.27 1.12zm0-2.76a1.32 1.32 0 01-.66-.45 1 1 0 01-.18-.58v-.33a.53.53 0 01.18-.44q.18-.15.66 0a1.26 1.26 0 01.65.44 1.07 1.07 0 01.18.58v.33a.52.52 0 01-.18.44c-.12.13-.34.12-.65.01zM492.33 162.22a4.86 4.86 0 01-2.79-2.43 9.4 9.4 0 01-.89-4.32 5.82 5.82 0 01.89-3.66q.9-1.09 2.79-.42a4.91 4.91 0 012.79 2.44 9.45 9.45 0 01.89 4.31 5.93 5.93 0 01-.89 3.67c-.6.73-1.53.87-2.79.41zm0-1.77c.6.22 1 .14 1.26-.25a3.54 3.54 0 00.36-1.83v-2a5.35 5.35 0 00-.36-2.1 2.1 2.1 0 00-1.26-1.16c-.6-.22-1-.13-1.26.25a3.59 3.59 0 00-.36 1.84v1.95a5.3 5.3 0 00.36 2.09 2.07 2.07 0 001.26 1.21zm0-2.76a1.26 1.26 0 01-.65-.44 1 1 0 01-.19-.58v-.33a.5.5 0 01.19-.44c.12-.1.34-.09.65 0a1.29 1.29 0 01.65.45 1 1 0 01.19.58v.33a.51.51 0 01-.19.44c-.12.12-.33.11-.65-.01zM501.1 165.4a4.86 4.86 0 01-2.78-2.44 9.32 9.32 0 01-.9-4.31 5.86 5.86 0 01.9-3.67c.59-.73 1.52-.87 2.78-.41a4.89 4.89 0 012.79 2.43 9.39 9.39 0 01.9 4.32 5.81 5.81 0 01-.9 3.66c-.6.74-1.53.87-2.79.42zm0-1.77c.61.22 1 .13 1.26-.25a3.57 3.57 0 00.36-1.83v-2a5.33 5.33 0 00-.36-2.09 2 2 0 00-1.26-1.16c-.6-.22-1-.14-1.26.25a3.54 3.54 0 00-.36 1.83v2a5.35 5.35 0 00.36 2.1 2.1 2.1 0 001.26 1.15zm0-2.76a1.27 1.27 0 01-.65-.45 1 1 0 01-.18-.57v-.33a.55.55 0 01.18-.45c.12-.09.34-.09.65 0a1.21 1.21 0 01.66.45 1 1 0 01.18.57v.33a.55.55 0 01-.18.45q-.18.13-.66 0zM446.85 115.52v-1.27l1.83.66v-6.52l-1.83-.67v-1.27l5.19 1.88v1.27l-1.84-.66v6.52l1.84.67v1.27zM458.66 115.6l.07-2.6h-.11l-1.57 4.1-1.58-5.24h-.11l.07 2.65v4.2l-1.33-.48v-9.08l1.82.66 1.14 3.75h.08l1.15-2.92 1.7.62v9.07l-1.33-.48zM462.08 121v-9l3.1 1.12a3.55 3.55 0 011.82 1.41 4.15 4.15 0 01.63 2.28 2.25 2.25 0 01-.63 1.82 1.8 1.8 0 01-1.82.1l-1.57-.57v3.47zm1.53-4.29l1.25.45c.41.15.71.17.89 0s.27-.38.27-.79v-.5a1.66 1.66 0 00-.27-1 1.84 1.84 0 00-.89-.6l-1.25-.46zM474 125.35l-.58-2.52L471 122l-.56 2.11-1.54-.56 2.29-8.24 2.13.77 2.3 9.91zm-1.74-8h-.09l-.9 3.38 1.89.69zM480.07 127.7a4.12 4.12 0 01-2.37-2.08 8.19 8.19 0 01-.77-3.74 5.13 5.13 0 01.77-3.19c.51-.64 1.3-.76 2.37-.37a3.78 3.78 0 011.07.57 4.55 4.55 0 01.8.78 4.39 4.39 0 01.56 1 6.71 6.71 0 01.35 1.1l-1.4-.06c-.06-.23-.12-.45-.19-.66a3.68 3.68 0 00-.26-.57 1.9 1.9 0 00-.4-.45 1.77 1.77 0 00-.56-.31c-.53-.2-.91-.11-1.14.26a3.38 3.38 0 00-.34 1.73v1.57a5.06 5.06 0 00.34 2 1.94 1.94 0 001.14 1.09 1.23 1.23 0 00.56.09.69.69 0 00.4-.17 1.21 1.21 0 00.26-.38 5.19 5.19 0 00.19-.52l1.4 1a3.36 3.36 0 01-.35.86 1.55 1.55 0 01-.56.55 1.73 1.73 0 01-.8.21 2.85 2.85 0 01-1.07-.31zM488.22 122.83v7.67l-1.52-.5v-7.67l-2.46-.89V120l6.44 2.33v1.41z" fill="#6300ff"/>
    <path fill="#e40089" opacity=".06" d="M341.53 119.36l21.63 7.87 21.63 7.87 21.63 7.87 21.63 7.88v9.76l-21.63-7.87-21.63-7.88-21.63-7.87-21.63-7.87v-9.76zM341.53 137.27l21.63 7.87 21.63 7.87 21.63 7.88 21.63 7.87v8.66l-21.63-7.87-21.63-7.87-21.63-7.88-21.63-7.87v-8.66zM341.53 155.18l21.63 7.88 21.63 7.87 21.63 7.87 21.63 7.87v8.66l-21.63-7.87-21.63-7.87-21.63-7.88-21.63-7.87v-8.66z"/>
    <path fill="#6300ff" opacity=".06" d="M444.3 156.76l22.32 8.12 22.32 8.13 22.33 8.13 22.32 8.12v8.66l-22.32-8.12-22.33-8.13-22.32-8.13-22.32-8.12v-8.66zM444.3 174.67l22.32 8.13 22.32 8.12 22.33 8.13 22.32 8.12v8.66l-22.32-8.12-22.33-8.13-22.32-8.12-22.32-8.13v-8.66zM444.3 192.59l22.32 8.12 22.32 8.13 22.33 8.12 22.32 8.13v8.66l-22.32-8.13-22.33-8.12-22.32-8.13-22.32-8.13v-8.65z"/>
    <path fill="#e40089" opacity=".06" d="M341.53 172.58l21.63 7.88 21.63 7.87 21.63 7.87 21.63 7.87v8.67l-21.63-7.88-21.63-7.87-21.63-7.87-21.63-7.88v-8.66z"/>
    <path fill="#6300ff" opacity=".06" d="M444.3 209.99l22.32 8.12 22.32 8.13 22.33 8.12 22.32 8.13v8.66l-22.32-8.13-22.33-8.12-22.32-8.13-22.32-8.12v-8.66z"/>
    <path d="M524.67 142.07a4.73 4.73 0 01-.88-1.24 5.58 5.58 0 01-.5-1.42 5 5 0 01-.07-1.44 3.55 3.55 0 01.38-1.27 2.39 2.39 0 01.79-.87 2.07 2.07 0 011-.31 2.47 2.47 0 011.13.25 3.58 3.58 0 011.12.8 4.9 4.9 0 01.88 1.24 5.65 5.65 0 01.5 1.43 5 5 0 01.07 1.43 3.42 3.42 0 01-.39 1.28 2.18 2.18 0 01-.78.86 2 2 0 01-1 .31 2.52 2.52 0 01-1.14-.24 3.7 3.7 0 01-1.11-.81z" fill="none" stroke="#6300ff" stroke-miterlimit="10" stroke-width=".7"/>
    <path d="M523.26 144.38a8.7 8.7 0 01-1.63-2.23 9.75 9.75 0 01-.89-2.58 8.29 8.29 0 01-.09-2.62 5.92 5.92 0 01.76-2.34 4.38 4.38 0 011.5-1.6 4 4 0 012-.6 5 5 0 012.14.41 6.85 6.85 0 012.08 1.44 9 9 0 011.63 2.24 9.75 9.75 0 01.89 2.58 8.58 8.58 0 01.09 2.62 6.38 6.38 0 01-.76 2.34 4.49 4.49 0 01-1.51 1.6 4.16 4.16 0 01-1.94.6 4.87 4.87 0 01-2.14-.42 6.73 6.73 0 01-2.13-1.44z" fill="none" stroke="#6300ff" stroke-miterlimit="10" stroke-width=".7"/>
    <path d="M525.64 140.29a1.94 1.94 0 01-.31-.44 1.85 1.85 0 01-.17-.5 1.7 1.7 0 010-.5 1.13 1.13 0 01.14-.45.88.88 0 01.27-.3.69.69 0 01.36-.11.82.82 0 01.4.08 1.31 1.31 0 01.4.29 1.69 1.69 0 01.31.43 1.85 1.85 0 01.17.5 2.19 2.19 0 010 .51 1.39 1.39 0 01-.14.45.81.81 0 01-.28.3.73.73 0 01-.36.11 1 1 0 01-.4-.09 1.36 1.36 0 01-.39-.28z" fill="#6300ff"/>
    <path fill="none" stroke="#340096" stroke-miterlimit="10" opacity=".12" d="M341.53 86.96l21.79 7.93 21.78 7.93 21.78 7.93 21.79 7.93M445.92 124.96l21.78 7.93 21.79 7.92 21.78 7.93 21.78 7.93"/>
    <path d="M377.5 246.06a6 6 0 012-.41 6.73 6.73 0 012.15.3 8.72 8.72 0 012.19 1 11.91 11.91 0 012.09 1.7 14.35 14.35 0 012.53 3.55 15.86 15.86 0 011.41 4.07 13.69 13.69 0 01.2 4.12A9.78 9.78 0 01389 264a8.89 8.89 0 01-.68 1 6.39 6.39 0 01-.8.84 6.21 6.21 0 01-.89.66 6.09 6.09 0 01-1 .47l-4.46 1.62-4.46 1.63-4.46 1.62-4.46 1.62-1.92-5.29L364 263l-1.93-5.28-1.92-5.29 4.34-1.59 4.35-1.58 4.34-1.58z" fill="#fff" stroke="#340096" stroke-linejoin="round" stroke-width="2"/>
    <path d="M367.82 273.54l4.46-1.62 4.46-1.62 4.46-1.63 4.46-1.62a6.09 6.09 0 001-.47 6.21 6.21 0 00.89-.66 6.39 6.39 0 00.8-.84 8.89 8.89 0 00.68-1 9.5 9.5 0 00.53-1.17 10.51 10.51 0 00.37-1.28c.09-.43.16-.88.21-1.34a12.82 12.82 0 000-1.39l-6.14 2.18-6.11 2.22-6.11 2.23-6.1 2.22.52 1.45.53 1.45.52 1.44z" fill="#2e1091" opacity=".05"/>
    <path d="M359.5 270.9a14.61 14.61 0 01-2.53-3.55 15.86 15.86 0 01-1.41-4.07 14 14 0 01-.2-4.12 10 10 0 011.1-3.65 6.75 6.75 0 012.26-2.48 5.82 5.82 0 012.95-.89 7.25 7.25 0 013.27.69 10.78 10.78 0 013.2 2.31 14.52 14.52 0 012.52 3.54 15.55 15.55 0 011.41 4.08 13.65 13.65 0 01.21 4.11 9.89 9.89 0 01-1.11 3.66 6.55 6.55 0 01-2.26 2.47 5.71 5.71 0 01-3 .9 7.39 7.39 0 01-3.26-.7 10.79 10.79 0 01-3.15-2.3z" fill="#f5f2f9" stroke="#340096" stroke-linejoin="round" stroke-width="2"/>
    <path d="M373.77 247.7a6.29 6.29 0 012-.34 6.84 6.84 0 012.11.34 8.66 8.66 0 012.12 1 11.47 11.47 0 012 1.67 14.71 14.71 0 012.52 3.54A15.68 15.68 0 01386 258a13.32 13.32 0 01.2 4.11 9.65 9.65 0 01-1.1 3.66 7.07 7.07 0 01-1.54 1.94 5.42 5.42 0 01-.93.66 5.5 5.5 0 01-1 .46" fill="none" stroke="#340096" stroke-miterlimit="10" opacity=".05"/>
    <path fill="none" stroke="#340096" stroke-linejoin="round" stroke-dasharray="2,2" d="M316.99 280.06l13.44-4.89 13.43-4.89 13.43-4.89 13.43-4.89"/>
    <path d="M431.85 340.16l-49.76-17.6L332.34 305l-49.76-17.61-49.75-17.61-49.08 17.86-49.07 17.86-49.07 17.81-49.07 17.86a1.94 1.94 0 00-1.29 1.83 1.93 1.93 0 00.32 1.09 2 2 0 001 .76L84.8 362.4 133 380l48.23 17.55 48.23 17.55a9.75 9.75 0 005.07.45 10.07 10.07 0 001.67-.45l48.91-17.8L334 379.48l49-17.8 48.92-17.81a1.87 1.87 0 001-.76 2 2 0 00-1-2.95z" fill="#008cdd" opacity=".15"/>
    <path d="M428.07 333.32L379.58 351l-48.5 17.65-48.49 17.65-48.5 17.65a8.4 8.4 0 01-1.49.4 9 9 0 01-3 0 8.88 8.88 0 01-1.49-.4l-47.84-17.41-47.88-17.44-47.84-17.42-47.83-17.41a3.89 3.89 0 01-1-.57 3.93 3.93 0 01-.8-.83 4 4 0 01-.51-1 3.77 3.77 0 01-.18-1.17v-4.9a3.75 3.75 0 01.18-1.16 4 4 0 01.51-1 3.7 3.7 0 01.8-.83 3.63 3.63 0 011-.57l48.7-17.73 48.7-17.72 48.7-17.79 48.7-17.73a7.8 7.8 0 011.08-.29 6.83 6.83 0 012.21 0 7.8 7.8 0 011.08.29l48.05 17.49 48 17.49 48 17.48 48 17.49a3.89 3.89 0 011 .57 3.94 3.94 0 01.79.84 3.84 3.84 0 01.52 1 4.14 4.14 0 01.18 1.17v4.86a4.14 4.14 0 01-.18 1.17 3.84 3.84 0 01-.52 1 3.94 3.94 0 01-.79.84 3.89 3.89 0 01-.87.65z" fill="#fff" stroke="#340096" stroke-miterlimit="10" stroke-width="2"/>
    <path d="M231.51 394.21V404.43l.63-.06.62-.11c.21 0 .41-.09.62-.15s.4-.12.6-.19l48.5-17.65 48.49-17.65L379.58 351l48.49-17.65a3.89 3.89 0 001-.57 3.94 3.94 0 00.79-.84 3.84 3.84 0 00.52-1 4.14 4.14 0 00.18-1.17v-4.86a3.68 3.68 0 00-.06-.66 3.35 3.35 0 00-.17-.62 4.29 4.29 0 00-.26-.58 4.5 4.5 0 00-.36-.53l-49.52 17.88-49.56 17.94-49.56 17.93z" fill="#008cdd" opacity=".08"/>
    <g opacity=".12" fill="none" stroke="#340096" stroke-linejoin="round" clip-path="url(#a)">
      <path d="M193.36 392.2l25.09-9.13 25.1-9.13 25.09-9.14 25.09-9.13 7.61 2.77 7.61 2.77 7.61 2.77 7.61 2.77M349.73 345.33l19.72-7.18 19.73-7.18 19.72-7.18 19.72-7.18M218.13 365.06l46.53-16.94 46.54-16.94 46.54-16.93 46.54-16.94M144.67 376.92l60.43-21.99 60.42-21.99 60.42-22 60.42-21.99M132.86 345.63l7.82 2.85 7.82 2.84 7.81 2.85 7.82 2.85 46-16.75 46-16.75 46-16.75 46-16.74M78.2 345.92l60.42-21.99 60.43-21.99 60.42-21.99 60.42-21.99M138.42 309.13l40.89-14.88 40.89-14.88 40.89-14.88 40.89-14.89M60.29 337.57l19.53-7.11 19.53-7.11 19.53-7.11 19.54-7.11M42.37 329.22l41.96-15.27 41.95-15.27 41.95-15.27 41.96-15.27"/>
      <path d="M346.31 318.39l-5.2-1.89-5.19-1.89-5.19-1.89-5.2-1.89"/>
      <path d="M331.87 323.66l-13.57-4.94-13.57-4.94-13.58-4.94-13.57-4.94 14.57-5.3 14.56-5.3 14.57-5.3 14.57-5.3M222.69 293.28l14.57 5.3 14.56 5.3 14.56 5.31 14.57 5.3M293.57 282.41l-22.21-8.08-22.2-8.08-22.2-8.08-22.2-8.08M300.03 280.18l5.3 1.93 5.3 1.93 5.31 1.93 5.3 1.93M363.7 350.41l-13.16-4.79-13.17-4.79-13.17-4.8-13.16-4.79M231.22 309.89l-32.13 11.69-32.13 11.7-32.13 11.7-32.14 11.69"/>
      <path d="M251.65 303.82l7.71-2.8 7.7-2.81 7.71-2.8 7.71-2.81M300.59 335.05l-24.09-8.75-24.1-8.75-24.09-8.74-24.1-8.75M216.44 315.19l-6.76-2.43-6.76-2.44-6.76-2.44-6.75-2.43M217.23 337.68l-31.4-11.43-31.41-11.43-31.4-11.43-31.41-11.43M241.59 356.52l11.79 4.29 11.78 4.28 11.78 4.29 11.78 4.29M210.19 297.79V248.89M67.29 310.16l3.44 1.25 3.44 1.26 3.45 1.25 3.44 1.25M85.7 303.46l3.44 1.25 3.44 1.25 3.45 1.26 3.44 1.25M395.03 309.17l-19.25 7.01-19.26 7-19.25 7.01-19.26 7.01M190.02 275.48l4.94 1.8 4.94 1.8 4.94 1.79 4.94 1.8M182.27 387.42l12.15-4.44 12.14-4.43 12.15-4.43 12.15-4.43-32.45-11.8-32.44-11.81-32.44-11.81-32.44-11.81M295.35 297.15l-10.4-3.78-10.39-3.79-10.39-3.78-10.39-3.78"/>
      <path d="M384.85 332.42l-6.78-2.47-6.77-2.46-6.78-2.47-6.77-2.47M248 339.31l-12.23-4.43-12.22-4.43-12.22-4.43-12.22-4.44M284.01 341.08l-9.49-3.45-9.49-3.44-9.5-3.44-9.49-3.44"/>
    </g>
    <path d="M429.76 322.46l-48.92 17.81-48.91 17.8-48.93 17.8-48.92 17.81a8.4 8.4 0 01-1.49.4 9 9 0 01-3 0 8.88 8.88 0 01-1.49-.4l-48.26-17.57-48.26-17.56L83.29 341 35 323.42" fill="none" stroke="#340096" stroke-linejoin="round" stroke-width="2"/>
    <path d="M306.38 259.16L298 256.1l-8.39-3.05-8.4-3.05-8.39-3.05h-.57l-1.33.48-1.34.49-1.34.49-1.33.48.56.62.56.61.57.62.56.62v20.54a1.77 1.77 0 00.08.52 2.28 2.28 0 00.23.47 1.58 1.58 0 00.36.37 1.66 1.66 0 00.47.26l7.19 2.62 7.2 2.62 7.2 2.62 7.2 2.62.63.69.64.69.63.69.63.69 1.34-.49 1.34-.48 1.33-.49 1.34-.49a.94.94 0 00.22-.12.58.58 0 00.17-.18 1 1 0 00.12-.23.8.8 0 000-.27v-23.24a1.82 1.82 0 00-.08-.52 1.53 1.53 0 00-.23-.46 1.63 1.63 0 00-.36-.38 1.46 1.46 0 00-.43-.25z" fill="#fff"/>
    <g clip-path="url(#b)">
      <path d="M307.51 284v-23.23a1.06 1.06 0 000-.25 2.21 2.21 0 00-.05-.25l-.09-.23-.12-.21-1.72.62-1.71.63-1.71.62-1.72.62-1.13 5.13-1.14 5.12-1.12 5.12-1.14 5.13.82.29.81.3.81.29.81.3.63.69.64.69.63.69.63.69 1.34-.49 1.34-.48 1.33-.49 1.34-.49a.94.94 0 00.22-.12.58.58 0 00.17-.18 1 1 0 00.12-.23.8.8 0 00.01-.28z" fill="#3b009b" opacity=".05"/>
    </g>
    <path d="M306.38 259.16L298 256.1l-8.39-3.05-8.4-3.05-8.39-3.05h-.57 0l-1.33.48-1.34.49-1.34.49-1.33.48.56.62.56.61.57.62.56.62v20.54a1.77 1.77 0 00.08.52 2.28 2.28 0 00.23.47 1.58 1.58 0 00.36.37 1.66 1.66 0 00.47.26l7.19 2.62 7.2 2.62 7.2 2.62 7.2 2.62.63.69.64.69.63.69.63.69 1.34-.49 1.34-.48 1.33-.49 1.34-.49h0a.94.94 0 00.22-.12.58.58 0 00.17-.18 1 1 0 00.12-.23.8.8 0 000-.27v-23.24a1.82 1.82 0 00-.08-.52 1.53 1.53 0 00-.23-.46 1.63 1.63 0 00-.36-.38 1.46 1.46 0 00-.43-.25z" fill="none" stroke="#3b009b" stroke-linejoin="round" stroke-width="2"/>
    <path fill="#f1eaff" stroke="#3b009b" stroke-linecap="round" stroke-linejoin="round" stroke-width="2" d="M283.02 284.38l1.82-.67 1.82-.66 1.82-.66 1.82-.66-1.52-.74-1.51-.74-1.51-.74-1.51-.74-.31 1.4-.31 1.4-.3 1.4-.31 1.41z"/>
    <path d="M267.46 274.55l3.25 1.19 3.26 1.18 3.26 1.19 3.26 1.18.63 1.27.64 1.27.63 1.28.63 1.27.62-.82.62-.81.62-.82.62-.81 3.88 1.41 3.88 1.41 3.88 1.41 3.88 1.41a.74.74 0 00.41.05.81.81 0 00.37-.15 1 1 0 00.27-.3.91.91 0 00.1-.4v-23.24a1.89 1.89 0 00-.08-.53 1.65 1.65 0 00-.23-.46 1.58 1.58 0 00-.36-.37 1.61 1.61 0 00-.46-.26l-8.39-3.05-8.39-3.05-8.39-3.05-8.39-3.06a.88.88 0 00-.42 0 .85.85 0 00-.37.15 1 1 0 00-.27.3.88.88 0 00-.1.4v23.24a1.77 1.77 0 00.08.52 1.87 1.87 0 00.23.47 1.58 1.58 0 00.36.37 1.66 1.66 0 00.47.21z" fill="#fff" stroke="#3b009b" stroke-linejoin="round" stroke-width="2"/>
    <path d="M293.66 280.59a5 5 0 01-.93-1.31 5.34 5.34 0 01-.52-1.5 4.89 4.89 0 01-.08-1.52 3.66 3.66 0 01.41-1.35 2.45 2.45 0 01.83-.91 2.11 2.11 0 011.09-.33 2.63 2.63 0 011.2.26 3.82 3.82 0 011.18.85 5.32 5.32 0 01.94 1.31 6.21 6.21 0 01.52 1.5 5.21 5.21 0 01.07 1.52 3.66 3.66 0 01-.41 1.35 2.45 2.45 0 01-.83.91 2.11 2.11 0 01-1.09.33 2.63 2.63 0 01-1.2-.26 3.82 3.82 0 01-1.18-.85z" fill="#3b009b" opacity=".05"/>
    <path d="M296.84 274.78a3.09 3.09 0 00-.38-.35 4.38 4.38 0 00-.8-.5 3.39 3.39 0 00-.41-.15v.73a1.75 1.75 0 01.28.13 1.61 1.61 0 01.28.17l.27.21c.09.07.18.16.27.24a4.53 4.53 0 01.8 1.13 5.07 5.07 0 01.45 1.29 4.16 4.16 0 01.09 1.3 3 3 0 01-.33 1.14 1.84 1.84 0 01-.27.38 1.44 1.44 0 01-.33.28 1.24 1.24 0 01-.37.17 1.42 1.42 0 01-.42.06 1.82 1.82 0 01-.46-.06 2.19 2.19 0 01-.46-.18 2.46 2.46 0 01-.46-.28 3.86 3.86 0 01-.44-.38 5 5 0 01-.8-1.12 5.28 5.28 0 01-.45-1.3 4.44 4.44 0 01-.08-1.3 2.81 2.81 0 01.33-1.14 1.76 1.76 0 01.14-.23 1.63 1.63 0 01.17-.2l.18-.16a1.37 1.37 0 01.2-.13l-.07-.16-.07-.15-.07-.16-.07-.16-.3.18a2.76 2.76 0 00-.27.23l-.24.27a3 3 0 00-.21.33 3.66 3.66 0 00-.41 1.35 4.89 4.89 0 00.08 1.52 5.34 5.34 0 00.52 1.5 5 5 0 00.93 1.31 4.18 4.18 0 00.56.49 3.13 3.13 0 00.58.34 2.45 2.45 0 001.76.2 2.14 2.14 0 00.54-.23 2.5 2.5 0 00.47-.39 2.66 2.66 0 00.39-.54 3.66 3.66 0 00.41-1.35 5.21 5.21 0 00-.07-1.52 6.21 6.21 0 00-.52-1.5 5.32 5.32 0 00-.94-1.31z" fill="#ff005e"/>
    <path d="M271.08 272.37a5 5 0 01-.93-1.3 5.52 5.52 0 01-.52-1.51 5.17 5.17 0 01-.08-1.51 3.73 3.73 0 01.41-1.35 2.48 2.48 0 01.83-.92 2.32 2.32 0 011.09-.33 2.77 2.77 0 011.2.26 4.17 4.17 0 011.19.85 5.55 5.55 0 01.93 1.31 5.94 5.94 0 01.52 1.5 4.89 4.89 0 01.07 1.52 3.55 3.55 0 01-.41 1.35 2.45 2.45 0 01-.83.91 2.11 2.11 0 01-1.09.33 2.63 2.63 0 01-1.2-.26 3.67 3.67 0 01-1.18-.85zM282.37 276.48a5.15 5.15 0 01-.93-1.3 5.52 5.52 0 01-.52-1.51 4.89 4.89 0 01-.08-1.52 3.55 3.55 0 01.41-1.34 2.41 2.41 0 01.83-.92 2.11 2.11 0 011.09-.33 2.77 2.77 0 011.2.26 4 4 0 011.19.85 5.55 5.55 0 01.93 1.31 5.94 5.94 0 01.52 1.5 5.21 5.21 0 01.07 1.52 3.55 3.55 0 01-.41 1.35 2.45 2.45 0 01-.83.91 2.11 2.11 0 01-1.09.33 2.63 2.63 0 01-1.2-.26 3.67 3.67 0 01-1.18-.85z" fill="#3b009b" opacity=".05"/>
    <path d="M285.56 270.67c-.13-.13-.26-.24-.39-.35a4.38 4.38 0 00-.8-.5 3.39 3.39 0 00-.41-.15v.73a1.43 1.43 0 01.28.13 2.61 2.61 0 01.28.17 2.47 2.47 0 01.27.21l.27.24a4.53 4.53 0 01.8 1.13 5.52 5.52 0 01.46 1.29 4.51 4.51 0 01.08 1.31 3 3 0 01-.33 1.13 1.92 1.92 0 01-.27.39 1.4 1.4 0 01-.33.27 1.24 1.24 0 01-.37.17 1.42 1.42 0 01-.42.06 1.61 1.61 0 01-.37 0 2.47 2.47 0 01-.36-.11 1.85 1.85 0 01-.37-.19 2.6 2.6 0 01-.36-.25l-.05.18-.05.18-.05.18-.07.11.42.25a3 3 0 00.41.17 3.25 3.25 0 00.42.11 2.83 2.83 0 00.41 0 2 2 0 00.59-.08 2.14 2.14 0 00.54-.23 1.91 1.91 0 00.47-.39 2.66 2.66 0 00.39-.54 3.55 3.55 0 00.41-1.35 5.21 5.21 0 00-.07-1.52 5.94 5.94 0 00-.52-1.5 5.55 5.55 0 00-.91-1.25z" fill="#ff5b0b"/>
    <path d="M274.27 266.56c-.13-.13-.26-.24-.39-.35a3.6 3.6 0 00-.4-.28 2.65 2.65 0 00-.4-.22 3.39 3.39 0 00-.41-.15v.73l.28.13a2.61 2.61 0 01.28.17 2.55 2.55 0 01.28.21 3 3 0 01.26.25 4.3 4.3 0 01.8 1.12 5.52 5.52 0 01.46 1.29 4.51 4.51 0 01.08 1.31 3 3 0 01-.33 1.13 1.92 1.92 0 01-.27.39 1.58 1.58 0 01-.32.27 1.51 1.51 0 01-.8.23 1.88 1.88 0 01-.46-.06 2.85 2.85 0 01-.46-.17 2.52 2.52 0 01-.46-.29 4 4 0 01-1-1.1 6.46 6.46 0 01-.42-.83 5.86 5.86 0 01-.26-.88 4.57 4.57 0 01-.1-.88l-.17-.07-.17-.06-.17-.06-.18-.07a5.71 5.71 0 00.07 1.08 5.15 5.15 0 00.29 1.07 5.54 5.54 0 00.49 1 5 5 0 00.7.89 4.18 4.18 0 00.56.49 3.89 3.89 0 00.58.35 2.74 2.74 0 00.59.2 2.36 2.36 0 00.58.07 2 2 0 00.59-.08 2.14 2.14 0 00.54-.23 1.91 1.91 0 00.47-.39 2.41 2.41 0 00.39-.54 3.55 3.55 0 00.41-1.35 4.89 4.89 0 00-.07-1.52 5.94 5.94 0 00-.52-1.5 5.55 5.55 0 00-.94-1.3z" fill="#ff0061"/>
    <path fill="#3b009b" opacity=".05" d="M290.01 268.64l-5.35-1.95-5.35-1.95-5.36-1.95-5.35-1.94v-3.22l5.35 1.95 5.36 1.95 5.35 1.95 5.35 1.95V268.64zM290.01 263.82l-5.35-1.95-5.35-1.95-5.36-1.95-5.35-1.95V252.81l5.35 1.95 5.36 1.95 5.35 1.95 5.35 1.95V263.82zM299.11 271.95l-1.88-.68-1.88-.69-1.88-.68-1.88-.69V266l1.88.68 1.88.69 1.88.68 1.88.69v3.21z"/>
    <path fill="#f5f1f9" stroke="#3b009b" stroke-linejoin="round" stroke-width="2" d="M231.93 286.59l2.14-.78 2.14-.77 2.14-.78 2.14-.78-1.4-1.5-1.39-1.5-1.4-1.49-1.39-1.5-.83.99-.84.98-.83.99-.83.98.08 1.29.09 1.29.09 1.29.09 1.29z"/>
    <path d="M268.53 261.68l-14.63-5.31-14.63-5.31-14.63-5.31-14.64-5.31-.33-.09a1.22 1.22 0 00-.33 0 1.63 1.63 0 00-.31 0 1.58 1.58 0 00-.31.09h0l-1.43.52-1.44.52-1.43.52-1.43.52L218.24 255l15.24 12.44 15.24 12.45L264 292.32l1.42-.52 1.43-.52 1.42-.52 1.43-.52h0a1.78 1.78 0 00.52-.25 2.21 2.21 0 00.42-.39 2.29 2.29 0 00.28-.51 2 2 0 00.1-.61v-23.32a3.46 3.46 0 00-.18-1.12 3.58 3.58 0 00-.49-1 3.7 3.7 0 00-.77-.81 3.88 3.88 0 00-1.05-.55z" fill="#fff" stroke="#340096" stroke-linejoin="round" stroke-width="2"/>
    <path d="M261.39 290.48l.64.46.64.46.64.46.65.46 1.42-.52 1.43-.52 1.42-.52 1.43-.52a1.78 1.78 0 00.52-.25 2.21 2.21 0 00.42-.39 2.29 2.29 0 00.28-.51 2 2 0 00.1-.61v-23.32a3.39 3.39 0 00-.06-.64 3.91 3.91 0 00-.17-.61 3.68 3.68 0 00-.26-.57 4.8 4.8 0 00-.36-.52l-2.18.8-2.19.79-2.18.8-2.18.79v24.48z" fill="#340096" opacity=".05"/>
    <path d="M262.73 263.79l-14.63-5.31-14.63-5.31-14.63-5.31-14.63-5.31a1.83 1.83 0 00-.89-.1 2 2 0 00-.8.32 1.85 1.85 0 00-.79 1.52v23.31a3.85 3.85 0 00.17 1.12 4.07 4.07 0 00.5 1 3.69 3.69 0 00.77.81 3.88 3.88 0 001 .55l6.26 2.28 6.27 2.28 6.27 2.28 6.27 2.28.67 1.6.67 1.6.68 1.59.67 1.6.71-1.09.72-1.1.71-1.09.71-1.09 7 2.52 7 2.53 7 2.52 7 2.53a1.75 1.75 0 00.9.09 1.91 1.91 0 00.8-.31 2.06 2.06 0 00.57-.64 1.85 1.85 0 00.22-.88v-23.31a3.5 3.5 0 00-.18-1.12 3.58 3.58 0 00-.49-1 3.94 3.94 0 00-.77-.81 3.88 3.88 0 00-1.1-.55z" fill="#fff" stroke="#340096" stroke-linejoin="round" stroke-width="2"/>
    <path d="M214.08 265.75a4 4 0 01-1.46-.9 5.3 5.3 0 01-1-1.36l.75-.75a4.54 4.54 0 00.8 1.11 2.7 2.7 0 00.92.6.92.92 0 00.87 0 1 1 0 00.31-.87 1.59 1.59 0 00-.23-.87 2.14 2.14 0 00-.77-.65l-.7-.4a3.21 3.21 0 01-1.3-1.34 3.89 3.89 0 01-.39-1.71 2 2 0 01.61-1.68 1.82 1.82 0 011.71 0 3.86 3.86 0 011.34.8 4.2 4.2 0 01.9 1.19l-.73.76a3.88 3.88 0 00-.63-.88 2.22 2.22 0 00-.87-.55q-1.08-.39-1.08.78a1.44 1.44 0 00.23.85 2.26 2.26 0 00.77.66l.69.41a3.44 3.44 0 011.28 1.29 3.54 3.54 0 01.41 1.73 3 3 0 01-.16 1.05 1.48 1.48 0 01-.47.7 1.39 1.39 0 01-.77.29 2.64 2.64 0 01-1.03-.26zM218.44 267.16v-8.65l4.17 1.49v1.34l-2.93-1v2.25l2.82 1v1.33l-2.82-1v2.38l2.93 1.05v1.34zM228.24 270.67l-.47-2.38-2-.7-.45 2.05-1.25-.45 1.86-8 1.72.62 1.86 9.31zm-1.4-7.56h-.08l-.73 3.28 1.53.54zM233.78 265.33v7.32l-1.23-.44v-7.32l-2-.71v-1.34l5.21 1.87V266zM240.12 267.6v7.32l-1.23-.44v-7.32l-2-.71v-1.34l5.2 1.86v1.34zM244 276.29v-8.66l1.24.45v7.31l2.92 1.05v1.33zM250.12 278.5v-8.66l4.18 1.5v1.33l-2.94-1v2.25l2.83 1v1.34l-2.83-1v2.38l2.94 1V280z" fill="#340096"/>
    <path d="M235.19 290.94a6.76 6.76 0 00-1-.24 6.92 6.92 0 00-1-.07 7.77 7.77 0 00-1 .09 5.85 5.85 0 00-.91.25l-1.17.43-1.17.43-1.17.42-1.18.43.19.49.19.48.18.49.19.48a8.72 8.72 0 00-.45 1.12 11 11 0 00-.34 1.23 10.89 10.89 0 00-.2 1.33 13.3 13.3 0 00-.07 1.43 43.85 43.85 0 00.65 4.75c.39 2.3.92 5.13 1.44 7.87s1 5.41 1.44 7.38.65 3.27.65 3.27l1.19-.43 1.18-.43 1.19-.43 1.18-.43 1.72-2.49 1.71-2.49 1.71-2.49 1.72-2.49a9 9 0 00.77-1.29 11.26 11.26 0 00.58-1.51 12.6 12.6 0 00.36-1.71 14.3 14.3 0 00.12-1.89 16.4 16.4 0 00-.68-4.62 17.06 17.06 0 00-1.86-4.17 14.28 14.28 0 00-2.76-3.27 9.59 9.59 0 00-3.4-1.92z" fill="#fff"/>
    <g clip-path="url(#c)">
      <path fill="#340096" opacity=".05" d="M261.84 332.82l-6.86 2.5-6.86 2.49-6.86 2.5-6.85 2.5-2.59-8.25-2.58-8.25-2.59-8.24-2.58-8.25 6.86-2.49 6.86-2.5 6.85-2.5 6.86-2.49 2.59 8.24 2.58 8.25 2.58 8.25 2.59 8.24z"/>
    </g>
    <path d="M235.19 290.94a6.76 6.76 0 00-1-.24 6.92 6.92 0 00-1-.07 7.77 7.77 0 00-1 .09 5.85 5.85 0 00-.91.25h0l-1.17.43-1.17.43-1.17.42-1.18.43.19.49.19.48.18.49.19.48a8.72 8.72 0 00-.45 1.12 11 11 0 00-.34 1.23 10.89 10.89 0 00-.2 1.33 13.3 13.3 0 00-.07 1.43 43.85 43.85 0 00.65 4.75c.39 2.3.92 5.13 1.44 7.87s1 5.41 1.44 7.38.65 3.27.65 3.27l1.19-.43 1.18-.43 1.19-.43 1.18-.43 1.72-2.49 1.71-2.49 1.71-2.49 1.72-2.49a9 9 0 00.77-1.29 11.26 11.26 0 00.58-1.51 12.6 12.6 0 00.36-1.71 14.3 14.3 0 00.12-1.89 16.4 16.4 0 00-.68-4.62 17.06 17.06 0 00-1.86-4.17 14.28 14.28 0 00-2.76-3.27 9.59 9.59 0 00-3.4-1.92z" fill="none" stroke="#2e1091" stroke-linejoin="round" stroke-width="2"/>
    <path d="M239.15 306.64a16.36 16.36 0 00-.69-4.62 16.89 16.89 0 00-1.86-4.17 14.07 14.07 0 00-2.76-3.27 9.62 9.62 0 00-3.39-1.92 6.32 6.32 0 00-3.38-.13 5.77 5.77 0 00-2.76 1.59 8.12 8.12 0 00-1.87 3 12.41 12.41 0 00-.68 4.2 14.38 14.38 0 00.13 2 15.47 15.47 0 00.36 1.92 16.09 16.09 0 00.58 1.86 15.51 15.51 0 00.77 1.77l1.71 3.53 1.72 3.52 1.71 3.53 1.71 3.53 1.72-2.49 1.71-2.49 1.71-2.48 1.72-2.49a9.68 9.68 0 00.77-1.3 10.76 10.76 0 00.58-1.51 12.6 12.6 0 00.36-1.71 14.23 14.23 0 00.13-1.87z" fill="#fff" stroke="#2e1091" stroke-linejoin="round" stroke-width="2"/>
    <path d="M233 304.78a3.68 3.68 0 01-.2 1.25 2.37 2.37 0 01-.55.9 1.77 1.77 0 01-.82.48 2.06 2.06 0 01-1 0 3 3 0 01-1-.57 4.3 4.3 0 01-.82-1 4.93 4.93 0 01-.55-1.24 4.55 4.55 0 01-.21-1.37 3.45 3.45 0 01.21-1.25 2.32 2.32 0 01.55-.9 1.62 1.62 0 01.82-.47 1.81 1.81 0 011 0 2.74 2.74 0 011 .56 4.58 4.58 0 01.82 1 5.32 5.32 0 01.55 1.24 4.88 4.88 0 01.2 1.37z" fill="#f5f2f9" stroke="#340096" stroke-miterlimit="10" stroke-width="2"/>
    <path d="M92.94 301.08L84.55 298l-8.39-3-8.39-3.05-8.39-3.06h-.57l-1.33.48-1.34.49-1.34.49-1.33.48.56.62.57.62.56.61.56.62v20.55a1.6 1.6 0 00.09.53 1.65 1.65 0 00.23.46 1.57 1.57 0 00.35.38 1.92 1.92 0 00.47.25l7.2 2.62 7.19 2.62 7.2 2.62 7.2 2.62.63.69.64.69.63.69.63.69 1.34-.48 1.34-.49 1.33-.49 1.34-.48a1 1 0 00.22-.13.77.77 0 00.18-.18 1 1 0 00.11-.23.77.77 0 000-.27v-23.27a1.53 1.53 0 00-.08-.52 1.65 1.65 0 00-.23-.46 2.11 2.11 0 00-.35-.38 1.92 1.92 0 00-.44-.25z" fill="#fff"/>
    <g clip-path="url(#d)">
      <path d="M94.07 325.93v-23.24a1.06 1.06 0 000-.25 2 2 0 000-.24l-.09-.23-.12-.22-1.72.62-1.71.63-1.71.62-1.72.63-1.13 5.12-1.14 5.12-1.13 5.13-1.13 5.12.81.3.81.29.81.3.81.29.63.69.64.69.63.69.63.69 1.34-.48 1.34-.49 1.33-.49 1.34-.48a1 1 0 00.22-.13.77.77 0 00.18-.18 1 1 0 00.11-.23.77.77 0 00-.03-.27z" fill="#3b009b" opacity=".05"/>
    </g>
    <path d="M92.94 301.08L84.55 298l-8.39-3-8.39-3.05-8.39-3.06h-.57 0l-1.33.48-1.34.49-1.34.49-1.33.48.56.62.57.62.56.61.56.62v20.55a1.6 1.6 0 00.09.53 1.65 1.65 0 00.23.46 1.57 1.57 0 00.35.38 1.92 1.92 0 00.47.25l7.2 2.62 7.19 2.62 7.2 2.62 7.2 2.62.63.69.64.69.63.69.63.69 1.34-.48 1.34-.49 1.33-.49 1.34-.48h0a1 1 0 00.22-.13.77.77 0 00.18-.18 1 1 0 00.11-.23.77.77 0 000-.27v-23.27a1.53 1.53 0 00-.08-.52 1.65 1.65 0 00-.23-.46 2.11 2.11 0 00-.35-.38 1.92 1.92 0 00-.44-.25z" fill="none" stroke="#3b009b" stroke-linejoin="round" stroke-width="2"/>
    <path fill="#f1eaff" stroke="#3b009b" stroke-linecap="round" stroke-linejoin="round" stroke-width="2" d="M69.58 326.3l1.82-.66 1.82-.67 1.82-.66 1.82-.66-1.52-.74-1.51-.74-1.51-.74-1.51-.74-.31 1.4-.31 1.4-.3 1.41-.31 1.4z"/>
    <path d="M54 316.47l3.26 1.19 3.25 1.18 3.28 1.16 3.26 1.19.63 1.27.64 1.27L69 325l.63 1.27.62-.82.62-.81.62-.82.62-.81 3.88 1.41 3.88 1.41 3.88 1.41 3.88 1.42a.84.84 0 00.41 0 .76.76 0 00.37-.15.78.78 0 00.27-.3.88.88 0 00.1-.4v-23.17a1.77 1.77 0 00-.08-.52 1.65 1.65 0 00-.59-.84 1.61 1.61 0 00-.46-.26l-8.39-3-8.39-3.06-8.39-3.05-8.48-3.1a.87.87 0 00-.42-.05.85.85 0 00-.37.15.83.83 0 00-.26.3.81.81 0 00-.11.41v23.23a1.89 1.89 0 00.08.53 2.47 2.47 0 00.23.46 1.85 1.85 0 00.36.38 1.92 1.92 0 00.49.25z" fill="#fff" stroke="#3b009b" stroke-linejoin="round" stroke-width="2"/>
    <path d="M80.22 322.51a5 5 0 01-.93-1.3 5.52 5.52 0 01-.52-1.51 5.17 5.17 0 01-.08-1.51 3.73 3.73 0 01.41-1.35 2.48 2.48 0 01.83-.92 2.32 2.32 0 011.09-.33 2.77 2.77 0 011.2.26 4.17 4.17 0 011.19.85 5.55 5.55 0 01.93 1.31 5.94 5.94 0 01.52 1.5 4.89 4.89 0 01.07 1.52 3.55 3.55 0 01-.41 1.35 2.45 2.45 0 01-.83.91 2.11 2.11 0 01-1.09.33 2.63 2.63 0 01-1.2-.26 3.67 3.67 0 01-1.18-.85z" fill="#3b009b" opacity=".05"/>
    <path d="M83.41 316.7c-.13-.13-.26-.24-.39-.35a3.6 3.6 0 00-.4-.28 4 4 0 00-.4-.22 3.39 3.39 0 00-.41-.15v.73l.28.13a2.61 2.61 0 01.28.17 2.55 2.55 0 01.28.21 3 3 0 01.26.25 4.3 4.3 0 01.8 1.12 5.52 5.52 0 01.46 1.29 4.51 4.51 0 01.08 1.31 3 3 0 01-.33 1.13 1.92 1.92 0 01-.27.39 1.58 1.58 0 01-.32.27 1.51 1.51 0 01-.8.23 1.88 1.88 0 01-.46-.06 2.85 2.85 0 01-.46-.17 2.52 2.52 0 01-.46-.29 5 5 0 01-.44-.38 4.63 4.63 0 01-.79-1.12 4.93 4.93 0 01-.46-1.3 4.44 4.44 0 01-.08-1.3 2.81 2.81 0 01.33-1.14 1.76 1.76 0 01.14-.23 1.63 1.63 0 01.17-.2l.18-.16.2-.13-.07-.15-.07-.16-.07-.16-.07-.16a1.75 1.75 0 00-.29.18 1.49 1.49 0 00-.27.23 2.26 2.26 0 00-.25.28 2.66 2.66 0 00-.21.33 3.73 3.73 0 00-.41 1.35 5.17 5.17 0 00.08 1.51 5.52 5.52 0 00.52 1.51 5 5 0 00.93 1.3 4.18 4.18 0 00.56.49 3.89 3.89 0 00.58.35 2.74 2.74 0 00.59.2 2.36 2.36 0 00.58.07 2 2 0 00.59-.08 2.16 2.16 0 001-.62 2.73 2.73 0 00.38-.54 3.55 3.55 0 00.41-1.35 4.89 4.89 0 00-.07-1.52 5.94 5.94 0 00-.52-1.5 5.55 5.55 0 00-.91-1.31z" fill="#ff005e"/>
    <path d="M57.64 314.3a5.21 5.21 0 01-.93-1.31 5.57 5.57 0 01-.52-1.5 5.24 5.24 0 01-.08-1.52 3.73 3.73 0 01.41-1.35 2.46 2.46 0 01.83-.91 2.11 2.11 0 011.09-.33 2.69 2.69 0 011.21.25 4.27 4.27 0 011.18.85 5.77 5.77 0 01.93 1.31 5.94 5.94 0 01.52 1.5 4.9 4.9 0 01.07 1.52 3.54 3.54 0 01-.4 1.35 2.4 2.4 0 01-.84.91 2.11 2.11 0 01-1.09.33 2.64 2.64 0 01-1.2-.25 4 4 0 01-1.18-.85zM68.93 318.4a5 5 0 01-.93-1.3 5.52 5.52 0 01-.52-1.51 5.17 5.17 0 01-.08-1.51 3.73 3.73 0 01.41-1.35 2.57 2.57 0 01.83-.92 2.32 2.32 0 011.09-.33 2.84 2.84 0 011.21.26 4.27 4.27 0 011.18.85 5.55 5.55 0 01.93 1.31 5.94 5.94 0 01.52 1.5 4.9 4.9 0 01.07 1.52 3.54 3.54 0 01-.4 1.35 2.47 2.47 0 01-.84.91 2.11 2.11 0 01-1.09.33 2.63 2.63 0 01-1.2-.26 3.67 3.67 0 01-1.18-.85z" fill="#3b009b" opacity=".05"/>
    <path d="M72.12 312.59c-.13-.13-.26-.24-.39-.35a3.6 3.6 0 00-.4-.28 3.11 3.11 0 00-.4-.22 3.39 3.39 0 00-.41-.15v.73l.28.13a2.61 2.61 0 01.28.17 2.55 2.55 0 01.28.21l.26.25a4.48 4.48 0 01.8 1.12 5.44 5.44 0 01.46 1.3 4.42 4.42 0 01.08 1.3 3.08 3.08 0 01-.33 1.14 2.16 2.16 0 01-.27.38 1.58 1.58 0 01-.32.27 1.17 1.17 0 01-.38.17 1.42 1.42 0 01-.42.06 1.47 1.47 0 01-.36 0 1.58 1.58 0 01-.37-.11 2.53 2.53 0 01-.37-.18l-.36-.25v.35l-.05.18v.18a3.09 3.09 0 00.42.25 2.37 2.37 0 00.41.17 3.25 3.25 0 00.42.11h.41a2.32 2.32 0 00.59-.07 2.3 2.3 0 001-.63 2.89 2.89 0 00.39-.54 3.54 3.54 0 00.4-1.35 4.9 4.9 0 00-.07-1.52 5.94 5.94 0 00-.52-1.5 5.55 5.55 0 00-1.06-1.32z" fill="#ff5b0b"/>
    <path d="M60.83 308.48c-.13-.13-.26-.24-.39-.35a4.73 4.73 0 00-.39-.28l-.41-.22a3.39 3.39 0 00-.41-.15v.73l.28.13a2.61 2.61 0 01.28.17 1.86 1.86 0 01.28.21l.26.25a4.48 4.48 0 01.8 1.12 5.44 5.44 0 01.46 1.3 4.42 4.42 0 01.08 1.3 3.08 3.08 0 01-.33 1.14 2.16 2.16 0 01-.27.38 2.07 2.07 0 01-.32.28 1.4 1.4 0 01-.38.16 1.42 1.42 0 01-.42.06 1.88 1.88 0 01-.46-.06 2.14 2.14 0 01-.46-.17 3.78 3.78 0 01-.46-.28 5.13 5.13 0 01-.44-.39 5 5 0 01-.57-.72 5.87 5.87 0 01-.42-.83 5.54 5.54 0 01-.26-.88 5.39 5.39 0 01-.1-.88l-.17-.07-.17-.06-.17-.06-.18-.06a5.55 5.55 0 00.07 1.07 5.85 5.85 0 00.29 1.07 5.62 5.62 0 00.49 1 5.49 5.49 0 00.7.89 4.92 4.92 0 00.56.48 3.58 3.58 0 00.58.35 3.81 3.81 0 00.59.21 2.93 2.93 0 00.58.06 2.32 2.32 0 00.59-.07 2.3 2.3 0 001-.63 2.89 2.89 0 00.39-.54 3.54 3.54 0 00.4-1.35 4.9 4.9 0 00-.07-1.52 5.94 5.94 0 00-.52-1.5 5.77 5.77 0 00-.91-1.29z" fill="#ff0061"/>
    <path fill="#3b009b" opacity=".05" d="M76.57 310.56l-5.35-1.95-5.35-1.95-5.36-1.95-5.35-1.94v-3.22l5.35 1.95 5.36 1.95 5.35 1.95 5.35 1.95v3.21zM76.57 305.74l-5.35-1.95-5.35-1.95-5.36-1.95-5.35-1.94v-3.22l5.35 1.95 5.36 1.95 5.35 1.95 5.35 1.95v3.21zM85.67 313.87l-1.88-.68-1.88-.69-1.88-.68-1.88-.69v-3.21l1.88.69 1.88.68 1.88.69 1.88.68v3.21z"/>
    <path d="M179.92 268.13l-8.39-3.06-8.39-3.07-8.39-3-8.39-3h-.58l-1.34.48-1.33.49-1.34.49-1.34.48.57.62.56.61.57.62.56.62v20.55a1.77 1.77 0 00.08.52 1.87 1.87 0 00.23.47 1.58 1.58 0 00.36.37 1.61 1.61 0 00.46.26l7.2 2.62 7.2 2.62 7.2 2.62 7.2 2.62.63.69.63.69.64.69.63.69 1.34-.49 1.33-.48 1.34-.49 1.34-.49a.94.94 0 00.22-.12 1 1 0 00.17-.18 1 1 0 00.12-.23.8.8 0 000-.27v-23.33a1.82 1.82 0 00-.08-.52 1.53 1.53 0 00-.23-.46 1.63 1.63 0 00-.36-.38 1.58 1.58 0 00-.42-.25z" fill="#fff"/>
    <g clip-path="url(#e)">
      <path d="M181.05 293v-23.26a2.11 2.11 0 000-.25 2.21 2.21 0 00-.05-.25l-.09-.23-.12-.21-1.72.62-1.71.63-1.72.62-1.71.62-1.13 5.13-1.14 5.12-1.13 5.12-1.14 5.13.81.29.81.3.82.29.81.3.63.69.63.69.64.69.63.69 1.34-.49 1.33-.48 1.34-.49 1.34-.49a.94.94 0 00.22-.12 1 1 0 00.17-.18 1 1 0 00.12-.23.8.8 0 00.02-.25z" fill="#3b009b" opacity=".05"/>
    </g>
    <path d="M179.92 268.13l-8.39-3.06-8.39-3.07-8.39-3-8.39-3h-.58 0l-1.34.48-1.33.49-1.34.49-1.34.48.57.62.56.61.57.62.56.62v20.55a1.77 1.77 0 00.08.52 1.87 1.87 0 00.23.47 1.58 1.58 0 00.36.37 1.61 1.61 0 00.46.26l7.2 2.62 7.2 2.62 7.2 2.62 7.2 2.62.63.69.63.69.64.69.63.69 1.34-.49 1.33-.48 1.34-.49 1.34-.49h0a.94.94 0 00.22-.12 1 1 0 00.17-.18 1 1 0 00.12-.23.8.8 0 000-.27v-23.33a1.82 1.82 0 00-.08-.52 1.53 1.53 0 00-.23-.46 1.63 1.63 0 00-.36-.38 1.58 1.58 0 00-.42-.25z" fill="none" stroke="#3b009b" stroke-linejoin="round" stroke-width="2"/>
    <path fill="#f1eaff" stroke="#3b009b" stroke-linecap="round" stroke-linejoin="round" stroke-width="2" d="M156.56 293.35l1.82-.67 1.82-.66 1.81-.66 1.82-.66-1.51-.74-1.51-.74-1.51-.74-1.52-.74-.3 1.4-.31 1.4-.3 1.4-.31 1.41z"/>
    <path d="M141 283.52l3.26 1.19 3.26 1.18 3.26 1.19 3.26 1.18.63 1.27.63 1.27.64 1.28.63 1.27.62-.82.62-.81.61-.82.62-.81 3.88 1.41 3.88 1.41 3.88 1.41 3.88 1.41a.78.78 0 00.42 0 .85.85 0 00.37-.15 1 1 0 00.27-.3.91.91 0 00.1-.4v-23.19a1.89 1.89 0 00-.08-.53 2 2 0 00-.23-.46 1.58 1.58 0 00-.36-.37 1.61 1.61 0 00-.46-.26l-8.4-3.07-8.39-3-8.39-3-8.4-3.06a.84.84 0 00-.41 0 .81.81 0 00-.37.15 1 1 0 00-.27.3.88.88 0 00-.1.4v23.11a1.77 1.77 0 00.08.52 1.65 1.65 0 00.59.84 1.61 1.61 0 00.47.26z" fill="#fff" stroke="#3b009b" stroke-linejoin="round" stroke-width="2"/>
    <path d="M167.19 289.56a5.55 5.55 0 01-.93-1.31 5.81 5.81 0 01-.52-1.5 4.89 4.89 0 01-.07-1.52 3.66 3.66 0 01.41-1.35 2.45 2.45 0 01.83-.91 2.11 2.11 0 011.09-.33 2.63 2.63 0 011.2.26 3.82 3.82 0 011.18.85 5 5 0 01.93 1.31 5.46 5.46 0 01.52 1.5 5.22 5.22 0 01.08 1.52 3.86 3.86 0 01-.41 1.35 2.45 2.45 0 01-.83.91 2.11 2.11 0 01-1.09.33 2.63 2.63 0 01-1.2-.26 4 4 0 01-1.19-.85z" fill="#3b009b" opacity=".05"/>
    <path d="M170.38 283.75a3.09 3.09 0 00-.38-.35 3.24 3.24 0 00-.4-.28 2.65 2.65 0 00-.4-.22l-.41-.15v.73a1.75 1.75 0 01.28.13 2.09 2.09 0 01.28.17l.27.21.27.24a4.5 4.5 0 01.79 1.13 4.74 4.74 0 01.46 1.29 4.46 4.46 0 01.08 1.3 2.81 2.81 0 01-.33 1.14 2.29 2.29 0 01-.26.38 1.44 1.44 0 01-.33.28 1.24 1.24 0 01-.37.17 1.52 1.52 0 01-.42.06 1.82 1.82 0 01-.46-.06 2 2 0 01-.46-.18 2.46 2.46 0 01-.46-.28 3.86 3.86 0 01-.44-.38 4.67 4.67 0 01-.8-1.12 5.76 5.76 0 01-.46-1.3 4.44 4.44 0 01-.08-1.3 3 3 0 01.33-1.14l.15-.23.16-.2.19-.16a1.37 1.37 0 01.2-.13l-.07-.16-.07-.15-.07-.16-.07-.16-.3.18a2.76 2.76 0 00-.27.23 2.1 2.1 0 00-.24.27 3 3 0 00-.21.33 3.66 3.66 0 00-.41 1.35 4.89 4.89 0 00.07 1.52 5.81 5.81 0 00.52 1.5 5.55 5.55 0 00.93 1.31 4.91 4.91 0 00.56.49 3.57 3.57 0 00.59.34 2.19 2.19 0 00.59.21 2.3 2.3 0 00.58.07 2.29 2.29 0 001.13-.31 2.5 2.5 0 00.47-.39 2.66 2.66 0 00.39-.54 3.86 3.86 0 00.41-1.35 5.22 5.22 0 00-.08-1.52 5.46 5.46 0 00-.52-1.5 5 5 0 00-.93-1.31z" fill="#ff005e"/>
    <path d="M144.62 281.34a5.26 5.26 0 01-.94-1.3 6.28 6.28 0 01-.52-1.51 5.16 5.16 0 01-.07-1.51 3.55 3.55 0 01.41-1.35 2.48 2.48 0 01.83-.92 2.32 2.32 0 011.09-.33 2.77 2.77 0 011.2.26 4 4 0 011.18.85 5 5 0 01.93 1.31 5.57 5.57 0 01.52 1.5 4.89 4.89 0 01.08 1.52 3.55 3.55 0 01-.41 1.35 2.45 2.45 0 01-.83.91 2.11 2.11 0 01-1.09.33 2.63 2.63 0 01-1.2-.26 3.67 3.67 0 01-1.18-.85zM155.9 285.45a5.71 5.71 0 01-.93-1.3 5.87 5.87 0 01-.52-1.51 5.21 5.21 0 01-.07-1.52 3.55 3.55 0 01.41-1.34 2.41 2.41 0 01.83-.92 2.11 2.11 0 011.09-.33 2.77 2.77 0 011.2.26 3.82 3.82 0 011.18.85A5 5 0 01160 281a5.57 5.57 0 01.52 1.5 4.89 4.89 0 01.08 1.52 3.55 3.55 0 01-.41 1.35 2.45 2.45 0 01-.83.91 2.11 2.11 0 01-1.09.33 2.63 2.63 0 01-1.2-.26 3.81 3.81 0 01-1.17-.9z" fill="#3b009b" opacity=".05"/>
    <path d="M159.09 279.64a4.14 4.14 0 00-.38-.35 3.24 3.24 0 00-.4-.28 2.65 2.65 0 00-.4-.22l-.41-.15v.73a1.75 1.75 0 01.28.13l.28.17.27.21.27.24a4.81 4.81 0 01.8 1.13 5.07 5.07 0 01.45 1.29 4.51 4.51 0 01.08 1.31 2.81 2.81 0 01-.33 1.13 2.4 2.4 0 01-.26.39 1.4 1.4 0 01-.33.27 1.24 1.24 0 01-.37.17 1.52 1.52 0 01-.42.06 1.55 1.55 0 01-.37 0 3 3 0 01-.37-.11 2.09 2.09 0 01-.36-.19 2.19 2.19 0 01-.37-.25v.18l-.05.18v.18l-.05.18a4.36 4.36 0 00.41.24 2.53 2.53 0 00.42.18 3.25 3.25 0 00.42.11 2.73 2.73 0 00.41 0 2 2 0 00.59-.08 2.31 2.31 0 00.54-.23 1.91 1.91 0 00.47-.39 2.66 2.66 0 00.39-.54 3.55 3.55 0 00.41-1.35 4.89 4.89 0 00-.08-1.52A5.57 5.57 0 00160 281a5 5 0 00-.91-1.36z" fill="#ff5b0b"/>
    <path d="M147.8 275.53a4.14 4.14 0 00-.38-.35 3.6 3.6 0 00-.4-.28 2.65 2.65 0 00-.4-.22l-.41-.15v.73l.28.13.28.17.27.21a3.08 3.08 0 01.27.25 4.55 4.55 0 01.8 1.12 5.07 5.07 0 01.45 1.29 4.51 4.51 0 01.08 1.31 2.81 2.81 0 01-.33 1.13 1.89 1.89 0 01-.26.39 1.4 1.4 0 01-.33.27 1.24 1.24 0 01-.37.17 1.52 1.52 0 01-.42.06 1.82 1.82 0 01-.46-.06 2.48 2.48 0 01-.92-.46 3.86 3.86 0 01-.44-.38 5 5 0 01-.57-.72 4.62 4.62 0 01-.42-.83 5.92 5.92 0 01-.27-.88 4.53 4.53 0 01-.09-.88l-.17-.07-.18-.06-.17-.06-.17-.07a5 5 0 00.07 1.08 5.82 5.82 0 00.28 1.07 5.58 5.58 0 00.5 1 5 5 0 00.7.89 3.64 3.64 0 00.56.49 3.89 3.89 0 00.58.35 2.57 2.57 0 00.59.2 2.3 2.3 0 00.58.07 2 2 0 00.59-.08 2.14 2.14 0 00.54-.23 1.91 1.91 0 00.47-.39 2.41 2.41 0 00.39-.54 3.55 3.55 0 00.41-1.35 4.89 4.89 0 00-.08-1.52 5.57 5.57 0 00-.52-1.5 5 5 0 00-.93-1.3z" fill="#ff0061"/>
    <path fill="#3b009b" opacity=".05" d="M163.55 277.61l-5.36-1.95-5.35-1.95-5.35-1.95-5.35-1.95v-3.21l5.35 1.95 5.35 1.95 5.35 1.95 5.36 1.94V277.61zM163.55 272.79l-5.36-1.95-5.35-1.95-5.35-1.95-5.35-1.94V261.78l5.35 1.95 5.35 1.95 5.35 1.95 5.36 1.94V272.79zM172.65 280.92l-1.88-.68-1.88-.69-1.88-.68-1.89-.69v-3.21l1.89.68 1.88.69 1.88.68 1.88.69v3.21z"/>
    <path d="M262.12 342.87l-8.39-3.05-8.39-3.06-8.34-3.05-8.39-3h-.57l-1.33.49-1.34.49-1.34.48-1.33.49.56.61.57.62.56.62.57.61v20.56a1.49 1.49 0 00.08.52 1.71 1.71 0 00.23.47 2 2 0 00.35.37 2 2 0 00.47.26l7.2 2.62 7.2 2.62 7.19 2.62 7.2 2.62.64.69.63.69.63.69.63.69 1.34-.49 1.34-.49 1.34-.48 1.33-.49a.94.94 0 00.22-.12 1 1 0 00.18-.18.7.7 0 00.11-.23.86.86 0 00.05-.27v-23.3a1.5 1.5 0 00-.09-.52 1.58 1.58 0 00-.23-.47 1.76 1.76 0 00-.35-.37 1.66 1.66 0 00-.53-.26z" fill="#fff"/>
    <g clip-path="url(#f)">
      <path d="M263.26 367.73v-23.24a2 2 0 000-.25l-.06-.25a1.09 1.09 0 00-.09-.23 1.43 1.43 0 00-.12-.21l-1.71.62-1.72.62-1.71.63-1.71.62-1.14 5.12-1.13 5.13-1.14 5.12-1.13 5.12.81.3.81.3.81.29.81.3.64.69.63.69.63.69.63.69 1.34-.49 1.34-.49 1.34-.48 1.33-.49a.94.94 0 00.22-.12 1 1 0 00.18-.18.7.7 0 00.11-.23.86.86 0 00.03-.27z" fill="#3b009b" opacity=".05"/>
    </g>
    <path d="M262.12 342.87l-8.39-3.05-8.39-3.06-8.34-3.05-8.39-3h-.57 0l-1.33.49-1.34.49-1.34.48-1.33.49.56.61.57.62.56.62.57.61v20.56a1.49 1.49 0 00.08.52 1.71 1.71 0 00.23.47 2 2 0 00.35.37 2 2 0 00.47.26l7.2 2.62 7.2 2.62 7.19 2.62 7.2 2.62.64.69.63.69.63.69.63.69 1.34-.49 1.34-.49 1.34-.48 1.33-.49h0a.94.94 0 00.22-.12 1 1 0 00.18-.18.7.7 0 00.11-.23.86.86 0 00.05-.27v-23.3a1.5 1.5 0 00-.09-.52 1.58 1.58 0 00-.23-.47 1.76 1.76 0 00-.35-.37 1.66 1.66 0 00-.53-.26z" fill="none" stroke="#3b009b" stroke-linejoin="round" stroke-width="2"/>
    <path fill="#f1eaff" stroke="#3b009b" stroke-linecap="round" stroke-linejoin="round" stroke-width="2" d="M238.76 368.09l1.82-.66 1.82-.66 1.82-.66 1.82-.66-1.51-.75-1.52-.74-1.51-.73-1.51-.74-.31 1.4-.3 1.4-.31 1.4-.31 1.4z"/>
    <path d="M223.2 358.27l3.26 1.18 3.26 1.19 3.25 1.18 3.26 1.19.64 1.27.63 1.27.63 1.27.63 1.27.62-.81.62-.82.62-.81.62-.82 3.88 1.41 3.88 1.42 3.88 1.41 3.88 1.41a.91.91 0 00.79-.1.94.94 0 00.26-.3.8.8 0 00.1-.41v-23.24a1.82 1.82 0 00-.08-.52 1.53 1.53 0 00-.23-.46 1.85 1.85 0 00-.36-.38 1.69 1.69 0 00-.46-.25l-8.39-3.06-8.39-3.05-8.39-3-8.39-3.06a.86.86 0 00-.42 0 .85.85 0 00-.37.15.73.73 0 00-.26.29.81.81 0 00-.11.41v23.24a1.5 1.5 0 00.09.52 1.71 1.71 0 00.23.47 2 2 0 00.35.37 2 2 0 00.47.17z" fill="#fff" stroke="#3b009b" stroke-linejoin="round" stroke-width="2"/>
    <path d="M249.4 364.31a5 5 0 01-.93-1.31 5.57 5.57 0 01-.52-1.5 5.24 5.24 0 01-.08-1.52 3.73 3.73 0 01.41-1.35 2.54 2.54 0 01.83-.91 2.11 2.11 0 011.09-.33 2.7 2.7 0 011.21.26 3.89 3.89 0 011.18.85 5.5 5.5 0 01.93 1.3 5.87 5.87 0 01.52 1.51 4.84 4.84 0 01.07 1.51 3.54 3.54 0 01-.4 1.35 2.51 2.51 0 01-.84.92 2.32 2.32 0 01-1.09.33 2.8 2.8 0 01-1.2-.26 4.13 4.13 0 01-1.18-.85z" fill="#3b009b" opacity=".05"/>
    <path d="M252.59 358.5a4.1 4.1 0 00-.39-.35c-.13-.11-.26-.2-.39-.29a4 4 0 00-.41-.21 3.39 3.39 0 00-.41-.15v.72l.28.13a2.61 2.61 0 01.28.17l.28.21a3.07 3.07 0 01.26.25 4.67 4.67 0 01.8 1.12 5.17 5.17 0 01.46 1.3 4.44 4.44 0 01.08 1.3 3 3 0 01-.33 1.14 2.16 2.16 0 01-.27.38 2.07 2.07 0 01-.32.28 1.84 1.84 0 01-.38.17 1.42 1.42 0 01-.42.05 2.49 2.49 0 01-.46-.05 2.19 2.19 0 01-.46-.18 2.83 2.83 0 01-.46-.28 3.85 3.85 0 01-.44-.39 4.71 4.71 0 01-.79-1.12 5 5 0 01-.46-1.3 4.42 4.42 0 01-.08-1.3 3 3 0 01.33-1.13 1.88 1.88 0 01.14-.24l.17-.19a1.29 1.29 0 01.18-.16l.2-.13-.07-.16-.07-.16-.07-.15-.07-.16a1.75 1.75 0 00-.29.18 1.44 1.44 0 00-.27.22 3.33 3.33 0 00-.25.28q-.11.15-.21.33a3.73 3.73 0 00-.41 1.35 5.24 5.24 0 00.08 1.52 5.57 5.57 0 00.52 1.5 5 5 0 00.93 1.31 4.08 4.08 0 00.56.48 3.58 3.58 0 00.58.35 3.81 3.81 0 00.59.21 3 3 0 00.58.07 2.33 2.33 0 00.59-.08 2.14 2.14 0 00.54-.23 2.93 2.93 0 00.48-.39 3.35 3.35 0 00.39-.55 3.54 3.54 0 00.4-1.35 4.84 4.84 0 00-.07-1.51 5.87 5.87 0 00-.52-1.51 5.5 5.5 0 00-.93-1.3z" fill="#ff005e"/>
    <path d="M226.82 356.09a5.28 5.28 0 01-.93-1.31 5.81 5.81 0 01-.52-1.5 5.22 5.22 0 01-.08-1.52 3.73 3.73 0 01.41-1.35 2.54 2.54 0 01.83-.91 2.11 2.11 0 011.09-.33 2.7 2.7 0 011.21.26 4.07 4.07 0 011.18.85 5.71 5.71 0 01.93 1.3 5.87 5.87 0 01.52 1.51 4.89 4.89 0 01.07 1.52 3.54 3.54 0 01-.4 1.34 2.43 2.43 0 01-.84.92 2.08 2.08 0 01-1.08.33 2.84 2.84 0 01-1.21-.26 4 4 0 01-1.18-.85zM238.11 360.2a5 5 0 01-.93-1.31 5.57 5.57 0 01-.52-1.5 5.22 5.22 0 01-.08-1.52 3.73 3.73 0 01.41-1.35 2.54 2.54 0 01.83-.91 2.11 2.11 0 011.09-.33 2.7 2.7 0 011.21.26 3.89 3.89 0 011.18.85 5.71 5.71 0 01.93 1.3 5.87 5.87 0 01.52 1.51 4.84 4.84 0 01.07 1.51 3.54 3.54 0 01-.4 1.35 2.51 2.51 0 01-.84.92 2.32 2.32 0 01-1.09.33 2.83 2.83 0 01-1.2-.26 4 4 0 01-1.18-.85z" fill="#3b009b" opacity=".05"/>
    <path d="M241.3 354.39a4.1 4.1 0 00-.39-.35c-.13-.11-.26-.2-.39-.29a4 4 0 00-.41-.21 2.86 2.86 0 00-.41-.15v.73a1.85 1.85 0 01.29.13 2 2 0 01.27.17 2.83 2.83 0 01.28.2 3.07 3.07 0 01.26.25 4.67 4.67 0 01.8 1.12 5.31 5.31 0 01.46 1.3 4.44 4.44 0 01.08 1.3 3 3 0 01-.33 1.14 2.16 2.16 0 01-.27.38 1.65 1.65 0 01-.32.28 1.63 1.63 0 01-.38.17 1.42 1.42 0 01-.42.06 2.2 2.2 0 01-.36 0 2.29 2.29 0 01-.37-.12 1.81 1.81 0 01-.37-.18 2.6 2.6 0 01-.32-.32l-.05.18v.18l-.05.18-.05.18.42.24.42.18a2.73 2.73 0 00.41.1 2 2 0 00.41 0 2.33 2.33 0 00.59-.08 2.14 2.14 0 00.54-.23 2.93 2.93 0 00.48-.39 3.35 3.35 0 00.39-.55 3.54 3.54 0 00.4-1.35 4.84 4.84 0 00-.07-1.51 5.87 5.87 0 00-.52-1.51 5.71 5.71 0 00-1.02-1.23z" fill="#ff5b0b"/>
    <path d="M230 350.28a4.1 4.1 0 00-.39-.35c-.13-.11-.26-.2-.39-.29a4 4 0 00-.41-.21 2.86 2.86 0 00-.41-.15v.72a1.85 1.85 0 01.29.13 2 2 0 01.27.17 1.86 1.86 0 01.28.21 2 2 0 01.26.24 4.67 4.67 0 01.8 1.12 5.31 5.31 0 01.46 1.3 4.44 4.44 0 01.08 1.3 3 3 0 01-.33 1.14 1.84 1.84 0 01-.27.38 1.65 1.65 0 01-.32.28 1.3 1.3 0 01-.38.17 1.42 1.42 0 01-.42.06 1.88 1.88 0 01-.46-.06 2.19 2.19 0 01-.46-.18 2.83 2.83 0 01-.46-.28 3.78 3.78 0 01-.43-.38 4 4 0 01-.57-.73 5 5 0 01-.43-.83 5.18 5.18 0 01-.36-1.76l-.17-.06-.17-.06-.17-.07-.17-.06a4.84 4.84 0 00.06 1.07 6 6 0 00.29 1.08 5.58 5.58 0 00.5 1 4.93 4.93 0 00.69.89 4.18 4.18 0 00.56.49 3.5 3.5 0 00.58.34 3 3 0 00.59.21 2.36 2.36 0 00.58.07 2.33 2.33 0 00.59-.08 2.14 2.14 0 00.54-.23 2.93 2.93 0 00.48-.39 3.35 3.35 0 00.39-.55 3.54 3.54 0 00.4-1.34 4.89 4.89 0 00-.07-1.52 5.87 5.87 0 00-.52-1.51 5.71 5.71 0 00-.93-1.28z" fill="#ff0061"/>
    <path fill="#3b009b" opacity=".05" d="M245.75 352.36l-5.35-1.95-5.35-1.95-5.36-1.95-5.35-1.95v-3.21l5.35 1.95 5.36 1.95 5.35 1.94 5.35 1.95v3.22zM245.75 347.54l-5.35-1.95-5.35-1.95-5.36-1.95-5.35-1.95v-3.21l5.35 1.95 5.36 1.95 5.35 1.94 5.35 1.95v3.22zM254.85 355.67l-1.88-.69-1.88-.68-1.88-.69-1.88-.68v-3.21l1.88.68 1.88.69 1.88.68 1.88.68V355.67z"/>
    <path d="M179.66 335.24l-8.39-3.05-8.39-3.05-8.39-3.06-8.39-3.08h-.58l-1.34.49-1.33.49-1.34.48-1.34.49.57.62.56.61.57.62.56.61V348a1.77 1.77 0 00.08.52 2 2 0 00.23.47 1.8 1.8 0 00.36.37 1.89 1.89 0 00.46.26l7.2 2.62 7.2 2.62 7.2 2.62 7.2 2.62.63.69.63.69.64.69.63.69 1.34-.49 1.33-.48 1.34-.49 1.34-.49a.94.94 0 00.22-.12 1.45 1.45 0 00.17-.18 1 1 0 00.12-.23.84.84 0 000-.27v-23.25a1.77 1.77 0 00-.08-.52 1.65 1.65 0 00-.59-.84 1.61 1.61 0 00-.42-.26z" fill="#fff"/>
    <g clip-path="url(#g)">
      <path d="M180.79 360.1v-23.24a2 2 0 000-.25 1.84 1.84 0 00-.05-.25l-.09-.23-.12-.21-1.72.62-1.71.62-1.72.63-1.71.62-1.13 5.12-1.14 5.13-1.13 5.12-1.14 5.13.81.29.82.3.81.29.81.3.63.69.63.69.64.69.63.69 1.34-.49 1.33-.48 1.34-.49 1.34-.49a.94.94 0 00.22-.12 1.45 1.45 0 00.17-.18 1 1 0 00.12-.23.84.84 0 00.02-.27z" fill="#3b009b" opacity=".05"/>
    </g>
    <path d="M179.66 335.24l-8.39-3.05-8.39-3.05-8.39-3.06-8.39-3.08h-.58 0l-1.34.49-1.33.49-1.34.48-1.34.49.57.62.56.61.57.62.56.61V348a1.77 1.77 0 00.08.52 2 2 0 00.23.47 1.8 1.8 0 00.36.37 1.89 1.89 0 00.46.26l7.2 2.62 7.2 2.62 7.2 2.62 7.2 2.62.63.69.63.69.64.69.63.69 1.34-.49 1.33-.48 1.34-.49 1.34-.49h0a.94.94 0 00.22-.12 1.45 1.45 0 00.17-.18 1 1 0 00.12-.23.84.84 0 000-.27v-23.25a1.77 1.77 0 00-.08-.52 1.65 1.65 0 00-.59-.84 1.61 1.61 0 00-.42-.26z" fill="none" stroke="#3b009b" stroke-linejoin="round" stroke-width="2"/>
    <path fill="#f1eaff" stroke="#3b009b" stroke-linecap="round" stroke-linejoin="round" stroke-width="2" d="M156.3 360.46l1.82-.66 1.82-.66 1.81-.66 1.82-.66-1.51-.74-1.51-.74-1.51-.74-1.51-.74-.31 1.4-.31 1.4-.3 1.4-.31 1.4z"/>
    <path d="M140.73 350.64l3.26 1.18 3.26 1.19 3.26 1.19 3.26 1.18.63 1.27.63 1.27.64 1.27.63 1.27.62-.81.62-.82.62-.81.61-.82 3.88 1.41 3.88 1.42 3.88 1.41 3.88 1.41a1 1 0 00.42 0 .93.93 0 00.37-.15 1 1 0 00.27-.3.92.92 0 00.1-.41V338.8a1.82 1.82 0 00-.08-.52 2 2 0 00-.23-.46 1.67 1.67 0 00-.82-.63l-8.39-3.06-8.39-3.05-8.39-3.08-8.39-3a.88.88 0 00-.42 0 .81.81 0 00-.37.15.84.84 0 00-.27.29.92.92 0 00-.1.41V349a1.77 1.77 0 00.08.52 2 2 0 00.23.47 1.8 1.8 0 00.36.37 1.89 1.89 0 00.46.28z" fill="#fff" stroke="#3b009b" stroke-linejoin="round" stroke-width="2"/>
    <path d="M166.94 356.68a5.32 5.32 0 01-.94-1.31 5.94 5.94 0 01-.52-1.5 5.21 5.21 0 01-.07-1.52 3.55 3.55 0 01.41-1.35 2.45 2.45 0 01.83-.91 2.11 2.11 0 011.09-.33 2.63 2.63 0 011.2.26 3.67 3.67 0 011.18.85 5 5 0 01.93 1.3 5.52 5.52 0 01.52 1.51 4.85 4.85 0 01.08 1.51 3.55 3.55 0 01-.41 1.35 2.48 2.48 0 01-.83.92 2.32 2.32 0 01-1.09.33 2.77 2.77 0 01-1.2-.26 4 4 0 01-1.18-.85z" fill="#3b009b" opacity=".05"/>
    <path d="M170.12 350.87a3.09 3.09 0 00-.38-.35 3.69 3.69 0 00-.4-.29 3.84 3.84 0 00-.4-.21l-.41-.15v.72l.28.13c.09.06.19.11.28.18l.27.2.27.25a5 5 0 01.8 1.12 5.28 5.28 0 01.45 1.3 4.44 4.44 0 01.08 1.3 2.81 2.81 0 01-.33 1.14 2.12 2.12 0 01-.26.38 1.75 1.75 0 01-.33.28 1.56 1.56 0 01-.37.17 1.51 1.51 0 01-.42 0 2.4 2.4 0 01-.46 0 2 2 0 01-.46-.18 2.46 2.46 0 01-.46-.28 3.16 3.16 0 01-.44-.39 4.3 4.3 0 01-.8-1.12 5.07 5.07 0 01-.45-1.29 4.2 4.2 0 01-.09-1.31 3 3 0 01.33-1.13l.15-.24a1.54 1.54 0 01.17-.19 1.6 1.6 0 01.38-.29l-.07-.16-.07-.16-.07-.15-.07-.16-.3.18a2.61 2.61 0 00-.27.22 3.22 3.22 0 00-.24.28 1.85 1.85 0 00-.21.33 3.55 3.55 0 00-.41 1.35 5.21 5.21 0 00.07 1.52 5.94 5.94 0 00.52 1.5 5.32 5.32 0 00.94 1.31 3.57 3.57 0 00.56.48 3.25 3.25 0 001.17.56 2.3 2.3 0 00.58.07 2.33 2.33 0 00.59-.08 2.14 2.14 0 00.54-.23 2.5 2.5 0 00.47-.39 2.47 2.47 0 00.39-.55 3.55 3.55 0 00.41-1.35 4.85 4.85 0 00-.08-1.51 5.52 5.52 0 00-.52-1.51 5 5 0 00-.93-1.3z" fill="#ff005e"/>
    <path d="M144.36 348.46a5 5 0 01-.93-1.31 5.83 5.83 0 01-.53-1.5 5.21 5.21 0 01-.07-1.52 3.66 3.66 0 01.41-1.35 2.45 2.45 0 01.83-.91 2.11 2.11 0 011.09-.33 2.63 2.63 0 011.2.26 3.82 3.82 0 011.18.85 5 5 0 01.93 1.31 5.7 5.7 0 01.53 1.5 5.21 5.21 0 01.07 1.52 3.66 3.66 0 01-.41 1.35 2.45 2.45 0 01-.83.91 2.11 2.11 0 01-1.09.33 2.63 2.63 0 01-1.2-.26 3.82 3.82 0 01-1.18-.85zM155.65 352.57a5.32 5.32 0 01-.94-1.31 6.36 6.36 0 01-.52-1.5 5.21 5.21 0 01-.07-1.52 3.55 3.55 0 01.41-1.35 2.45 2.45 0 01.83-.91 2.11 2.11 0 011.09-.33 2.63 2.63 0 011.2.26 3.67 3.67 0 011.18.85 5.15 5.15 0 01.93 1.3 5.52 5.52 0 01.52 1.51 4.89 4.89 0 01.08 1.52 3.55 3.55 0 01-.41 1.34 2.41 2.41 0 01-.83.92 2.11 2.11 0 01-1.09.33 2.77 2.77 0 01-1.2-.26 3.82 3.82 0 01-1.18-.85z" fill="#3b009b" opacity=".05"/>
    <path d="M158.83 346.76a3.09 3.09 0 00-.38-.35 3.69 3.69 0 00-.4-.29 3.84 3.84 0 00-.4-.21 3.39 3.39 0 00-.41-.15v.73a1.75 1.75 0 01.28.13 2.09 2.09 0 01.28.17l.27.21a2.91 2.91 0 01.27.24 4.67 4.67 0 01.8 1.12 5.28 5.28 0 01.45 1.3 4.12 4.12 0 01.08 1.3 2.66 2.66 0 01-.33 1.14 1.5 1.5 0 01-.26.38 1.44 1.44 0 01-.33.28 1.56 1.56 0 01-.37.17 1.47 1.47 0 01-.42.06 2.46 2.46 0 01-.37 0l-.37-.11a3.13 3.13 0 01-.36-.19 2.19 2.19 0 01-.37-.25v.36l-.05.18v.18a4.36 4.36 0 00.41.24l.42.18a3.2 3.2 0 00.42.1 1.9 1.9 0 00.41 0 2.33 2.33 0 00.59-.08 2.14 2.14 0 00.54-.23 2.5 2.5 0 00.47-.39 2.47 2.47 0 00.39-.55 3.55 3.55 0 00.41-1.34 4.89 4.89 0 00-.08-1.52 5.52 5.52 0 00-.52-1.51 5.15 5.15 0 00-1.07-1.3z" fill="#ff5b0b"/>
    <path d="M147.54 342.65a3.09 3.09 0 00-.38-.35 4.38 4.38 0 00-.8-.5 3.39 3.39 0 00-.41-.15v.73a1.75 1.75 0 01.28.13 1.61 1.61 0 01.28.17l.27.21.27.24a4.67 4.67 0 01.8 1.12 5.28 5.28 0 01.45 1.3 4.46 4.46 0 01.09 1.3 3 3 0 01-.33 1.14 1.84 1.84 0 01-.27.38 1.44 1.44 0 01-.33.28 1.24 1.24 0 01-.37.17 1.42 1.42 0 01-.42.06 1.82 1.82 0 01-.46-.06 2.19 2.19 0 01-.46-.18 2.46 2.46 0 01-.46-.28 3.86 3.86 0 01-.44-.38 5.1 5.1 0 01-.57-.73 5.29 5.29 0 01-.42-.82 4.76 4.76 0 01-.26-.89 4.4 4.4 0 01-.1-.88l-.17-.06-.17-.06-.18-.07-.17-.06a4.85 4.85 0 00.07 1.07 5.92 5.92 0 00.28 1.08 6.32 6.32 0 00.5 1 5 5 0 00.7.89 4.18 4.18 0 00.56.49 3.13 3.13 0 00.58.34 2.78 2.78 0 00.59.21 2.3 2.3 0 00.58.07 2.33 2.33 0 00.59-.08 2.14 2.14 0 00.54-.23 2.5 2.5 0 00.47-.39 2.66 2.66 0 00.39-.54 3.66 3.66 0 00.41-1.35 5.21 5.21 0 00-.07-1.52 5.7 5.7 0 00-.53-1.5 5 5 0 00-.93-1.3z" fill="#ff0061"/>
    <path fill="#3b009b" opacity=".05" d="M163.29 344.73l-5.35-1.95-5.36-1.95-5.35-1.95-5.35-1.95v-3.21l5.35 1.95 5.35 1.95 5.36 1.94 5.35 1.95v3.22zM163.29 339.9l-5.35-1.94-5.36-1.95-5.35-1.95-5.35-1.95v-3.21l5.35 1.95 5.35 1.95 5.36 1.95 5.35 1.94v3.21zM172.39 348.04l-1.88-.69-1.88-.68-1.88-.69-1.88-.68v-3.21l1.88.68 1.88.69 1.88.68 1.88.69v3.21z"/>
    <path d="M194.82 291.86l-8.39-3.06-8.43-3.05-8.39-3.05-8.39-3.06h-.58l-1.34.48-1.33.49-1.34.49-1.34.48.57.62.56.61.57.62.56.62v20.55a1.89 1.89 0 00.08.53 1.65 1.65 0 00.23.46 1.58 1.58 0 00.36.37 1.61 1.61 0 00.46.26l7.2 2.62 7.2 2.62 7.2 2.62 7.2 2.62.63.69.63.69.64.69.63.69 1.34-.48 1.33-.49 1.34-.49 1.34-.48.22-.13a1 1 0 00.17-.18 1 1 0 00.12-.23 1.1 1.1 0 000-.27v-23.24a1.82 1.82 0 00-.08-.52 1.8 1.8 0 00-.23-.46 1.67 1.67 0 00-.82-.63z" fill="#fff"/>
    <g clip-path="url(#h)">
      <path d="M196 316.71v-23.24a2.11 2.11 0 000-.25 1.05 1.05 0 00-.06-.24.92.92 0 00-.09-.23.94.94 0 00-.12-.22l-1.71.62-1.71.63-1.72.62-1.71.63-1.14 5.12-1.13 5.12-1.13 5.13-1.14 5.12.81.29.81.3.81.3.82.29.63.69.63.69.64.69.63.69 1.34-.48 1.33-.49 1.34-.49 1.34-.48.22-.13a1 1 0 00.17-.18 1 1 0 00.12-.23 1.1 1.1 0 00.02-.27z" fill="#3b009b" opacity=".05"/>
    </g>
    <path d="M194.82 291.86l-8.39-3.06-8.43-3.05-8.39-3.05-8.39-3.06h-.58 0l-1.34.48-1.33.49-1.34.49-1.34.48.57.62.56.61.57.62.56.62v20.55a1.89 1.89 0 00.08.53 1.65 1.65 0 00.23.46 1.58 1.58 0 00.36.37 1.61 1.61 0 00.46.26l7.2 2.62 7.2 2.62 7.2 2.62 7.2 2.62.63.69.63.69.64.69.63.69 1.34-.48 1.33-.49 1.34-.49 1.34-.48h0l.22-.13a1 1 0 00.17-.18 1 1 0 00.12-.23 1.1 1.1 0 000-.27v-23.24a1.82 1.82 0 00-.08-.52 1.8 1.8 0 00-.23-.46 1.67 1.67 0 00-.82-.63z" fill="none" stroke="#3b009b" stroke-linejoin="round" stroke-width="2"/>
    <path fill="#f1eaff" stroke="#3b009b" stroke-linecap="round" stroke-linejoin="round" stroke-width="2" d="M171.46 317.08l1.82-.66 1.81-.67 1.82-.66 1.82-.66-1.51-.74-1.51-.74-1.52-.74-1.51-.74-.3 1.4-.31 1.4-.31 1.41-.3 1.4z"/>
    <path d="M155.89 307.25l3.26 1.19 3.26 1.18 3.26 1.19 3.26 1.19.63 1.27.63 1.27.64 1.27.63 1.27.62-.82.61-.81.62-.82.62-.81 3.88 1.41 3.88 1.41 3.88 1.41 3.88 1.42a.86.86 0 00.42 0 .85.85 0 00.37-.15.84.84 0 00.37-.7v-23.2a1.77 1.77 0 00-.08-.52 2.28 2.28 0 00-.23-.47 1.58 1.58 0 00-.36-.37 1.66 1.66 0 00-.47-.26l-8.39-3.05-8.39-3.06-8.39-3.05-8.39-3.05a.84.84 0 00-.41 0 .81.81 0 00-.37.15.86.86 0 00-.27.3.91.91 0 00-.1.4v23.24a1.89 1.89 0 00.08.53 1.65 1.65 0 00.23.46 1.67 1.67 0 00.82.63z" fill="#fff" stroke="#3b009b" stroke-linejoin="round" stroke-width="2"/>
    <path d="M182.09 313.29a5.71 5.71 0 01-.93-1.3 5.87 5.87 0 01-.52-1.51 4.84 4.84 0 01-.07-1.51 3.54 3.54 0 01.4-1.35 2.43 2.43 0 01.84-.92 2.21 2.21 0 011.09-.33 2.8 2.8 0 011.2.26 4 4 0 011.18.85 5 5 0 01.93 1.31 5.57 5.57 0 01.52 1.5 5.22 5.22 0 01.08 1.52 3.73 3.73 0 01-.41 1.35 2.54 2.54 0 01-.83.91 2.11 2.11 0 01-1.09.33 2.7 2.7 0 01-1.21-.26 3.89 3.89 0 01-1.18-.85z" fill="#3b009b" opacity=".05"/>
    <path d="M185.28 307.48a4.14 4.14 0 00-.38-.35 3.24 3.24 0 00-.4-.28 2.32 2.32 0 00-.41-.22 3.25 3.25 0 00-.4-.15v.73l.28.13.28.17a2.47 2.47 0 01.27.21 3.08 3.08 0 01.27.25 4.52 4.52 0 01.79 1.12 5.1 5.1 0 01.46 1.29 4.51 4.51 0 01.08 1.31 3 3 0 01-.33 1.13 1.92 1.92 0 01-.27.39 1.18 1.18 0 01-.32.27 1.37 1.37 0 01-.37.17 1.54 1.54 0 01-.43.06 1.74 1.74 0 01-.45-.06 3 3 0 01-.47-.17 2.85 2.85 0 01-.45-.29 3.86 3.86 0 01-.44-.38 4.67 4.67 0 01-.8-1.12 5.31 5.31 0 01-.46-1.3 4.44 4.44 0 01-.08-1.3 3 3 0 01.33-1.14l.15-.23.16-.2.19-.16a1.37 1.37 0 01.2-.13l-.07-.15-.07-.16-.07-.16-.07-.16a1.83 1.83 0 00-.3.18 2.76 2.76 0 00-.27.23 1.31 1.31 0 00-.24.28 2.7 2.7 0 00-.22.33 3.54 3.54 0 00-.4 1.35 4.84 4.84 0 00.07 1.51 5.87 5.87 0 00.52 1.51 5.71 5.71 0 00.93 1.3 4.18 4.18 0 00.56.49 4 4 0 00.59.35 2.57 2.57 0 00.59.2 2.22 2.22 0 00.57.07 1.91 1.91 0 00.59-.08 2.38 2.38 0 00.55-.23 1.91 1.91 0 00.47-.39 2.41 2.41 0 00.39-.54 3.73 3.73 0 00.41-1.35 5.22 5.22 0 00-.08-1.52 5.57 5.57 0 00-.52-1.5 5 5 0 00-.93-1.31z" fill="#ff005e"/>
    <path d="M159.51 305.07a5.5 5.5 0 01-.93-1.3 5.87 5.87 0 01-.52-1.51 4.84 4.84 0 01-.07-1.51 3.55 3.55 0 01.41-1.35 2.48 2.48 0 01.83-.92 2.32 2.32 0 011.09-.33 2.77 2.77 0 011.2.26 4 4 0 011.18.85 5 5 0 01.93 1.31 5.57 5.57 0 01.52 1.5 5.24 5.24 0 01.08 1.52 3.73 3.73 0 01-.41 1.35 2.38 2.38 0 01-.83.91 2.11 2.11 0 01-1.09.33 2.63 2.63 0 01-1.2-.26 3.81 3.81 0 01-1.19-.85zM170.8 309.18a5.5 5.5 0 01-.93-1.3 5.87 5.87 0 01-.52-1.51 4.84 4.84 0 01-.07-1.51 3.54 3.54 0 01.4-1.35 2.51 2.51 0 01.84-.92 2.32 2.32 0 011.09-.33 2.8 2.8 0 011.2.26 4 4 0 011.18.85 5 5 0 01.93 1.31 5.57 5.57 0 01.52 1.5 5.24 5.24 0 01.08 1.52 3.73 3.73 0 01-.41 1.35 2.54 2.54 0 01-.83.91 2.11 2.11 0 01-1.09.33A2.7 2.7 0 01172 310a3.89 3.89 0 01-1.2-.82z" fill="#3b009b" opacity=".05"/>
    <path d="M174 303.37a4.14 4.14 0 00-.38-.35 4.85 4.85 0 00-.4-.28 3.34 3.34 0 00-.81-.37v.73l.28.13.28.17a2.47 2.47 0 01.27.21l.27.25a4.44 4.44 0 01.79 1.12 4.74 4.74 0 01.46 1.29 4.51 4.51 0 01.08 1.31 2.81 2.81 0 01-.33 1.13 1.92 1.92 0 01-.27.39 1.18 1.18 0 01-.32.27 1.12 1.12 0 01-.37.17 1.52 1.52 0 01-.42.06 1.5 1.5 0 01-.37 0 1.73 1.73 0 01-.37-.11l-.37-.18-.36-.25-.05.17v.18l-.05.18v.18a3.45 3.45 0 00.41.25 3.69 3.69 0 00.42.17 3.25 3.25 0 00.42.11 2.73 2.73 0 00.41 0 1.89 1.89 0 00.58-.08 2.21 2.21 0 00.55-.23 1.91 1.91 0 00.47-.39 2.41 2.41 0 00.39-.54 3.73 3.73 0 00.41-1.35 5.24 5.24 0 00-.08-1.52 5.57 5.57 0 00-.52-1.5 5 5 0 00-1.02-1.32z" fill="#ff5b0b"/>
    <path d="M162.7 299.26a4.14 4.14 0 00-.38-.35 4.85 4.85 0 00-.4-.28 4 4 0 00-.4-.22l-.41-.15v.74l.28.13.28.17.27.21.27.25a4.44 4.44 0 01.79 1.12 4.69 4.69 0 01.46 1.3 4.42 4.42 0 01.08 1.3 2.9 2.9 0 01-.33 1.14 2.81 2.81 0 01-.26.38 1.75 1.75 0 01-.33.28 1.34 1.34 0 01-.37.16 1.52 1.52 0 01-.42.06 1.76 1.76 0 01-.46-.06 3 3 0 01-.47-.17 3.68 3.68 0 01-.45-.28 4 4 0 01-.44-.39 5 5 0 01-.57-.72 4.31 4.31 0 01-.44-.88 4.7 4.7 0 01-.27-.88 4.46 4.46 0 01-.09-.88l-.17-.07-.18-.06-.17-.06-.12-.05a5.53 5.53 0 00.06 1.07 5.85 5.85 0 00.29 1.07 6 6 0 00.5 1 5 5 0 00.69.88 4.91 4.91 0 00.56.49 4.56 4.56 0 00.59.35 2.57 2.57 0 00.59.2 2.3 2.3 0 00.58.07 2.2 2.2 0 00.58-.07 2.24 2.24 0 00.55-.24 1.91 1.91 0 00.47-.39 2.2 2.2 0 00.39-.54 3.73 3.73 0 00.41-1.35 5.24 5.24 0 00-.08-1.52 5.57 5.57 0 00-.52-1.5 5 5 0 00-.96-1.26z" fill="#ff0061"/>
    <path fill="#3b009b" opacity=".05" d="M178.45 301.34l-5.36-1.95-5.35-1.95-5.35-1.95-5.36-1.94v-3.22l5.36 1.95 5.35 1.95 5.35 1.95 5.36 1.95v3.21zM178.45 296.52l-5.36-1.95-5.35-1.95-5.35-1.95-5.36-1.94v-3.22l5.36 1.95 5.35 1.95 5.35 1.95 5.36 1.95v3.21zM187.55 304.65l-1.88-.68-1.88-.69-1.88-.68-1.89-.69v-3.21l1.89.68 1.88.69 1.88.68 1.88.69v3.21z"/>
    <path d="M400.1 300.37l-8.39-3.05-8.39-3.05-8.39-3.06-8.39-3H365.97l-1.34.49-1.34.49-1.33.48-1.34.49.56.62.57.61.56.62.57.61v20.56a1.77 1.77 0 00.08.52 1.65 1.65 0 00.59.84 1.48 1.48 0 00.46.26l7.2 2.62 7.2 2.62 7.2 2.62 7.19 2.62.64.69.63.69.63.69.64.69 1.33-.49L398 327l1.34-.49 1.33-.49a.89.89 0 00.4-.3.7.7 0 00.11-.23.86.86 0 00.05-.27V302a1.77 1.77 0 00-.08-.52 2.56 2.56 0 00-.23-.47 1.8 1.8 0 00-.36-.37 2 2 0 00-.46-.27z" fill="#fff"/>
    <g clip-path="url(#i)">
      <path d="M401.24 325.23V302a2.11 2.11 0 000-.25 1 1 0 00-.06-.25 1.09 1.09 0 00-.09-.23 1.13 1.13 0 00-.12-.21l-1.71.62-1.72.63-1.71.62-1.71.62-1.12 5.12-1.13 5.12-1.14 5.12-1.17 5.09.81.29.81.3.81.29.81.3.64.69.63.69.63.69.64.69 1.33-.49L398 327l1.34-.49 1.33-.49a.89.89 0 00.4-.3.7.7 0 00.11-.23.86.86 0 00.06-.26z" fill="#3b009b" opacity=".05"/>
    </g>
    <path d="M400.1 300.37l-8.39-3.05-8.39-3.05-8.39-3.06-8.39-3H365.97h0l-1.34.49-1.34.49-1.33.48-1.34.49.56.62.57.61.56.62.57.61v20.56a1.77 1.77 0 00.08.52 1.65 1.65 0 00.59.84 1.48 1.48 0 00.46.26l7.2 2.62 7.2 2.62 7.2 2.62 7.19 2.62.64.69.63.69.63.69.64.69 1.33-.49L398 327l1.34-.49 1.33-.49h0a.89.89 0 00.4-.3.7.7 0 00.11-.23.86.86 0 00.05-.27V302a1.77 1.77 0 00-.08-.52 2.56 2.56 0 00-.23-.47 1.8 1.8 0 00-.36-.37 2 2 0 00-.46-.27z" fill="none" stroke="#3b009b" stroke-linejoin="round" stroke-width="2"/>
    <path fill="#f1eaff" stroke="#3b009b" stroke-linecap="round" stroke-linejoin="round" stroke-width="2" d="M376.75 325.6l1.81-.67 1.82-.66 1.82-.66 1.82-.66-1.51-.74-1.51-.74-1.52-.74-1.51-.74-.31 1.4-.3 1.4-.31 1.4-.3 1.41z"/>
    <path d="M361.18 315.77l3.26 1.18 3.26 1.19 3.26 1.19 3.25 1.18.64 1.27.63 1.27.63 1.27.64 1.27.61-.81.64-.78.62-.81.62-.82 3.88 1.42 3.88 1.41 3.88 1.41 3.88 1.41a.87.87 0 00.42 0 .85.85 0 00.37-.15.83.83 0 00.26-.3.8.8 0 00.1-.41v-23.22a1.59 1.59 0 00-.08-.53 1.65 1.65 0 00-.23-.46 2.11 2.11 0 00-.35-.38 1.92 1.92 0 00-.47-.25l-8.39-3.06-8.39-3.05-8.39-3-8.39-3.06a.86.86 0 00-.42 0 .85.85 0 00-.37.15.76.76 0 00-.26.3.77.77 0 00-.1.4v23.24a1.49 1.49 0 00.08.52 1.65 1.65 0 00.59.84 1.48 1.48 0 00.44.17z" fill="#fff" stroke="#3b009b" stroke-linejoin="round" stroke-width="2"/>
    <path d="M387.38 321.81a5.28 5.28 0 01-.93-1.31 5.81 5.81 0 01-.52-1.5 5.22 5.22 0 01-.08-1.52 3.73 3.73 0 01.41-1.35 2.47 2.47 0 01.84-.91 2 2 0 011.08-.33 2.7 2.7 0 011.21.26 4.07 4.07 0 011.18.85 5.42 5.42 0 01.93 1.3 5.87 5.87 0 01.52 1.51 4.89 4.89 0 01.07 1.52 3.54 3.54 0 01-.4 1.34 2.43 2.43 0 01-.84.92 2 2 0 01-1.08.33 2.84 2.84 0 01-1.21-.26 4.07 4.07 0 01-1.18-.85z" fill="#3b009b" opacity=".05"/>
    <path d="M390.57 316a4.1 4.1 0 00-.39-.35c-.13-.11-.26-.2-.39-.29a4 4 0 00-.41-.21 2.86 2.86 0 00-.38-.15v.73a1.85 1.85 0 01.29.13l.28.17.27.21a2 2 0 01.26.24 4.67 4.67 0 01.8 1.12 5.31 5.31 0 01.46 1.3 4.44 4.44 0 01.08 1.3 3 3 0 01-.33 1.14 1.84 1.84 0 01-.27.38 1.4 1.4 0 01-.32.28 1.3 1.3 0 01-.38.17 1.42 1.42 0 01-.42.06 1.88 1.88 0 01-.46-.06 2.42 2.42 0 01-.46-.18 2.39 2.39 0 01-.45-.28 3.86 3.86 0 01-.44-.38 4.53 4.53 0 01-.8-1.13 5.1 5.1 0 01-.46-1.29 4.51 4.51 0 01-.08-1.31 3 3 0 01.33-1.13 1.3 1.3 0 01.15-.23 1.08 1.08 0 01.16-.2l.18-.16.21-.13-.08-.16-.07-.15-.07-.16-.07-.16a1.75 1.75 0 00-.29.18 1.44 1.44 0 00-.27.22 3.33 3.33 0 00-.25.28q-.11.15-.21.33a3.73 3.73 0 00-.41 1.35 5.22 5.22 0 00.08 1.52 5.81 5.81 0 00.52 1.5 5.28 5.28 0 00.93 1.31 4.18 4.18 0 00.56.49 3.5 3.5 0 00.58.34 3 3 0 00.59.21 2.36 2.36 0 00.58.07 2.33 2.33 0 00.59-.08 2.14 2.14 0 00.54-.23 2.93 2.93 0 00.48-.39 3.35 3.35 0 00.39-.55 3.54 3.54 0 00.4-1.34 4.89 4.89 0 00-.07-1.52 5.87 5.87 0 00-.52-1.51 5.42 5.42 0 00-.96-1.3z" fill="#ff005e"/>
    <path d="M364.8 313.59a5.42 5.42 0 01-.93-1.3 5.87 5.87 0 01-.52-1.51 4.89 4.89 0 01-.07-1.52 3.54 3.54 0 01.4-1.34 2.43 2.43 0 01.84-.92 2 2 0 011.08-.33 2.84 2.84 0 011.21.26 4 4 0 011.18.85 5.28 5.28 0 01.93 1.31 5.81 5.81 0 01.52 1.5 5.22 5.22 0 01.08 1.52 3.73 3.73 0 01-.41 1.35 2.47 2.47 0 01-.84.91 2 2 0 01-1.08.33 2.7 2.7 0 01-1.21-.26 4.07 4.07 0 01-1.18-.85zM376.09 317.7a5.28 5.28 0 01-.93-1.31 5.81 5.81 0 01-.52-1.5 4.89 4.89 0 01-.07-1.52A3.65 3.65 0 01375 312a2.47 2.47 0 01.84-.91 2 2 0 011.08-.33 2.7 2.7 0 011.21.26 4.07 4.07 0 011.18.85 5.28 5.28 0 01.93 1.31 5.81 5.81 0 01.52 1.5 5.22 5.22 0 01.08 1.52 3.86 3.86 0 01-.41 1.35 2.47 2.47 0 01-.84.91 2 2 0 01-1.08.33 2.7 2.7 0 01-1.21-.26 4.07 4.07 0 01-1.21-.83z" fill="#3b009b" opacity=".05"/>
    <path d="M379.28 311.89a4.62 4.62 0 00-.78-.63 2.73 2.73 0 00-.41-.22 3.25 3.25 0 00-.4-.15v.73a2.28 2.28 0 01.28.13l.28.17.27.21a3 3 0 01.26.24 4.53 4.53 0 01.8 1.13 5.1 5.1 0 01.46 1.29 4.44 4.44 0 01.08 1.3 3 3 0 01-.33 1.14 1.84 1.84 0 01-.27.38 1.4 1.4 0 01-.32.28 1.3 1.3 0 01-.38.17 1.42 1.42 0 01-.42.06 2.2 2.2 0 01-.36 0 2.59 2.59 0 01-.37-.11 2.16 2.16 0 01-.37-.19 2.6 2.6 0 01-.36-.25l-.05.18-.05.18v.36a3.38 3.38 0 00.41.24l.42.18a2.22 2.22 0 00.41.1 2 2 0 00.41 0 2.33 2.33 0 00.59-.08 2.14 2.14 0 00.54-.23 2.93 2.93 0 00.48-.39 3.74 3.74 0 00.39-.54 3.86 3.86 0 00.41-1.35 5.22 5.22 0 00-.08-1.52 5.81 5.81 0 00-.52-1.5 5.28 5.28 0 00-1.02-1.31z" fill="#ff5b0b"/>
    <path d="M368 307.78a4 4 0 00-.38-.35 4.21 4.21 0 00-.4-.28 2.73 2.73 0 00-.41-.22 3.25 3.25 0 00-.4-.15v.73a2.28 2.28 0 01.28.13l.28.17.27.21a3 3 0 01.26.24 4.53 4.53 0 01.8 1.13 5.1 5.1 0 01.46 1.29 4.51 4.51 0 01.08 1.31 3 3 0 01-.33 1.13 1.92 1.92 0 01-.27.39 1.35 1.35 0 01-.32.27 1.3 1.3 0 01-.38.17 1.42 1.42 0 01-.42.06 1.74 1.74 0 01-.45-.06 3 3 0 01-.47-.17 3.79 3.79 0 01-.45-.29 3.86 3.86 0 01-.44-.38 3.68 3.68 0 01-.57-.73 5.34 5.34 0 01-.43-.82 5.86 5.86 0 01-.26-.88 4.56 4.56 0 01-.09-.89l-.18-.06-.17-.06-.17-.06-.17-.07a4.84 4.84 0 00.06 1.07 5.74 5.74 0 00.29 1.08 5.58 5.58 0 00.5 1 5.43 5.43 0 00.69.89 4.18 4.18 0 00.56.49 3.5 3.5 0 00.58.34 2.47 2.47 0 00.59.21 2.36 2.36 0 00.58.07 1.91 1.91 0 00.59-.08 2.16 2.16 0 001-.62 3.11 3.11 0 00.39-.54 3.73 3.73 0 00.41-1.35 5.22 5.22 0 00-.08-1.52 5.81 5.81 0 00-.52-1.5 5.28 5.28 0 00-.91-1.3z" fill="#ff0061"/>
    <path fill="#3b009b" opacity=".05" d="M383.73 309.86l-5.35-1.95-5.35-1.95-5.35-1.95-5.36-1.95v-3.21l5.36 1.95 5.35 1.95 5.35 1.95 5.35 1.94v3.22zM383.73 305.04l-5.35-1.95-5.35-1.95-5.35-1.95-5.36-1.95v-3.21l5.36 1.95 5.35 1.95 5.35 1.95 5.35 1.94v3.22zM392.84 313.17l-1.89-.68-1.88-.69-1.88-.68-1.88-.69v-3.21l1.88.68 1.88.69 1.88.68 1.89.69v3.21z"/>
    <path d="M329.19 306.12l-8.39-3.05-8.39-3.07-8.41-3-8.39-3.06H295.03l-1.34.49-1.34.48-1.33.49-1.34.49.57.61.56.62.56.61.57.62v20.56a1.82 1.82 0 00.08.52 1.65 1.65 0 00.23.46 1.67 1.67 0 00.82.63l7.2 2.62 7.2 2.62 7.2 2.62 7.2 2.62.63.69.63.69.63.7.64.69 1.33-.49 1.34-.49 1.34-.48 1.34-.49a.61.61 0 00.22-.13.77.77 0 00.18-.18.84.84 0 00.12-.23 1.1 1.1 0 000-.27v-23.27a1.89 1.89 0 00-.08-.53 2 2 0 00-.23-.46 1.67 1.67 0 00-.82-.63z" fill="#fff"/>
    <g clip-path="url(#j)">
      <path d="M330.32 331v-23.26a2.28 2.28 0 000-.26 1.05 1.05 0 00-.06-.24.92.92 0 00-.09-.23.94.94 0 00-.12-.22l-1.71.63-1.71.62-1.72.62-1.71.63-1.2 5.12-1.13 5.13-1.14 5.12-1.13 5.12.81.3.81.29.81.3.82.29.63.69.63.69.63.7.64.69 1.33-.49 1.34-.49 1.34-.48 1.34-.49a.61.61 0 00.22-.13.77.77 0 00.18-.18.84.84 0 00.12-.23 1.1 1.1 0 00.07-.24z" fill="#3b009b" opacity=".05"/>
    </g>
    <path d="M329.19 306.12l-8.39-3.05-8.39-3.07-8.41-3-8.39-3.06H295.03h0l-1.34.49-1.34.48-1.33.49-1.34.49.57.61.56.62.56.61.57.62v20.56a1.82 1.82 0 00.08.52 1.65 1.65 0 00.23.46 1.67 1.67 0 00.82.63l7.2 2.62 7.2 2.62 7.2 2.62 7.2 2.62.63.69.63.69.63.7.64.69 1.33-.49 1.34-.49 1.34-.48 1.34-.49h0a.61.61 0 00.22-.13.77.77 0 00.18-.18.84.84 0 00.12-.23 1.1 1.1 0 000-.27v-23.27a1.89 1.89 0 00-.08-.53 2 2 0 00-.23-.46 1.67 1.67 0 00-.82-.63z" fill="none" stroke="#3b009b" stroke-linejoin="round" stroke-width="2"/>
    <path fill="#f1eaff" stroke="#3b009b" stroke-linecap="round" stroke-linejoin="round" stroke-width="2" d="M305.83 331.34l1.82-.66 1.81-.66 1.82-.66 1.82-.67-1.51-.74-1.51-.74-1.52-.74-1.51-.74-.3 1.4-.31 1.41-.31 1.4-.3 1.4z"/>
    <path d="M290.26 321.51l3.26 1.19 3.26 1.19 3.26 1.18 3.26 1.19.63 1.27.63 1.27.63 1.27.64 1.27.62-.81.61-.82.62-.82.62-.81 3.88 1.41 3.88 1.41 3.88 1.42 3.88 1.41a.86.86 0 00.42 0 .85.85 0 00.37-.15.73.73 0 00.26-.29.81.81 0 00.11-.41v-23.2a1.5 1.5 0 00-.09-.52 1.71 1.71 0 00-.23-.47 1.53 1.53 0 00-.35-.37 2 2 0 00-.47-.26l-8.39-3.06-8.39-3-8.39-3.06-8.39-3a.84.84 0 00-.41 0 .75.75 0 00-.37.14.86.86 0 00-.27.3.92.92 0 00-.1.41v23.11a1.82 1.82 0 00.08.52 1.53 1.53 0 00.23.46 1.85 1.85 0 00.36.38 1.69 1.69 0 00.46.25z" fill="#fff" stroke="#3b009b" stroke-linejoin="round" stroke-width="2"/>
    <path d="M316.46 327.56a5.77 5.77 0 01-.93-1.31 5.94 5.94 0 01-.52-1.5 4.9 4.9 0 01-.07-1.52 3.54 3.54 0 01.4-1.35 2.4 2.4 0 01.84-.91 2.11 2.11 0 011.09-.33 2.67 2.67 0 011.2.25 4.13 4.13 0 011.18.85 5.47 5.47 0 01.93 1.31 5.94 5.94 0 01.52 1.5 5.24 5.24 0 01.08 1.52 3.73 3.73 0 01-.41 1.35 2.46 2.46 0 01-.83.91 2.11 2.11 0 01-1.09.33 2.69 2.69 0 01-1.21-.25 4.27 4.27 0 01-1.18-.85z" fill="#3b009b" opacity=".05"/>
    <path d="M319.65 321.74l-.38-.35a4.85 4.85 0 00-.4-.28l-.41-.22a3.25 3.25 0 00-.4-.15v.73l.28.13.28.17c.09.07.18.13.27.21a3.07 3.07 0 01.26.25 4.48 4.48 0 01.8 1.12 5 5 0 01.46 1.3 4.42 4.42 0 01.08 1.3 3 3 0 01-.33 1.14 2.16 2.16 0 01-.27.38 1.69 1.69 0 01-.32.28 1.28 1.28 0 01-.38.16 1.42 1.42 0 01-.42.06 1.74 1.74 0 01-.45-.06 2.22 2.22 0 01-.47-.17 3.68 3.68 0 01-.45-.28 4 4 0 01-.44-.39 4.48 4.48 0 01-.8-1.12 5.17 5.17 0 01-.46-1.3 4.42 4.42 0 01-.08-1.3 3 3 0 01.33-1.14l.15-.23a1 1 0 01.16-.19 1.54 1.54 0 01.19-.17 1.32 1.32 0 01.2-.12l-.07-.16-.07-.16-.07-.16-.08-.15-.29.17-.27.23a1.61 1.61 0 00-.24.28 2.7 2.7 0 00-.22.33 3.54 3.54 0 00-.4 1.35 4.9 4.9 0 00.07 1.52 5.94 5.94 0 00.52 1.5 5.77 5.77 0 00.93 1.31 4.92 4.92 0 00.56.48 3.27 3.27 0 00.59.35 3.38 3.38 0 00.58.21 2.93 2.93 0 00.58.06 2.27 2.27 0 00.59-.07 2.3 2.3 0 001-.63 2.5 2.5 0 00.39-.54 3.73 3.73 0 00.41-1.35 5.24 5.24 0 00-.08-1.52 5.94 5.94 0 00-.52-1.5 5.47 5.47 0 00-.91-1.31z" fill="#ff005e"/>
    <path d="M293.88 319.34A5.55 5.55 0 01293 318a5.94 5.94 0 01-.52-1.5 4.9 4.9 0 01-.07-1.52 3.54 3.54 0 01.4-1.35 2.4 2.4 0 01.84-.91 2.11 2.11 0 011.09-.33 2.66 2.66 0 011.2.26 3.67 3.67 0 011.18.85 5 5 0 01.93 1.3 5.52 5.52 0 01.52 1.51 5.15 5.15 0 01.08 1.51 3.73 3.73 0 01-.41 1.35 2.57 2.57 0 01-.83.92 2.32 2.32 0 01-1.09.33 2.84 2.84 0 01-1.21-.26 4.27 4.27 0 01-1.23-.82zM305.17 323.45a5.77 5.77 0 01-.93-1.31 5.94 5.94 0 01-.52-1.5 4.9 4.9 0 01-.07-1.52 3.54 3.54 0 01.4-1.35 2.4 2.4 0 01.84-.91 2.11 2.11 0 011.09-.33 2.64 2.64 0 011.2.25 4.13 4.13 0 011.18.85 5.21 5.21 0 01.93 1.31 5.57 5.57 0 01.52 1.5 5.24 5.24 0 01.08 1.52 3.73 3.73 0 01-.41 1.35 2.46 2.46 0 01-.83.91 2.11 2.11 0 01-1.09.33 2.69 2.69 0 01-1.21-.25 4.27 4.27 0 01-1.18-.85z" fill="#3b009b" opacity=".05"/>
    <path d="M308.36 317.63l-.38-.35a4.85 4.85 0 00-.4-.28 3.17 3.17 0 00-.41-.21 2.23 2.23 0 00-.4-.16v.73l.28.13.28.17.27.21.27.25a4.71 4.71 0 01.79 1.12 5 5 0 01.46 1.3 4.42 4.42 0 01.08 1.3 3 3 0 01-.33 1.14 2.16 2.16 0 01-.27.38 1.43 1.43 0 01-.32.28 1.76 1.76 0 01-.37.17 2 2 0 01-.43.05 1.47 1.47 0 01-.36 0 1.73 1.73 0 01-.37-.11 3.14 3.14 0 01-.37-.18 3.9 3.9 0 01-.36-.25v.18l-.05.18v.18l-.05.17a2.5 2.5 0 00.41.25 2.47 2.47 0 00.42.17 2.28 2.28 0 00.41.11 3 3 0 00.41 0 2.27 2.27 0 00.59-.08 1.86 1.86 0 00.54-.24 2 2 0 00.48-.39 2.2 2.2 0 00.39-.54 3.73 3.73 0 00.41-1.35 5.24 5.24 0 00-.08-1.52 5.57 5.57 0 00-.52-1.5 5.21 5.21 0 00-1.02-1.31z" fill="#ff5b0b"/>
    <path d="M297.07 313.53a4.27 4.27 0 00-.38-.36l-.4-.28a3.17 3.17 0 00-.41-.21 3.25 3.25 0 00-.4-.15v.72l.28.13.28.17.27.21.27.25a4.92 4.92 0 01.79 1.12 4.81 4.81 0 01.46 1.3 4.42 4.42 0 01.08 1.3 3 3 0 01-.33 1.14 2.16 2.16 0 01-.27.38 1.43 1.43 0 01-.32.28 1.76 1.76 0 01-.37.17 2 2 0 01-.43.05 1.74 1.74 0 01-.45-.06 1.78 1.78 0 01-.47-.17 3.68 3.68 0 01-.45-.28 3.16 3.16 0 01-.44-.39 3.92 3.92 0 01-.57-.72 4.31 4.31 0 01-.42-.83 4.7 4.7 0 01-.27-.88 4.38 4.38 0 01-.09-.88l-.17-.06-.18-.07-.17-.06-.17-.06a4.84 4.84 0 00.06 1.07 5.85 5.85 0 00.29 1.07 5.36 5.36 0 00.5 1 5.43 5.43 0 00.69.89 4.92 4.92 0 00.56.48 3.65 3.65 0 00.59.35 3.19 3.19 0 00.59.21 2.78 2.78 0 00.57.07 2.27 2.27 0 00.59-.08 2 2 0 00.55-.24 2.12 2.12 0 00.47-.38 2.47 2.47 0 00.39-.55 3.73 3.73 0 00.41-1.35 5.15 5.15 0 00-.08-1.51 5.52 5.52 0 00-.52-1.51 5 5 0 00-.93-1.28z" fill="#ff0061"/>
    <path fill="#3b009b" opacity=".05" d="M312.82 315.6l-5.36-1.95-5.35-1.95-5.35-1.94-5.36-1.95v-3.21l5.36 1.95 5.35 1.94 5.35 1.95 5.36 1.95v3.21zM312.82 310.78l-5.36-1.95-5.35-1.94-5.35-1.95-5.36-1.95v-3.21l5.36 1.95 5.35 1.94 5.35 1.95 5.36 1.95v3.21zM321.92 318.92l-1.88-.69-1.89-.68-1.88-.69-1.88-.68v-3.22l1.88.69 1.88.68 1.89.69 1.88.68v3.22z"/>
    <path d="M341.39 329.78l-8.39-3-8.39-3.06-8.39-3.05-8.39-3.05a.42.42 0 00-.15 0H307.26l-1.33.49-1.34.48-1.34.49-1.33.49.56.61.57.62.56.61.56.62v20.56a1.79 1.79 0 00.32 1 1.58 1.58 0 00.35.38 1.63 1.63 0 00.47.25l7.2 2.62 7.19 2.62 7.2 2.62 7.2 2.62.63.69.64.7.63.69.63.69 1.34-.49 1.34-.49 1.33-.48 1.34-.49a.94.94 0 00.22-.12 1.07 1.07 0 00.18-.19.82.82 0 00.11-.23.75.75 0 000-.26V331.4a1.59 1.59 0 00-.08-.53 1.65 1.65 0 00-.23-.46 1.76 1.76 0 00-.35-.37 1.66 1.66 0 00-.44-.26z" fill="#fff"/>
    <g clip-path="url(#k)">
      <path d="M342.52 354.64V331.4a1.14 1.14 0 000-.26 2 2 0 00-.05-.24l-.09-.23-.12-.22-1.71.63-1.72.62-1.71.63-1.72.62-1.13 5.12-1.14 5.13-1.13 5.12-1.13 5.12.81.3.81.29.81.3.81.29.63.69.64.7.63.69.63.69 1.34-.49 1.34-.49 1.33-.48 1.34-.49a.94.94 0 00.22-.12 1.07 1.07 0 00.18-.19.82.82 0 00.11-.23.75.75 0 00.02-.26z" fill="#3b009b" opacity=".05"/>
    </g>
    <path d="M341.39 329.78l-8.39-3-8.39-3.06-8.39-3.05-8.39-3.05a.42.42 0 00-.15 0H307.26h0l-1.33.49-1.34.48-1.34.49-1.33.49.56.61.57.62.56.61.56.62v20.56a1.79 1.79 0 00.32 1 1.58 1.58 0 00.35.38 1.63 1.63 0 00.47.25l7.2 2.62 7.19 2.62 7.2 2.62 7.2 2.62.63.69.64.7.63.69.63.69 1.34-.49 1.34-.49 1.33-.48 1.34-.49h0a.94.94 0 00.22-.12 1.07 1.07 0 00.18-.19.82.82 0 00.11-.23.75.75 0 000-.26V331.4a1.59 1.59 0 00-.08-.53 1.65 1.65 0 00-.23-.46 1.76 1.76 0 00-.35-.37 1.66 1.66 0 00-.44-.26z" fill="none" stroke="#3b009b" stroke-linejoin="round" stroke-width="2"/>
    <path fill="#f1eaff" stroke="#3b009b" stroke-linecap="round" stroke-linejoin="round" stroke-width="2" d="M318.03 355l1.82-.66 1.82-.66 1.82-.67 1.82-.66-1.52-.74-1.51-.74-1.51-.74-1.51-.74-.31 1.41-.31 1.4-.3 1.4-.31 1.4z"/>
    <path d="M302.47 345.17l3.26 1.19 3.25 1.19 3.26 1.18 3.26 1.19.63 1.27.64 1.27.63 1.27.6 1.27.62-.81.62-.82.62-.81.62-.82 3.88 1.41 3.88 1.41 3.88 1.42 3.88 1.41a.84.84 0 00.41 0 .85.85 0 00.64-.44.92.92 0 00.1-.41v-23.2a1.82 1.82 0 00-.08-.52 1.71 1.71 0 00-.23-.47 1.8 1.8 0 00-.36-.37 1.89 1.89 0 00-.46-.26l-8.39-3.05-8.39-3.05-8.39-3.06-8.39-3.05a.86.86 0 00-.42 0 1 1 0 00-.37.14.83.83 0 00-.26.3.81.81 0 00-.11.41v23.24a1.82 1.82 0 00.08.52 2.2 2.2 0 00.23.46 1.64 1.64 0 00.83.63z" fill="#fff" stroke="#3b009b" stroke-linejoin="round" stroke-width="2"/>
    <path d="M328.67 351.22a5.21 5.21 0 01-.93-1.31 5.57 5.57 0 01-.52-1.5 5.24 5.24 0 01-.08-1.52 3.73 3.73 0 01.41-1.35 2.38 2.38 0 01.83-.91 2.11 2.11 0 011.09-.33 2.62 2.62 0 011.2.25 4.17 4.17 0 011.19.85 5.77 5.77 0 01.93 1.31 5.94 5.94 0 01.52 1.5 4.9 4.9 0 01.07 1.52 3.55 3.55 0 01-.41 1.35 2.38 2.38 0 01-.83.91 2.11 2.11 0 01-1.09.33 2.62 2.62 0 01-1.2-.25 4 4 0 01-1.18-.85z" fill="#3b009b" opacity=".05"/>
    <path d="M331.86 345.4l-.39-.35a3.6 3.6 0 00-.4-.28l-.4-.22a3.39 3.39 0 00-.41-.15v.73l.28.13a2.61 2.61 0 01.28.17l.28.21.26.25a4.48 4.48 0 01.8 1.12 5.44 5.44 0 01.46 1.3 4.42 4.42 0 01.08 1.3 3 3 0 01-.33 1.14 2.16 2.16 0 01-.27.38 2.07 2.07 0 01-.32.28 1.39 1.39 0 01-.8.22 1.88 1.88 0 01-.46-.06 2.14 2.14 0 01-.46-.17 3.14 3.14 0 01-.46-.28 3.85 3.85 0 01-.44-.39 4.44 4.44 0 01-.79-1.12 4.69 4.69 0 01-.46-1.3 4.42 4.42 0 01-.08-1.3 2.85 2.85 0 01.33-1.14 1.76 1.76 0 01.14-.23l.17-.19.18-.17a2.12 2.12 0 01.2-.12l-.07-.16-.07-.16-.07-.16-.07-.15-.29.17a2 2 0 00-.27.23 3.33 3.33 0 00-.25.28 2.66 2.66 0 00-.21.33 3.73 3.73 0 00-.41 1.35 5.24 5.24 0 00.08 1.52 5.57 5.57 0 00.52 1.5 5.21 5.21 0 00.93 1.31 4.92 4.92 0 00.56.48 3.2 3.2 0 00.58.35 3.48 3.48 0 00.59.21 3 3 0 00.58.07 2.33 2.33 0 00.59-.08 1.86 1.86 0 00.54-.24 2.16 2.16 0 00.48-.39 2.47 2.47 0 00.38-.54 3.55 3.55 0 00.41-1.35 4.9 4.9 0 00-.07-1.52 5.94 5.94 0 00-.52-1.5 5.77 5.77 0 00-.93-1.31z" fill="#ff005e"/>
    <path d="M306.09 343a5 5 0 01-.93-1.31 5.57 5.57 0 01-.52-1.5 5.24 5.24 0 01-.08-1.52 3.73 3.73 0 01.41-1.35 2.54 2.54 0 01.83-.91 2.11 2.11 0 011.09-.33 2.7 2.7 0 011.21.26 3.89 3.89 0 011.18.85 5.5 5.5 0 01.93 1.3 5.87 5.87 0 01.52 1.51 4.84 4.84 0 01.07 1.51 3.54 3.54 0 01-.4 1.35 2.51 2.51 0 01-.84.92 2.32 2.32 0 01-1.09.33 2.8 2.8 0 01-1.2-.26 4 4 0 01-1.18-.85zM317.38 347.11a5 5 0 01-.93-1.31 5.57 5.57 0 01-.52-1.5 5.24 5.24 0 01-.08-1.52 3.73 3.73 0 01.41-1.35 2.46 2.46 0 01.83-.91 2.11 2.11 0 011.09-.33 2.69 2.69 0 011.21.25 4.27 4.27 0 011.18.85 5.77 5.77 0 01.93 1.31 5.87 5.87 0 01.52 1.51 4.82 4.82 0 01.07 1.51 3.54 3.54 0 01-.4 1.35 2.51 2.51 0 01-.84.92 2.32 2.32 0 01-1.09.33 2.77 2.77 0 01-1.2-.26 4 4 0 01-1.18-.85z" fill="#3b009b" opacity=".05"/>
    <path d="M320.57 341.29l-.39-.35-.4-.28a3 3 0 00-.4-.21 1.7 1.7 0 00-.41-.15v.7l.28.13a2.61 2.61 0 01.28.17l.28.21.26.25a4.67 4.67 0 01.8 1.12 5.6 5.6 0 01.46 1.3 4.42 4.42 0 01.08 1.3 3 3 0 01-.33 1.14 2.16 2.16 0 01-.27.38 2.07 2.07 0 01-.32.28 1.39 1.39 0 01-.8.22h-.36a2.29 2.29 0 01-.37-.12 2.53 2.53 0 01-.37-.18 3.9 3.9 0 01-.36-.25l-.05.18-.05.18-.05.18-.05.18.42.24a3.65 3.65 0 00.41.18 3.2 3.2 0 00.42.1 3 3 0 00.41 0 2.33 2.33 0 00.59-.08 1.86 1.86 0 00.54-.24 2.43 2.43 0 00.48-.38 3.35 3.35 0 00.39-.55 3.54 3.54 0 00.4-1.35 4.82 4.82 0 00-.07-1.51 5.87 5.87 0 00-.52-1.51 5.77 5.77 0 00-.93-1.28z" fill="#ff5b0b"/>
    <path d="M309.28 337.19a4.1 4.1 0 00-.39-.35c-.13-.11-.26-.2-.39-.29a4 4 0 00-.41-.21 3.39 3.39 0 00-.41-.15v.72l.28.13a2.61 2.61 0 01.28.17l.28.21.26.25a4.67 4.67 0 01.8 1.12 5.17 5.17 0 01.46 1.3 4.44 4.44 0 01.08 1.3 3 3 0 01-.33 1.14 2.16 2.16 0 01-.27.38 2.07 2.07 0 01-.32.28 1.84 1.84 0 01-.38.17 1.42 1.42 0 01-.42.05 2.49 2.49 0 01-.46-.05 2.19 2.19 0 01-.46-.18 2.83 2.83 0 01-.46-.28 3.85 3.85 0 01-.44-.39 4.52 4.52 0 01-.57-.72 5.87 5.87 0 01-.42-.83 5.18 5.18 0 01-.36-1.76l-.17-.06-.17-.06-.17-.07-.18-.06a5.55 5.55 0 00.07 1.07 6.18 6.18 0 00.29 1.08 5.26 5.26 0 001.19 1.9 4.08 4.08 0 00.56.48 3.58 3.58 0 00.58.35 3.81 3.81 0 00.59.21 3 3 0 00.58.07 2.33 2.33 0 00.6-.11 2.14 2.14 0 00.54-.23 2.93 2.93 0 00.48-.39 3.35 3.35 0 00.39-.55 3.54 3.54 0 00.4-1.35 4.84 4.84 0 00-.07-1.51 5.87 5.87 0 00-.52-1.51 5.5 5.5 0 00-.94-1.27z" fill="#ff0061"/>
    <path fill="#3b009b" opacity=".05" d="M325.02 339.26l-5.35-1.95-5.35-1.94-5.36-1.95-5.35-1.95v-3.21l5.35 1.94 5.36 1.95 5.35 1.95 5.35 1.95v3.21zM325.02 334.44l-5.35-1.95-5.35-1.94-5.36-1.95-5.35-1.95v-3.21l5.35 1.95 5.36 1.94 5.35 1.95 5.35 1.95v3.21zM334.12 342.58l-1.88-.69-1.88-.68-1.88-.69-1.88-.68v-3.22l1.88.69 1.88.68 1.88.69 1.88.68v3.22z"/>
  </g>
</svg>