<svg width="532" height="360" xmlns="http://www.w3.org/2000/svg" data-name="Layer 1">

 <g>
  <title>Layer 1</title>
  <path id="svg_1" isolation="isolate" opacity="0.15" fill="#6300ff" d="m133.31,244.47l108.34,-39.43a1,1 0 0 0 0,-1.88l-108.34,-39.43a5,5 0 0 0 -3.42,0l-108.34,39.43a1,1 0 0 0 0,1.88l108.34,39.43a5,5 0 0 0 3.42,0z" class="cls-1"/>
  <path id="svg_2" opacity="0.95" fill="#fff" isolation="isolate" d="m132.63,225.06l112.63,-40.99l-112.63,-41l-112.63,41l112.63,40.99z" class="cls-2"/>
  <path id="svg_3" d="m132.63,225.06l112.63,-40.99l-112.63,-41l-112.63,41l112.63,40.99z" fill="none" stroke="#6300ff" stroke-linejoin="round" stroke-width="2"/>
  <path id="svg_4" opacity="0.95" fill="#fff" isolation="isolate" d="m132.63,192.04l112.63,-40.99l-112.63,-41l-112.63,41l112.63,40.99z" class="cls-2"/>
  <path id="svg_5" d="m132.63,192.04l112.63,-40.99l-112.63,-41l-112.63,41l112.63,40.99z" fill="none" stroke-linejoin="round" stroke-width="2" stroke="#9000de"/>
  <path id="svg_6" opacity="0.95" fill="#fff" isolation="isolate" d="m132.63,159.02l112.63,-40.99l-112.63,-40.99l-112.63,40.99l112.63,40.99z" class="cls-2"/>
  <path id="svg_7" d="m132.63,159.02l112.63,-40.99l-112.63,-40.99l-112.63,40.99l112.63,40.99z" fill="none" stroke-linejoin="round" stroke-width="2" stroke="#c200b5"/>
  <path id="svg_8" opacity="0.95" fill="#fff" isolation="isolate" d="m132.63,126l112.63,-40.99l-112.63,-40.99l-112.63,40.99l112.63,40.99z" class="cls-2"/>
  <path id="svg_9" d="m132.63,126l112.63,-40.99l-112.63,-40.99l-112.63,40.99l112.63,40.99z" fill="none" stroke-linejoin="round" stroke-width="2" stroke="#f7008a"/>
  <path id="svg_10" stroke-dasharray="2 2" stroke="#2e1091" stroke-linejoin="round" fill="none" d="m182.44,108.52l83.91,30.54m-83.91,2.48l83.91,30.54m-83.91,2.48l83.91,30.54m-83.91,2.48l83.91,30.54" class="cls-7"/>
  <path id="svg_11" opacity="0.95" fill="#fff" isolation="isolate" d="m132.63,92.98l112.63,-40.99l-112.63,-40.99l-112.63,40.99l112.63,40.99z" class="cls-2"/>
  <path id="svg_12" stroke-dasharray="2 2" stroke="#2e1091" stroke-linejoin="round" fill="none" d="m181.28,75.71l85.07,30.96" class="cls-7"/>
  <path id="svg_13" d="m132.63,92.98l112.63,-40.99l-112.63,-40.99l-112.63,40.99l112.63,40.99z" fill="none" stroke-linejoin="round" stroke-width="2" stroke="#ff005e"/>
  <path id="svg_14" isolation="isolate" opacity="0.15" fill="#6300ff" d="m273.91,262.19l-11.77,4.28a0.72,0.72 0 0 0 -0.42,0.91a0.72,0.72 0 0 0 0.42,0.42l242.64,88.31a2.79,2.79 0 0 0 1.93,0l11.77,-4.29a0.72,0.72 0 0 0 0.42,-0.91a0.72,0.72 0 0 0 -0.42,-0.42l-242.64,-88.3a2.9,2.9 0 0 0 -1.93,0z" class="cls-1"/>
  <path id="svg_15" fill="#fff" stroke-linejoin="round" stroke-width="2" stroke="#3b009b" d="m515.65,167.67l-239.69,-87.22a2,2 0 0 0 -1.46,0l0,0l-10.54,3.83l242.49,261.92l10.57,-3.85l0,0a2.07,2.07 0 0 0 1.31,-1.93l0,-168.83a4.17,4.17 0 0 0 -2.68,-3.92z"/>
  <path id="svg_16" opacity="0.05" fill="#3b009b" d="m506.98,173l-4.25,169.33l3.72,3.87l10.57,-3.85a2.07,2.07 0 0 0 1.31,-1.93l0,-168.83a4.12,4.12 0 0 0 -0.8,-2.44l-10.55,3.85z"/>
  <path id="svg_17" fill="#fff" d="m265.33,259l239.65,87.22a2.09,2.09 0 0 0 2.67,-1.24a2.2,2.2 0 0 0 0.12,-0.76l0,-168.78a4.17,4.17 0 0 0 -2.74,-3.92l-239.65,-87.23a2.09,2.09 0 0 0 -2.67,1.24a2.2,2.2 0 0 0 -0.12,0.76l0,168.79a4.17,4.17 0 0 0 2.74,3.92z"/>
  <path id="svg_18" fill="none" stroke-linejoin="round" stroke-width="2" stroke="#3b009b" d="m265.33,259l239.65,87.22a2.09,2.09 0 0 0 2.67,-1.24a2.2,2.2 0 0 0 0.12,-0.76l0,-168.78a4.17,4.17 0 0 0 -2.74,-3.92l-239.65,-87.23a2.09,2.09 0 0 0 -2.67,1.24a2.2,2.2 0 0 0 -0.12,0.76l0,168.79a4.17,4.17 0 0 0 2.74,3.92z"/>
  <g id="svg_19" isolation="isolate" class="cls-13">
   <path id="svg_20" fill="#ff005e" d="m295.31,123.47l0,-11l6.24,2.35l0,1.7l-4.39,-1.7l0,2.87l4.24,1.55l0,1.7l-4.24,-1.55l0,3l4.39,1.61l0,1.7l-6.24,-2.23zm10.97,4.03l-2.7,-12l2,0.75l1.23,6l0.72,3.73l0.1,0l0.74,-3.2l1.25,-5.1l1.94,0.71l-2.71,10l-2.57,-0.89zm7.44,2.72l0,-11l6.25,2.29l0,1.7l-4.39,-1.61l0,2.87l4.23,1.55l0,1.7l-4.23,-1.55l0,3l4.39,1.61l0,1.7l-6.25,-2.26zm10.71,-3.96l-0.14,-0.05l0,7.89l-1.59,-0.58l0,-11l2.28,0.83l2.6,8.84l0.14,0.05l0,-7.89l1.59,0.59l0,11l-2.29,-0.84l-2.59,-8.84zm11.7,2.89l0,9.29l-1.84,-0.68l0,-9.29l-3,-1.09l0,-1.7l7.8,2.86l0,1.7l-2.96,-1.09zm4.52,9.36l1.12,-0.88a5.2,5.2 0 0 0 2.58,2.33c1.14,0.42 1.76,0.05 1.76,-1c0,-0.86 -0.41,-1.44 -1.49,-2l-1.05,-0.58a4.47,4.47 0 0 1 -2.53,-4c0,-2.09 1.31,-2.78 3.47,-2a6.33,6.33 0 0 1 3.36,2.76l-1.09,0.9a4.38,4.38 0 0 0 -2.26,-2c-1.06,-0.39 -1.61,-0.09 -1.61,0.88s0.41,1.4 1.5,2l1,0.59a4.5,4.5 0 0 1 2.54,4c0,2 -1.29,3 -3.68,2.13a6.84,6.84 0 0 1 -3.62,-3.13z" class="cls-14"/>
  </g>
  <g id="svg_21" isolation="isolate" class="cls-13">
   <path id="svg_22" fill="#f7008a" d="m297.12,156.6l-1.86,-0.69l0,-11l3.76,1.38a4.54,4.54 0 0 1 3,4.49c0,1.61 -0.71,2.53 -1.94,2.38l2.11,5.27l-2,-0.74l-1.88,-5l-1.12,-0.41l-0.07,4.32zm1.52,-5.32c1,0.36 1.4,0.07 1.4,-0.91l0,-0.55a1.86,1.86 0 0 0 -1.39,-2l-1.52,-0.55l0,3.43l1.51,0.58zm11.06,9.93l-0.7,-3l-2.93,-1.08l-0.68,2.54l-1.87,-0.69l2.78,-10l2.58,0.95l2.79,12l-1.97,-0.72zm-2.1,-9.73l-0.11,0l-1.09,4.09l2.29,0.84l-1.09,-4.93zm7.62,3.86l-0.14,-0.05l0,7.89l-1.59,-0.58l0,-11l2.28,0.83l2.6,8.84l0.14,0.06l0,-7.89l1.59,0.58l0,11l-2.28,-0.84l-2.6,-8.84zm10.43,6.91l-1,1.13l0,3.31l-1.85,-0.68l0,-11l1.85,0.68l0,4.94l0.09,0l1.15,-1.4l2.08,-2.36l2.1,0.77l-3.11,3.49l3.25,7.55l-2.1,-0.76l-2.46,-5.67zm6.42,7.16l0,-1.54l2.22,0.81l0,-7.86l-2.22,-0.82l0,-1.58l6.29,2.3l0,1.55l-2.23,-0.82l0,7.91l2.23,0.81l0,1.55l-6.29,-2.31zm10.78,-3.94l-0.15,-0.05l0,7.89l-1.58,-0.58l0,-11l2.28,0.83l2.59,8.84l0.14,0.06l0,-7.89l1.59,0.58l0,11l-2.28,-0.84l-2.59,-8.84zm12.49,10.95l-0.11,0a1.56,1.56 0 0 1 -2.23,0.91c-2,-0.74 -3,-3.18 -3,-6.73c0,-3.73 1.19,-5.32 3.7,-4.4a5.3,5.3 0 0 1 3.34,4.17l-1.7,-0.09a3,3 0 0 0 -1.69,-2.46c-1.23,-0.45 -1.71,0.54 -1.71,2.43l0,1.77c0,1.9 0.45,3.36 1.8,3.85c1,0.39 1.61,-0.19 1.61,-1.28l0,-0.9l-1.8,-0.66l0,-1.49l3.46,1.26l0,5.75l-1.66,-0.61l-0.01,-1.52z" class="cls-15"/>
  </g>
  <g id="svg_23" isolation="isolate" class="cls-13">
   <path id="svg_24" fill="#c200b5" d="m298.05,184.61l-1,1.13l0,3.31l-1.86,-0.68l0,-11l1.86,0.68l0,4.94l0.09,0l1.14,-1.4l2.08,-2.36l2.1,0.77l-3.1,3.49l3.24,7.56l-2.09,-0.77l-2.46,-5.67zm7.97,-0.15l-0.15,0l0,7.89l-1.58,-0.59l0,-11l2.28,0.84l2.59,8.84l0.14,0l0,-7.89l1.59,0.58l0,11l-2.28,-0.84l-2.59,-8.83zm7.03,4.97c0,-3.59 1.17,-5.26 3.75,-4.31s3.74,3.47 3.74,7.06s-1.17,5.26 -3.74,4.31s-3.75,-3.47 -3.75,-7.06zm5.52,2.95l0,-1.87c0,-1.89 -0.46,-3.22 -1.77,-3.71s-1.78,0.52 -1.78,2.41l0,1.89c0,1.89 0.46,3.22 1.78,3.7s1.77,-0.51 1.77,-2.42zm4.08,6.08l-0.66,-11.24l1.6,0.59l0.31,6.44l0.13,2.66l0.13,0l1,-6l1.73,0.64l1,6.77l0.13,0.05l0.12,-2.57l0.31,-6.22l1.55,0.57l-0.67,10.75l-2.39,-0.88l-0.88,-6.54l-0.11,0l-0.88,5.89l-2.42,-0.91zm9.73,3.55l0,-11l1.85,0.68l0,9.29l4.38,1.61l0,1.7l-6.23,-2.28zm8.97,3.29l0,-11l6.24,2.29l0,1.7l-4.39,-1.61l0,2.87l4.24,1.55l0,1.72l-4.24,-1.55l0,3l4.39,1.61l0,1.7l-6.24,-2.28zm9.06,-7.67l3.07,1.13c2.57,0.94 3.82,3.34 3.82,6.89s-1.25,5 -3.82,4.1l-3.07,-1.12l0,-11zm2.95,10.42c1.36,0.5 2,-0.29 2,-2.16l0,-1.91c0,-1.86 -0.64,-3.11 -2,-3.61l-1.12,-0.41l0,7.68l1.12,0.41zm11.19,4.23l-0.11,0a1.56,1.56 0 0 1 -2.23,0.9c-2,-0.73 -3,-3.18 -3,-6.72c0,-3.73 1.19,-5.33 3.69,-4.41a5.31,5.31 0 0 1 3.35,4.17l-1.7,-0.09a3,3 0 0 0 -1.66,-2.4c-1.23,-0.45 -1.72,0.54 -1.72,2.43l0,1.76c0,1.91 0.46,3.36 1.8,3.86c1.05,0.38 1.62,-0.2 1.62,-1.28l0,-0.9l-1.8,-0.66l0,-1.5l3.46,1.27l0,5.75l-1.7,-0.64l0,-1.54zm4.42,3.15l0,-11l6.25,2.29l0,1.7l-4.4,-1.61l0,2.87l4.24,1.55l0,1.7l-4.24,-1.55l0,3l4.4,1.61l0,1.7l-6.25,-2.26zm23.2,6.98l-0.11,0a1.55,1.55 0 0 1 -2.23,0.9c-2,-0.73 -3,-3.18 -3,-6.72c0,-3.73 1.19,-5.33 3.7,-4.41a5.31,5.31 0 0 1 3.34,4.17l-1.7,-0.09c-0.26,-1 -0.61,-2 -1.66,-2.4c-1.23,-0.45 -1.71,0.54 -1.71,2.43l0,1.76c0,1.91 0.45,3.36 1.8,3.86c1,0.38 1.61,-0.2 1.61,-1.29l0,-0.89l-1.8,-0.66l0,-1.5l3.46,1.27l0,5.75l-1.66,-0.61l-0.04,-1.57zm6.24,3.81l-1.86,-0.68l0,-11l3.75,1.38a4.53,4.53 0 0 1 3,4.49c0,1.61 -0.71,2.53 -1.94,2.38l2.11,5.27l-2,-0.74l-1.89,-5l-1.11,-0.41l-0.06,4.31zm1.51,-5.31c1,0.36 1.4,0.07 1.4,-0.91l0,-0.6a1.86,1.86 0 0 0 -1.4,-1.93l-1.51,-0.55l0,3.43l1.51,0.56zm11.06,9.91l-0.69,-3l-2.93,-1.07l-0.68,2.54l-1.87,-0.69l2.77,-10l2.58,0.94l2.79,12l-1.97,-0.72zm-2.09,-9.73l-0.12,0l-1.12,4.06l2.3,0.85l-1.06,-4.91zm6.07,11.21l0,-11l3.76,1.38a4.54,4.54 0 0 1 3,4.49c0,2.08 -1.06,3 -3,2.31l-1.9,-0.69l0,4.19l-1.86,-0.68zm1.86,-5.2l1.52,0.56c1,0.36 1.4,0.07 1.4,-0.9l0,-0.6a1.84,1.84 0 0 0 -1.4,-1.93l-1.52,-0.56l0,3.43zm11.91,5.52l-2.89,-1.06l0,4.72l-1.85,-0.68l0,-11l1.85,0.68l0,4.54l2.89,1.06l0,-4.57l1.86,0.68l0,11l-1.86,-0.69l0,-4.68z" class="cls-16"/>
  </g>
  <g id="svg_25" isolation="isolate" class="cls-13">
   <path id="svg_26" fill="#9000de" d="m295.31,221.09l0,-11l6.46,2.37l0,1.7l-4.61,-1.69l0,2.87l4.15,1.52l0,1.7l-4.15,-1.52l0,4.78l-1.85,-0.73zm9.2,3.38l0,-11l6.25,2.29l0,1.7l-4.39,-1.64l0,2.86l4.24,1.56l0,1.7l-4.24,-1.56l0,3l4.39,1.61l0,1.7l-6.25,-2.22zm14.4,5.27l-0.7,-3l-2.93,-1.07l-0.68,2.54l-1.87,-0.69l2.78,-10l2.57,0.94l2.8,12l-1.97,-0.72zm-2.1,-9.72l-0.11,-0.05l-1.05,4.09l2.29,0.84l-1.13,-4.88zm10.11,3.37l0,9.29l-1.84,-0.67l0,-9.29l-3,-1.09l0,-1.7l7.79,2.85l0,1.7l-2.95,-1.09zm6.73,0.79l0,6.85c0,1.62 0.09,2.67 1.52,3.2s1.52,-0.47 1.52,-2.09l0,-6.85l1.85,0.68l0,6.53c0,3.09 -0.55,4.44 -3.37,3.41s-3.37,-2.79 -3.37,-5.88l0,-6.54l1.85,0.69zm9.51,14.46l-1.86,-0.68l0,-11l3.76,1.38a4.54,4.54 0 0 1 3,4.49c0,1.61 -0.71,2.53 -1.94,2.38l2.11,5.28l-2,-0.75l-1.88,-5l-1.12,-0.41l-0.07,4.31zm1.49,-5.32c1,0.36 1.41,0.07 1.41,-0.9l0,-0.6a1.84,1.84 0 0 0 -1.41,-1.93l-1.51,-0.56l0,3.43l1.51,0.56zm5.9,8.03l0,-11l6.25,2.29l0,1.7l-4.39,-1.61l0,2.86l4.24,1.56l0,1.67l-4.24,-1.56l0,3l4.39,1.61l0,1.7l-6.25,-2.22zm18.42,6.75l0,-11l6.25,2.29l0,1.7l-4.4,-1.61l0,2.87l4.24,1.55l0,1.7l-4.24,-1.55l0,3l4.4,1.61l0,1.7l-6.25,-2.26zm10.68,-3.96l-0.14,-0.05l0,7.89l-1.59,-0.59l0,-11l2.28,0.84l2.59,8.84l0.14,0.05l0,-7.89l1.59,0.58l0,11l-2.28,-0.83l-2.59,-8.84zm12.52,10.94l-0.11,0a1.55,1.55 0 0 1 -2.23,0.9c-2,-0.73 -3,-3.18 -3,-6.72c0,-3.73 1.19,-5.33 3.7,-4.41a5.31,5.31 0 0 1 3.34,4.17l-1.7,-0.09c-0.26,-1 -0.61,-2 -1.66,-2.4c-1.23,-0.45 -1.71,0.54 -1.71,2.43l0,1.76c0,1.91 0.45,3.36 1.8,3.86c1,0.38 1.61,-0.2 1.61,-1.29l0,-0.89l-1.8,-0.66l0,-1.5l3.46,1.27l0,5.75l-1.66,-0.61l-0.04,-1.57zm4.35,3.12l0,-1.54l2.22,0.82l0,-7.91l-2.22,-0.82l0,-1.54l6.29,2.31l0,1.54l-2.22,-0.81l0,7.9l2.22,0.82l0,1.54l-6.29,-2.31zm10.78,-3.93l-0.14,-0.06l0,7.89l-1.59,-0.58l0,-11l2.28,0.84l2.6,8.84l0.14,0.05l0,-7.89l1.59,0.58l0,11l-2.29,-0.83l-2.59,-8.84zm7.71,10.71l0,-11l6.24,2.29l0,1.7l-4.39,-1.61l0,2.87l4.24,1.55l0,1.7l-4.24,-1.55l0,3l4.39,1.61l0,1.7l-6.24,-2.26zm9.2,3.38l0,-11l6.25,2.29l0,1.7l-4.39,-1.61l0,2.86l4.24,1.56l0,1.7l-4.24,-1.56l0,3l4.39,1.61l0,1.7l-6.25,-2.25zm11.03,4.04l-1.86,-0.68l0,-11l3.75,1.37a4.53,4.53 0 0 1 3,4.5c0,1.6 -0.71,2.52 -1.94,2.37l2.11,5.28l-2,-0.75l-1.88,-5l-1.12,-0.41l-0.06,4.32zm1.51,-5.32c1,0.36 1.4,0.07 1.4,-0.9l0,-0.6a1.84,1.84 0 0 0 -1.4,-1.93l-1.51,-0.56l0,3.44l1.51,0.55zm5.81,8l0,-1.54l2.22,0.82l0,-7.91l-2.22,-0.81l0,-1.55l6.29,2.31l0,1.54l-2.22,-0.81l0,7.9l2.22,0.82l0,1.54l-6.29,-2.31zm10.78,-3.93l-0.14,-0.05l0,7.88l-1.59,-0.58l0,-11l2.28,0.84l2.59,8.84l0.15,0.05l0,-7.89l1.58,0.58l0,11l-2.28,-0.83l-2.59,-8.84zm12.49,10.94l-0.11,0a1.54,1.54 0 0 1 -2.22,0.9c-2,-0.73 -3.05,-3.18 -3.05,-6.72c0,-3.74 1.19,-5.33 3.7,-4.41a5.29,5.29 0 0 1 3.34,4.17l-1.7,-0.09a2.94,2.94 0 0 0 -1.66,-2.4c-1.23,-0.45 -1.71,0.54 -1.71,2.43l0,1.76c0,1.9 0.45,3.36 1.8,3.86c1.05,0.38 1.61,-0.2 1.61,-1.29l0,-0.89l-1.8,-0.66l0,-1.5l3.46,1.27l0,5.75l-1.66,-0.61l0,-1.57z" class="cls-17"/>
  </g>
  <g id="svg_27" isolation="isolate" class="cls-13">
   <path id="svg_28" fill="#6300ff" d="m300.49,255.82l-0.69,-3l-2.94,-1.07l-0.68,2.53l-1.87,-0.68l2.78,-10l2.58,0.95l2.79,12l-1.97,-0.73zm-2.1,-9.73l-0.11,0l-1.09,4.09l2.29,0.84l-1.09,-4.93zm10.91,11.42l-0.11,-0.05a1.55,1.55 0 0 1 -2.23,0.9c-2,-0.73 -3,-3.17 -3,-6.72c0,-3.73 1.19,-5.32 3.7,-4.4a5.28,5.28 0 0 1 3.34,4.16l-1.7,-0.08a3,3 0 0 0 -1.66,-2.41c-1.23,-0.45 -1.71,0.54 -1.71,2.43l0,1.76c0,1.91 0.45,3.37 1.8,3.86c1,0.39 1.61,-0.19 1.61,-1.28l0,-0.86l-1.8,-0.66l0,-1.49l3.46,1.26l0,5.75l-1.66,-0.61l-0.04,-1.56zm9.21,3.37l-0.11,0a1.56,1.56 0 0 1 -2.23,0.9c-2,-0.73 -3,-3.18 -3,-6.72c0,-3.73 1.19,-5.33 3.69,-4.41a5.31,5.31 0 0 1 3.35,4.17l-1.7,-0.09c-0.26,-1 -0.61,-2 -1.66,-2.4c-1.23,-0.45 -1.71,0.54 -1.71,2.43l0,1.76c0,1.91 0.45,3.36 1.79,3.86c1.05,0.38 1.62,-0.2 1.62,-1.28l0,-0.9l-1.8,-0.66l0,-1.5l3.46,1.27l0,5.75l-1.66,-0.61l-0.04,-1.57zm6.23,3.82l-1.85,-0.69l0,-11l3.75,1.38a4.54,4.54 0 0 1 3,4.49c0,1.61 -0.71,2.53 -1.94,2.38l2.11,5.27l-2,-0.74l-1.89,-5l-1.12,-0.41l-0.06,4.32zm1.52,-5.32c1,0.36 1.4,0.07 1.4,-0.91l0,-0.59a1.86,1.86 0 0 0 -1.4,-1.94l-1.52,-0.55l0,3.43l1.52,0.56zm5.88,8.03l0,-11l6.24,2.29l0,1.71l-4.39,-1.59l0,2.86l4.24,1.55l0,1.7l-4.24,-1.55l0,3l4.39,1.61l0,1.7l-6.24,-2.28zm13.99,3.6l-0.11,0a1.54,1.54 0 0 1 -2.22,0.9c-2,-0.73 -3,-3.18 -3,-6.72c0,-3.74 1.19,-5.33 3.7,-4.41a5.31,5.31 0 0 1 3.34,4.17l-1.7,-0.09a2.94,2.94 0 0 0 -1.66,-2.4c-1.23,-0.45 -1.71,0.54 -1.71,2.43l0,1.76c0,1.9 0.45,3.36 1.8,3.86c1.05,0.38 1.61,-0.2 1.61,-1.29l0,-0.89l-1.8,-0.66l0,-1.5l3.46,1.27l0,5.75l-1.66,-0.61l-0.05,-1.57zm9.61,5.05l-0.7,-3l-2.93,-1.08l-0.68,2.54l-1.87,-0.69l2.78,-10l2.58,0.95l2.79,12l-1.97,-0.72zm-2.1,-9.73l-0.11,0l-1.09,4.09l2.29,0.84l-1.09,-4.93zm10.12,3.38l0,9.29l-1.85,-0.68l0,-9.29l-3,-1.09l0,-1.7l7.79,2.86l0,1.72l-2.94,-1.11zm5.21,11.2l0,-11l6.25,2.29l0,1.7l-4.4,-1.61l0,2.87l4.24,1.55l0,1.7l-4.24,-1.55l0,3l4.4,1.61l0,1.7l-6.25,-2.26zm18.41,6.75l0,-11l6.25,2.29l0,1.7l-4.39,-1.61l0,2.87l4.24,1.55l0,1.7l-4.24,-1.55l0,3l4.39,1.61l0,1.7l-6.25,-2.26zm10.98,4.03l-2.7,-12l2,0.75l1.23,6l0.72,3.73l0.1,0l0.74,-3.2l1.24,-5.1l1.95,0.71l-2.71,10l-2.57,-0.89zm7.44,2.72l0,-11l6.25,2.29l0,1.71l-4.4,-1.59l0,2.86l4.24,1.55l0,1.7l-4.24,-1.56l0,3l4.4,1.61l0,1.7l-6.25,-2.27zm10.71,-3.96l-0.14,-0.05l0,7.89l-1.59,-0.58l0,-11l2.28,0.83l2.59,8.84l0.15,0.05l0,-7.88l1.58,0.58l0,11l-2.28,-0.84l-2.59,-8.84zm11.7,2.89l0,9.29l-1.84,-0.67l0,-9.29l-3,-1.09l0,-1.71l7.8,2.86l0,1.7l-2.96,-1.09zm14.35,14.55l0,-1.54l2.22,0.82l0,-7.91l-2.22,-0.82l0,-1.54l6.29,2.31l0,1.54l-2.22,-0.81l0,7.88l2.22,0.82l0,1.54l-6.29,-2.29zm14.31,0.16l0.08,-3.15l-0.13,0l-1.91,4.92l-1.91,-6.36l-0.13,0l0.09,3.21l0,5.09l-1.62,-0.6l0,-11l2.21,0.81l1.38,4.55l0.1,0l1.38,-3.54l2.07,0.76l0,11l-1.61,-0.59l0,-5.1zm4.13,6.61l0,-11l3.76,1.38a4.54,4.54 0 0 1 3,4.49c0,2.08 -1.06,3 -3,2.31l-1.9,-0.69l0,4.19l-1.86,-0.68zm1.86,-5.2l1.52,0.56c1,0.36 1.4,0.07 1.4,-0.9l0,-0.6a1.84,1.84 0 0 0 -1.4,-1.93l-1.52,-0.56l0,3.43zm12.58,10.49l-0.7,-3l-2.93,-1.13l-0.68,2.54l-1.87,-0.69l2.78,-10l2.58,0.95l2.79,12l-1.97,-0.67zm-2.1,-9.73l-0.11,0l-1.09,4.09l2.29,0.84l-1.09,-4.93zm5.65,5.54c0,-3.62 1.22,-5.24 3.8,-4.3a5.36,5.36 0 0 1 3.37,4.19l-1.7,-0.09a2.89,2.89 0 0 0 -1.7,-2.42c-1.27,-0.47 -1.8,0.51 -1.8,2.39l0,1.89c0,1.89 0.53,3.25 1.8,3.72c1.06,0.39 1.45,-0.24 1.7,-1.17l1.7,1.16c-0.42,1.56 -1.4,2.43 -3.37,1.7c-2.58,-0.94 -3.8,-3.45 -3.8,-7.07zm13.66,1.22l0,9.29l-1.84,-0.68l0,-9.29l-3,-1.09l0,-1.7l7.79,2.85l0,1.71l-2.95,-1.09z" class="cls-18"/>
  </g>
  <path id="svg_29" opacity="0.12" stroke-miterlimit="10" stroke="#3b009b" fill="none" isolation="isolate" d="m275.72,127.44l217.73,79.25m-217.73,-47.53l217.73,79.24m-217.73,-46.42l217.73,79.25m-217.73,-45.61l217.73,79.24" class="cls-19"/>
  <path id="svg_30" fill="#c200b5" d="m278.73,178.5l-1.75,-0.62l0,-1.3l1.21,0.43l3.76,-4.08l2.09,4.21l0.82,0.3l0,1.29l-1.41,-0.5l-1.56,-3.16l-3.16,3.43z" class="cls-16"/>
  <path id="svg_31" fill="#c200b5" d="m286.27,186.33l-10.69,-3.78a1.43,1.43 0 0 1 -0.85,-1.27l0,-12.27c0,-0.54 0.38,-0.84 0.85,-0.67l10.69,3.78a1.4,1.4 0 0 1 0.84,1.27l0,12.27c0,0.54 -0.37,0.84 -0.84,0.67zm-10.41,-5l10.13,3.59l0,-11.61l-10.13,-3.58l0,11.6z" class="cls-16"/>
  <path id="svg_32" fill="#c200b5" d="m279.73,181.43l-2.75,-0.97l0,-1.29l2.19,0.77l2.69,-3.07l1.26,2.53l1.73,0.58l0.02,1.29l-2.33,-0.78l-0.73,-1.45l-2.08,2.39z" class="cls-16"/>
  <path id="svg_33" fill="#9000de" d="m279.02,215.46l-3.44,-1.22a1.43,1.43 0 0 1 -0.85,-1.27l0,-11.27a0.62,0.62 0 0 1 0.51,-0.71a0.65,0.65 0 0 1 0.34,0l3.9,1.38a1.33,1.33 0 0 1 0.68,0.64l1.25,2.39l6,2.14a1.42,1.42 0 0 1 0.84,1.27l0,2.11l-1.28,-0.46l0,-1.61l-5.81,-2a1.33,1.33 0 0 1 -0.68,-0.64l-1.22,-2.39l-3.25,-1.15l0,10.25l3,1.07l0.01,1.47z" class="cls-17"/>
  <path id="svg_34" fill="#9000de" d="m283.01,214.17l-1.28,-0.46l0,-1.96l1.28,0.45l0,1.97z" class="cls-17"/>
  <path id="svg_35" fill="#9000de" d="m283.99,214.51l-1.28,-0.45l0,-2.81l1.28,0.45l0,2.81z" class="cls-17"/>
  <path id="svg_36" fill="#9000de" d="m284.97,214.86l-1.28,-0.45l0,-1.52l1.28,0.45l0,1.52z" class="cls-17"/>
  <path id="svg_37" fill="#9000de" d="m283.35,217.23a6.37,6.37 0 0 1 -3.79,-5.69c0,-2.39 1.7,-3.74 3.79,-3a6.34,6.34 0 0 1 3.79,5.68c0,2.4 -1.7,3.75 -3.79,3.01zm0,-7.23c-1.38,-0.48 -2.51,0.41 -2.51,2a4.2,4.2 0 0 0 2.51,3.82c1.38,0.49 2.51,-0.4 2.51,-2a4.2,4.2 0 0 0 -2.51,-3.82z" class="cls-17"/>
  <path id="svg_38" fill="#9000de" d="m286.84,219.17l-1.87,-2.82l0.9,-0.72l1.88,2.82l-0.91,0.72z" class="cls-17"/>
  <path id="svg_39" fill="#f7008a" d="m280.65,153.49a8.5,8.5 0 0 1 -2.39,-1.33a12.3,12.3 0 0 1 -3.95,-5.55a9.45,9.45 0 0 1 -0.23,-6.23a4.72,4.72 0 0 1 5.37,-3.27l0.2,1.4a3.92,3.92 0 0 0 -4.48,2.72c-1.1,3.08 0.47,7.48 3.49,9.81s6.38,1.72 7.48,-1.36a7.9,7.9 0 0 0 -0.2,-5.19a10.24,10.24 0 0 0 -3.29,-4.62l0.39,-1.12a12.33,12.33 0 0 1 4,5.55a9.45,9.45 0 0 1 0.23,6.23a4.91,4.91 0 0 1 -6.62,2.96z" class="cls-15"/>
  <path id="svg_40" fill="#f7008a" d="m280.42,143.29a2.79,2.79 0 0 1 -0.49,1.63a3,3 0 0 1 -0.48,0.52a2.33,2.33 0 0 1 -0.55,0.32l-1.25,-0.44l0.7,-0.36a2.9,2.9 0 0 0 0.53,-0.39a2.07,2.07 0 0 0 0.37,-0.47a2,2 0 0 0 0.22,-0.57l-0.06,0a1,1 0 0 1 -0.13,0.22a0.52,0.52 0 0 1 -0.19,0.17a0.48,0.48 0 0 1 -0.26,0.07a0.7,0.7 0 0 1 -0.35,-0.06a1.78,1.78 0 0 1 -0.48,-0.28a1.68,1.68 0 0 1 -0.4,-0.44a2.37,2.37 0 0 1 -0.26,-0.56a2.44,2.44 0 0 1 -0.09,-0.66a1.81,1.81 0 0 1 0.11,-0.65a0.88,0.88 0 0 1 0.32,-0.42a1,1 0 0 1 0.5,-0.18a1.62,1.62 0 0 1 0.65,0.11a2.2,2.2 0 0 1 0.67,0.37a2.1,2.1 0 0 1 0.5,0.57a2.36,2.36 0 0 1 0.31,0.71a3,3 0 0 1 0.11,0.79zm-1.59,-0.07a0.49,0.49 0 0 0 0.47,0a0.57,0.57 0 0 0 0.17,-0.48l0,-0.13a1,1 0 0 0 -0.17,-0.6a0.88,0.88 0 0 0 -0.47,-0.36a0.49,0.49 0 0 0 -0.47,0a0.6,0.6 0 0 0 -0.17,0.49l0,0.12a1.08,1.08 0 0 0 0.17,0.61a1,1 0 0 0 0.47,0.35zm5.17,4.34l-3,-1.05l0,-0.95l1.3,-0.82l0.3,-0.21a2,2 0 0 0 0.2,-0.21a0.67,0.67 0 0 0 0.1,-0.23a0.62,0.62 0 0 0 0,-0.27l0,-0.1a0.75,0.75 0 0 0 -0.05,-0.26a1,1 0 0 0 -0.13,-0.22a0.69,0.69 0 0 0 -0.18,-0.16a0.56,0.56 0 0 0 -0.2,-0.11a0.57,0.57 0 0 0 -0.26,0a0.5,0.5 0 0 0 -0.2,0.08a0.7,0.7 0 0 0 -0.13,0.17a0.92,0.92 0 0 0 -0.09,0.23l-0.79,-0.63a1.87,1.87 0 0 1 0.2,-0.4a0.87,0.87 0 0 1 0.32,-0.28a1,1 0 0 1 0.45,-0.11a1.51,1.51 0 0 1 0.59,0.11a2.25,2.25 0 0 1 0.61,0.33a2.45,2.45 0 0 1 0.45,0.46a2.26,2.26 0 0 1 0.28,0.56a2.1,2.1 0 0 1 0.09,0.61a1.4,1.4 0 0 1 -0.33,0.94a1.69,1.69 0 0 1 -0.36,0.3l-0.43,0.25l-0.79,0.43l2,0.71l0.05,0.83zm-5.84,1.03l-0.32,-0.12l0,-1.65l0.7,0.25a0.52,0.52 0 0 1 0.18,0.1a0.39,0.39 0 0 1 0.14,0.17a1.24,1.24 0 0 1 0.1,0.2a0.89,0.89 0 0 1 0,0.23a0.55,0.55 0 0 1 -0.07,0.28a0.24,0.24 0 0 1 -0.2,0.12l0.29,0.77l-0.33,-0.12l-0.26,-0.72l-0.23,-0.08l0,0.57zm0.34,-0.82a0.08,0.08 0 0 0 0.11,-0.11l0,-0.11a0.33,0.33 0 0 0 0,-0.14a0.15,0.15 0 0 0 -0.11,-0.08l-0.34,-0.12l0,0.44l0.34,0.12zm1.68,1.53l-0.11,-0.44l-0.49,-0.18l-0.11,0.37l-0.32,-0.12l0.48,-1.52l0.4,0.14l0.48,1.87l-0.33,-0.12zm-0.35,-1.49l-0.17,0.59l0.34,0.12l-0.17,-0.71zm1.34,1.01l-0.14,-0.39l0,1.14l-0.3,-0.11l0,-1.64l0.35,0.13l0.41,0.94l0.14,0.4l0,-1.15l0.3,0.11l0,1.7l-0.35,-0.12l-0.41,-1.01zm1.6,0.66l-0.19,0.2l0,0.47l-0.32,-0.11l0,-1.7l0.32,0.11l0,0.81l0.21,-0.25l0.33,-0.36l0.37,0.13l-0.5,0.52l0.54,1.19l-0.38,-0.13l-0.38,-0.88z" class="cls-15"/>
  <path id="svg_41" fill="#f7008a" d="m280.65,153.49c-0.23,-0.08 -0.45,-0.17 -0.67,-0.27a11,11 0 0 1 -4.74,-4.55a11.19,11.19 0 0 1 -1.57,-6.44c0.31,-3.66 2.91,-5.78 6.19,-5l0.13,1.37c-2.73,-0.62 -4.9,1.15 -5.16,4.2a9.33,9.33 0 0 0 1.31,5.36a9.09,9.09 0 0 0 3.94,3.8a4.55,4.55 0 0 0 4.27,0a4.71,4.71 0 0 0 2.09,-3.79a9.9,9.9 0 0 0 -5.26,-9.16l0.11,-1.29a11.85,11.85 0 0 1 6.31,11a5.59,5.59 0 0 1 -2.51,4.54a5.13,5.13 0 0 1 -4.44,0.23z" class="cls-15"/>
  <path id="svg_42" fill="#ff005e" d="m280.89,110.63l-3.71,-1.34l0,-1.39l3.71,1.35l0,1.38zm3.89,3.79l-7.6,-2.76l0,-1.38l7.6,2.76l0,1.38z" class="cls-14"/>
  <path id="svg_43" fill="#ff005e" d="m287.08,108.57l-11.14,-4a0.88,0.88 0 0 0 -1.17,0.46a0.85,0.85 0 0 0 -0.07,0.47l0,9.84a2.08,2.08 0 0 0 1.24,1.83l11.14,4a0.88,0.88 0 0 0 1.17,-0.46a0.85,0.85 0 0 0 0.07,-0.47l0,-9.84a2.08,2.08 0 0 0 -1.24,-1.83zm-11.14,7.18l0,-9.68l11.14,4l0,9.75l-11.14,-4.07z" class="cls-14"/>
  <ellipse transform="rotate(-31.19 200.282 223.551)" id="svg_44" fill="#ff005e" ry="1.37" rx="0.95" cy="170.41" cx="323.6" class="cls-14"/>
  <ellipse transform="rotate(-31.19 203.557 224.755)" id="svg_45" fill="#ff005e" ry="1.37" rx="0.95" cy="171.6" cx="326.87" class="cls-14"/>
  <ellipse transform="rotate(-31.19 206.82 225.936)" id="svg_46" fill="#ff005e" ry="1.37" rx="0.95" cy="172.78" cx="330.13" class="cls-14"/>
  <path id="svg_47" fill="#6300ff" d="m275.17,245.49l0,-4.37l-1.76,-0.62l0,6.24l5.87,2.08l0,-1.87l-4.11,-1.46zm9.42,-6.7l-4.14,-1.47l0,-1.89l5.91,2.1l0,6.29l-1.77,-0.62l0,-4.41z" class="cls-18"/>
  <path id="svg_48" fill="#6300ff" d="m276.65,237.57l0,6.88l6.46,2.29l0,-6.92l-6.46,-2.25zm4.55,6.46l-2.64,-0.93l0,-2.82l2.64,0.93l0,2.82z" class="cls-18"/>
 </g>
</svg>