<svg xmlns="http://www.w3.org/2000/svg" viewBox="0 0 588 440">
  <defs>
    <style>
      .cls-1{opacity:.15}.cls-2{fill:#6528f4}.cls-3{fill:#fff;stroke:#351394;stroke-miterlimit:10;stroke-width:2px}.cls-4{opacity:.05}.cls-5{fill:#351394}.cls-6{fill:#291a8a}.cls-7{fill:#eb4067}.cls-8{fill:#e0d2f1}.cls-9{fill:#d1c8f7}
    </style>
  </defs>
  <g id="Layer_14" data-name="Layer 14">
    <g class="cls-1">
      <path d="M44.21 311l-7.1 2.58a1.26 1.26 0 000 2.36l27.94 10.17a7.48 7.48 0 005.15 0l6.11-2.22a1.26 1.26 0 000-2.36L47.37 311a4.64 4.64 0 00-3.16 0zM138.12 345.18l-7.12 2.58a1.26 1.26 0 000 2.36l28 10.17a7.56 7.56 0 005.14 0l6.11-2.22a1.26 1.26 0 000-2.36l-28.93-10.53a4.64 4.64 0 00-3.2 0zM232.17 378l-7.1 2.59a1.25 1.25 0 000 2.35L253 393.13a7.48 7.48 0 005.15 0l6.11-2.22a1.26 1.26 0 000-2.36L235.33 378a4.64 4.64 0 00-3.16 0z" class="cls-2"/>
    </g>
    <g class="cls-1">
      <path d="M325.93 318.76l-7.1 2.59a1.26 1.26 0 000 2.36l27.94 10.17a7.59 7.59 0 005.15 0l6.1-2.23a1.26 1.26 0 000-2.36l-28.93-10.53a4.64 4.64 0 00-3.16 0zM419.83 352.94l-7.1 2.59a1.25 1.25 0 000 2.35l27.94 10.17a7.48 7.48 0 005.15 0l6.11-2.22a1.26 1.26 0 000-2.36L423 352.94a4.64 4.64 0 00-3.17 0zM513.89 385.78l-7.1 2.59a1.25 1.25 0 000 2.36l27.94 10.17a7.56 7.56 0 005.14 0l6.11-2.23a1.25 1.25 0 000-2.35l-28.93-10.54a4.64 4.64 0 00-3.16 0z" class="cls-2"/>
    </g>
    <path d="M544.6 324.49c-8.16-8-17.85-10.49-25.62-7.69l-5.23 1.82 2.69 7.14c-5 12.75-.53 30.65 10.87 41.81a34.32 34.32 0 006.85 5.24l3 8 6.26-2.22a19.07 19.07 0 0010.46-8.89c7.33-12.79 3.17-33.03-9.28-45.21z" class="cls-3"/>
    <g class="cls-4">
      <path d="M538.54 380.31l4.89-1.73a19.12 19.12 0 0010.47-8.89c4.11-7.19 4.59-16.73 2-25.87l-17.37 6.06z" class="cls-5"/>
    </g>
    <ellipse cx="523.42" cy="350.4" class="cls-3" rx="24.44" ry="33.28" transform="rotate(-24.19 523.428 350.4)"/>
    <path d="M450.7 290.31c-8.17-8-17.85-10.49-25.62-7.69l-5.24 1.82 2.69 7.14c-4.95 12.75-.53 30.65 10.87 41.81a34.65 34.65 0 006.86 5.24l3 8 6.25-2.22a19.09 19.09 0 0010.49-8.9c7.3-12.78 3.14-33.02-9.3-45.2z" class="cls-3"/>
    <g class="cls-4">
      <path d="M444.64 346.13l4.88-1.73a19.09 19.09 0 0010.48-8.89c4.11-7.19 4.6-16.73 2-25.87l-17.37 6.06z" class="cls-5"/>
    </g>
    <ellipse cx="429.51" cy="316.22" class="cls-3" rx="24.44" ry="33.28" transform="rotate(-24.19 429.523 316.22)"/>
    <path d="M356.79 256.13c-8.16-8-17.85-10.49-25.62-7.69l-5.23 1.82 2.69 7.14c-4.95 12.75-.53 30.65 10.87 41.81a34.32 34.32 0 006.85 5.24l3 8 6.26-2.22a19.07 19.07 0 0010.46-8.89c7.33-12.79 3.17-33.02-9.28-45.21z" class="cls-3"/>
    <g class="cls-4">
      <path d="M350.73 312l4.89-1.73a19.07 19.07 0 0010.46-8.89c4.12-7.18 4.6-16.73 2-25.87l-17.37 6.06z" class="cls-5"/>
    </g>
    <ellipse cx="335.61" cy="282.04" class="cls-3" rx="24.44" ry="33.28" transform="rotate(-24.19 335.619 282.04)"/>
    <path d="M544.6 229.72c-8.16-8-17.85-10.49-25.62-7.69l-5.23 1.82 2.69 7.13c-5 12.76-.53 30.66 10.87 41.81a34.38 34.38 0 006.85 5.25l3 8 6.26-2.22a19.05 19.05 0 0010.46-8.88c7.33-12.8 3.17-33.04-9.28-45.22z" class="cls-3"/>
    <g class="cls-4">
      <path d="M538.54 285.54l4.89-1.74a19.1 19.1 0 0010.47-8.88c4.11-7.19 4.59-16.73 2-25.88l-17.37 6.06z" class="cls-5"/>
    </g>
    <ellipse cx="523.42" cy="255.63" class="cls-3" rx="24.44" ry="33.28" transform="rotate(-24.19 523.43 255.639)"/>
    <path d="M450.7 195.54c-8.17-8-17.85-10.49-25.62-7.69l-5.24 1.82 2.69 7.14c-4.95 12.75-.53 30.65 10.87 41.81a34.65 34.65 0 006.86 5.24l3 8 6.25-2.22a19.13 19.13 0 0010.49-8.9c7.3-12.74 3.14-33.02-9.3-45.2z" class="cls-3"/>
    <g class="cls-4">
      <path d="M444.64 251.36l4.88-1.73a19.13 19.13 0 0010.48-8.89c4.11-7.19 4.6-16.73 2-25.87l-17.37 6.06z" class="cls-5"/>
    </g>
    <ellipse cx="429.51" cy="221.45" class="cls-3" rx="24.44" ry="33.28" transform="rotate(-24.19 429.526 221.46)"/>
    <path d="M356.79 161.36c-8.16-8-17.85-10.49-25.62-7.69l-5.23 1.82 2.69 7.14c-4.95 12.75-.53 30.65 10.87 41.81a34.32 34.32 0 006.85 5.24l3 8 6.26-2.22a19.07 19.07 0 0010.46-8.89c7.33-12.79 3.17-33.03-9.28-45.21z" class="cls-3"/>
    <g class="cls-4">
      <path d="M350.73 217.18l4.89-1.73a19.07 19.07 0 0010.46-8.89c4.12-7.19 4.6-16.73 2-25.87l-17.37 6.06z" class="cls-5"/>
    </g>
    <ellipse cx="335.61" cy="187.27" class="cls-3" rx="24.44" ry="33.28" transform="rotate(-24.19 335.62 187.28)"/>
    <path d="M544.6 135c-8.16-8-17.85-10.5-25.62-7.69l-5.23 1.82 2.69 7.13c-5 12.76-.53 30.65 10.87 41.81a34.38 34.38 0 006.85 5.25l3 8 6.26-2.22a19.05 19.05 0 0010.46-8.88c7.33-12.85 3.17-33.09-9.28-45.22z" class="cls-3"/>
    <g class="cls-4">
      <path d="M538.54 190.77l4.89-1.74a19.1 19.1 0 0010.47-8.88c4.11-7.19 4.59-16.73 2-25.88l-17.37 6.06z" class="cls-5"/>
    </g>
    <ellipse cx="523.42" cy="160.86" class="cls-3" rx="24.44" ry="33.28" transform="rotate(-24.19 523.437 160.854)"/>
    <path d="M450.7 100.77c-8.17-8-17.85-10.49-25.62-7.69l-5.24 1.82 2.69 7.13c-4.95 12.76-.53 30.66 10.87 41.81a34.72 34.72 0 006.86 5.25l3 8 6.25-2.22A19.07 19.07 0 00460 146c7.3-12.81 3.14-33-9.3-45.23z" class="cls-3"/>
    <g class="cls-4">
      <path d="M444.64 156.59l4.88-1.74A19.07 19.07 0 00460 146c4.11-7.19 4.6-16.73 2-25.88l-17.37 6.06z" class="cls-5"/>
    </g>
    <ellipse cx="429.51" cy="126.68" class="cls-3" rx="24.44" ry="33.28" transform="rotate(-24.19 429.533 126.674)"/>
    <path d="M356.79 66.59c-8.16-8-17.85-10.49-25.62-7.69l-5.23 1.82 2.69 7.14c-4.95 12.75-.53 30.65 10.87 41.81a34.7 34.7 0 006.85 5.24l3 8 6.26-2.21a19.11 19.11 0 0010.46-8.89c7.33-12.81 3.17-33.04-9.28-45.22z" class="cls-3"/>
    <g class="cls-4">
      <path d="M350.73 122.41l4.89-1.73a19.11 19.11 0 0010.46-8.89c4.12-7.19 4.6-16.73 2-25.88L350.73 92z" class="cls-5"/>
    </g>
    <ellipse cx="335.61" cy="92.5" class="cls-3" rx="24.44" ry="33.28" transform="rotate(-24.19 335.605 92.49)"/>
    <path d="M262.88 316.73c-8.16-8-17.84-10.5-25.61-7.7l-5.27 1.82 2.69 7.14c-4.95 12.75-.53 30.65 10.87 41.81a34.72 34.72 0 006.86 5.25l3 8 6.25-2.22a19.09 19.09 0 0010.47-8.89c7.35-12.8 3.19-33.03-9.26-45.21z" class="cls-3"/>
    <g class="cls-4">
      <path d="M256.83 372.55l4.88-1.74a19.09 19.09 0 0010.47-8.89c4.11-7.18 4.59-16.73 2-25.87l-17.37 6.06z" class="cls-5"/>
    </g>
    <ellipse cx="241.7" cy="342.64" class="cls-3" rx="24.44" ry="33.28" transform="rotate(-24.19 241.707 342.646)"/>
    <path d="M169 282.55c-8.16-8-17.85-10.5-25.62-7.69l-5.23 1.82 2.69 7.13c-4.95 12.76-.54 30.65 10.86 41.81a34.72 34.72 0 006.86 5.25l3 8 6.26-2.22a19.05 19.05 0 0010.46-8.88c7.31-12.77 3.15-33.04-9.28-45.22z" class="cls-3"/>
    <g class="cls-4">
      <path d="M162.92 338.37l4.89-1.74a19.05 19.05 0 0010.46-8.88c4.12-7.19 4.6-16.73 2-25.88l-17.37 6.06z" class="cls-5"/>
    </g>
    <ellipse cx="147.79" cy="308.46" class="cls-3" rx="24.44" ry="33.28" transform="rotate(-24.19 147.802 308.466)"/>
    <path d="M75.07 248.37c-8.16-8-17.84-10.49-25.61-7.69l-5.24 1.82 2.69 7.13c-4.95 12.76-.53 30.66 10.87 41.81a34.72 34.72 0 006.86 5.25l3 8 6.26-2.22a19.07 19.07 0 0010.47-8.88c7.31-12.8 3.15-33.04-9.3-45.22z" class="cls-3"/>
    <g class="cls-4">
      <path d="M69 304.19l4.88-1.74a19.07 19.07 0 0010.47-8.88c4.11-7.19 4.59-16.73 2-25.88L69 273.75z" class="cls-5"/>
    </g>
    <ellipse cx="53.89" cy="274.28" class="cls-3" rx="24.44" ry="33.28" transform="rotate(-24.19 53.898 274.286)"/>
    <path d="M262.88 222c-8.16-8-17.84-10.5-25.61-7.7l-5.27 1.78 2.69 7.14c-4.95 12.75-.53 30.65 10.87 41.81a35.11 35.11 0 006.86 5.25l3 8 6.25-2.22a19.09 19.09 0 0010.47-8.89c7.35-12.8 3.19-33.03-9.26-45.17z" class="cls-3"/>
    <g class="cls-4">
      <path d="M256.83 277.77l4.88-1.73a19.09 19.09 0 0010.47-8.89c4.11-7.18 4.59-16.73 2-25.87l-17.37 6.06z" class="cls-5"/>
    </g>
    <ellipse cx="241.7" cy="247.87" class="cls-3" rx="24.44" ry="33.28" transform="rotate(-24.19 241.714 247.861)"/>
    <path d="M169 187.78c-8.16-8-17.85-10.5-25.62-7.7l-5.23 1.82 2.69 7.14c-4.95 12.75-.54 30.65 10.86 41.81a35.11 35.11 0 006.86 5.25l3 8 6.26-2.22a19.07 19.07 0 0010.45-8.88c7.32-12.81 3.16-33-9.27-45.22z" class="cls-3"/>
    <g class="cls-4">
      <path d="M162.92 243.59l4.89-1.73a19.07 19.07 0 0010.46-8.86c4.12-7.18 4.6-16.73 2-25.87l-17.37 6.06z" class="cls-5"/>
    </g>
    <ellipse cx="147.79" cy="213.69" class="cls-3" rx="24.44" ry="33.28" transform="rotate(-24.19 147.805 213.705)"/>
    <path d="M75.07 153.6c-8.16-8-17.84-10.5-25.61-7.7l-5.24 1.83 2.69 7.13c-4.95 12.76-.53 30.65 10.87 41.81a34.72 34.72 0 006.86 5.25l3 8 6.26-2.22a19 19 0 0010.47-8.89c7.31-12.81 3.15-33.03-9.3-45.21z" class="cls-3"/>
    <g class="cls-4">
      <path d="M69 209.42l4.88-1.74a19 19 0 0010.47-8.89c4.11-7.18 4.59-16.72 2-25.87L69 179z" class="cls-5"/>
    </g>
    <ellipse cx="53.89" cy="179.51" class="cls-3" rx="24.44" ry="33.28" transform="rotate(-24.19 53.9 179.525)"/>
    <path d="M262.88 127.18c-8.16-8-17.84-10.49-25.61-7.69l-5.27 1.82 2.69 7.14c-4.95 12.75-.53 30.65 10.87 41.81a34.65 34.65 0 006.86 5.24l3 8 6.25-2.22a19.09 19.09 0 0010.47-8.89c7.35-12.79 3.19-33.02-9.26-45.21z" class="cls-3"/>
    <g class="cls-4">
      <path d="M256.83 183l4.88-1.73a19.09 19.09 0 0010.47-8.89c4.11-7.19 4.59-16.73 2-25.87l-17.37 6.06z" class="cls-5"/>
    </g>
    <ellipse cx="241.7" cy="153.09" class="cls-3" rx="24.44" ry="33.28" transform="rotate(-24.5 240.55 154.048)"/>
    <path d="M169 93c-8.16-8-17.85-10.49-25.62-7.69l-5.23 1.82 2.69 7.14c-4.95 12.75-.54 30.65 10.86 41.81a35.11 35.11 0 006.86 5.25l3 8 6.26-2.22a19.07 19.07 0 0010.46-8.89c7.31-12.8 3.15-33.03-9.28-45.22z" class="cls-3"/>
    <g class="cls-4">
      <path d="M162.92 148.82l4.89-1.73a19.07 19.07 0 0010.46-8.89c4.12-7.18 4.6-16.73 2-25.87l-17.37 6.06z" class="cls-5"/>
    </g>
    <ellipse cx="147.79" cy="118.92" class="cls-3" rx="24.44" ry="33.28" transform="rotate(-24.19 147.788 118.915)"/>
    <path d="M75.07 58.83c-8.16-8-17.84-10.5-25.61-7.7L44.22 53l2.69 7.14c-4.91 12.7-.53 30.6 10.87 41.76a35.11 35.11 0 006.86 5.25l3 8 6.26-2.22A19.09 19.09 0 0084.37 104c7.31-12.76 3.15-33-9.3-45.17z" class="cls-3"/>
    <g class="cls-4">
      <path d="M69 114.64l4.88-1.73A19.09 19.09 0 0084.37 104c4.11-7.18 4.59-16.73 2-25.87L69 84.21z" class="cls-5"/>
    </g>
    <ellipse cx="53.89" cy="84.74" class="cls-3" rx="24.44" ry="33.28" transform="rotate(-24.19 53.884 84.735)"/>
    <path d="M437.25 137.44L419.61 131a2.29 2.29 0 01-1.4-2v-12a1 1 0 011.4-1l17.64 6.42a2.26 2.26 0 011.39 2v12a1 1 0 01-1.39 1.02zm-17.18-8.25l16.71 6.08v-11l-16.71-6.08z" class="cls-6"/>
    <path d="M429.36 120.57l-1.86-.68v-4l1.86.68v4zM425.55 137.62l-1.67-1.48 2.23-4.19 1.67 1.48-2.23 4.19zM431.3 139.71l-2.23-5.81 1.68-.26 2.23 5.81-1.68.26z" class="cls-6"/>
    <path d="M422.18 127.13v-5.23l3.3 1.2v1l-2.24-.82v1.06l1.92.7v1l-1.92-.7v1.13l2.24.81v1zM430.44 130.14l-1.23-.45-1-2.31-1 1.55-1.14-.41 1.56-2.14-1.49-3.07 1.24.45.94 2.11 1-1.42 1.14.41-1.49 2zM431.09 130.37v-5.23l2.29.84a2.08 2.08 0 01.62.34 2.47 2.47 0 01.46.51 2.2 2.2 0 01.29.64 2.45 2.45 0 01.11.71 1.8 1.8 0 01-.11.65.93.93 0 01-.29.42 1 1 0 01-.46.17 1.6 1.6 0 01-.62-.1l-1.24-.45v1.89zm1.05-2.49l1.12.4a.43.43 0 00.37 0 .38.38 0 00.14-.34v-.33a.69.69 0 00-.14-.43.8.8 0 00-.37-.27l-1.12-.41zM146.44 121.97l-1.86-.68v-6.82l6.5.96v6.22l-1.86-.67v-3.78l-2.78-.42v5.19z" class="cls-7"/>
    <ellipse cx="144.58" cy="121.29" class="cls-7" rx="1.61" ry="2.3" transform="rotate(-34.06 144.561 121.29)"/>
    <path d="M149.22 123a3.05 3.05 0 01-1.85-2.68 1.29 1.29 0 011.85-1.32 3 3 0 011.86 2.67 1.3 1.3 0 01-1.86 1.33z" class="cls-7"/>
    <path d="M147.37 130.3a14.56 14.56 0 01-5.45-3.67l-2.92-.53a2 2 0 01-1.29-1 1.88 1.88 0 01-.27-1.54l.86-2.57a13.51 13.51 0 01-1-7.09c.69-4.67 4.55-7.17 9.17-5.93a15.28 15.28 0 018.42 6.54 14.92 14.92 0 012.57 10.29c-.69 4.27-4 6.67-8.15 6a11 11 0 01-1.94-.5zm-5-5.62l.31.34a11.28 11.28 0 006.3 3.7 5.56 5.56 0 006.65-4.87 12.16 12.16 0 00-2.1-8.43 12.47 12.47 0 00-6.9-5.36c-3.78-1-6.93 1-7.49 4.85a11.26 11.26 0 001 6.19l.2.45-.87 2.6z" class="cls-6"/>
    <path d="M334.78 285.36l-4.4 4.47 7.9 2.87-3.5-7.34z" class="cls-8"/>
    <path d="M341.06 294.71l-13-4.73a3 3 0 01-1.85-2.67v-10l16.71 6.07v10a1.3 1.3 0 01-1.86 1.33zm-13-14.73v8l13 4.73v-8z" class="cls-6"/>
    <path d="M343.52 281.5l-9-6.15-8.95-.37a.32.32 0 00-.33.36v2.13a.76.76 0 00.46.67l17.18 6.24a.65.65 0 00.93-.66v-1.63a.77.77 0 00-.29-.59z" class="cls-8"/>
    <path d="M342.92 285.38l-17.18-6.24a2.28 2.28 0 01-1.39-2V275a1 1 0 011-1.08l9.22.37 9.22 6.33a2.29 2.29 0 011 1.8v1.63a1.3 1.3 0 01-1.87 1.33zm-16.71-8.07l16.71 6.07v-1.25l-8.36-5.74-8.35-.34z" class="cls-6"/>
    <path d="M336.42 274l-2.78-1v-5l6.49 2.36v1a2.6 2.6 0 01-3.71 2.64zm-.93-2.34l.93.34a1.3 1.3 0 001.61-.41l-2.54-.93z" class="cls-7"/>
    <path d="M328.17 290l-.23-2.06c3.25.74 5.7-1.35 5.7-4.88v-2l1.85.67v2c0 4.49-3.15 7.19-7.32 6.27z" class="cls-6"/>
    <path d="M341.14 294.69a13.74 13.74 0 01-7.5-11.68v-2l1.85.67v2a10.7 10.7 0 005.84 9.09z" class="cls-6"/>
    <path d="M435.89 317.71l-14.85-5.4v-4l14.85 5.4v4z" class="cls-8"/>
    <ellipse cx="428.47" cy="305.01" class="cls-7" rx="1.61" ry="2.3" transform="rotate(-33.9 429.567 304.19)"/>
    <path d="M434 329l-11.15-4v-9l11.15 4zm-9.29-5.37l7.43 2.7v-5l-7.43-2.7z" class="cls-6"/>
    <path d="M435.89 329.71l-14.85-5.4v-2l14.85 5.4v2zM434.55 322.22l-12.17-4.43A2.28 2.28 0 01421 316l-.81-7.3a1.18 1.18 0 01.34-1.06 1 1 0 011-.12l13.81 5a2.16 2.16 0 011 .89 2 2 0 01.34 1.3l-.81 6.71a1 1 0 01-1.32.8zm-11.76-6.28l11.36 4.13.69-5.75-12.75-4.63z" class="cls-6"/>
    <path d="M425.68 308l-1.86-.67v-3.5a1 1 0 011.4-1l3.25 1.19v2l-2.79-1z" class="cls-7"/>
    <path d="M435.89 318.71l-14.85-5.4v-2l14.85 5.4v2z" class="cls-6"/>
    <path d="M238.67 257.66v-2a1.3 1.3 0 011.85-1.33 3 3 0 011.86 2.68v2" class="cls-8"/>
    <path d="M243.31 259.34l-1.86-.67v-2a1.54 1.54 0 00-.93-1.34.65.65 0 00-.93.66v2l-1.85-.67v-2a2 2 0 012.78-2 4.57 4.57 0 012.79 4z" class="cls-6"/>
    <path d="M248 252.44a19.8 19.8 0 00-7.43-4.42c-3.49-1.27-6.49-1.55-7.74-.84l7.74 4.19z" class="cls-8"/>
    <path d="M240.52 252.33c-5.07-1.84-10.21-5.26-10.21-8.21s5.14-2.63 10.21-.79 10.22 5.26 10.22 8.21-5.14 2.64-10.22.79zm0-7c-5.18-1.88-8.35-1.42-8.35-.54s3.17 3.66 8.35 5.54 8.36 1.42 8.36.54-3.17-3.65-8.36-5.54z" class="cls-6"/>
    <path d="M233.39 248.16l-1.21-2c1.47-.83 4.67-.52 8.34.82a21.29 21.29 0 018 4.78l-1 1.27a19 19 0 00-6.91-4c-3.71-1.33-6.32-1.38-7.22-.87z" class="cls-6"/>
    <path d="M240.52 259.37c-5.07-1.84-10.21-5.26-10.21-8.21v-7l1.86.67v7c0 .88 3.17 3.66 8.35 5.54s8.36 1.42 8.36.54v-7l1.86.67v7c0 2.96-5.14 2.64-10.22.79z" class="cls-6"/>
    <path d="M239.59 240.65v-5.24l4.87 4.39-4.87.85z" class="cls-7"/>
    <path d="M241.45 242.67l-1.86-.68v-4l1.86.68v4zM232.17 239.95v-5.23l4.86 4.38-4.86.85z" class="cls-7"/>
    <path d="M234.02 240.97l-1.85-.68v-3l1.85.68v3zM246.09 245.01v-5.23l4.87 4.38-4.87.85z" class="cls-7"/>
    <path d="M247.95 246.03l-1.86-.67v-3l1.86.67v3zM341.11 196.89l-1.85-.68a1.51 1.51 0 00-.93-1.33.65.65 0 00-.93.66l-1.86-.68a2 2 0 012.79-2 4.56 4.56 0 012.78 4.03zM340.7 192.63l-1.86-1.67.83-1.49 1.86 1.68-.83 1.48z" class="cls-7"/>
    <path d="M330.9 193.1a2 2 0 01-.69-.45l-1.51-1.48a17 17 0 01-5.23-11.6v-3.76a1 1 0 01.85-1.08c4.18-.41 9 1.34 13.16 4.79a2.29 2.29 0 01.85 1.69V185c0 4-2 7-5.23 7.79l-1.51.38a1.11 1.11 0 01-.69-.07zm-5.57-16.29v3.44a14 14 0 004.29 9.52l1.28 1.23 1.28-.33c2.65-.66 4.29-3.12 4.29-6.4v-3.43c-3.56-2.84-7.58-4.28-11.14-4.03z" class="cls-6"/>
    <path d="M338.33 201.8a2 2 0 01-.69-.45l-1.51-1.48a17.74 17.74 0 01-4.78-8.18l1.78.07a14.55 14.55 0 003.92 6.71l1.28 1.26 1.28-.33c2.65-.66 4.29-3.12 4.29-6.4v-3.43a19.54 19.54 0 00-6.45-3.49l-.11-2a22.08 22.08 0 017.57 4.18 2.29 2.29 0 01.85 1.69v3.77c0 4-2 7-5.23 7.79l-1.51.39a1.19 1.19 0 01-.69-.1zm5.85-12z" class="cls-6"/>
    <path d="M330.9 188.18a4.56 4.56 0 01-2.78-4l1.85.68a1.54 1.54 0 00.93 1.34.66.66 0 00.93-.67l1.86.68a2 2 0 01-2.79 1.97zM333.27 183.93l-1.86-1.67.84-1.49 1.85 1.68-.83 1.48zM328.53 182.21l-.83-2.09 1.86-.33.83 2.09-1.86.33z" class="cls-7"/>
    <path d="M250.11 338.04l-18.57-6.75v4l18.57 6.75v-4z" class="cls-8"/>
    <path d="M239 353l-7-2.53a2.28 2.28 0 01-1.39-2v-17a1 1 0 011.39-1l17.64 6.41a2.29 2.29 0 011.4 2v4.5l-1.86-.68v-4l-16.71-6.07v16L239 351z" class="cls-6"/>
    <path d="M250.11 343.04l-18.57-6.75v-2l18.57 6.75v2zM236.18 332.98l-1.86-.68v-3l1.86.68v3zM247.32 337.03l-1.85-.67v-3l1.85.67v3z" class="cls-6"/>
    <path d="M242.68 356.34l-1.86-.67v-12.5a1 1 0 011.4-1l8.82 3.21a1.54 1.54 0 01.85.9.92.92 0 01-.17 1l-2.25 1.86 2.29 3.85a1.18 1.18 0 01.11 1.11.63.63 0 01-.83.26l-8.36-3zm0-7l6.41 2.33-1.56-2.67a1 1 0 010-1.29l1.38-1.13-6.26-2.28z" class="cls-7"/>
    <path d="M250.1 148.4l-18.57-6.75v4l18.57 6.75v-4z" class="cls-8"/>
    <path d="M239.89 163.68l-7.89-2.87a2.26 2.26 0 01-1.39-2v-17a1 1 0 011.39-1l17.64 6.42a2.28 2.28 0 011.39 2v4.5l-1.85-.67v-4L232.46 143v16l7.43 2.7z" class="cls-6"/>
    <path d="M250.1 153.4l-18.57-6.75v-2l18.57 6.75v2zM236.18 143.33l-1.86-.67v-3l1.86.67v3zM247.32 147.38l-1.86-.67v-3l1.86.67v3z" class="cls-6"/>
    <path d="M245.76 167.79a3.8 3.8 0 01-1.19-.78 9 9 0 01-1.82-2.56c-1-2.06-1.69-4.81-.67-6.34a2.3 2.3 0 012.73-.88 5 5 0 012 1.59 2.55 2.55 0 012-.11 5.47 5.47 0 012.71 2.85 5.85 5.85 0 01-.67 5.85 3.17 3.17 0 01-1.82 1.24 2.5 2.5 0 01-2.27-.79 1.93 1.93 0 01-1-.07zm-1-8.56a1 1 0 00-1.1.46c-.57.86-.09 2.76.63 4.26a6 6 0 001.14 1.63c.26.24.43.32.69.1s1 0 1.37.5.44.45.7.4a2 2 0 001.14-.8A4 4 0 00250 162a2.46 2.46 0 00-1.1-1.26 1.22 1.22 0 00-1.3.41.65.65 0 01-.75.14 1.45 1.45 0 01-.75-.68 3 3 0 00-1.3-1.36zM247.88 157.59l-.56-.21a1.51 1.51 0 01-.93-1.33v-.61a1.55 1.55 0 012.22-1.58l.57.2a1.53 1.53 0 01.92 1.34v.6a1.56 1.56 0 01-2.22 1.59z" class="cls-7"/>
    <path d="M528 350.54v7.2l-.26.13c-3.11 1.55-7.52-.06-10.62-3.86l-.26-.32v-7.2l5.57 4.43z" class="cls-8"/>
    <path d="M522.39 351.61a1.8 1.8 0 01-.52-.29l-9.47-7.27a2.44 2.44 0 01-1-1.84 1 1 0 011-1.14l9.47-.39a1.66 1.66 0 011 .37l9.46 7.28a2.37 2.37 0 011 1.84 1 1 0 01-1 1.14l-9.46.39a1.22 1.22 0 01-.48-.09zm-8.39-8.47l8.39 6.45 8.39-.35-8.39-6.45z" class="cls-6"/>
    <path d="M522.39 358.94a14.09 14.09 0 01-5.94-4.42 2.37 2.37 0 01-.56-1.46v-6.66l1.86.68v6.46c2.75 3.28 6.52 4.65 9.28 3.38v-6.47l1.86.68v6.66a1.1 1.1 0 01-.56 1 7.49 7.49 0 01-5.94.15z" class="cls-6"/>
    <path d="M532.6 361.48l-1.85-.68v-8l1.85.68v8z" class="cls-7"/>
    <path d="M533.53 364.82l-3.71-1.36v-2a1.3 1.3 0 011.85-1.32 3 3 0 011.86 2.68z" class="cls-7"/>
    <path d="M52.83 267.72a4.57 4.57 0 01-2.79-4v-1a2 2 0 012.79-2 4.57 4.57 0 012.79 4v1a2 2 0 01-2.79 2zm0-5a.65.65 0 00-.93.66v1a1.54 1.54 0 00.93 1.34.65.65 0 00.93-.66v-1a1.51 1.51 0 00-.93-1.34z" class="cls-6"/>
    <path d="M55.15 270.56l-4.64-1.69a.75.75 0 01-.47-.66 1.63 1.63 0 012.33-1.66l.92.34a3.79 3.79 0 012.33 3.34.33.33 0 01-.47.33z" class="cls-9"/>
    <path d="M55.15 271.56l-4.64-1.69a2.35 2.35 0 011.86-4.32l.92.34a5.31 5.31 0 013.25 4.68 1 1 0 01-1.39.99zm-4.1-3.49l3.56 1.29a2.28 2.28 0 00-1.32-1.47l-.92-.34a1 1 0 00-1.32.52zM45.4 279a4.58 4.58 0 01-2.78-4v-1a2 2 0 012.78-2 4.57 4.57 0 012.79 4v1a2 2 0 01-2.79 2zm0-5a.65.65 0 00-.93.66v1a1.54 1.54 0 00.93 1.34.65.65 0 00.93-.66v-1a1.51 1.51 0 00-.93-1.34z" class="cls-6"/>
    <path d="M47.72 281.86l-4.64-1.69a.74.74 0 01-.46-.66 1.62 1.62 0 012.32-1.66l.93.34a3.79 3.79 0 012.32 3.34.33.33 0 01-.47.33z" class="cls-9"/>
    <path d="M47.72 282.86l-4.64-1.69a2.35 2.35 0 011.86-4.32l.93.34a5.33 5.33 0 013.25 4.68 1 1 0 01-1.4.99zm-4.1-3.49l3.56 1.29a2.29 2.29 0 00-1.31-1.47l-.93-.34a1 1 0 00-1.32.52zM60.26 284.42a4.57 4.57 0 01-2.79-4v-1a2 2 0 012.79-2 4.58 4.58 0 012.78 4v1a2 2 0 01-2.78 2zm0-5a.65.65 0 00-.93.66v1a1.54 1.54 0 00.93 1.34.65.65 0 00.93-.66v-1a1.53 1.53 0 00-.93-1.34z" class="cls-6"/>
    <path d="M62.58 287.26l-4.64-1.69a.75.75 0 01-.47-.66 1.63 1.63 0 012.32-1.66l.93.34a3.79 3.79 0 012.28 3.34.32.32 0 01-.42.33z" class="cls-9"/>
    <path d="M62.58 288.26l-4.64-1.68a2.35 2.35 0 011.85-4.33l.93.34a5.33 5.33 0 013.28 4.68 1 1 0 01-1.42.99zm-4.1-3.49l3.56 1.3a2.3 2.3 0 00-1.32-1.48l-.93-.34a1 1 0 00-1.31.52z" class="cls-6"/>
    <path d="M44.49 270.29v-.61c0-2.84 1.21-5 3.31-6l1.12 2a4.79 4.79 0 00-2.57 4.65v.47zM61.17 276.35l-1.86-.8v-.47a10.38 10.38 0 00-2.57-6.51l1.12-1.18a13.33 13.33 0 013.31 8.37c.02.24.01.4 0 .59zM52.83 281.72a11.36 11.36 0 01-3.48-2.08l.78-1.54a7.24 7.24 0 005.4 2l.78 2.1a7.41 7.41 0 01-3.48-.48zM137.38 205.82l-1.86-.68v-7l6.5 2.37v2l-4.64-1.69v5zM157.81 213.25l-1.86-.68v-5l-4.64-1.69v-2l6.5 2.37v7zM142.02 224.51l-6.5-2.37v-7l1.86.68v5l4.64 1.69v2zM157.81 230.25l-6.5-2.37v-2l4.64 1.69v-5l1.86.68v7z" class="cls-7"/>
    <path d="M152.58 215.08c-2.39-.8-2.37.28-1.92 1.63.22.63.16.76-.32 1.95s.71 2.29.71 2.29l1.35-1.37.76-2.06v-1.59zM144.37 220a2.82 2.82 0 01-.15-3.09c.78-1.38-1.33-3.13-2.14-4.41a12.8 12.8 0 01-1.27-3.6l3-2.14a13.83 13.83 0 012.45 1.7 7 7 0 012.31 2.34c.47 1.07.24 2.64-.46 3.1a3.27 3.27 0 01-1.21.41c-.34.06-.61 0-.64.49a.6.6 0 000 .32c.21.53.91.59 1.27.78 1 .53.42 2.31-.14 2.55s-1.13.12-1.59.39-.53 1.09-.54 1.73" class="cls-8"/>
    <path d="M146.66 222.2a12.19 12.19 0 01-7.42-10.71c0-4.41 3.33-6.78 7.42-5.3a12.18 12.18 0 017.43 10.71c0 4.41-3.33 6.78-7.43 5.3zm0-14c-3.07-1.11-5.57.67-5.57 4a9.15 9.15 0 005.57 8c3.08 1.11 5.58-.67 5.58-4a9.14 9.14 0 00-5.58-8.01z" class="cls-6"/>
    <path d="M143.69 220.44a4 4 0 01-.3-4.27c.18-.31.05-.65-1.06-2a13.17 13.17 0 01-.94-1.25 12 12 0 01-1.34-3.51l-.13-.52h1.77l.14.54a9.41 9.41 0 00.95 2.63c.16.25.43.58.71.93.93 1.13 2.48 3 1.56 4.64a1.66 1.66 0 000 1.91z" class="cls-6"/>
    <path d="M146.21 220.94l-1.85-.73c0-.55 0-1.86.86-2.33a2.81 2.81 0 011.08-.31 2.13 2.13 0 00.57-.11 1.31 1.31 0 00.3-.7 2.61 2.61 0 01-1.71-1.46 2.07 2.07 0 01-.14-.9 1.06 1.06 0 011.06-1.11h.1a2.81 2.81 0 001-.32 2 2 0 00.28-1.95 4.39 4.39 0 00-1.35-1.34c-.18-.13-.35-.27-.51-.4a12.19 12.19 0 00-2.21-1.53l.23-1.91a15.44 15.44 0 012.7 1.86l.45.35a6.92 6.92 0 012.32 2.58c.67 1.54.36 3.61-.64 4.26a2.76 2.76 0 01-.7.32 2.73 2.73 0 01-.07 4.28 3.05 3.05 0 01-.9.2 1.94 1.94 0 00-.63.15c-.1.04-.21.28-.24 1.1z" class="cls-6"/>
    <path d="M150.62 221.69c-.77-.72-1.72-2.29-1.15-3.7a6.16 6.16 0 00.38-1.06v-.15c-.26-.76-.55-1.86 0-2.54s1.87-.47 2.77-.17v2c-1-.34-1.24-.21-1.25-.2a2.22 2.22 0 00.17.75c.36 1 .19 1.45-.3 2.65a.84.84 0 00.26.93zM343.5 105.51l-18.57-6.75v-2l18.57 6.75v2zM342.11 94l-15.79-5.74a2.28 2.28 0 01-1.39-2v-1.14a1 1 0 01.95-1.07h7.89a1.56 1.56 0 01.88.32l7.89 5.7a2.34 2.34 0 011 1.77V93a1 1 0 01-1.43 1zm-15.33-7.57l14.86 5.4v-.28l-7.43-5.37h-7.43z" class="cls-6"/>
    <path d="M329.57 99.45l-1.86-.67v-9l1.86.67v9zM333.28 100.8l-1.85-.67v-9l1.85.67v9zM337 102.15l-1.86-.68v-9l1.86.68v9zM340.71 103.5l-1.85-.67v-9l1.85.67v9z" class="cls-6"/>
    <path d="M336.07 83.81l-2.79-1v-5l6.5 2.36v1a2.6 2.6 0 01-3.71 2.64zm-.93-2.34l.93.34a1.3 1.3 0 001.61-.41l-2.54-.93zM57.05 184.34l-4.4-3.98v-5.61l1.85.67v4.38l3.38 3.05-.83 1.49z" class="cls-7"/>
    <path d="M53.57 191.08c-5.63-2-10.21-8.64-10.21-14.71a8.92 8.92 0 011.37-5l1-1.44 2.23 6.81-2.65-.6a9.1 9.1 0 000 .91 13.7 13.7 0 008.35 12c4.61 1.68 8.36-1 8.36-6a13.72 13.72 0 00-8.36-12 7.86 7.86 0 00-2.75-.5l-.61-2.11a9.54 9.54 0 013.36.61c5.63 2 10.22 8.65 10.22 14.72s-4.68 9.36-10.31 7.31zM515.13 258.57a2.11 2.11 0 01-1-.75l-3.41-4.7a2.26 2.26 0 01-.44-1.31 1 1 0 01.52-.92l1-.5a1.25 1.25 0 011.26.19l1.48 1 2.41-1.21-3.32-3.5a2.39 2.39 0 01-.64-1.42 1.08 1.08 0 01.52-1.06l1.48-.74a1.29 1.29 0 011.29.21l5.67 4 2.87-1.44c1.8-.91 4.43.36 5.88 2.82.48.82.38 1.73-.21 2L516 258.56a1.05 1.05 0 01-.87.01zm.31-1.75zm-3-4.16l2.73 3.76 13.8-6.94a2.55 2.55 0 00-2.93-1.09l-3.65 1.83-6.39-4.49-.78.39 4.94 5.22-5.17 2.6-2.18-1.47zm-.41.21zm4.17-7.24z" class="cls-6"/>
    <path d="M525.3 269.44l-.27-.11a10.66 10.66 0 01-6.23-9.55 6.5 6.5 0 01.13-1.09l1.82 1.06a5.16 5.16 0 00-.09.79 7.61 7.61 0 004.44 6.82 3.61 3.61 0 003.34-.11 3.45 3.45 0 001.49-2.92 7 7 0 00-1.22-4 7.22 7.22 0 00-3.22-2.78l.07-2a10 10 0 014.51 3.89 9.84 9.84 0 011.72 5.65 4.85 4.85 0 01-2.09 4.1 5 5 0 01-4.4.25z" class="cls-7"/>
    <path d="M527.56 265.12l-3.19-2.3v-3.72l1.85.67v2.28l1.93 1.39-.59 1.68z" class="cls-7"/>
    <path d="M528.24 169.11v-2a2.28 2.28 0 003.25-2.32 5.33 5.33 0 00-3.25-4.68l-2.32-.84v-1a6.08 6.08 0 00-3.72-5.35 2.6 2.6 0 00-3.71 2.65v1l-2.32-.85a2.28 2.28 0 00-3.25 2.32 5.33 5.33 0 003.25 4.68v2a8.36 8.36 0 01-5.11-7.35c0-3 2.29-4.67 5.11-3.65l.54.2c.44-2.67 2.74-4 5.49-3a9.21 9.21 0 015.5 7l.54.2a8.37 8.37 0 015.11 7.36c0 3.02-2.29 4.65-5.11 3.63z" class="cls-6"/>
    <path d="M519.69 174a1.19 1.19 0 01-.43-.27 1.41 1.41 0 01-.47-1.3l1.12-4.35-1.39-.5a1.45 1.45 0 01-.76-.71 1.15 1.15 0 01-.11-1l2-5.25a.63.63 0 01.87-.34l5.08 1.85a1.45 1.45 0 01.78.73 1.16 1.16 0 01.08 1l-1.4 3.14.29.1a1.51 1.51 0 01.84.89.91.91 0 01-.14 1l-5.66 4.94a.67.67 0 01-.7.07zm.16-7.94l1.25.46a1.44 1.44 0 01.74.65 1.25 1.25 0 01.16.92l-.45 1.77 1.8-1.58a1.55 1.55 0 01-.47-.57 1.16 1.16 0 01-.08-1l1.43-3.09-3-1.09z" class="cls-7"/>
    <path d="M437.49 233.84L418.67 227a2.27 2.27 0 01-1.21-1.19 1.58 1.58 0 010-1.5l9.41-14.08a1 1 0 011.21-.31 2.26 2.26 0 011.2 1.18l9.41 20.9a1.58 1.58 0 010 1.5 1 1 0 01-1.2.34zm-18-8.55l17.21 6.26-8.6-19.14z" class="cls-6"/>
    <path d="M429.01 223.76l-1.86-.68v-6l1.86.68v6zM429.01 226.76l-1.86-.68v-2l1.86.68v2z" class="cls-7"/>
    <path d="M146.89 318.29c-5.12-1.86-9.29-7.86-9.29-13.38s4.17-8.48 9.29-6.62 9.28 7.86 9.28 13.37-4.17 8.49-9.28 6.63zm0-18c-4.1-1.49-7.43.89-7.43 5.3a12.18 12.18 0 007.43 10.7c4.09 1.49 7.42-.89 7.42-5.3a12.19 12.19 0 00-7.42-10.7z" class="cls-6"/>
    <path d="M146.89 311.29a4.57 4.57 0 01-2.79-4 2 2 0 012.79-2 4.58 4.58 0 012.78 4 2 2 0 01-2.78 2zm0-4a.65.65 0 00-.93.66 1.52 1.52 0 00.93 1.34.65.65 0 00.92-.66 1.5 1.5 0 00-.92-1.34z" class="cls-7"/>
    <path d="M147.81 302.63l-1.85-.68v-6l1.85.68v6zM147.81 320.63l-1.85-.68v-6l1.85.68v6zM158.03 313.34l-5.57-2.03v-2l5.57 2.03v2zM141.31 307.26l-5.57-2.02v-2l5.57 2.02v2zM52.33 96.24a1.75 1.75 0 01-.86-.74l-7.08-11.31c-2-3.27-2.27-7.41-.5-9.43a3.61 3.61 0 014-1.05A7.76 7.76 0 0152 77.15l.37.59.22-.2c2.05-1.8 5.32-.91 7.46 2a9.73 9.73 0 011.76 7.82l-1.55-1.13A6.8 6.8 0 0059 80.76c-1.5-2.08-3.82-2.69-5.29-1.4l-1.36 1.21-1.51-2.41a5.48 5.48 0 00-2.9-2.42 2.54 2.54 0 00-2.79.74c-1.24 1.42-1.07 4.36.4 6.7L52.33 94l1.15-1 1.14 1.82-1.44 1.27a.81.81 0 01-.85.15z" class="cls-6"/>
    <path d="M58.01 97.34L54.7 86.93l-1.07 2.27-3.72-1.32v-2l2.72.97 2.16-4.57 3.14 9.89 1.11-3.03L62 90.19v2l-1.87-.66-2.12 5.81z" class="cls-7"/>
  </g>
</svg>
