<svg width="588" height="441" viewBox="0 0 588 441" fill="none" xmlns="http://www.w3.org/2000/svg">
<path d="M85.4603 138.898L62.8203 130.658" stroke="#3B009B" stroke-linejoin="round" stroke-dasharray="2 2"/>
<path d="M61.4094 107.138C55.8894 101.508 49.3394 99.7376 44.0794 101.718L39.6094 103.338L41.4194 108.338C38.0794 117.338 41.0594 129.968 48.7694 137.838C50.1564 139.262 51.715 140.508 53.4094 141.548L55.4094 147.178L60.5794 145.268C63.6388 144.134 66.164 141.897 67.6594 138.998C72.6394 130.018 69.8294 115.738 61.4094 107.138Z" fill="white" stroke="#340096" stroke-width="2" stroke-miterlimit="10"/>
<path opacity="0.08" d="M67.7022 139.038C71.4022 132.298 70.7022 122.618 66.7022 114.568L59.3422 117.238L46.2422 134.858C47.0189 135.918 47.8711 136.921 48.7922 137.858C50.1792 139.282 51.7378 140.529 53.4322 141.568L55.4322 147.198L60.6022 145.288C63.6657 144.164 66.1981 141.934 67.7022 139.038Z" fill="#340096"/>
<path d="M54.8405 147.32C63.3873 143.92 66.4494 131.445 61.6799 119.457C56.9105 107.469 46.1157 100.507 37.569 103.908C29.0222 107.308 25.9601 119.783 30.7295 131.771C35.499 143.759 46.2938 150.72 54.8405 147.32Z" fill="white" stroke="#340096" stroke-width="2.0018" stroke-miterlimit="10"/>
<path d="M44.2822 136.518V134.337C43.2308 133.859 42.2831 133.179 41.4922 132.337C40.7219 131.537 40.0504 130.648 39.4922 129.688L41.0822 128.607C41.492 129.357 41.9851 130.058 42.5522 130.697C43.0796 131.274 43.7062 131.752 44.4022 132.107V126.438C43.0676 125.692 41.9082 124.669 41.0022 123.438C40.3237 122.406 39.975 121.192 40.0022 119.957C39.9395 119.432 40.0134 118.899 40.2166 118.41C40.4197 117.922 40.7454 117.494 41.1622 117.168C41.6355 116.905 42.1585 116.745 42.6976 116.696C43.2366 116.648 43.7798 116.713 44.2922 116.887V114.688L46.1522 115.368V117.567C47.0537 117.99 47.8731 118.569 48.5722 119.277C49.2896 120.005 49.8961 120.834 50.3722 121.738L48.7622 122.677C48.4498 122.087 48.067 121.536 47.6222 121.037C47.1549 120.537 46.6074 120.118 46.0022 119.798V124.988L46.0922 125.048C46.792 125.516 47.4601 126.031 48.0922 126.588C48.6154 127.029 49.0792 127.537 49.4722 128.098C49.821 128.583 50.0848 129.124 50.2522 129.697C50.4176 130.29 50.4984 130.903 50.4922 131.518C50.5799 132.081 50.5162 132.657 50.3075 133.187C50.0988 133.718 49.7527 134.183 49.3047 134.535C48.8567 134.887 48.323 135.114 47.7584 135.192C47.1938 135.27 46.6187 135.196 46.0922 134.977V137.197L44.2822 136.518ZM42.2822 120.698C42.2618 121.339 42.4476 121.97 42.8122 122.497C43.2736 123.09 43.8313 123.6 44.4622 124.007V119.198C43.9221 119.036 43.3403 119.094 42.8422 119.357C42.6401 119.514 42.4809 119.718 42.3795 119.953C42.278 120.187 42.2377 120.443 42.2622 120.698H42.2822ZM48.2822 130.848C48.2881 130.228 48.1219 129.618 47.8022 129.087C47.3277 128.415 46.7138 127.852 46.0022 127.438V132.697C46.2835 132.776 46.5791 132.79 46.8667 132.738C47.1543 132.686 47.4263 132.57 47.6622 132.398C47.8713 132.201 48.033 131.959 48.1352 131.69C48.2374 131.422 48.2774 131.134 48.2522 130.848H48.2822Z" fill="#291A8A"/>
<path d="M523.154 298.898L502.844 291.508" stroke="#3B009B" stroke-linejoin="round" stroke-dasharray="2 2"/>
<path d="M556.662 286.358C551.142 280.718 544.592 278.958 539.332 280.928L534.852 282.558L536.672 287.558C533.322 296.558 536.312 309.188 544.022 317.058C545.406 318.482 546.965 319.725 548.662 320.758L550.662 326.398L555.832 324.488C558.889 323.352 561.414 321.116 562.912 318.218C567.892 309.238 565.082 294.938 556.662 286.358Z" fill="white" stroke="#340096" stroke-width="2" stroke-miterlimit="10"/>
<path opacity="0.08" d="M563.257 318.937C566.947 312.187 566.257 302.507 562.257 294.457L554.897 297.137L541.797 314.757C542.576 315.815 543.428 316.818 544.347 317.757C545.731 319.181 547.29 320.424 548.987 321.457L550.987 327.097L556.157 325.187C559.219 324.06 561.75 321.831 563.257 318.937Z" fill="#340096"/>
<path d="M549.383 326.924C557.939 323.569 561.06 311.121 556.355 299.12C551.65 287.119 540.899 280.11 532.343 283.465C523.787 286.82 520.666 299.268 525.372 311.268C530.077 323.269 540.827 330.278 549.383 326.924Z" fill="white" stroke="#340096" stroke-width="2" stroke-miterlimit="10"/>
<path d="M543.088 309.567L539.258 305.837V300.217L540.868 300.787V305.177L543.808 308.037L543.088 309.567Z" fill="#EB4067"/>
<path d="M540.068 316.507C535.178 314.767 531.198 308.427 531.198 302.357C531.158 300.59 531.567 298.842 532.388 297.277L533.218 295.797L535.148 302.477L532.848 302.027C532.848 302.317 532.848 302.627 532.848 302.927C532.848 307.927 536.108 313.087 540.108 314.507C544.108 315.927 547.358 313.047 547.358 308.077C547.358 303.107 544.108 297.927 540.108 296.507C539.345 296.225 538.53 296.106 537.718 296.157L537.178 294.077C538.174 294.013 539.173 294.159 540.108 294.507C544.998 296.237 548.968 302.587 548.968 308.647C548.968 314.707 544.998 318.237 540.068 316.507Z" fill="#291A8A"/>
<g opacity="0.15">
<path d="M315 347.998L315.94 348.338" stroke="#FF005E" stroke-miterlimit="10"/>
<path d="M317.836 349.027L365.916 366.527" stroke="#FF005E" stroke-miterlimit="10" stroke-dasharray="2.01 2.01"/>
<path d="M366.852 366.869L367.792 367.209" stroke="#FF005E" stroke-miterlimit="10"/>
<path d="M70.6041 257.678L69.6641 257.328" stroke="#FF005E" stroke-linejoin="round"/>
<path d="M67.8032 256.658L23.0032 240.348C22.7619 240.26 22.5534 240.1 22.4061 239.89C22.2587 239.68 22.1797 239.429 22.1797 239.173C22.1797 238.916 22.2587 238.665 22.4061 238.455C22.5534 238.245 22.7619 238.085 23.0032 237.998L89.3632 213.848" stroke="#FF005E" stroke-linejoin="round" stroke-dasharray="1.97 1.97"/>
<path d="M90.2969 213.508L91.2369 213.168" stroke="#FF005E" stroke-linejoin="round"/>
<path d="M134.831 281.059L133.891 280.709" stroke="#FF005E" stroke-linejoin="round"/>
<path d="M132.022 280.028L84.3516 262.678" stroke="#FF005E" stroke-linejoin="round" stroke-dasharray="1.99 1.99"/>
<path d="M83.4244 262.338L82.4844 261.998" stroke="#FF005E" stroke-linejoin="round"/>
<path d="M379.211 371.369L380.151 371.709" stroke="#FF005E" stroke-linejoin="round"/>
<path d="M382 372.388L426.27 388.498C428.922 389.463 431.828 389.463 434.48 388.498L500.48 364.498" stroke="#FF005E" stroke-linejoin="round" stroke-dasharray="1.98 1.98"/>
<path d="M501.453 364.129L502.383 363.789" stroke="#FF005E" stroke-linejoin="round"/>
<path d="M136.066 277.598L124.846 281.598C124.628 281.676 124.439 281.819 124.306 282.008C124.173 282.197 124.102 282.422 124.102 282.653C124.102 282.884 124.173 283.11 124.306 283.299C124.439 283.488 124.628 283.631 124.846 283.708L312.126 352.938C313.892 353.581 315.829 353.581 317.596 352.938L327.596 349.348C327.813 349.271 328.002 349.128 328.135 348.939C328.268 348.75 328.34 348.524 328.34 348.293C328.34 348.062 328.268 347.837 328.135 347.648C328.002 347.459 327.813 347.316 327.596 347.238L139.096 277.568C138.112 277.228 137.042 277.238 136.066 277.598Z" fill="#FF005E"/>
<path d="M322.612 291.028L311.492 295.078C311.275 295.152 311.087 295.292 310.954 295.479C310.821 295.665 310.75 295.889 310.75 296.118C310.75 296.346 310.821 296.57 310.954 296.756C311.087 296.943 311.275 297.083 311.492 297.158L496.782 364.608C498.552 365.248 500.491 365.248 502.262 364.608L512.162 360.998C512.374 360.918 512.556 360.776 512.686 360.591C512.815 360.405 512.884 360.184 512.884 359.958C512.884 359.731 512.815 359.51 512.686 359.324C512.556 359.139 512.374 358.997 512.162 358.918L325.642 291.028C324.664 290.668 323.59 290.668 322.612 291.028Z" fill="#FF005E"/>
<path d="M97.7943 209.588L86.5643 213.678C86.3466 213.756 86.1582 213.899 86.025 214.088C85.8918 214.277 85.8203 214.502 85.8203 214.733C85.8203 214.964 85.8918 215.19 86.025 215.379C86.1582 215.568 86.3466 215.711 86.5643 215.788L275.054 284.388C276.046 284.748 277.133 284.748 278.124 284.388L289.354 280.298C289.572 280.221 289.76 280.078 289.894 279.889C290.027 279.7 290.098 279.474 290.098 279.243C290.098 279.012 290.027 278.787 289.894 278.598C289.76 278.409 289.572 278.266 289.354 278.188L100.864 209.588C99.8726 209.228 98.786 209.228 97.7943 209.588Z" fill="#FF005E"/>
<path d="M71.8469 255.058L63.2969 258.168C63.0317 258.168 62.7773 258.273 62.5898 258.461C62.4022 258.648 62.2969 258.902 62.2969 259.168C62.2969 259.433 62.4022 259.687 62.5898 259.875C62.7773 260.062 63.0317 260.168 63.2969 260.168L88.1369 269.168C89.4641 269.652 90.9196 269.652 92.2469 269.168L100.167 266.278C100.388 266.227 100.585 266.103 100.726 265.926C100.868 265.749 100.945 265.529 100.945 265.303C100.945 265.076 100.868 264.856 100.726 264.679C100.585 264.502 100.388 264.378 100.167 264.328L74.6969 255.058C73.7773 254.718 72.7665 254.718 71.8469 255.058Z" fill="#FF005E"/>
<path d="M368.654 364.379L360.094 367.489C359.829 367.489 359.574 367.594 359.387 367.782C359.199 367.969 359.094 368.224 359.094 368.489C359.094 368.754 359.199 369.009 359.387 369.196C359.574 369.384 359.829 369.489 360.094 369.489L384.934 378.489C386.26 378.979 387.718 378.979 389.044 378.489L396.964 375.609C397.229 375.609 397.483 375.504 397.671 375.316C397.858 375.129 397.964 374.874 397.964 374.609C397.964 374.344 397.858 374.089 397.671 373.902C397.483 373.714 397.229 373.609 396.964 373.609L371.504 364.339C370.578 364.022 369.571 364.036 368.654 364.379Z" fill="#FF005E"/>
</g>
<path opacity="0.95" d="M508.427 221.137L319.627 153.657C319.116 153.456 318.548 153.456 318.037 153.657L309.587 156.727C309.139 156.872 308.749 157.156 308.473 157.537C308.196 157.917 308.047 158.376 308.047 158.847V282.937C308.049 283.864 308.338 284.768 308.876 285.524C309.413 286.28 310.172 286.85 311.047 287.157L499.847 354.637C500.337 354.817 500.876 354.817 501.367 354.637L509.887 351.537C510.331 351.387 510.717 351.102 510.991 350.722C511.266 350.342 511.414 349.885 511.417 349.417V225.417C511.428 224.48 511.146 223.564 510.61 222.796C510.073 222.028 509.31 221.448 508.427 221.137Z" fill="white"/>
<path opacity="0.05" d="M510.543 222.727L502.003 225.847C502.559 226.611 502.859 227.531 502.863 228.477V352.477C502.863 352.937 502.721 353.385 502.456 353.761C502.191 354.137 501.816 354.422 501.383 354.577L509.903 351.477C510.347 351.327 510.733 351.042 511.007 350.662C511.282 350.282 511.43 349.825 511.433 349.357V225.357C511.425 224.407 511.113 223.486 510.543 222.727Z" fill="#340096"/>
<path d="M501.36 354.598L509.88 351.498C510.324 351.348 510.711 351.063 510.985 350.683C511.259 350.303 511.408 349.847 511.41 349.378V225.378C511.409 224.451 511.119 223.547 510.582 222.791C510.044 222.035 509.286 221.465 508.41 221.158L319.61 153.678C319.099 153.477 318.531 153.477 318.02 153.678L309.57 156.748" stroke="#340096" stroke-width="2" stroke-linejoin="round"/>
<mask id="mask0_40108_31720" style="mask-type:luminance" maskUnits="userSpaceOnUse" x="308" y="156" width="195" height="199">
<path d="M308.063 282.938V158.938C308.062 158.578 308.148 158.224 308.314 157.904C308.479 157.585 308.72 157.31 309.014 157.103C309.308 156.896 309.648 156.763 310.005 156.715C310.361 156.667 310.724 156.706 311.063 156.828L499.862 224.308C500.738 224.615 501.497 225.185 502.034 225.941C502.571 226.697 502.861 227.601 502.862 228.528V352.528C502.863 352.888 502.777 353.243 502.611 353.562C502.446 353.881 502.205 354.156 501.911 354.363C501.617 354.57 501.277 354.703 500.92 354.751C500.564 354.799 500.201 354.76 499.862 354.638L311.003 287.128C310.143 286.814 309.401 286.243 308.875 285.494C308.35 284.745 308.066 283.853 308.063 282.938Z" fill="white"/>
</mask>
<g mask="url(#mask0_40108_31720)">
<path opacity="0.12" d="M506.151 259.809L297.641 183.979" stroke="#340096" stroke-linejoin="round"/>
<path opacity="0.12" d="M506.268 291.978L297.758 216.148" stroke="#340096" stroke-linejoin="round"/>
<path opacity="0.12" d="M506.393 324.148L297.883 248.318" stroke="#340096" stroke-linejoin="round"/>
<path d="M303.242 240.399L318.472 227.059L336.112 254.129L354.572 242.389L371.832 199.779L394.652 295.349L410.932 276.379L426.212 281.689L446.142 250.119L454.732 275.119L476.802 295.699L494.732 276.259L506.392 288.669" stroke="#5700FC" stroke-width="2" stroke-linejoin="round"/>
</g>
<path d="M308.063 282.938V158.938C308.062 158.578 308.148 158.224 308.314 157.904C308.479 157.585 308.72 157.31 309.014 157.103C309.308 156.896 309.648 156.763 310.005 156.715C310.361 156.667 310.724 156.706 311.063 156.828L499.862 224.308C500.738 224.615 501.497 225.185 502.034 225.941C502.571 226.697 502.861 227.601 502.862 228.528V352.528C502.863 352.888 502.777 353.243 502.611 353.562C502.446 353.881 502.205 354.156 501.911 354.363C501.617 354.57 501.277 354.703 500.92 354.751C500.564 354.799 500.201 354.76 499.862 354.638L311.003 287.128C310.143 286.814 309.401 286.243 308.875 285.494C308.35 284.745 308.066 283.853 308.063 282.938Z" stroke="#340096" stroke-width="2" stroke-linejoin="round"/>
<path opacity="0.95" d="M285.888 140.138L97.0875 72.6584C96.5731 72.4576 96.002 72.4576 95.4875 72.6584L87.0475 75.7284C86.5869 75.8803 86.1882 76.1782 85.9121 76.577C85.636 76.9758 85.4975 77.4538 85.5175 77.9384V201.938C85.5207 202.865 85.8108 203.769 86.348 204.524C86.8851 205.28 87.643 205.851 88.5175 206.158L277.318 273.638C277.812 273.819 278.353 273.819 278.848 273.638L287.368 270.538C287.813 270.391 288.201 270.107 288.476 269.726C288.751 269.345 288.898 268.888 288.898 268.418V144.418C288.906 143.48 288.62 142.562 288.08 141.795C287.541 141.027 286.774 140.448 285.888 140.138Z" fill="white"/>
<path opacity="0.05" d="M288 141.727L279.43 144.847C279.99 145.609 280.292 146.531 280.29 147.477V271.477C280.292 271.936 280.152 272.384 279.889 272.76C279.626 273.136 279.252 273.421 278.82 273.577L287.34 270.477C287.786 270.329 288.174 270.045 288.449 269.664C288.723 269.284 288.871 268.826 288.87 268.357V144.357C288.864 143.41 288.56 142.49 288 141.727Z" fill="#340096"/>
<path d="M278.817 273.598L287.337 270.498C287.783 270.351 288.17 270.067 288.445 269.686C288.72 269.306 288.867 268.848 288.867 268.378V144.378C288.864 143.451 288.574 142.548 288.036 141.792C287.499 141.037 286.741 140.466 285.867 140.158L97.0869 72.6584C96.5724 72.4576 96.0013 72.4576 95.4869 72.6584L87.0469 75.7284" stroke="#340096" stroke-width="2" stroke-linejoin="round"/>
<mask id="mask1_40108_31720" style="mask-type:luminance" maskUnits="userSpaceOnUse" x="85" y="75" width="196" height="199">
<path d="M85.5234 201.938V77.9382C85.523 77.5784 85.6092 77.2238 85.7748 76.9044C85.9404 76.5849 86.1805 76.3101 86.4748 76.1031C86.7691 75.8961 87.1089 75.7631 87.4655 75.7152C87.8221 75.6674 88.185 75.7061 88.5234 75.8282L277.323 143.308C278.198 143.616 278.956 144.187 279.493 144.942C280.03 145.698 280.32 146.601 280.323 147.528V271.528C280.324 271.888 280.238 272.243 280.072 272.562C279.906 272.881 279.666 273.156 279.372 273.363C279.078 273.57 278.738 273.703 278.381 273.751C278.025 273.799 277.662 273.76 277.323 273.638L88.4934 206.128C87.6293 205.817 86.8813 205.249 86.3502 204.5C85.8191 203.751 85.5306 202.856 85.5234 201.938Z" fill="white"/>
</mask>
<g mask="url(#mask1_40108_31720)">
<path opacity="0.12" d="M290.945 181.488L82.4453 105.658" stroke="#340096" stroke-linejoin="round"/>
<path opacity="0.12" d="M291.062 213.648L82.5625 137.818" stroke="#340096" stroke-linejoin="round"/>
<path opacity="0.12" d="M291.182 245.818L82.6719 169.988" stroke="#340096" stroke-linejoin="round"/>
<path d="M81.6328 167.148L93.4128 154.888L108.653 174.688L123.393 159.258L146.613 207.668L164.303 183.898L180.563 181.888L199.273 136.928L214.413 190.198L228.223 177.388L245.653 207.668L257.143 200.888L268.233 222.658L283.843 213.208" stroke="#B300B0" stroke-width="2" stroke-linejoin="round"/>
</g>
<path d="M85.5234 201.938V77.9382C85.523 77.5784 85.6092 77.2238 85.7748 76.9044C85.9404 76.5849 86.1805 76.3101 86.4748 76.1031C86.7691 75.8961 87.1089 75.7631 87.4655 75.7152C87.8221 75.6674 88.185 75.7061 88.5234 75.8282L277.323 143.308C278.198 143.616 278.956 144.187 279.493 144.942C280.03 145.698 280.32 146.601 280.323 147.528V271.528C280.324 271.888 280.238 272.243 280.072 272.562C279.906 272.881 279.666 273.156 279.372 273.363C279.078 273.57 278.738 273.703 278.381 273.751C278.025 273.799 277.662 273.76 277.323 273.638L88.4934 206.128C87.6293 205.817 86.8813 205.249 86.3502 204.5C85.8191 203.751 85.5306 202.857 85.5234 201.938Z" stroke="#340096" stroke-width="2" stroke-linejoin="round"/>
<path opacity="0.97" d="M323.77 208.748L135 140.198C134.489 139.997 133.921 139.997 133.41 140.198L124.97 143.198C124.523 143.342 124.133 143.623 123.856 144.002C123.58 144.381 123.43 144.838 123.43 145.308V269.308C123.433 270.237 123.723 271.143 124.26 271.902C124.797 272.66 125.554 273.235 126.43 273.548L315.23 342.088C315.724 342.268 316.266 342.268 316.76 342.088L325.28 339.028C325.723 338.883 326.109 338.602 326.384 338.225C326.659 337.848 326.808 337.394 326.81 336.928V212.928C326.792 212.003 326.492 211.107 325.948 210.359C325.404 209.611 324.644 209.049 323.77 208.748Z" fill="white"/>
<path opacity="0.05" d="M325.883 210.348L317.313 213.418C317.869 214.186 318.17 215.109 318.173 216.058V340.058C318.172 340.515 318.03 340.96 317.767 341.334C317.504 341.708 317.133 341.992 316.703 342.148L325.223 339.088C325.666 338.943 326.053 338.662 326.327 338.285C326.602 337.908 326.751 337.454 326.753 336.988V212.988C326.747 212.038 326.443 211.115 325.883 210.348Z" fill="#340096"/>
<path d="M316.699 342.168L325.219 339.108C325.662 338.963 326.048 338.682 326.323 338.305C326.598 337.928 326.747 337.474 326.749 337.008V213.008C326.747 212.078 326.457 211.172 325.92 210.413C325.383 209.654 324.625 209.079 323.749 208.768L134.999 140.198C134.488 139.997 133.92 139.997 133.409 140.198L124.969 143.198" stroke="#340096" stroke-width="2" stroke-linejoin="round"/>
<mask id="mask2_40108_31720" style="mask-type:luminance" maskUnits="userSpaceOnUse" x="123" y="143" width="196" height="200">
<path d="M123.391 269.387V145.387C123.392 145.028 123.479 144.675 123.645 144.357C123.812 144.039 124.052 143.765 124.346 143.559C124.64 143.353 124.979 143.221 125.335 143.174C125.691 143.127 126.053 143.165 126.391 143.287L315.201 211.817C316.076 212.13 316.834 212.705 317.37 213.463C317.907 214.222 318.197 215.128 318.201 216.057V340.057C318.2 340.416 318.113 340.77 317.947 341.088C317.78 341.406 317.54 341.679 317.245 341.884C316.951 342.089 316.611 342.22 316.255 342.266C315.899 342.312 315.537 342.271 315.201 342.147L126.401 273.607C125.527 273.297 124.769 272.726 124.231 271.971C123.692 271.217 123.399 270.314 123.391 269.387Z" fill="white"/>
</mask>
<g mask="url(#mask2_40108_31720)">
<path opacity="0.12" d="M325.33 248.428L116.82 172.598" stroke="#340096" stroke-linejoin="round"/>
<path opacity="0.12" d="M325.448 280.598L116.938 204.768" stroke="#340096" stroke-linejoin="round"/>
<path opacity="0.12" d="M325.573 312.767L117.062 236.938" stroke="#340096" stroke-linejoin="round"/>
<path d="M318.171 302.917L310.761 290.917L304.211 295.357L297.811 275.267L289.581 272.107L278.761 235.697L259.431 279.917L249.311 239.277L237.161 257.027L228.221 245.237L219.311 198.177L204.731 248.487L190.351 271.947L177.671 237.137L172.241 244.417L159.871 194.697L152.821 216.467L145.281 221.857L136.871 238.547L129.971 220.447L123.391 226.947" stroke="#FF0061" stroke-width="2" stroke-linejoin="round"/>
</g>
<path d="M123.391 269.387V145.387C123.392 145.028 123.479 144.675 123.645 144.357C123.812 144.039 124.052 143.765 124.346 143.559C124.64 143.353 124.979 143.221 125.335 143.174C125.691 143.127 126.053 143.165 126.391 143.287L315.201 211.817C316.076 212.13 316.834 212.705 317.37 213.463C317.907 214.222 318.197 215.128 318.201 216.057V340.057C318.2 340.416 318.113 340.77 317.947 341.088C317.78 341.406 317.54 341.679 317.245 341.884C316.951 342.089 316.611 342.22 316.255 342.266C315.899 342.312 315.537 342.271 315.201 342.147L126.401 273.607C125.527 273.297 124.769 272.726 124.231 271.971C123.692 271.217 123.399 270.314 123.391 269.387Z" stroke="#340096" stroke-width="2" stroke-linejoin="round"/>
<path d="M326.297 336.107L327.237 336.457" stroke="#3B009B" stroke-miterlimit="10"/>
<path d="M329.18 337.158L359.3 348.118" stroke="#3B009B" stroke-miterlimit="10" stroke-dasharray="2.07 2.07"/>
<path d="M360.273 348.477L361.213 348.817" stroke="#3B009B" stroke-miterlimit="10"/>
<path d="M59.3228 238.938L58.3828 238.598" stroke="#3B009B" stroke-linejoin="round"/>
<path d="M56.4904 237.938L21.1204 225.038C20.8791 224.95 20.6706 224.79 20.5233 224.58C20.3759 224.37 20.2969 224.119 20.2969 223.863C20.2969 223.606 20.3759 223.355 20.5233 223.145C20.6706 222.935 20.8791 222.775 21.1204 222.688L83.7104 199.938" stroke="#3B009B" stroke-linejoin="round" stroke-dasharray="2.01 2.01"/>
<path d="M84.6484 199.567L85.5884 199.217" stroke="#3B009B" stroke-linejoin="round"/>
<path d="M73.7271 232.137C71.1771 231.137 67.9771 231.977 65.2871 234.727C61.2371 238.867 59.8771 245.727 62.2871 250.087C62.9971 251.457 64.1804 252.523 65.6171 253.087L84.4271 259.937L92.1071 238.817L73.7271 232.137Z" fill="white"/>
<mask id="mask3_40108_31720" style="mask-type:luminance" maskUnits="userSpaceOnUse" x="61" y="231" width="32" height="29">
<path d="M73.7271 232.137C71.1771 231.137 67.9771 231.977 65.2871 234.727C61.2371 238.867 59.8771 245.727 62.2871 250.087C62.9971 251.457 64.1804 252.523 65.6171 253.087L84.4271 259.937L92.1071 238.817L73.7271 232.137Z" fill="white"/>
</mask>
<g mask="url(#mask3_40108_31720)">
<g opacity="0.05">
<path d="M60.1738 253.847L86.7738 265.987L93.8037 256.817L57.8438 243.727L60.1738 253.847Z" fill="#2E1091"/>
</g>
</g>
<path d="M73.7271 232.137C71.1771 231.137 67.9771 231.977 65.2871 234.727C61.2371 238.867 59.8771 245.727 62.2871 250.087C62.9971 251.457 64.1804 252.523 65.6171 253.087L84.4271 259.937L92.1071 238.817L73.7271 232.137Z" stroke="#340096" stroke-width="2" stroke-linejoin="round"/>
<path d="M95.8847 252.36C98.1508 246.581 96.649 240.587 92.5305 238.972C88.412 237.357 83.2363 240.733 80.9702 246.512C78.7042 252.292 80.2059 258.286 84.3244 259.901C88.443 261.515 93.6187 258.139 95.8847 252.36Z" fill="#F5F2F9" stroke="#340096" stroke-width="2" stroke-linejoin="round"/>
<path opacity="0.05" d="M77.4535 233.777C74.9435 232.887 71.8335 233.777 69.2135 236.437C65.2135 240.577 63.8035 247.437 66.2135 251.797C66.9393 253.225 68.1848 254.32 69.6935 254.857" stroke="#340096" stroke-miterlimit="10"/>
<path d="M123.198 262.188L122.258 261.848" stroke="#3B009B" stroke-linejoin="round"/>
<path d="M120.372 261.157L83.4219 247.707" stroke="#3B009B" stroke-linejoin="round" stroke-dasharray="2.02 2.02"/>
<path d="M82.4791 247.367L81.5391 247.027" stroke="#3B009B" stroke-linejoin="round"/>
<path d="M373.278 341.168C370.728 340.168 367.528 341.008 364.838 343.758C360.838 347.898 359.428 354.758 361.838 359.118C362.551 360.486 363.734 361.551 365.168 362.118L383.998 368.938L391.678 347.818L373.278 341.168Z" fill="white"/>
<mask id="mask4_40108_31720" style="mask-type:luminance" maskUnits="userSpaceOnUse" x="360" y="340" width="32" height="29">
<path d="M373.278 341.168C370.728 340.168 367.528 341.008 364.838 343.758C360.838 347.898 359.428 354.758 361.838 359.118C362.551 360.486 363.734 361.551 365.168 362.118L383.998 368.938L391.678 347.818L373.278 341.168Z" fill="white"/>
</mask>
<g mask="url(#mask4_40108_31720)">
<g opacity="0.05">
<path d="M359.728 362.868L386.328 375.008L393.358 365.838L357.398 352.758L359.728 362.868Z" fill="#2E1091"/>
</g>
</g>
<path d="M373.278 341.168C370.728 340.168 367.528 341.008 364.838 343.758C360.838 347.898 359.428 354.758 361.838 359.118C362.551 360.486 363.734 361.551 365.168 362.118L383.998 368.938L391.678 347.818L373.278 341.168Z" stroke="#340096" stroke-width="2" stroke-linejoin="round"/>
<path d="M395.424 361.378C397.69 355.598 396.188 349.604 392.07 347.989C387.951 346.375 382.775 349.75 380.509 355.53C378.243 361.309 379.745 367.303 383.864 368.918C387.982 370.533 393.158 367.157 395.424 361.378Z" fill="#F5F2F9" stroke="#340096" stroke-width="2" stroke-linejoin="round"/>
<path opacity="0.05" d="M377.004 342.798C374.494 341.918 371.384 342.798 368.764 345.468C364.714 349.608 363.354 356.468 365.764 360.828C366.496 362.251 367.739 363.344 369.244 363.888" stroke="#340096" stroke-miterlimit="10"/>
<path d="M381.094 356.047L382.034 356.397" stroke="#3B009B" stroke-linejoin="round"/>
<path d="M383.922 357.078L427.222 372.838C429.873 373.803 432.78 373.803 435.432 372.838L500.502 349.158" stroke="#3B009B" stroke-linejoin="round" stroke-dasharray="2.01 2.01"/>
<path d="M501.453 348.807L502.383 348.467" stroke="#3B009B" stroke-linejoin="round"/>
<path d="M148.227 306.533L141.895 304.211V302.539L144.778 300.978C145.258 300.715 145.614 300.448 145.846 300.177C146.077 299.896 146.193 299.551 146.193 299.139V299.002C146.193 298.545 146.073 298.154 145.833 297.828C145.593 297.503 145.258 297.261 144.829 297.104C144.357 296.931 143.997 296.936 143.748 297.119C143.499 297.302 143.319 297.574 143.208 297.935L141.74 296.808C141.835 296.531 141.968 296.283 142.139 296.063C142.32 295.837 142.538 295.661 142.796 295.536C143.062 295.414 143.375 295.355 143.735 295.36C144.095 295.355 144.507 295.437 144.971 295.607C145.451 295.783 145.876 296.012 146.245 296.293C146.622 296.569 146.94 296.882 147.197 297.232C147.454 297.573 147.647 297.941 147.776 298.335C147.913 298.733 147.982 299.137 147.982 299.548C147.982 299.941 147.922 300.28 147.802 300.565C147.69 300.853 147.532 301.11 147.326 301.336C147.12 301.553 146.875 301.747 146.592 301.917C146.318 302.091 146.017 302.255 145.691 302.409L143.735 303.378L148.227 305.025V306.533ZM152.726 308.347C152.142 308.133 151.636 307.838 151.207 307.461C150.778 307.075 150.422 306.621 150.139 306.096C149.864 305.575 149.659 304.984 149.521 304.321C149.393 303.662 149.328 302.939 149.328 302.153C149.328 301.376 149.393 300.705 149.521 300.14C149.659 299.569 149.864 299.124 150.139 298.804C150.422 298.488 150.778 298.298 151.207 298.236C151.636 298.165 152.142 298.237 152.726 298.45C153.893 298.878 154.751 299.627 155.3 300.696C155.849 301.766 156.123 303.082 156.123 304.644C156.123 306.207 155.849 307.322 155.3 307.989C154.751 308.655 153.893 308.775 152.726 308.347ZM152.726 306.908C153.343 307.134 153.777 307.06 154.026 306.685C154.283 306.304 154.412 305.698 154.412 304.867V303.167C154.412 302.335 154.283 301.64 154.026 301.079C153.777 300.513 153.343 300.116 152.726 299.89C152.108 299.663 151.67 299.74 151.413 300.121C151.164 300.496 151.04 301.099 151.04 301.931V303.63C151.04 304.462 151.164 305.161 151.413 305.727C151.67 306.288 152.108 306.681 152.726 306.908ZM152.726 304.207C152.425 304.097 152.215 303.956 152.095 303.784C151.984 303.616 151.928 303.44 151.928 303.257V302.955C151.928 302.773 151.984 302.638 152.095 302.551C152.215 302.467 152.425 302.48 152.726 302.59C153.026 302.7 153.232 302.84 153.343 303.008C153.464 303.18 153.524 303.358 153.524 303.541V303.842C153.524 304.025 153.464 304.158 153.343 304.242C153.232 304.329 153.026 304.318 152.726 304.207ZM163.66 312.192L157.328 309.87V308.198L160.211 306.637C160.691 306.374 161.047 306.107 161.279 305.836C161.51 305.555 161.626 305.209 161.626 304.798V304.661C161.626 304.204 161.506 303.813 161.266 303.487C161.026 303.161 160.691 302.92 160.262 302.763C159.79 302.59 159.43 302.595 159.181 302.778C158.932 302.96 158.752 303.233 158.641 303.594L157.173 302.466C157.268 302.19 157.401 301.942 157.572 301.722C157.753 301.495 157.971 301.32 158.229 301.195C158.495 301.073 158.808 301.014 159.168 301.018C159.529 301.013 159.94 301.096 160.404 301.266C160.884 301.442 161.309 301.671 161.678 301.952C162.055 302.228 162.373 302.541 162.63 302.891C162.887 303.232 163.08 303.6 163.209 303.994C163.346 304.392 163.415 304.796 163.415 305.207C163.415 305.6 163.355 305.939 163.235 306.224C163.123 306.512 162.965 306.769 162.759 306.995C162.553 307.212 162.308 307.406 162.025 307.576C161.751 307.75 161.45 307.914 161.124 308.068L159.168 309.037L163.66 310.684V312.192ZM171.376 315.021L165.044 312.699V311.027L167.927 309.466C168.408 309.204 168.764 308.937 168.995 308.665C169.227 308.385 169.343 308.039 169.343 307.627V307.49C169.343 307.034 169.223 306.642 168.982 306.317C168.742 305.991 168.408 305.749 167.979 305.592C167.507 305.419 167.146 305.424 166.898 305.607C166.649 305.79 166.469 306.062 166.357 306.423L164.89 305.296C164.984 305.02 165.117 304.771 165.289 304.551C165.469 304.325 165.688 304.149 165.945 304.024C166.211 303.902 166.524 303.844 166.885 303.848C167.245 303.843 167.657 303.925 168.12 304.095C168.601 304.271 169.025 304.5 169.394 304.782C169.772 305.057 170.089 305.37 170.347 305.72C170.604 306.061 170.797 306.429 170.926 306.823C171.063 307.221 171.132 307.625 171.132 308.037C171.132 308.43 171.072 308.769 170.951 309.053C170.84 309.342 170.681 309.599 170.475 309.825C170.269 310.042 170.025 310.235 169.742 310.406C169.467 310.579 169.167 310.743 168.841 310.898L166.885 311.866L171.376 313.513V315.021Z" fill="#340096"/>
<path d="M167.231 89.84C166.679 89.6377 166.208 89.3635 165.815 89.0174C165.429 88.6735 165.114 88.2901 164.869 87.8674L165.595 87.3308C165.834 87.7122 166.091 88.0252 166.367 88.2699C166.649 88.5103 166.949 88.689 167.268 88.8058C167.635 88.9407 167.917 88.9559 168.113 88.8516C168.31 88.7472 168.408 88.5286 168.408 88.1957C168.408 87.9216 168.334 87.689 168.187 87.498C168.04 87.3005 167.792 87.1083 167.442 86.9215L166.762 86.5546C166.168 86.2257 165.745 85.8422 165.494 85.4041C165.242 84.9595 165.117 84.499 165.117 84.0225C165.117 83.3698 165.316 82.9435 165.714 82.7436C166.113 82.5372 166.664 82.5632 167.369 82.8216C167.871 83.0058 168.303 83.2491 168.665 83.5514C169.033 83.8559 169.327 84.1955 169.548 84.5701L168.84 85.1134C168.668 84.8351 168.463 84.5901 168.224 84.3785C167.985 84.1603 167.703 83.9917 167.378 83.8726C166.679 83.6164 166.33 83.7951 166.33 84.4087C166.33 84.6697 166.404 84.8958 166.551 85.0868C166.698 85.2778 166.949 85.4711 167.305 85.6667L167.976 86.04C168.533 86.3555 168.947 86.7258 169.217 87.151C169.486 87.5762 169.621 88.0434 169.621 88.5525C169.621 88.8724 169.569 89.147 169.465 89.3764C169.361 89.5993 169.207 89.7716 169.005 89.8932C168.803 90.0084 168.552 90.0631 168.251 90.0574C167.957 90.054 167.617 89.9815 167.231 89.84ZM173.414 86.213V91.9895L172.219 91.5513V85.7748L170.288 85.067V84.0096L175.344 85.8634V86.9208L173.414 86.213ZM179.698 94.2936L179.247 92.3955L177.345 91.6978L176.903 93.269L175.69 92.8241L177.492 86.6507L179.165 87.2642L180.976 94.7621L179.698 94.2936ZM178.337 88.2238L178.264 88.1969L177.556 90.7277L179.045 91.2737L178.337 88.2238ZM183.022 95.5124L181.818 95.0709V88.2369L184.254 89.1301C184.879 89.3593 185.357 89.7239 185.688 90.2238C186.019 90.7237 186.184 91.3 186.184 91.9528C186.184 92.4553 186.074 92.8392 185.853 93.1042C185.639 93.365 185.329 93.4669 184.925 93.41L186.294 96.7124L184.971 96.227L183.748 93.1254L183.022 92.8591V95.5124ZM184.005 92.2211C184.33 92.3402 184.563 92.3571 184.704 92.2717C184.845 92.1798 184.915 91.9804 184.915 91.6736V91.3016C184.915 90.9948 184.845 90.7471 184.704 90.5583C184.563 90.363 184.33 90.2058 184.005 90.0867L183.022 89.7261V91.8605L184.005 92.2211ZM187.329 90.2579L189.563 91.077C190.17 91.2994 190.636 91.6334 190.96 92.0788C191.291 92.52 191.457 93.018 191.457 93.5728C191.457 93.9644 191.365 94.244 191.181 94.4116C191.003 94.5814 190.749 94.6579 190.418 94.641V94.6899C190.804 94.9294 191.108 95.2201 191.328 95.5621C191.555 95.8998 191.668 96.3036 191.668 96.7736C191.668 97.0608 191.622 97.305 191.53 97.5063C191.445 97.7033 191.319 97.8563 191.153 97.9653C190.994 98.0766 190.798 98.1353 190.565 98.1413C190.338 98.1495 190.081 98.1008 189.793 97.9952L187.329 97.0919V90.2579ZM189.425 96.9303C189.762 97.0538 190.014 97.0807 190.179 97.0108C190.351 96.9367 190.436 96.7364 190.436 96.4101V96.087C190.436 95.7671 190.351 95.5105 190.179 95.317C190.014 95.1193 189.762 94.9586 189.425 94.835L188.506 94.498V96.5932L189.425 96.9303ZM189.269 93.8868C189.594 94.0059 189.833 94.0315 189.986 93.9636C190.145 93.8981 190.225 93.7119 190.225 93.4051V93.082C190.225 92.7752 190.145 92.5306 189.986 92.3482C189.833 92.168 189.594 92.0183 189.269 91.8992L188.506 91.6195V93.607L189.269 93.8868ZM193.88 92.6598V96.9188C193.88 97.1734 193.886 97.4041 193.898 97.6109C193.917 97.82 193.957 98.0075 194.018 98.1736C194.085 98.3354 194.183 98.4791 194.312 98.6046C194.447 98.7323 194.631 98.8389 194.864 98.9243C195.096 99.0097 195.277 99.0368 195.406 99.0057C195.541 98.9768 195.639 98.905 195.7 98.7904C195.768 98.6715 195.807 98.5132 195.82 98.3153C195.838 98.1197 195.847 97.8946 195.847 97.6401V93.3811L197.051 93.8226V97.8858C197.051 98.3688 197.024 98.7797 196.969 99.1185C196.913 99.4573 196.806 99.7182 196.647 99.9013C196.488 100.084 196.264 100.185 195.976 100.204C195.694 100.218 195.323 100.14 194.864 99.9719C194.404 99.8034 194.03 99.6076 193.742 99.3845C193.46 99.1571 193.24 98.8934 193.08 98.5935C192.921 98.2936 192.814 97.954 192.759 97.5748C192.703 97.1956 192.676 96.7645 192.676 96.2814V92.2183L193.88 92.6598ZM200.541 102.054C199.701 101.746 199.079 101.211 198.675 100.449C198.276 99.6894 198.077 98.745 198.077 97.6158C198.077 96.4931 198.276 95.698 198.675 95.2305C199.079 94.7588 199.701 94.6768 200.541 94.9846C200.86 95.1015 201.138 95.2494 201.377 95.4284C201.622 95.6097 201.834 95.8145 202.012 96.0428C202.189 96.2646 202.336 96.5111 202.453 96.7823C202.569 97.0469 202.661 97.3254 202.729 97.6177L201.626 97.5461C201.583 97.3737 201.534 97.2089 201.478 97.0516C201.423 96.8943 201.353 96.751 201.267 96.6216C201.187 96.488 201.086 96.3726 200.964 96.2754C200.841 96.1717 200.694 96.0884 200.522 96.0255C200.106 95.8727 199.805 95.9323 199.622 96.2043C199.444 96.4786 199.355 96.9094 199.355 97.4969V98.6717C199.355 99.2592 199.444 99.7552 199.622 100.16C199.805 100.567 200.106 100.846 200.522 100.999C200.694 101.062 200.841 101.09 200.964 101.083C201.086 101.069 201.187 101.028 201.267 100.959C201.353 100.886 201.423 100.791 201.478 100.674C201.534 100.557 201.583 100.428 201.626 100.288L202.729 101.025C202.661 101.268 202.569 101.482 202.453 101.668C202.336 101.847 202.189 101.986 202.012 102.084C201.834 102.175 201.622 102.222 201.377 102.223C201.138 102.227 200.86 102.17 200.541 102.054ZM205.676 100.823L205.005 101.517V103.573L203.801 103.131V96.2973L205.005 96.7389V99.8132L205.06 99.8334L205.804 98.9707L207.156 97.5276L208.516 98.0264L206.503 100.167L208.608 104.894L207.248 104.395L205.676 100.823ZM211.325 106.008C210.774 105.806 210.302 105.532 209.91 105.185C209.524 104.841 209.208 104.458 208.963 104.035L209.689 103.499C209.928 103.88 210.186 104.193 210.461 104.438C210.743 104.678 211.044 104.857 211.362 104.974C211.73 105.109 212.012 105.124 212.208 105.02C212.404 104.915 212.502 104.697 212.502 104.364C212.502 104.09 212.429 103.857 212.281 103.666C212.134 103.468 211.886 103.276 211.537 103.089L210.857 102.723C210.262 102.394 209.839 102.01 209.588 101.572C209.337 101.127 209.211 100.667 209.211 100.19C209.211 99.5377 209.41 99.1114 209.809 98.9116C210.207 98.7051 210.759 98.7311 211.463 98.9895C211.966 99.1738 212.398 99.4171 212.759 99.7193C213.127 100.024 213.421 100.363 213.642 100.738L212.934 101.281C212.763 101.003 212.557 100.758 212.318 100.546C212.079 100.328 211.797 100.16 211.473 100.041C210.774 99.7844 210.425 99.9631 210.425 100.577C210.425 100.838 210.498 101.064 210.645 101.255C210.792 101.446 211.044 101.639 211.399 101.835L212.07 102.208C212.628 102.523 213.041 102.894 213.311 103.319C213.581 103.744 213.715 104.211 213.715 104.72C213.715 105.04 213.663 105.315 213.559 105.544C213.455 105.767 213.302 105.94 213.1 106.061C212.897 106.176 212.646 106.231 212.346 106.225C212.052 106.222 211.712 106.149 211.325 106.008Z" fill="#340096"/>
<path d="M386.009 169.338V162.504L388.445 163.397C389.07 163.626 389.548 163.991 389.879 164.491C390.21 164.991 390.375 165.567 390.375 166.22C390.375 166.873 390.21 167.328 389.879 167.585C389.548 167.842 389.07 167.856 388.445 167.627L387.213 167.175V169.78L386.009 169.338ZM387.213 166.128L388.197 166.488C388.521 166.607 388.754 166.624 388.895 166.539C389.036 166.447 389.107 166.248 389.107 165.941V165.569C389.107 165.262 389.036 165.014 388.895 164.825C388.754 164.63 388.521 164.473 388.197 164.354L387.213 163.993V166.128ZM392.725 171.801L391.521 171.359V164.525L393.957 165.418C394.582 165.647 395.06 166.012 395.391 166.512C395.722 167.012 395.887 167.588 395.887 168.241C395.887 168.743 395.777 169.127 395.556 169.392C395.342 169.653 395.032 169.755 394.628 169.698L395.997 173L394.674 172.515L393.451 169.414L392.725 169.147V171.801ZM393.708 168.509C394.033 168.628 394.266 168.645 394.407 168.56C394.548 168.468 394.618 168.269 394.618 167.962V167.59C394.618 167.283 394.548 167.035 394.407 166.846C394.266 166.651 394.033 166.494 393.708 166.375L392.725 166.014V168.149L393.708 168.509ZM397.06 173.39V166.556L401.114 168.043V169.1L398.264 168.055V169.837L401.013 170.845V171.902L398.264 170.894V172.774L401.114 173.819V174.877L397.06 173.39ZM402.48 168.543L404.475 169.275C405.308 169.58 405.927 170.101 406.331 170.837C406.742 171.575 406.947 172.495 406.947 173.598C406.947 174.708 406.742 175.481 406.331 175.918C405.927 176.351 405.308 176.414 404.475 176.109L402.48 175.377V168.543ZM404.392 175.05C404.833 175.212 405.158 175.178 405.366 174.948C405.581 174.719 405.688 174.312 405.688 173.724V172.539C405.688 171.959 405.581 171.475 405.366 171.09C405.158 170.707 404.833 170.434 404.392 170.273L403.666 170.006V174.784L404.392 175.05ZM408.038 177.415V176.456L409.481 176.985V172.07L408.038 171.541V170.581L412.119 172.078V173.037L410.676 172.508V177.423L412.119 177.952V178.912L408.038 177.415ZM415.756 180.363C414.916 180.055 414.294 179.52 413.89 178.758C413.491 177.998 413.292 177.054 413.292 175.925C413.292 174.802 413.491 174.007 413.89 173.54C414.294 173.068 414.916 172.986 415.756 173.294C416.074 173.411 416.353 173.558 416.592 173.737C416.837 173.919 417.049 174.124 417.226 174.352C417.404 174.574 417.551 174.82 417.668 175.091C417.784 175.356 417.876 175.634 417.943 175.927L416.84 175.855C416.797 175.683 416.748 175.518 416.693 175.361C416.638 175.203 416.568 175.06 416.482 174.931C416.402 174.797 416.301 174.682 416.178 174.584C416.056 174.481 415.909 174.397 415.737 174.335C415.321 174.182 415.02 174.241 414.836 174.513C414.659 174.788 414.57 175.218 414.57 175.806V176.981C414.57 177.568 414.659 178.064 414.836 178.469C415.02 178.876 415.321 179.155 415.737 179.308C415.909 179.371 416.056 179.399 416.178 179.392C416.301 179.378 416.402 179.337 416.482 179.268C416.568 179.195 416.638 179.1 416.693 178.983C416.748 178.866 416.797 178.738 416.84 178.597L417.943 179.334C417.876 179.577 417.784 179.791 417.668 179.977C417.551 180.156 417.404 180.295 417.226 180.393C417.049 180.484 416.837 180.531 416.592 180.532C416.353 180.536 416.074 180.479 415.756 180.363ZM421.699 176.648V182.425L420.504 181.986V176.21L418.574 175.502V174.445L423.63 176.298V177.356L421.699 176.648ZM427.551 181.633L425.676 180.945V183.883L424.472 183.441V176.607L425.676 177.049V179.888L427.551 180.576V177.736L428.756 178.178V185.012L427.551 184.57V181.633ZM434.111 188.767L432.87 188.312C432.417 188.146 432.092 187.903 431.896 187.583C431.7 187.269 431.602 186.91 431.602 186.506V186.124C430.946 185.759 430.465 185.221 430.158 184.508C429.852 183.795 429.699 182.939 429.699 181.941C429.699 181.386 429.745 180.907 429.837 180.503C429.935 180.095 430.082 179.777 430.278 179.549C430.48 179.323 430.734 179.187 431.041 179.143C431.347 179.092 431.709 179.143 432.126 179.296C432.959 179.602 433.572 180.136 433.964 180.9C434.356 181.664 434.552 182.604 434.552 183.72C434.552 184.719 434.399 185.462 434.093 185.951C433.786 186.439 433.305 186.625 432.65 186.508V187.301L434.111 187.837V188.767ZM432.126 185.317C432.34 185.396 432.521 185.42 432.668 185.389C432.815 185.351 432.931 185.267 433.017 185.135C433.109 185.006 433.174 184.83 433.21 184.609C433.253 184.383 433.275 184.123 433.275 183.829V182.664C433.275 182.077 433.189 181.582 433.017 181.18C432.852 180.78 432.555 180.501 432.126 180.344C431.697 180.186 431.396 180.246 431.225 180.522C431.059 180.801 430.977 181.234 430.977 181.822V182.997C430.977 183.584 431.059 184.078 431.225 184.478C431.396 184.88 431.697 185.16 432.126 185.317Z" fill="#340096"/>
<path d="M207.375 328.062L201.043 325.74V324.068L203.926 322.507C204.406 322.245 204.763 321.978 204.994 321.706C205.226 321.426 205.342 321.08 205.342 320.669V320.532C205.342 320.075 205.222 319.683 204.981 319.358C204.741 319.032 204.406 318.791 203.977 318.633C203.506 318.46 203.145 318.465 202.896 318.648C202.648 318.831 202.467 319.103 202.356 319.464L200.889 318.337C200.983 318.061 201.116 317.813 201.288 317.592C201.468 317.366 201.687 317.19 201.944 317.065C202.21 316.943 202.523 316.885 202.884 316.889C203.244 316.884 203.656 316.966 204.119 317.136C204.599 317.312 205.024 317.541 205.393 317.823C205.771 318.098 206.088 318.411 206.345 318.761C206.603 319.102 206.796 319.47 206.925 319.865C207.062 320.262 207.13 320.667 207.13 321.078C207.13 321.471 207.07 321.81 206.95 322.095C206.839 322.383 206.68 322.64 206.474 322.866C206.268 323.083 206.024 323.276 205.741 323.447C205.466 323.62 205.166 323.784 204.84 323.939L202.884 324.907L207.375 326.554V328.062ZM211.874 329.876C211.291 329.662 210.785 329.367 210.356 328.991C209.927 328.605 209.571 328.15 209.287 327.626C209.013 327.105 208.807 326.513 208.67 325.85C208.541 325.191 208.477 324.468 208.477 323.682C208.477 322.906 208.541 322.235 208.67 321.67C208.807 321.099 209.013 320.653 209.287 320.333C209.571 320.017 209.927 319.828 210.356 319.766C210.785 319.694 211.291 319.766 211.874 319.98C213.041 320.408 213.899 321.156 214.448 322.226C214.997 323.295 215.272 324.611 215.272 326.174C215.272 327.736 214.997 328.851 214.448 329.518C213.899 330.185 213.041 330.304 211.874 329.876ZM211.874 328.437C212.492 328.664 212.925 328.589 213.174 328.215C213.431 327.834 213.56 327.228 213.56 326.396V324.696C213.56 323.865 213.431 323.169 213.174 322.608C212.925 322.042 212.492 321.646 211.874 321.419C211.256 321.193 210.819 321.27 210.562 321.65C210.313 322.025 210.188 322.628 210.188 323.46V325.16C210.188 325.991 210.313 326.69 210.562 327.257C210.819 327.817 211.256 328.211 211.874 328.437ZM211.874 325.737C211.574 325.627 211.364 325.486 211.244 325.314C211.132 325.145 211.076 324.969 211.076 324.786V324.485C211.076 324.302 211.132 324.167 211.244 324.08C211.364 323.996 211.574 324.009 211.874 324.119C212.174 324.229 212.38 324.369 212.492 324.538C212.612 324.71 212.672 324.887 212.672 325.07V325.371C212.672 325.554 212.612 325.687 212.492 325.771C212.38 325.858 212.174 325.847 211.874 325.737ZM222.808 333.721L216.476 331.399V329.727L219.359 328.166C219.84 327.903 220.196 327.637 220.427 327.365C220.659 327.085 220.775 326.739 220.775 326.327V326.19C220.775 325.733 220.655 325.342 220.414 325.016C220.174 324.691 219.84 324.449 219.411 324.292C218.939 324.119 218.578 324.124 218.33 324.307C218.081 324.49 217.901 324.762 217.789 325.123L216.322 323.996C216.416 323.72 216.549 323.471 216.721 323.251C216.901 323.025 217.12 322.849 217.377 322.724C217.643 322.602 217.956 322.543 218.317 322.548C218.677 322.543 219.089 322.625 219.552 322.795C220.033 322.971 220.457 323.2 220.826 323.481C221.204 323.757 221.521 324.07 221.778 324.42C222.036 324.761 222.229 325.129 222.358 325.523C222.495 325.921 222.564 326.325 222.564 326.737C222.564 327.13 222.503 327.468 222.383 327.753C222.272 328.041 222.113 328.299 221.907 328.525C221.701 328.741 221.457 328.935 221.174 329.105C220.899 329.279 220.599 329.443 220.273 329.598L218.317 330.566L222.808 332.213V333.721ZM226.947 329.536C227.487 329.735 227.882 329.765 228.131 329.628C228.388 329.494 228.517 329.253 228.517 328.906V328.81C228.517 328.417 228.393 328.065 228.144 327.755C227.904 327.447 227.569 327.215 227.14 327.058C226.728 326.907 226.368 326.875 226.059 326.963C225.75 327.051 225.484 327.236 225.261 327.52L224.167 326.077C224.322 325.915 224.493 325.772 224.682 325.649C224.879 325.52 225.098 325.432 225.338 325.383C225.587 325.328 225.862 325.314 226.162 325.342C226.462 325.37 226.805 325.455 227.191 325.596C227.646 325.763 228.062 325.975 228.44 326.232C228.826 326.483 229.152 326.767 229.418 327.084C229.692 327.404 229.903 327.746 230.048 328.11C230.203 328.468 230.28 328.839 230.28 329.223C230.28 329.525 230.233 329.782 230.138 329.994C230.044 330.206 229.915 330.373 229.752 330.496C229.598 330.623 229.414 330.706 229.199 330.746C228.993 330.789 228.77 330.794 228.53 330.761V330.829C228.796 330.982 229.045 331.164 229.276 331.377C229.508 331.581 229.709 331.81 229.881 332.065C230.053 332.32 230.19 332.603 230.293 332.915C230.396 333.218 230.447 333.538 230.447 333.876C230.447 334.297 230.366 334.651 230.203 334.938C230.04 335.226 229.808 335.438 229.508 335.574C229.216 335.714 228.86 335.776 228.44 335.758C228.028 335.735 227.565 335.629 227.05 335.441C226.621 335.283 226.239 335.093 225.904 334.87C225.57 334.656 225.274 334.419 225.017 334.161C224.759 333.902 224.536 333.633 224.347 333.353C224.159 333.065 223.991 332.779 223.845 332.498L225.094 331.927C225.308 332.39 225.561 332.798 225.853 333.151C226.153 333.508 226.561 333.781 227.076 333.97C227.59 334.159 227.985 334.18 228.26 334.034C228.543 333.882 228.684 333.582 228.684 333.134V333.024C228.684 332.586 228.534 332.197 228.234 331.859C227.934 331.511 227.509 331.236 226.96 331.035L226.059 330.705V329.211L226.947 329.536Z" fill="#340096"/>
<path d="M266.531 349.593L260.2 347.272V345.599L263.082 344.038C263.563 343.776 263.919 343.509 264.15 343.238C264.382 342.957 264.498 342.611 264.498 342.2V342.063C264.498 341.606 264.378 341.215 264.138 340.889C263.897 340.563 263.563 340.322 263.134 340.164C262.662 339.991 262.302 339.996 262.053 340.179C261.804 340.362 261.624 340.634 261.512 340.995L260.045 339.868C260.139 339.592 260.272 339.344 260.444 339.123C260.624 338.897 260.843 338.721 261.1 338.596C261.366 338.475 261.68 338.416 262.04 338.42C262.4 338.415 262.812 338.498 263.275 338.667C263.756 338.844 264.18 339.072 264.549 339.354C264.927 339.629 265.244 339.942 265.502 340.293C265.759 340.634 265.952 341.001 266.081 341.396C266.218 341.793 266.287 342.198 266.287 342.609C266.287 343.002 266.227 343.341 266.107 343.626C265.995 343.914 265.836 344.171 265.63 344.397C265.424 344.614 265.18 344.808 264.897 344.978C264.622 345.151 264.322 345.315 263.996 345.47L262.04 346.439L266.531 348.086V349.593ZM271.03 351.408C270.447 351.194 269.941 350.898 269.512 350.522C269.083 350.136 268.727 349.681 268.444 349.157C268.169 348.636 267.963 348.044 267.826 347.382C267.697 346.722 267.633 345.999 267.633 345.214C267.633 344.437 267.697 343.766 267.826 343.201C267.963 342.63 268.169 342.184 268.444 341.865C268.727 341.548 269.083 341.359 269.512 341.297C269.941 341.226 270.447 341.297 271.03 341.511C272.197 341.939 273.055 342.687 273.604 343.757C274.153 344.826 274.428 346.142 274.428 347.705C274.428 349.268 274.153 350.382 273.604 351.049C273.055 351.716 272.197 351.835 271.03 351.408ZM271.03 349.968C271.648 350.195 272.081 350.121 272.33 349.746C272.588 349.365 272.716 348.759 272.716 347.927V346.228C272.716 345.396 272.588 344.7 272.33 344.14C272.081 343.573 271.648 343.177 271.03 342.95C270.413 342.724 269.975 342.801 269.718 343.182C269.469 343.557 269.345 344.16 269.345 344.991V346.691C269.345 347.523 269.469 348.222 269.718 348.788C269.975 349.348 270.413 349.742 271.03 349.968ZM271.03 347.268C270.73 347.158 270.52 347.017 270.4 346.845C270.288 346.676 270.233 346.5 270.233 346.318V346.016C270.233 345.833 270.288 345.698 270.4 345.611C270.52 345.527 270.73 345.54 271.03 345.651C271.331 345.761 271.537 345.9 271.648 346.069C271.768 346.241 271.828 346.418 271.828 346.601V346.903C271.828 347.085 271.768 347.219 271.648 347.303C271.537 347.39 271.331 347.378 271.03 347.268ZM281.964 355.252L275.633 352.931V351.258L278.515 349.697C278.996 349.435 279.352 349.168 279.583 348.896C279.815 348.616 279.931 348.27 279.931 347.859V347.722C279.931 347.265 279.811 346.873 279.571 346.548C279.33 346.222 278.996 345.981 278.567 345.823C278.095 345.65 277.735 345.655 277.486 345.838C277.237 346.021 277.057 346.293 276.945 346.654L275.478 345.527C275.573 345.251 275.706 345.003 275.877 344.782C276.057 344.556 276.276 344.38 276.533 344.255C276.799 344.133 277.113 344.075 277.473 344.079C277.833 344.074 278.245 344.156 278.708 344.326C279.189 344.502 279.613 344.731 279.982 345.013C280.36 345.288 280.677 345.601 280.935 345.951C281.192 346.292 281.385 346.66 281.514 347.055C281.651 347.452 281.72 347.857 281.72 348.268C281.72 348.661 281.66 349 281.54 349.285C281.428 349.573 281.269 349.83 281.063 350.056C280.858 350.273 280.613 350.466 280.33 350.637C280.055 350.81 279.755 350.974 279.429 351.129L277.473 352.098L281.964 353.744V355.252ZM287.12 357.143V355.292L282.963 353.768V352.233L286.631 347.396L288.728 348.165V354.484L289.938 354.927V356.325L288.728 355.882V357.732L287.12 357.143ZM284.34 352.875L287.12 353.894V349.329L287.017 349.292L284.34 352.875Z" fill="#340096"/>
<path opacity="0.25" d="M159.859 285.787V194.697" stroke="#3B009B" stroke-linejoin="round" stroke-dasharray="2 2"/>
<path opacity="0.25" d="M219.312 307.428V198.178" stroke="#3B009B" stroke-linejoin="round" stroke-dasharray="2 2"/>
<path opacity="0.25" d="M278.758 329.067V235.697" stroke="#3B009B" stroke-linejoin="round" stroke-dasharray="2 2"/>
<path d="M159.86 198.128C161.754 198.128 163.29 196.592 163.29 194.698C163.29 192.803 161.754 191.268 159.86 191.268C157.965 191.268 156.43 192.803 156.43 194.698C156.43 196.592 157.965 198.128 159.86 198.128Z" fill="white" stroke="#FF005E" stroke-width="2" stroke-miterlimit="10"/>
<path opacity="0.08" d="M159.859 191.268C160.769 191.268 161.641 191.629 162.285 192.272C162.928 192.915 163.289 193.788 163.289 194.698C163.289 195.607 162.928 196.48 162.285 197.123C161.641 197.766 160.769 198.128 159.859 198.128" fill="#FF005E"/>
<path d="M159.859 191.268C160.769 191.268 161.641 191.629 162.285 192.272C162.928 192.915 163.289 193.788 163.289 194.698C163.289 195.607 162.928 196.48 162.285 197.123C161.641 197.766 160.769 198.128 159.859 198.128" stroke="#FF005E" stroke-width="2" stroke-miterlimit="10"/>
<path d="M219.313 201.608C221.207 201.608 222.743 200.072 222.743 198.178C222.743 196.284 221.207 194.748 219.313 194.748C217.418 194.748 215.883 196.284 215.883 198.178C215.883 200.072 217.418 201.608 219.313 201.608Z" fill="white" stroke="#FF005E" stroke-width="2" stroke-miterlimit="10"/>
<path opacity="0.08" d="M219.312 194.748C220.222 194.748 221.095 195.109 221.738 195.753C222.381 196.396 222.743 197.268 222.743 198.178C222.743 199.088 222.381 199.96 221.738 200.603C221.095 201.247 220.222 201.608 219.312 201.608" fill="#FF005E"/>
<path d="M219.312 194.748C220.222 194.748 221.095 195.109 221.738 195.753C222.381 196.396 222.743 197.268 222.743 198.178C222.743 199.088 222.381 199.96 221.738 200.603C221.095 201.247 220.222 201.608 219.312 201.608" stroke="#FF005E" stroke-width="2" stroke-miterlimit="10"/>
<path d="M278.758 239.128C280.652 239.128 282.188 237.592 282.188 235.698C282.188 233.803 280.652 232.268 278.758 232.268C276.864 232.268 275.328 233.803 275.328 235.698C275.328 237.592 276.864 239.128 278.758 239.128Z" fill="white" stroke="#FF005E" stroke-width="2" stroke-miterlimit="10"/>
<path opacity="0.08" d="M278.758 232.268C279.668 232.268 280.54 232.629 281.183 233.272C281.826 233.915 282.188 234.788 282.188 235.698C282.188 236.607 281.826 237.48 281.183 238.123C280.54 238.766 279.668 239.128 278.758 239.128" fill="#FF005E"/>
<path d="M278.758 232.268C279.668 232.268 280.54 232.629 281.183 233.272C281.826 233.915 282.188 234.788 282.188 235.698C282.188 236.607 281.826 237.48 281.183 238.123C280.54 238.766 279.668 239.128 278.758 239.128" stroke="#FF005E" stroke-width="2" stroke-miterlimit="10"/>
</svg>
